<svg xmlns="http://www.w3.org/2000/svg" xmlns:xlink="http://www.w3.org/1999/xlink" width="195" height="87" viewBox="0 0 195 87">
  <defs>
    <clipPath id="clip-path">
      <rect id="Rectangle_18188" data-name="Rectangle 18188" width="195" height="87" transform="translate(0.374 0.038)" fill="#fff" opacity="0.379"/>
    </clipPath>
  </defs>
  <g id="Mask_Group_307" data-name="Mask Group 307" transform="translate(-0.374 -0.038)" clip-path="url(#clip-path)">
    <g id="Group_46800" data-name="Group 46800" transform="translate(0.158 11.336)">
      <path id="Path_108780" data-name="Path 108780" d="M749.126,396.208a2.737,2.737,0,0,0-.456-1.661,2.858,2.858,0,0,0-1.237-.946,7.048,7.048,0,0,0-1.791-.456,16.878,16.878,0,0,0-2.117-.13,8.106,8.106,0,0,1,2.086,5.211v1.433a4.737,4.737,0,0,1-.751,2.605,7.039,7.039,0,0,1-1.6,1.824,5.725,5.725,0,0,1,1.6,1.889,7.541,7.541,0,0,1,.751,3.713v4.3a5.1,5.1,0,0,1-1.272,3.713,7.817,7.817,0,0,1-2.964,1.92,11.662,11.662,0,0,1-3.322.718q-1.628.1-2.28.1t-2.28-.1a12,12,0,0,1-3.354-.718,8.071,8.071,0,0,1-3.029-1.92,5.111,5.111,0,0,1-1.3-3.778V399.659a12.147,12.147,0,0,1,.579-3.615,7.17,7.17,0,0,1,1.679-2.964,7.418,7.418,0,0,0-4.25,1.726,4.335,4.335,0,0,0-1.525,3.291v20.385a1.57,1.57,0,0,1-1.042,1.467,5.958,5.958,0,0,1-2.54.487,5.4,5.4,0,0,1-2.377-.487,1.567,1.567,0,0,1-1.01-1.467V396.858a9.356,9.356,0,0,1,3.125-7.423q3.121-2.736,9.3-2.737a25.686,25.686,0,0,1,4,.358,12.125,12.125,0,0,1,4,1.335,17.892,17.892,0,0,1,4.263-1.27,25.163,25.163,0,0,1,4.067-.358,21.688,21.688,0,0,1,4.684.49,9.191,9.191,0,0,1,3.839,1.791,11.066,11.066,0,0,1,4.749-1.826,37.759,37.759,0,0,1,6.441-.521,32.885,32.885,0,0,1,5.824.489,14.09,14.09,0,0,1,4.684,1.661,8.387,8.387,0,0,1,3.092,3.126,9.673,9.673,0,0,1,1.106,4.82v18.044a3.722,3.722,0,0,1-.713,2.182,6.778,6.778,0,0,1-1.949,1.789,9.84,9.84,0,0,1-2.985,1.2,16.011,16.011,0,0,1-3.765.423,15.483,15.483,0,0,1-3.765-.423,10.337,10.337,0,0,1-2.953-1.2,6.232,6.232,0,0,1-1.949-1.789,3.842,3.842,0,0,1-.68-2.182V402.461a8.407,8.407,0,0,1,.554-3.224,5.623,5.623,0,0,1,1.5-2.151,5.7,5.7,0,0,1,2.182-1.171,9.322,9.322,0,0,1,2.605-.36,18.287,18.287,0,0,1,2.77.2,4.017,4.017,0,0,1,2.18,1.04v-.261a2.473,2.473,0,0,0-.948-2.05,6.312,6.312,0,0,0-2.224-1.109,11.8,11.8,0,0,0-2.584-.423q-1.308-.062-1.963-.063c-.436,0-1.08.022-1.929.063a12.963,12.963,0,0,0-2.553.393,6.888,6.888,0,0,0-2.256,1.008,2.213,2.213,0,0,0-.981,1.923v22.274a1.565,1.565,0,0,1-1.033,1.466,5.49,5.49,0,0,1-2.386.49,5.837,5.837,0,0,1-2.519-.49,1.563,1.563,0,0,1-1.031-1.466Zm-10.486,2.669a5.135,5.135,0,0,0-.534-1.92,4.725,4.725,0,0,0-2.263-2.119,5.227,5.227,0,0,0-2.464,2.54,7.284,7.284,0,0,0-.6,2.672v10.1a7.468,7.468,0,0,0,.233,2.117,2.711,2.711,0,0,0,.633,1.14,1.772,1.772,0,0,0,.932.487,6.268,6.268,0,0,0,1.133.1,10.357,10.357,0,0,0,1.2-.065,1.6,1.6,0,0,0,.932-.456,2.483,2.483,0,0,0,.6-1.142,8.705,8.705,0,0,0,.2-2.117,5.358,5.358,0,0,0-.266-1.789c-.175-.5-.418-.749-.726-.749h-1.388a1.53,1.53,0,0,1-1.456-1.042,6.23,6.23,0,0,1-.463-2.542,5.815,5.815,0,0,1,.463-2.441,1.528,1.528,0,0,1,1.456-1.011h1.388a.826.826,0,0,0,.726-.391A2.552,2.552,0,0,0,738.64,398.877Zm28.074,13.808q0,1.563,2.441,1.563,2.377,0,2.377-1.563v-9.312a1.279,1.279,0,0,0-.792-1.27,3.822,3.822,0,0,0-1.585-.36q-2.442,0-2.441,1.759Z" transform="translate(-715.322 -375.364)" fill="#fff"/>
      <path id="Path_108781" data-name="Path 108781" d="M772.487,418.431a1.534,1.534,0,0,1-1.042,1.4,5.957,5.957,0,0,1-2.54.487,5.4,5.4,0,0,1-2.378-.487,1.529,1.529,0,0,1-1.01-1.4v-23.9q0-.716-1.042-1.109a6.69,6.69,0,0,0-2.345-.391,6.032,6.032,0,0,0-2.182.391q-1.01.394-1.01,1.109v23.9a1.532,1.532,0,0,1-1.042,1.4,5.961,5.961,0,0,1-2.54.487,5.4,5.4,0,0,1-2.377-.487,1.526,1.526,0,0,1-1.01-1.4V392.443a3.338,3.338,0,0,1,.847-2.182,7.929,7.929,0,0,1,2.247-1.789,12.224,12.224,0,0,1,3.255-1.2,17.408,17.408,0,0,1,3.877-.425,17.827,17.827,0,0,1,3.908.425,12.2,12.2,0,0,1,3.289,1.2,7.954,7.954,0,0,1,2.247,1.789,3.348,3.348,0,0,1,.847,2.182Z" transform="translate(-685.664 -375.247)" fill="#fff"/>
      <path id="Path_108782" data-name="Path 108782" d="M771.043,388.119q0-1.5-2.28-1.5-2.087,0-2.084,1.5v1.5a1.5,1.5,0,0,1-1.009,1.433,6.1,6.1,0,0,1-2.51.456,5.972,5.972,0,0,1-2.41-.456,1.505,1.505,0,0,1-1.04-1.433v-3.582a3.957,3.957,0,0,1,.649-2.18,6.129,6.129,0,0,1,1.858-1.791,9.552,9.552,0,0,1,2.9-1.2,15.216,15.216,0,0,1,3.714-.425,12.144,12.144,0,0,1,6.644,1.63,4.691,4.691,0,0,1,2.538,3.971v37.582a1.532,1.532,0,0,1-1.04,1.4,5.968,5.968,0,0,1-2.54.487,5.412,5.412,0,0,1-2.379-.487,1.527,1.527,0,0,1-1.008-1.4Z" transform="translate(-679.4 -380.433)" fill="#fff"/>
      <path id="Path_108783" data-name="Path 108783" d="M778.683,386.841a10.416,10.416,0,0,1,3.487.588,6.632,6.632,0,0,1,3.094,2.669,5.855,5.855,0,0,1,1.692-1.661,9.6,9.6,0,0,1,2.052-.977,11.1,11.1,0,0,1,2.084-.487,14.608,14.608,0,0,1,1.858-.132q.062,0,1.4.1a9.514,9.514,0,0,1,2.866.72,8.179,8.179,0,0,1,2.8,1.925,5.114,5.114,0,0,1,1.27,3.722v14.3a10.556,10.556,0,0,1-.684,3.722,6.276,6.276,0,0,1-1.92,2.806h1.561a6.847,6.847,0,0,0,2.605-.391,2.892,2.892,0,0,0,1.337-1.044,3.282,3.282,0,0,0,.487-1.569q.065-.912.065-2.023V388.734a1.531,1.531,0,0,1,1.044-1.4,5.941,5.941,0,0,1,2.539-.49,5.4,5.4,0,0,1,2.377.488,1.526,1.526,0,0,1,1.01,1.4v22.6a9.914,9.914,0,0,1-.781,4.167,7.165,7.165,0,0,1-2.213,2.77,9.421,9.421,0,0,1-3.454,1.563,19.136,19.136,0,0,1-4.494.487,33.055,33.055,0,0,1-5.048-.358,14.7,14.7,0,0,1-4.2-1.27,16.594,16.594,0,0,1-4.3,1.3,31.171,31.171,0,0,1-5.082.391,19,19,0,0,1-4.492-.49,9.338,9.338,0,0,1-3.452-1.561,7.137,7.137,0,0,1-2.216-2.77,9.911,9.911,0,0,1-.782-4.167V393.226a5.658,5.658,0,0,1,2.149-4.657A8.259,8.259,0,0,1,778.683,386.841Zm2.931,7.49a1.222,1.222,0,0,0-.554-1.01,2.3,2.3,0,0,0-1.2-.293,1.908,1.908,0,0,0-1.173.393,1.309,1.309,0,0,0-.521,1.111v14.635c0,.74.024,1.417.065,2.024a3.234,3.234,0,0,0,.49,1.571,2.874,2.874,0,0,0,1.333,1.044,6.841,6.841,0,0,0,2.605.393,3.465,3.465,0,0,1,.782-.034,2.185,2.185,0,0,0,.651-.033A8.1,8.1,0,0,1,782.3,411.2a10.486,10.486,0,0,1-.684-3.711Zm12.7,2.866a4.542,4.542,0,0,0-.783-3.094,2.754,2.754,0,0,0-2.082-.814,3.035,3.035,0,0,0-2.021.716q-.847.719-.845,3.126V407.1a7.418,7.418,0,0,0,.552,2.669,5.1,5.1,0,0,0,2.314,2.477,5.394,5.394,0,0,0,2.278-2.443,6.859,6.859,0,0,0,.588-2.638Z" transform="translate(-670.107 -375.247)" fill="#fff"/>
      <path id="Path_108784" data-name="Path 108784" d="M802.065,399.87a1.526,1.526,0,0,1-1.042,1.4,5.933,5.933,0,0,1-2.54.49,5.372,5.372,0,0,1-2.378-.49,1.52,1.52,0,0,1-1.009-1.4v-7.427a3.586,3.586,0,0,1,.749-2.182,7.079,7.079,0,0,1,2.019-1.789,10.384,10.384,0,0,1,3.029-1.2,16.106,16.106,0,0,1,3.778-.425,16.524,16.524,0,0,1,3.81.425,10.378,10.378,0,0,1,3.061,1.2,7.125,7.125,0,0,1,2.019,1.789,3.609,3.609,0,0,1,.749,2.182V414.72a3.6,3.6,0,0,1-.749,2.182,7.1,7.1,0,0,1-2.019,1.789,10.329,10.329,0,0,1-3.061,1.2,16.523,16.523,0,0,1-3.81.423,16.106,16.106,0,0,1-3.778-.423,10.334,10.334,0,0,1-3.029-1.2,7.053,7.053,0,0,1-2.019-1.789,3.582,3.582,0,0,1-.749-2.182v-7.492a1.52,1.52,0,0,1,1.009-1.4,5.373,5.373,0,0,1,2.378-.49,5.933,5.933,0,0,1,2.54.49,1.526,1.526,0,0,1,1.042,1.4v5.406a1.212,1.212,0,0,0,.717,1.109,3.958,3.958,0,0,0,1.889.389,4.134,4.134,0,0,0,1.954-.389,1.218,1.218,0,0,0,.716-1.109V394.529a1.22,1.22,0,0,0-.716-1.109,4.131,4.131,0,0,0-1.954-.391,3.957,3.957,0,0,0-1.889.391,1.214,1.214,0,0,0-.717,1.109Z" transform="translate(-650.764 -375.247)" fill="#fff"/>
      <path id="Path_108785" data-name="Path 108785" d="M806.976,398.116a3.83,3.83,0,0,1,.684-2.186,6.146,6.146,0,0,1,1.887-1.764,10.119,10.119,0,0,1,2.9-1.176,15.489,15.489,0,0,1,3.778-.425,15.214,15.214,0,0,1,3.713.425,10.6,10.6,0,0,1,2.931,1.176,6.087,6.087,0,0,1,1.921,1.764,3.831,3.831,0,0,1,.684,2.186v11.956a3.838,3.838,0,0,1-.684,2.189,6.447,6.447,0,0,1-1.921,1.795,9.948,9.948,0,0,1-2.931,1.209,15.308,15.308,0,0,1-3.713.423,12.288,12.288,0,0,1-6.678-1.632,4.7,4.7,0,0,1-2.571-3.984ZM813.945,408q0,1.5,2.214,1.5,2.345,0,2.345-1.5v-7.751q0-1.5-2.345-1.5-2.217,0-2.214,1.5Z" transform="translate(-641.149 -370.615)" fill="#fff"/>
      <path id="Path_108786" data-name="Path 108786" d="M818.855,388.73a1.531,1.531,0,0,1,1.044-1.4,5.945,5.945,0,0,1,2.54-.488,5.4,5.4,0,0,1,2.375.488,1.528,1.528,0,0,1,1.011,1.4v19.8a1.524,1.524,0,0,1-1.011,1.4,5.37,5.37,0,0,1-2.375.49,5.917,5.917,0,0,1-2.54-.49,1.527,1.527,0,0,1-1.044-1.4Zm6.122,29.7c0,.3-.259.545-.78.716a5.5,5.5,0,0,1-1.759.261,5.95,5.95,0,0,1-1.889-.261c-.521-.172-.783-.412-.783-.716v-3.973c0-.3.25-.543.749-.715a5.478,5.478,0,0,1,1.793-.262,6.007,6.007,0,0,1,1.889.262c.521.172.78.412.78.715Z" transform="translate(-631.536 -375.247)" fill="#fff"/>
    </g>
  </g>
</svg>
