<svg xmlns="http://www.w3.org/2000/svg" xmlns:xlink="http://www.w3.org/1999/xlink" width="438" height="438" viewBox="0 0 438 438">
  <defs>
    <clipPath id="clip-path">
      <circle id="Ellipse_4577" data-name="Ellipse 4577" cx="219" cy="219" r="219" fill="#fff" stroke="#707070" stroke-width="1"/>
    </clipPath>
  </defs>
  <g id="Group_44812" data-name="Group 44812" transform="translate(-550 -348)">
    <g id="Group_44787" data-name="Group 44787" transform="translate(9965 12188)">
      <circle id="Ellipse_4576" data-name="Ellipse 4576" cx="219" cy="219" r="219" transform="translate(-9415 -11840)" fill="#f7fdfb"/>
    </g>
    <g id="Group_36214" data-name="Group 36214" transform="translate(478.666 342.407)">
      <g id="Group_27880" data-name="Group 27880" transform="translate(116.773 40.666)">
        <rect id="Rectangle_5596" data-name="Rectangle 5596" width="347.122" height="295.904" rx="10" transform="translate(0 0)" fill="#fff" opacity="0.6"/>
        <rect id="Rectangle_5597" data-name="Rectangle 5597" width="347.122" height="32.835" rx="6" transform="translate(0 0)" fill="#5c9cf4"/>
        <g id="Group_27872" data-name="Group 27872" transform="translate(14.037 12.294)">
          <path id="Path_81108" data-name="Path 81108" d="M106.131,85.582a3.926,3.926,0,1,1,3.926,3.925A3.926,3.926,0,0,1,106.131,85.582Z" transform="translate(-106.131 -81.657)" fill="#dae6ff"/>
          <path id="Path_81109" data-name="Path 81109" d="M120.844,85.582a3.925,3.925,0,1,1,3.925,3.925A3.925,3.925,0,0,1,120.844,85.582Z" transform="translate(-104.367 -81.657)" fill="#dae6ff"/>
          <path id="Path_81110" data-name="Path 81110" d="M135.556,85.582a3.925,3.925,0,1,1,3.925,3.925A3.925,3.925,0,0,1,135.556,85.582Z" transform="translate(-102.603 -81.657)" fill="#dae6ff"/>
        </g>
        <rect id="Rectangle_5598" data-name="Rectangle 5598" width="98.398" height="98.398" transform="translate(27.509 58.888)" fill="#c8dffd" opacity="0.5"/>
        <path id="Path_81111" data-name="Path 81111" d="M308.579,130.607H230.311a3.718,3.718,0,0,1-3.719-3.718h0a3.719,3.719,0,0,1,3.719-3.719h78.267a3.718,3.718,0,0,1,3.718,3.719h0A3.718,3.718,0,0,1,308.579,130.607Z" transform="translate(-77.649 -64.385)" fill="#7798f8" opacity="0.5"/>
        <path id="Path_81112" data-name="Path 81112" d="M392.151,126.154H313.883a3.719,3.719,0,0,1-3.718-3.719h0a3.718,3.718,0,0,1,3.718-3.718h78.267a3.718,3.718,0,0,1,3.718,3.718h0A3.719,3.719,0,0,1,392.151,126.154Z" transform="translate(-67.628 -64.919)" fill="#7798f8" opacity="0.5"/>
        <g id="Group_27873" data-name="Group 27873" transform="translate(148.943 90.03)" opacity="0.3">
          <path id="Path_81113" data-name="Path 81113" d="M324.072,155.889H229a2.411,2.411,0,0,1-2.411-2.41h0a2.41,2.41,0,0,1,2.411-2.41h95.068a2.409,2.409,0,0,1,2.41,2.41h0A2.41,2.41,0,0,1,324.072,155.889Z" transform="translate(-226.592 -151.069)" fill="#b8d0fc"/>
          <path id="Path_81114" data-name="Path 81114" d="M348.85,155.889h-25.1a2.411,2.411,0,0,1-2.41-2.41h0a2.41,2.41,0,0,1,2.41-2.41h25.1a2.409,2.409,0,0,1,2.41,2.41h0A2.41,2.41,0,0,1,348.85,155.889Z" transform="translate(-215.23 -151.069)" fill="#b8d0fc"/>
          <path id="Path_81115" data-name="Path 81115" d="M264.873,169.237H229a2.411,2.411,0,0,1-2.411-2.411h0a2.411,2.411,0,0,1,2.411-2.41h35.87a2.41,2.41,0,0,1,2.41,2.41h0A2.41,2.41,0,0,1,264.873,169.237Z" transform="translate(-226.592 -149.469)" fill="#b8d0fc"/>
          <path id="Path_81116" data-name="Path 81116" d="M318.174,169.237H269.022a2.41,2.41,0,0,1-2.41-2.411h0a2.41,2.41,0,0,1,2.41-2.41h49.152a2.41,2.41,0,0,1,2.41,2.41h0A2.41,2.41,0,0,1,318.174,169.237Z" transform="translate(-221.793 -149.469)" fill="#b8d0fc"/>
          <path id="Path_81117" data-name="Path 81117" d="M348.85,169.237h-25.1a2.411,2.411,0,0,1-2.41-2.411h0a2.411,2.411,0,0,1,2.41-2.41h25.1a2.41,2.41,0,0,1,2.41,2.41h0A2.41,2.41,0,0,1,348.85,169.237Z" transform="translate(-215.23 -149.469)" fill="#b8d0fc"/>
          <path id="Path_81118" data-name="Path 81118" d="M277.675,180.778H229a2.411,2.411,0,0,1-2.411-2.41h0a2.41,2.41,0,0,1,2.411-2.41h48.671a2.41,2.41,0,0,1,2.411,2.41h0A2.411,2.411,0,0,1,277.675,180.778Z" transform="translate(-226.592 -148.085)" fill="#b8d0fc"/>
          <path id="Path_81119" data-name="Path 81119" d="M363.98,180.778h-79.6a2.41,2.41,0,0,1-2.41-2.41h0a2.409,2.409,0,0,1,2.41-2.41h79.6a2.41,2.41,0,0,1,2.41,2.41h0A2.411,2.411,0,0,1,363.98,180.778Z" transform="translate(-219.952 -148.085)" fill="#b8d0fc"/>
        </g>
        <g id="Group_27874" data-name="Group 27874" transform="translate(148.943 137.517)" opacity="0.3">
          <path id="Path_81120" data-name="Path 81120" d="M324.072,198.292H229a2.41,2.41,0,0,1-2.411-2.41h0a2.41,2.41,0,0,1,2.411-2.41h95.068a2.409,2.409,0,0,1,2.41,2.41h0A2.409,2.409,0,0,1,324.072,198.292Z" transform="translate(-226.592 -193.472)" fill="#b8d0fc"/>
          <path id="Path_81121" data-name="Path 81121" d="M348.85,198.292h-25.1a2.41,2.41,0,0,1-2.41-2.41h0a2.41,2.41,0,0,1,2.41-2.41h25.1a2.409,2.409,0,0,1,2.41,2.41h0A2.409,2.409,0,0,1,348.85,198.292Z" transform="translate(-215.23 -193.472)" fill="#b8d0fc"/>
          <path id="Path_81122" data-name="Path 81122" d="M264.873,211.64H229a2.411,2.411,0,0,1-2.411-2.41h0A2.41,2.41,0,0,1,229,206.82h35.87a2.409,2.409,0,0,1,2.41,2.41h0A2.41,2.41,0,0,1,264.873,211.64Z" transform="translate(-226.592 -191.871)" fill="#b8d0fc"/>
          <path id="Path_81123" data-name="Path 81123" d="M318.174,211.64H269.022a2.41,2.41,0,0,1-2.41-2.41h0a2.409,2.409,0,0,1,2.41-2.41h49.152a2.409,2.409,0,0,1,2.41,2.41h0A2.41,2.41,0,0,1,318.174,211.64Z" transform="translate(-221.793 -191.871)" fill="#b8d0fc"/>
        </g>
        <g id="Group_27875" data-name="Group 27875" transform="translate(44.173 73.556)">
          <path id="Path_81124" data-name="Path 81124" d="M160.495,136.359h10.162L198.111,199.2H186.524l-6.33-15.065h-29.5L144.272,199.2H133.04Zm15.689,38.062L165.4,149.463l-10.7,24.958Z" transform="translate(-133.04 -136.359)" fill="#b8d0fc"/>
        </g>
        <g id="Group_27876" data-name="Group 27876" transform="translate(27.509 177.106)">
          <rect id="Rectangle_5599" data-name="Rectangle 5599" width="54.966" height="10.611" fill="#ff912b"/>
          <rect id="Rectangle_5600" data-name="Rectangle 5600" width="54.966" height="10.611" transform="translate(0 10.611)" fill="#fc7600"/>
          <rect id="Rectangle_5601" data-name="Rectangle 5601" width="54.966" height="10.611" transform="translate(0 21.223)" fill="#4b49f2"/>
        </g>
        <g id="Group_27877" data-name="Group 27877" transform="translate(90.44 178.531)">
          <path id="Path_81125" data-name="Path 81125" d="M206.888,234.677H176.644a2.291,2.291,0,0,1-2.291-2.291h0a2.291,2.291,0,0,1,2.291-2.291h30.243a2.291,2.291,0,0,1,2.291,2.291h0A2.291,2.291,0,0,1,206.888,234.677Z" transform="translate(-174.353 -230.094)" fill="#b8d0fc"/>
          <path id="Path_81126" data-name="Path 81126" d="M196.7,241.89H176.644a2.291,2.291,0,0,1-2.291-2.291h0a2.291,2.291,0,0,1,2.291-2.291H196.7a2.291,2.291,0,0,1,2.291,2.291h0A2.291,2.291,0,0,1,196.7,241.89Z" transform="translate(-174.353 -229.229)" fill="#b8d0fc"/>
        </g>
        <g id="Group_27878" data-name="Group 27878" transform="translate(27.509 231.971)">
          <rect id="Rectangle_5602" data-name="Rectangle 5602" width="54.966" height="21.682" fill="#ff912b"/>
          <rect id="Rectangle_5603" data-name="Rectangle 5603" width="54.966" height="15.507" transform="translate(0 16.328)" fill="#c23b35"/>
          <path id="Path_81127" data-name="Path 81127" d="M118.161,277.813l19.719,16.563-19.719,15.271Z" transform="translate(-118.161 -277.813)" fill="#4b49f2"/>
        </g>
        <g id="Group_27879" data-name="Group 27879" transform="translate(90.44 233.396)">
          <path id="Path_81128" data-name="Path 81128" d="M206.888,283.668H176.644a2.291,2.291,0,0,1-2.291-2.291h0a2.291,2.291,0,0,1,2.291-2.291h30.243a2.291,2.291,0,0,1,2.291,2.291h0A2.291,2.291,0,0,1,206.888,283.668Z" transform="translate(-174.353 -279.085)" fill="#b8d0fc"/>
          <path id="Path_81129" data-name="Path 81129" d="M196.7,290.88H176.644a2.291,2.291,0,0,1-2.291-2.291h0a2.292,2.292,0,0,1,2.291-2.291H196.7a2.292,2.292,0,0,1,2.291,2.291h0A2.291,2.291,0,0,1,196.7,290.88Z" transform="translate(-174.353 -278.22)" fill="#b8d0fc"/>
        </g>
      </g>
    </g>
    <g id="Mask_Group_268" data-name="Mask Group 268" transform="translate(550 348)" clip-path="url(#clip-path)">
      <g id="Group_44811" data-name="Group 44811" transform="translate(20.075 27.869)">
        <g id="Group_44798" data-name="Group 44798" transform="translate(0 34.595)">
          <g id="Group_44797" data-name="Group 44797">
            <path id="Path_105766" data-name="Path 105766" d="M219.928,140.509H193.164V283.758h8.943A53.95,53.95,0,0,0,255.9,229.966V176.48A36.076,36.076,0,0,0,219.928,140.509Z" transform="translate(-103.28 -48.872)" fill="#252732"/>
            <g id="Group_44789" data-name="Group 44789" transform="translate(0 76.65)">
              <g id="Group_44788" data-name="Group 44788" transform="translate(4.798 41.628)">
                <path id="Path_105767" data-name="Path 105767" d="M187.866,186.66s-18.91,43.543-28.413,47.666-15.217-.621-15.217-.621a36.871,36.871,0,0,1-2.9-2.571c-6.41-10.192-6.587-37.514-6.08-43.1.444-4.842-1.662-17.842-1.776-22.7-.026-1.074-.149-4.788-.149-4.788,7.04-2.884,11.163-.074,12.433-.107l.235,0s-.007.092-.021.266c0,.107-.014.245-.021.415v.01c-.011.23-.026.51-.036.845v0c0,.054,0,.107,0,.164,0,.088,0,.188,0,.284v.1a55.249,55.249,0,0,0,2.773,18.711,129.568,129.568,0,0,1,4.58,16.848v0c.492,2.423.737,3.938.737,3.938a15.984,15.984,0,0,1,4.988-4.828C160.77,196.014,168,180.47,168,180.47,175.305,180.045,187.866,186.66,187.866,186.66Z" transform="translate(-133.329 -159.244)" fill="#f5b183"/>
                <path id="Path_105768" data-name="Path 105768" d="M147.169,202.318a36.07,36.07,0,0,1,1.645-11.823s-.245-1.516-.738-3.94C144.211,195.869,145.707,200.294,147.169,202.318Z" transform="translate(-128.143 -147.719)" fill="#ef9168"/>
              </g>
              <path id="Path_105769" data-name="Path 105769" d="M130.9,152.822c.461,2.106.2,11.184,1.382,15.132a29.272,29.272,0,0,0,2.3,5.857l.765,4.128.125.67s9.141-1.6,10.83-2.835a.611.611,0,0,0,.256-.291.218.218,0,0,0,.006-.112l0-.014h0a1.981,1.981,0,0,1,.027-.641V174.7a3.451,3.451,0,0,1,.559-1.3v0h0a6.527,6.527,0,0,1,2.169-1.9c3.158-1.841,5.461-3.288,5.593-6.71s.131-5.658.592-6.975-1.776-6.348-2.368-6.857-2.58.476-2.112,3.7.137,5.988-.52,5.923-1.054-1.841-1.514-4.078a19.606,19.606,0,0,1-.065-6.184c.2-1.516,1.711-10.462,1.317-13.424s-.4-3.552-1.644-3.684-2.2,3.736-2.338,6.189c-.108,1.923-.6,7.976-1.226,8.037-.91.092-.384-10.342-.384-12.448s-.146-5.624-2.371-4.934c-1.877.583-1.381,10.132-1.577,11.975,0,0-.09,4.078-.573,4.956s-.83-.613-.964-1.273a64.685,64.685,0,0,1,0-8.29c.22-2.1.417-4.6-.833-4.934s-2.3.988-2.433,5.857-.438,8.552-.384,10.065-1.261,1.185-1.591-.327-.461-7.831-1.315-8.424-2.5-.131-2.632,2.567A58.735,58.735,0,0,0,130.9,152.822Z" transform="translate(-129.955 -129.97)" fill="#f5b183"/>
              <path id="Path_105770" data-name="Path 105770" d="M144.3,149.712s-6.335,2.112-5.313,9.741c0,0-2.015-1.564-.658-5.449A6.549,6.549,0,0,1,144.3,149.712Z" transform="translate(-126.617 -121.639)" fill="#ef9168"/>
              <path id="Path_105771" data-name="Path 105771" d="M146.941,145.263a12.654,12.654,0,0,0-6.971-1.952c-4.178.045-8.356,4.178-8.356,4.178S138.79,142.948,146.941,145.263Z" transform="translate(-129.254 -124.341)" fill="#ef9168"/>
              <path id="Path_105772" data-name="Path 105772" d="M143.431,160.27c0,.107-.014.245-.021.415v.01c-.011.23-.026.51-.036.845v0c0,.054,0,.107,0,.164,0,.088,0,.188,0,.284v.1a6.943,6.943,0,0,1-4.009.181A7.384,7.384,0,0,0,143.431,160.27Z" transform="translate(-125.987 -117.183)" fill="#ef9168"/>
            </g>
            <path id="Path_105773" data-name="Path 105773" d="M179.224,189.906c-9.341,1.56-14.96.586-18.229-.755-3.182-1.3-4.142-2.955-4.142-2.955,5.741-14.994,17.939-36.238,17.939-36.238a7.588,7.588,0,0,1,.96,1.6C180,160.686,179.224,189.906,179.224,189.906Z" transform="translate(-118.604 -44.884)" fill="#a3c524"/>
            <path id="Path_105774" data-name="Path 105774" d="M177.995,189.432c-9.341,1.56-14.96.586-18.229-.755l14.756-37.594C178.77,160.211,177.995,189.432,177.995,189.432Z" transform="translate(-117.375 -44.41)" fill="#252732" opacity="0.2"/>
            <path id="Path_105775" data-name="Path 105775" d="M245.733,360.017a64.3,64.3,0,0,1,4.4,32.605c-2.446,17.913-10.166,60.969-10.166,60.969s-10.711,5.163-15.6,1.907c-3.013-9.95-3.164-53.79-7.949-86.65l-4.559-69.371s-.316.3-2.762.178c.114,8.927-.512,16.246-2.776,23.6,0,0-8.794,33.545-20.518,52.109,0,0,6.538,2.339,13.528,18.368a92.735,92.735,0,0,1,6.4,21.721l9.236,44.045c-3.882,4.283-13.118,2.412-19.163-6.429,0,0-29.215-50.675-40.288-62.725s16.2-107.475,15.757-123.435l22.27,1.605a14.238,14.238,0,0,1,2.683-2.908c15.959-13.353,53.9-13.5,53.9-13.5s10.258,14.541,10.584,42.339S249.424,328.317,245.733,360.017Z" transform="translate(-120.285 -1.777)" fill="#252732"/>
            <g id="Group_44790" data-name="Group 44790" transform="translate(58.344 296.781)">
              <path id="Path_105776" data-name="Path 105776" d="M190.424,284.944l-1.413-.171c0,.021-.252,2.076-.867,5.6l1.4.245C190.167,287.053,190.421,284.964,190.424,284.944Z" transform="translate(-163.743 -284.773)" fill="#595f6c"/>
              <path id="Path_105777" data-name="Path 105777" d="M188.6,379.6q.606,2.692,1.206,5.543l1.392-.291q-.6-2.865-1.212-5.566Z" transform="translate(-163.552 -244.89)" fill="#595f6c"/>
              <path id="Path_105778" data-name="Path 105778" d="M186.926,302.71l-1.374-.37q-.71,2.639-1.54,5.463l1.364.4Q186.214,305.369,186.926,302.71Z" transform="translate(-165.486 -277.36)" fill="#595f6c"/>
              <path id="Path_105779" data-name="Path 105779" d="M188.332,296.853l-1.386-.32c-.4,1.738-.846,3.581-1.344,5.515l1.378.353C187.479,300.455,187.928,298.6,188.332,296.853Z" transform="translate(-164.815 -279.81)" fill="#595f6c"/>
              <path id="Path_105780" data-name="Path 105780" d="M189.518,290.941l-1.4-.266c-.316,1.652-.693,3.515-1.138,5.561l1.391.3C188.823,294.48,189.2,292.6,189.518,290.941Z" transform="translate(-164.232 -282.282)" fill="#595f6c"/>
              <path id="Path_105781" data-name="Path 105781" d="M185.656,368.018q.749,2.63,1.5,5.47l1.375-.361q-.749-2.858-1.5-5.5Z" transform="translate(-164.792 -249.807)" fill="#595f6c"/>
              <path id="Path_105782" data-name="Path 105782" d="M189.931,378.971q-.668-2.86-1.345-5.536l-1.379.348q.674,2.664,1.34,5.513Z" transform="translate(-164.138 -247.357)" fill="#595f6c"/>
              <path id="Path_105783" data-name="Path 105783" d="M191.971,396.9l1.4-.239q-.491-2.869-.994-5.607l-1.4.255Q191.481,394.045,191.971,396.9Z" transform="translate(-162.546 -239.92)" fill="#595f6c"/>
              <path id="Path_105784" data-name="Path 105784" d="M183.912,362.317q.843,2.579,1.688,5.409l1.362-.405q-.851-2.854-1.7-5.445Z" transform="translate(-165.528 -252.235)" fill="#595f6c"/>
              <path id="Path_105785" data-name="Path 105785" d="M190.939,391.012l1.4-.263q-.544-2.869-1.095-5.591l-1.394.283Q190.4,388.156,190.939,391.012Z" transform="translate(-163.024 -242.41)" fill="#595f6c"/>
              <path id="Path_105786" data-name="Path 105786" d="M176.7,330.959l-1.274-.634q-1.25,2.521-2.6,5.037l1.253.673Q175.438,333.5,176.7,330.959Z" transform="translate(-170.208 -265.55)" fill="#595f6c"/>
              <path id="Path_105787" data-name="Path 105787" d="M178.076,345.283l-1.217.737c.9,1.493,1.81,3.154,2.7,4.936l1.273-.637C179.925,348.5,179,346.809,178.076,345.283Z" transform="translate(-168.505 -259.237)" fill="#595f6c"/>
              <path id="Path_105788" data-name="Path 105788" d="M173.348,341.415a29.466,29.466,0,0,1,3.482,4.3l1.175-.8a30.809,30.809,0,0,0-3.657-4.513Z" transform="translate(-169.986 -261.296)" fill="#595f6c"/>
              <path id="Path_105789" data-name="Path 105789" d="M180.908,350.638l-1.29.6c.752,1.625,1.509,3.372,2.244,5.185l1.318-.533C182.435,354.049,181.67,352.285,180.908,350.638Z" transform="translate(-167.34 -256.978)" fill="#595f6c"/>
              <path id="Path_105790" data-name="Path 105790" d="M183.253,356.2l-1.328.509c.646,1.688,1.294,3.48,1.927,5.321l1.345-.461C184.559,359.709,183.9,357.9,183.253,356.2Z" transform="translate(-166.367 -254.631)" fill="#595f6c"/>
              <path id="Path_105791" data-name="Path 105791" d="M173.485,336.3l-1.241-.692c-.257.459-.515.917-.776,1.374a3.7,3.7,0,0,0-.483,1.824,3.941,3.941,0,0,0,1.2,2.8l.993-1.02a2.515,2.515,0,0,1-.768-1.785,2.237,2.237,0,0,1,.3-1.119C172.966,337.228,173.227,336.767,173.485,336.3Z" transform="translate(-170.984 -263.319)" fill="#595f6c"/>
              <path id="Path_105792" data-name="Path 105792" d="M185.313,308.512l-1.361-.419q-.813,2.641-1.735,5.405l1.348.449Q184.5,311.169,185.313,308.512Z" transform="translate(-166.244 -274.932)" fill="#595f6c"/>
              <path id="Path_105793" data-name="Path 105793" d="M181.452,319.909l-1.324-.519c-.683,1.733-1.4,3.487-2.147,5.247l1.308.559Q180.424,322.534,181.452,319.909Z" transform="translate(-168.031 -270.164)" fill="#595f6c"/>
              <path id="Path_105794" data-name="Path 105794" d="M183.49,314.247l-1.344-.469q-.915,2.63-1.937,5.333l1.33.5Q182.567,316.894,183.49,314.247Z" transform="translate(-167.091 -272.533)" fill="#595f6c"/>
              <path id="Path_105795" data-name="Path 105795" d="M179.191,325.486l-1.3-.576q-1.133,2.566-2.366,5.153l1.284.611Q178.049,328.07,179.191,325.486Z" transform="translate(-169.068 -267.835)" fill="#595f6c"/>
            </g>
            <path id="Path_105796" data-name="Path 105796" d="M227.933,200.7s2.875,42.339,6.783,55.8,12.377,42.773,14.116,51.241c-40.17,23.342-84.268,15-84.268,15l.52-10.611,4.2-85.394v-.01c-.072-2.026-.56-5.82-1.166-10.038-.33-2.27-.687-4.664-1.037-6.972-.836-5.557-1.6-10.605-1.624-12.2-.242-14.766,3.471-31.982,12.808-42.841S230.7,136.056,230.7,136.056s10.422,1.954,15.47,10.91,5.215,11.012,6.439,25.313c1.13,13.239,1.052,19.794,1.052,19.794s-9.324-4.983-19.483,2.413A31,31,0,0,0,227.933,200.7Z" transform="translate(-115.35 -50.751)" fill="#a3c524"/>
            <path id="Path_105797" data-name="Path 105797" d="M184.2,146.248s-18.381,30.346-16.955,55.969c0,0-5.007-6.577-4.084-20.949C164.111,166.425,169.329,149.978,184.2,146.248Z" transform="translate(-115.991 -46.45)" fill="#252732"/>
            <path id="Path_105798" data-name="Path 105798" d="M218.317,186.342a20.907,20.907,0,0,1-15.525,9.675c-10.854,1.18-12.05-2.621-21.821-.449a35.974,35.974,0,0,1-13.6-.1c-.33-2.27-.687-4.664-1.037-6.972a6.857,6.857,0,0,0,4.649,2.624c5,.438,8.468-2.931,13.464-1.843S206.807,194.048,218.317,186.342Z" transform="translate(-114.603 -29.53)" fill="#252732" opacity="0.2"/>
            <path id="Path_105799" data-name="Path 105799" d="M248.832,301.343c-40.17,23.342-84.268,15-84.268,15l.52-10.611c10.093.427,49.345.758,55.39-19.356,6.946-23.113-.651-39.613.869-57.2s-9.7-64.805,6.729-77.95c0,0,.545,24.665,6.106,36.864a31,31,0,0,0-6.245,6.218s2.875,42.339,6.783,55.8S247.093,292.875,248.832,301.343Z" transform="translate(-115.35 -44.351)" fill="#252732" opacity="0.2"/>
            <path id="Path_105800" data-name="Path 105800" d="M210.9,120.835v22.687c-3.15,10.911-26.417,14.851-26.417,14.851V135.641Z" transform="translate(-106.945 -57.175)" fill="#f5b183"/>
            <path id="Path_105801" data-name="Path 105801" d="M210.9,120.835v22.687c-3.15,10.911-26.417,14.851-26.417,14.851s8.937-3.615,13.21-8.067,5.608-14.544,0-11.4c-4.616,2.592-11.07.919-13.21.245v-3.511Z" transform="translate(-106.945 -57.175)" fill="#ef9168"/>
            <path id="Path_105802" data-name="Path 105802" d="M168.488,98.21s-3.467,30.6-.428,58.605-1.421,37.78-1.421,37.78,25.679-16.278,26.683-32.351l-1.6-20.844s-13.26-21.046-12.663-30.614S168.488,98.21,168.488,98.21Z" transform="translate(-114.474 -66.723)" fill="#481b1e"/>
            <path id="Path_105803" data-name="Path 105803" d="M189.3,93.858s-13.424,10.366-14.5,21.2l-7.052-1.918s-2.225-25.683,14-29.265c0,0,4.216-7.8,18.29-7.8s25.949,10.463,31.16,28.7,2.116,53.412,5.7,59.6l-7.491-2.932s-17.583,23.312-24,31.78c0,0-12.5-7.557-.98-24.615C211.992,157.393,216.7,141.9,216.7,141.9Z" transform="translate(-114.052 -76.067)" fill="#481b1e"/>
            <path id="Path_105804" data-name="Path 105804" d="M172.675,101.967a120.948,120.948,0,0,0,2.171,22.961c2.389,12.158,6.3,21.108,16.936,25.016s25.62-11.284,27.14-25.831,0-21.929-3.692-26.055S175.5,78.518,172.675,101.967Z" transform="translate(-111.929 -70.496)" fill="#f5b183"/>
            <path id="Path_105805" data-name="Path 105805" d="M199.309,116.49l-18.668,1.27s.212,8.75,9.927,8.088C199.9,125.214,199.309,116.49,199.309,116.49Z" transform="translate(-108.565 -59.008)" fill="#fff"/>
            <path id="Path_105806" data-name="Path 105806" d="M203.2,101.384s-3.655-5.58-13.316-1.942l.272,1.682S197.049,97.27,203.2,101.384Z" transform="translate(-104.662 -66.722)" fill="#481b1e"/>
            <path id="Path_105807" data-name="Path 105807" d="M174.539,105.046s1.91-6.029,11.663-5.18l.182,1.605S179.108,99.715,174.539,105.046Z" transform="translate(-111.14 -66.059)" fill="#481b1e"/>
            <path id="Path_105808" data-name="Path 105808" d="M191.26,112.353s-.289-2.9-5.047-2.577c-4.248.289-3.983,3.191-3.983,3.191l9.03-.614Z" transform="translate(-107.896 -61.852)" fill="#ef9168"/>
            <path id="Path_105809" data-name="Path 105809" d="M181.828,90.526s14.408,13.946,34.185,19.187a28.524,28.524,0,0,0-4.54-15.385c-4.885-7.382-26.179-8.467-29.645-6.948S181.828,90.526,181.828,90.526Z" transform="translate(-108.714 -71.543)" fill="#481b1e"/>
            <path id="Path_105810" data-name="Path 105810" d="M187.053,89.614S182.7,102.8,174.022,109.83l-4.555-8.6S170.987,83.862,187.053,89.614Z" transform="translate(-113.281 -70.843)" fill="#481b1e"/>
            <path id="Path_105811" data-name="Path 105811" d="M184.5,125.694a15.8,15.8,0,0,0,12.413-.41S190.819,131.2,184.5,125.694Z" transform="translate(-106.935 -55.297)" fill="#ef9168"/>
            <path id="Path_105812" data-name="Path 105812" d="M191.5,107.091s1.493-4.893,6.107-4.885c5.7.01,5.988,3.827,5.988,3.827S197.987,99.275,191.5,107.091Z" transform="translate(-103.983 -65.036)" fill="#252732"/>
            <path id="Path_105813" data-name="Path 105813" d="M186.735,106.849s-1.4-4.073-6.17-2.8c-3.042.815-4.208,4.492-4.208,4.492S180.865,102.085,186.735,106.849Z" transform="translate(-110.373 -64.361)" fill="#252732"/>
            <path id="Path_105814" data-name="Path 105814" d="M225.827,139.282s-14.982,4.179-20.41,23.069S215.567,201,215.567,201c3.637,7.8,5,14.594,1.583,19.262,0,0-14.338-13.4-20.2-27.3s-5.645-47.659,21.387-56.616C218.336,136.35,224.524,133.148,225.827,139.282Z" transform="translate(-102.984 -50.98)" fill="#252732"/>
            <g id="Group_44792" data-name="Group 44792" transform="translate(11.03 141.146)">
              <g id="Group_44791" data-name="Group 44791" transform="translate(0)">
                <rect id="Rectangle_17905" data-name="Rectangle 17905" width="84.13" height="55.707" transform="translate(47.983 100.877) rotate(-124.774)" fill="#252732"/>
                <path id="Path_105815" data-name="Path 105815" d="M183.47,175.325,137.711,207.1l47.982,69.1.083-3.083,2.624-96.739-3.321-.71,0,0Z" transform="translate(-137.711 -175.325)" fill="#252732"/>
                <path id="Path_105816" data-name="Path 105816" d="M184.048,175.567l-43.892,30.39c.658.948.368.529,1.453,2.093l45.821,17.516-.061-49.29Z" transform="translate(-136.68 -175.223)" fill="#fff"/>
                <rect id="Rectangle_17906" data-name="Rectangle 17906" width="80.452" height="55.707" transform="translate(50.815 98.911) rotate(-124.774)" fill="#252732"/>
              </g>
            </g>
            <path id="Path_105817" data-name="Path 105817" d="M258.938,238.351c-2.776.693-7.638,1-13.693,1.182-2.07.061-4.282.111-6.6.159-2.207.046-4.887.219-7.881.485-14.849,1.33-37.414,4.984-48.368,6.749-5.78,12.812-15.907,14.793-15.907,14.793-3.532-.082-3.146-2.525-3.146-2.525-3.175-.813-2.769-4.233-2.769-4.233-4.478-1.222-3.582-6.351-3.582-6.351-1.628-.326-3.746-5.374-.651-7.491a70.343,70.343,0,0,1,7-4.071s-.162-4.64-3.42-7.083-3.325-6.676-.651-5.944c4.152,1.14,5.048,2.769,10.911,7.491s9.607,2.605,9.607,2.605,29.706-10.422,33.252-11.724a144.522,144.522,0,0,1,21.944-5.52,49.432,49.432,0,0,1,7.335-.668l0,0c-.127-.277-8.435-18.092-10.071-29.022v-.01c-.124-1.628-.185-2.557-.185-2.557,8.448-10.965,17.518-10.887,22.308-9.8a17.007,17.007,0,0,1,2.234.661c.124.058.249.119.373.182,0,0,6.361,24.814,7.979,39.408C266.434,228.338,268.057,236.07,258.938,238.351Z" transform="translate(-119.486 -34.594)" fill="#f5b183"/>
            <path id="Path_105818" data-name="Path 105818" d="M223.474,220.639c-14.849,1.33-37.414,4.984-48.368,6.749a21.125,21.125,0,0,0-3.055-4.169,21.292,21.292,0,0,1,4.009,2.6s27.017-4.829,35.937-4.885C215.172,220.916,219.377,220.793,223.474,220.639Z" transform="translate(-112.19 -15.057)" fill="#ef9168"/>
            <path id="Path_105819" data-name="Path 105819" d="M230.026,226.18s-2.769-5.726-10.641-9.977l0,0c-.127-.277-8.435-18.092-10.071-29.022v-.01c-.124-1.628-.185-2.557-.185-2.557,8.448-10.965,17.518-10.887,22.308-9.8,0,0-16.521,3.347-16.306,13.769s8.151,26.924,8.151,26.924A12.879,12.879,0,0,1,230.026,226.18Z" transform="translate(-96.544 -34.594)" fill="#ef9168"/>
            <g id="Group_44794" data-name="Group 44794" transform="translate(97.956 444.892)">
              <g id="Group_44793" data-name="Group 44793">
                <path id="Path_105820" data-name="Path 105820" d="M227.883,419.981c-.687,7.666-4.006,14.533-9.156,16.706s-12.417.916-15.706-2.4-4.549-10.756-4.088-15.562c.326-3.427,1.641-4.353,2.163-7.751l.068-.512a28,28,0,0,0,.054-5.126c-.081-1.236-.175-2.348-.274-3.35v-.007c-.59-6.042,1.052-10.527,2.693-12.1,0,0,.52,3.138.665,3.8,0,0,1.61-3.11,8.475-2.938,6.654.165,7.724,3.419,7.787,3.622l0,.01s.6-4.336.779-5.445a8.381,8.381,0,0,1,3.505,6.183c.344,4.212-.573,6.159-.23,7.018.024.058.063.154.111.284.282.728.944,2.551,1.6,4.933l0,.007,0,.017c.073.269.144.539.216.818l0,.014A36.4,36.4,0,0,1,227.883,419.981Z" transform="translate(-198.84 -388.929)" fill="#a3c524"/>
                <path id="Path_105821" data-name="Path 105821" d="M227.883,414.261c-.687,7.666-4.006,14.533-9.156,16.706s-12.417.916-15.706-2.4-4.549-10.756-4.088-15.562c.326-3.427,1.641-4.353,2.163-7.751-.262,2.008-1.155,9.436-.563,12.788.685,3.889,2.845,10.669,7.227,11.184l2.1-1.544,3.131.085,2.019,1.93s8.41-1.012,10.813-11.885c1.847-8.36,1.158-13.431.739-15.325A36.4,36.4,0,0,1,227.883,414.261Z" transform="translate(-198.84 -383.209)" fill="#252732"/>
              </g>
              <path id="Path_105822" data-name="Path 105822" d="M218.173,402.13c.024.058.063.154.111.284-.927,1.294-2.228-1.216-2.274-2.634-.112-3.777-1.891-5.406-1.891-5.406s.6-4.336.779-5.445a8.381,8.381,0,0,1,3.505,6.183C218.748,399.324,217.83,401.271,218.173,402.13Z" transform="translate(-192.393 -388.929)" fill="#252732" opacity="0.2"/>
              <path id="Path_105823" data-name="Path 105823" d="M203.714,393.4a14.356,14.356,0,0,0-3.359,8.295c-.59-6.042,1.052-10.527,2.693-12.1C203.049,389.6,203.569,392.735,203.714,393.4Z" transform="translate(-198.253 -388.647)" fill="#252732" opacity="0.2"/>
            </g>
            <g id="Group_44796" data-name="Group 44796" transform="translate(28.471 447.774)">
              <g id="Group_44795" data-name="Group 44795">
                <path id="Path_105824" data-name="Path 105824" d="M216.144,399.995a21.7,21.7,0,0,1-9.3.371,9.375,9.375,0,0,1-7.074-5.1l-.006-.014a5.357,5.357,0,0,0-1.94-2.275c-.967-.624-2.026-1.284-3.232-1.958,0,0-4.366-.765-6.567,2.854s-12.841,9.4-17.094,9.84c-3.124.326-12.484,4.267-17.239,6.339a6.157,6.157,0,0,0-2.154,1.58l0,.007a6.118,6.118,0,0,0-1.477,3.383c-.043.408-.071.839-.081,1.283-.07,2.847.66,6.236,3.928,8.216,6.413,3.881,15.629,4.223,20.07,2.845s11.905-4.357,17.051-3.757,20.185,2.514,25.225-5.132c0,0,1.311-1.7,1.258-5.334a16.854,16.854,0,0,0-.282-2.8A83.544,83.544,0,0,1,216.144,399.995Z" transform="translate(-149.977 -390.956)" fill="#a3c524"/>
                <path id="Path_105825" data-name="Path 105825" d="M216.255,411.9c-5.04,7.646-20.074,5.732-25.225,5.132s-12.61,2.382-17.051,3.757-13.657,1.035-20.07-2.845c-3.268-1.981-4-5.37-3.928-8.216,2.552,10,14.6,9.041,20.977,8.186s13.957-4.54,19.254-4.017,9.736,1.012,17.425-.4c4.779-.882,8.07-4.4,9.876-6.934C217.566,410.192,216.255,411.9,216.255,411.9Z" transform="translate(-149.977 -384.369)" fill="#252732"/>
              </g>
              <path id="Path_105826" data-name="Path 105826" d="M216.144,397.369a21.7,21.7,0,0,1-9.3.371,10.464,10.464,0,0,1-2.058-.563c.65,2.757,1.247,7.1-.375,10.183-2.55,4.839-11.5,1.756-17.267,3.655S165.4,418.4,159.21,416.454s-9.489-2.973-7.67-7.436a6.119,6.119,0,0,0-1.477,3.383c-.043.408-.071.839-.081,1.283-.07,2.847.66,6.236,3.928,8.216,6.413,3.881,15.629,4.223,20.07,2.845s11.905-4.357,17.051-3.757,20.185,2.514,25.225-5.132c0,0,1.311-1.7,1.258-5.334a16.854,16.854,0,0,0-.282-2.8A83.543,83.543,0,0,1,216.144,397.369Z" transform="translate(-149.977 -388.33)" fill="#252732" opacity="0.2"/>
            </g>
          </g>
        </g>
        <g id="Group_44810" data-name="Group 44810" transform="translate(176.996 0)">
          <g id="Group_44809" data-name="Group 44809">
            <path id="Path_105827" data-name="Path 105827" d="M311.11,113.632h27.82v148.91h-9.3a56.081,56.081,0,0,1-55.918-55.916v-55.6A37.5,37.5,0,0,1,311.11,113.632Z" transform="translate(-246.283 -25.62)" fill="#252732"/>
            <path id="Path_105828" data-name="Path 105828" d="M291.592,243.5s-.051,9.418.934,13.823-2.217,23.374,0,35.69,6.159,17.735,6.159,24.879-3.2,28.08-1.971,33.747-.2,12.316-1.577,16.01-10.739,61.583-10.247,70.2,3.694,10.1,2.463,14.287-4.471,3.942-2.481,8.128-2.021,5.667-.631,8.13,21.833,4.926,27.007,1.723,1.971-8.128,3.448-9.606,1.725-6.651,0-8.622-.3-5.173,1.2-8.869-1.507-7.635,0-11.085,6.681-39.166,7.912-41.383,6.518-9.1,7.389-26.849c.6-12.3,9.361-30.3,9.361-30.3s-7.76,41.013-8.5,53.7,1.723,17.735.985,19.954-.616,8.252-.37,11.331.37,6.281.122,7.02-3.448,3.079-3.079,7.266,4.311,6.281,5.665,9.731,20.939,1.354,22.909-3.942-.122-6.651,1.355-8.5-1.231-3.818-1.355-7.143,1.971-7.636,1.971-10.715a82.373,82.373,0,0,1,2.217-15.4c1.232-4.8,2.956-22.047,5.913-31.284s4.064-15.518,9.237-28.45,10.972-74.252,6.964-95.506C384.6,241.474,301.988,231.673,291.592,243.5Z" transform="translate(-241.968 26.721)" fill="#252732"/>
            <g id="Group_44799" data-name="Group 44799" transform="translate(44.544 272.518)">
              <path id="Path_105829" data-name="Path 105829" d="M298.188,288.645l1.455-.348q-.352-1.465-.715-2.942l-.435-1.785-1.453.353.437,1.787Q297.836,287.184,298.188,288.645Z" transform="translate(-280.985 -226.422)" fill="#595f6c"/>
              <path id="Path_105830" data-name="Path 105830" d="M290.826,379.761c-.014-.839-.023-1.719-.023-2.646q0-1.054.016-2.191l-1.5-.021q-.017,1.15-.016,2.213,0,1.4.023,2.671Z" transform="translate(-284.248 -187.88)" fill="#595f6c"/>
              <path id="Path_105831" data-name="Path 105831" d="M300.785,294.014c-.245-1.456-.555-3.027-.947-4.8l-1.46.323c.387,1.752.691,3.3.933,4.732Z" transform="translate(-280.419 -224.043)" fill="#595f6c"/>
              <path id="Path_105832" data-name="Path 105832" d="M289.585,385.586l1.495-.058q-.034-.851-.075-1.776c-.041-.956-.085-1.977-.124-3.077l-1.495.053c.038,1.1.082,2.13.124,3.09Q289.55,384.738,289.585,385.586Z" transform="translate(-284.214 -185.444)" fill="#595f6c"/>
              <path id="Path_105833" data-name="Path 105833" d="M287.969,394.777c-.262.506-.513,1.021-.749,1.532l1.358.627c.226-.491.468-.985.72-1.469a28.784,28.784,0,0,0,1.351-2.982l-1.4-.533A26.7,26.7,0,0,1,287.969,394.777Z" transform="translate(-285.128 -180.685)" fill="#595f6c"/>
              <path id="Path_105834" data-name="Path 105834" d="M287.207,400.252c.22-.84.472-1.678.761-2.5l-1.413-.492q-.456,1.316-.8,2.661C286.234,400.039,286.72,400.153,287.207,400.252Z" transform="translate(-285.749 -178.446)" fill="#595f6c"/>
              <path id="Path_105835" data-name="Path 105835" d="M296.47,255.715v-.754h-1.5v.754c0,1.364,0,2.736,0,4.107l1.5,0C296.469,258.453,296.47,257.08,296.47,255.715Z" transform="translate(-281.858 -238.496)" fill="#595f6c"/>
              <path id="Path_105836" data-name="Path 105836" d="M296.37,271.388c0-.21,0-.422,0-.633q0-.444.009-.887c.018-1.068.037-2.179.051-3.322l-1.5-.02c-.014,1.14-.031,2.25-.051,3.313q-.009.459-.009.916c0,.216,0,.434,0,.651Z" transform="translate(-281.9 -233.615)" fill="#595f6c"/>
              <path id="Path_105837" data-name="Path 105837" d="M294.938,265.6l1.5.013c.014-1.587.026-3.217.033-4.865l-1.494-.007C294.964,262.392,294.952,264.018,294.938,265.6Z" transform="translate(-281.871 -236.055)" fill="#595f6c"/>
              <path id="Path_105838" data-name="Path 105838" d="M294.927,243.392c.01,1.483.021,3.118.03,4.863l1.5-.009c-.009-1.746-.02-3.382-.03-4.865Z" transform="translate(-281.876 -243.382)" fill="#595f6c"/>
              <path id="Path_105839" data-name="Path 105839" d="M297.019,277.05c-.252-1.677-.431-3.238-.547-4.774l-1.49.114c.118,1.573.3,3.17.559,4.883Z" transform="translate(-281.853 -231.189)" fill="#595f6c"/>
              <path id="Path_105840" data-name="Path 105840" d="M294.96,249.179c.006,1.568.011,3.2.014,4.862l1.5,0c0-1.665-.009-3.3-.014-4.866Z" transform="translate(-281.862 -240.939)" fill="#595f6c"/>
              <path id="Path_105841" data-name="Path 105841" d="M298.251,282.676c-.4-1.745-.729-3.292-1-4.73l-1.469.28c.277,1.456.61,3.02,1.015,4.784Z" transform="translate(-281.517 -228.796)" fill="#595f6c"/>
              <path id="Path_105842" data-name="Path 105842" d="M289.284,391.16l1.468.293a25.375,25.375,0,0,0,.445-4.974l-1.5-.009A23.9,23.9,0,0,1,289.284,391.16Z" transform="translate(-284.257 -182.998)" fill="#595f6c"/>
              <path id="Path_105843" data-name="Path 105843" d="M300.371,312.337l-1.5,0c0,1.623.017,3.249.034,4.868l1.5-.016C300.388,315.576,300.372,313.955,300.371,312.337Z" transform="translate(-280.21 -214.283)" fill="#595f6c"/>
              <path id="Path_105844" data-name="Path 105844" d="M298.925,318.134c.014,1.376.024,2.744.024,4.1v.757l1.5,0v-.761q0-2.035-.024-4.111Z" transform="translate(-280.189 -211.843)" fill="#595f6c"/>
              <path id="Path_105845" data-name="Path 105845" d="M298.773,328.721l1.492.1c.1-1.5.166-3.1.2-4.89l-1.5-.033C298.935,325.668,298.87,327.247,298.773,328.721Z" transform="translate(-280.253 -209.404)" fill="#595f6c"/>
              <path id="Path_105846" data-name="Path 105846" d="M298.02,334.337l1.459.328a45.7,45.7,0,0,0,.8-4.873l-1.486-.171A44.226,44.226,0,0,1,298.02,334.337Z" transform="translate(-280.571 -206.988)" fill="#595f6c"/>
              <path id="Path_105847" data-name="Path 105847" d="M298.888,311.413l1.5.02c.023-1.749.067-3.33.137-4.833l-1.495-.07C298.956,308.05,298.911,309.648,298.888,311.413Z" transform="translate(-280.204 -216.733)" fill="#595f6c"/>
              <path id="Path_105848" data-name="Path 105848" d="M299.365,295.131a43.729,43.729,0,0,1,.3,4.768l1.5-.01a45.637,45.637,0,0,0-.31-4.929Z" transform="translate(-280.003 -221.616)" fill="#595f6c"/>
              <path id="Path_105849" data-name="Path 105849" d="M299.5,301.943c-.145,1.147-.27,2.373-.371,3.645l1.492.118c.1-1.247.222-2.45.364-3.575.053-.418.1-.835.135-1.253l-1.49-.132C299.6,301.146,299.554,301.544,299.5,301.943Z" transform="translate(-280.101 -219.174)" fill="#595f6c"/>
              <path id="Path_105850" data-name="Path 105850" d="M289.408,373.113l-.033.865,1.495.053.031-.857c.05-1.264.137-2.6.259-3.955l-1.49-.134C289.546,370.469,289.457,371.824,289.408,373.113Z" transform="translate(-284.219 -190.335)" fill="#595f6c"/>
              <path id="Path_105851" data-name="Path 105851" d="M291.974,356.686l1.456.344c.353-1.495.744-3.077,1.162-4.707l-1.449-.371C292.722,353.59,292.329,355.183,291.974,356.686Z" transform="translate(-283.122 -197.565)" fill="#595f6c"/>
              <path id="Path_105852" data-name="Path 105852" d="M296.545,339.894l1.438.408c.54-1.9.953-3.4,1.3-4.7l-1.446-.383C297.492,336.514,297.081,338,296.545,339.894Z" transform="translate(-281.193 -204.627)" fill="#595f6c"/>
              <path id="Path_105853" data-name="Path 105853" d="M289.837,368.149l1.485.185c.191-1.532.425-3.14.7-4.782l-1.475-.245C290.269,364.969,290.03,366.6,289.837,368.149Z" transform="translate(-284.024 -192.773)" fill="#595f6c"/>
              <path id="Path_105854" data-name="Path 105854" d="M290.754,362.385l1.469.279c.29-1.523.619-3.12.976-4.747l-1.46-.32C291.377,359.237,291.047,360.846,290.754,362.385Z" transform="translate(-283.637 -195.182)" fill="#595f6c"/>
              <path id="Path_105855" data-name="Path 105855" d="M293.4,351.051l1.445.387c.394-1.473.815-3,1.284-4.683l-1.44-.4C294.216,348.035,293.795,349.572,293.4,351.051Z" transform="translate(-282.521 -199.928)" fill="#595f6c"/>
              <path id="Path_105856" data-name="Path 105856" d="M296,341.809q-.51,1.775-1.047,3.649l1.438.411q.533-1.871,1.047-3.646l.3-1.028-1.438-.414Z" transform="translate(-281.866 -202.279)" fill="#595f6c"/>
            </g>
            <g id="Group_44800" data-name="Group 44800" transform="translate(93.459 328.303)">
              <path id="Path_105857" data-name="Path 105857" d="M323.835,345.759l-1.5-.021c-.023,1.6-.04,3.225-.057,4.868l1.5.014C323.8,348.98,323.812,347.352,323.835,345.759Z" transform="translate(-319.247 -255.972)" fill="#595f6c"/>
              <path id="Path_105858" data-name="Path 105858" d="M324.161,340.058l-1.489-.141c-.165,1.735-.269,3.383-.31,4.9l1.494.041C323.9,343.375,324,341.759,324.161,340.058Z" transform="translate(-319.214 -258.429)" fill="#595f6c"/>
              <path id="Path_105859" data-name="Path 105859" d="M327.985,304.785l1.5-.009c-.01-1.581-.058-3.227-.146-4.895l-1.493.078C327.926,301.605,327.976,303.228,327.985,304.785Z" transform="translate(-316.901 -275.324)" fill="#595f6c"/>
              <path id="Path_105860" data-name="Path 105860" d="M323.706,357.345l-1.495-.034c-.043,1.812-.091,3.4-.149,4.85l1.494.06C323.615,360.759,323.665,359.165,323.706,357.345Z" transform="translate(-319.34 -251.089)" fill="#595f6c"/>
              <path id="Path_105861" data-name="Path 105861" d="M325.024,334.384l-1.476-.237c-.28,1.742-.51,3.325-.7,4.836l1.485.189C324.519,337.676,324.747,336.111,325.024,334.384Z" transform="translate(-319.01 -260.864)" fill="#595f6c"/>
              <path id="Path_105862" data-name="Path 105862" d="M327.827,299.07l1.49-.122c-.129-1.59-.293-3.227-.486-4.866l-1.485.175C327.537,295.878,327.7,297.5,327.827,299.07Z" transform="translate(-317.11 -277.772)" fill="#595f6c"/>
              <path id="Path_105863" data-name="Path 105863" d="M327.852,287.408c-.586-2.958-1.045-4.779-1.051-4.8l-1.449.367c0,.019.455,1.8,1.032,4.72Z" transform="translate(-317.952 -282.612)" fill="#595f6c"/>
              <path id="Path_105864" data-name="Path 105864" d="M327.267,293.364l1.48-.21c-.225-1.594-.482-3.219-.764-4.828l-1.473.256C326.789,290.176,327.043,291.784,327.267,293.364Z" transform="translate(-317.463 -280.201)" fill="#595f6c"/>
              <path id="Path_105865" data-name="Path 105865" d="M323.771,351.546l-1.5-.016c-.017,1.63-.037,3.258-.063,4.859l1.5.024C323.734,354.808,323.753,353.178,323.771,351.546Z" transform="translate(-319.277 -253.528)" fill="#595f6c"/>
              <path id="Path_105866" data-name="Path 105866" d="M326.915,316.167l1.476.24c.273-1.679.515-3.3.721-4.826l-1.482-.2C327.426,312.891,327.185,314.5,326.915,316.167Z" transform="translate(-317.292 -270.471)" fill="#595f6c"/>
              <path id="Path_105867" data-name="Path 105867" d="M325.174,325.634l-.368,1.893,1.468.286.37-1.893q.279-1.436.56-2.881l-1.468-.284Q325.457,324.2,325.174,325.634Z" transform="translate(-318.182 -265.672)" fill="#595f6c"/>
              <path id="Path_105868" data-name="Path 105868" d="M325.906,321.848l1.469.279c.334-1.765.621-3.332.879-4.792l-1.473-.26C326.525,318.529,326.239,320.09,325.906,321.848Z" transform="translate(-317.718 -268.069)" fill="#595f6c"/>
              <path id="Path_105869" data-name="Path 105869" d="M327.7,310.478l1.489.145c.152-1.563.257-3.211.31-4.9L328,305.677C327.95,307.331,327.847,308.946,327.7,310.478Z" transform="translate(-316.962 -272.878)" fill="#595f6c"/>
              <path id="Path_105870" data-name="Path 105870" d="M321.689,379.367c-.031-.648-.047-1.307-.047-1.958,0-.944.033-1.891.1-2.813l-1.492-.1c-.067.957-.1,1.938-.1,2.917,0,.674.016,1.357.047,2.028Z" transform="translate(-320.148 -243.838)" fill="#595f6c"/>
              <path id="Path_105871" data-name="Path 105871" d="M322.859,369.8q.1-.337.2-.724l-1.453-.354c-.055.229-.114.444-.173.644a30.86,30.86,0,0,0-.94,4.145l1.477.236A29.552,29.552,0,0,1,322.859,369.8Z" transform="translate(-320.004 -246.271)" fill="#595f6c"/>
              <path id="Path_105872" data-name="Path 105872" d="M323.561,363.167l-1.493-.09c-.111,1.847-.249,3.463-.411,4.8l1.485.178C323.309,366.67,323.447,365.071,323.561,363.167Z" transform="translate(-319.511 -248.655)" fill="#595f6c"/>
              <path id="Path_105873" data-name="Path 105873" d="M323.736,333.228l1.472.26c.25-1.414.538-2.975.88-4.772l-1.469-.28C324.275,330.24,323.986,331.808,323.736,333.228Z" transform="translate(-318.634 -263.274)" fill="#595f6c"/>
            </g>
            <g id="Group_44801" data-name="Group 44801" transform="translate(38.106 488.316)">
              <path id="Path_105874" data-name="Path 105874" d="M328.652,447.879a7.871,7.871,0,0,1-1.118.966c-2.953,2.153-8.869,4.09-16.37,2.481-8.623-1.846-15.152-5.047-19.092-13.794s-4.36-8.851-6.985-12.74A22.023,22.023,0,0,1,281.4,409.4c.026-.186.048-.374.078-.567.983-6.772-.6-10.649,5-13.7a3.393,3.393,0,0,1-.188,2.527s-.808,1.81,1.473,3.908a7.3,7.3,0,0,0,3.583,1.888c1.506.337,3.181.351,5.406.755,0,0,.119-2.329,9.606-2.12s9.06,4.247,10.1,6.739c2.715,6.506,6.159,19.462,10.47,24.633a14.561,14.561,0,0,1,3.325,7.837v0C330.529,444.113,329.879,446.589,328.652,447.879Z" transform="translate(-281.221 -395.138)" fill="#017bae"/>
              <path id="Path_105875" data-name="Path 105875" d="M328.65,443.647c-2.339,2.464-8.868,5.294-17.488,3.447s-15.149-5.048-19.092-13.793-4.36-8.853-6.984-12.74a22.022,22.022,0,0,1-3.683-15.39c.479,3.044,1.969,10.583,5.372,13.6,4.312,3.817,10.467,18.348,16.505,22.291a21.924,21.924,0,0,0,9.641,3.131,6.589,6.589,0,0,0,6.369-3.224h0l4.71-.832h0a3.729,3.729,0,0,0,5.244-.96,9.155,9.155,0,0,0,1-2.1C330.527,439.881,329.878,442.357,328.65,443.647Z" transform="translate(-281.222 -390.904)" fill="#252732"/>
              <path id="Path_105876" data-name="Path 105876" d="M327.534,448.844c-2.953,2.153-8.869,4.09-16.37,2.481-8.623-1.846-15.152-5.047-19.092-13.794s-4.36-8.851-6.985-12.74A22.023,22.023,0,0,1,281.4,409.4c.026-.186.048-.374.078-.567.983-6.772-.6-10.649,5-13.7a3.393,3.393,0,0,1-.188,2.527s-.808,1.81,1.473,3.908a7.3,7.3,0,0,0,3.583,1.888,13.654,13.654,0,0,0,1.63,14.247c5.982,8.225,6.888,17.947,12.792,22.061s5.53,7.665,16.373,7.478A8.94,8.94,0,0,1,327.534,448.844Z" transform="translate(-281.221 -395.138)" fill="#252732" opacity="0.2"/>
            </g>
            <g id="Group_44803" data-name="Group 44803" transform="translate(81.521 463.327)">
              <g id="Group_44802" data-name="Group 44802">
                <path id="Path_105877" data-name="Path 105877" d="M387.574,404.307a17.878,17.878,0,0,1-.276,2.116v0c-.087.464-.195.976-.34,1.522-1.085,4.053-4,9.9-11.828,10.766-11.082,1.23-29.434-7.76-34.239-7.512s-22.906,1.111-27.465-3.451c-2.614-2.614-1.7-5.879-.4-9.05.964-2.348,2.142-4.651,2.247-6.588.247-4.558,4.685-13.954,4.685-13.954l2.89,1.82s-1.338,2.678,6.218,3.754c6.466.924,7.333.464,11.028-.923a15.956,15.956,0,0,0,3.424-1.739,20.971,20.971,0,0,0,3.531-3.178c1.6-1.671,4.064,3.38,7.146,7.322s17.612,11.7,23.034,13.793S387.7,402.336,387.574,404.307Z" transform="translate(-311.753 -377.565)" fill="#017bae"/>
                <path id="Path_105878" data-name="Path 105878" d="M386.956,401.675c-1.082,4.053-4,9.9-11.823,10.766-11.086,1.231-29.438-7.758-34.242-7.511s-22.909,1.108-27.465-3.451c-2.615-2.617-1.7-5.879-.4-9.048,1.049,2.235,3.572,6.4,8.036,7.2,6.156,1.108,17.98-.245,23.893,2.217s27.1,7.758,33.131,7.39,8.865-7.572,8.865-7.572Z" transform="translate(-311.753 -371.292)" fill="#252732"/>
              </g>
              <path id="Path_105879" data-name="Path 105879" d="M387.3,406.251c-.087.464-.195.975-.34,1.522-1.085,4.053-4,9.9-11.828,10.766-11.082,1.23-29.434-7.76-34.239-7.512s-22.906,1.111-27.465-3.451c-2.614-2.614-1.7-5.879-.4-9.05.964-2.348,2.142-4.651,2.247-6.588.247-4.558,4.685-13.954,4.685-13.954l2.89,1.82s-1.338,2.678,6.218,3.754c6.466.924,7.333.464,11.028-.923a15.955,15.955,0,0,0,3.424-1.739s.513,2.733-6.591,7.969-3.552,10.283,0,11.965,9.347.748,20.751,5.422S383.45,414.29,387.3,406.251Z" transform="translate(-311.753 -377.389)" fill="#252732" opacity="0.2"/>
            </g>
            <g id="Group_44805" data-name="Group 44805" transform="translate(116.968 73.03)">
              <g id="Group_44804" data-name="Group 44804" transform="translate(0 46.489)">
                <path id="Path_105880" data-name="Path 105880" d="M336.68,150.339s5.748,55.588,14.948,63.591,17.3,4.711,17.3,4.711c.623-.364,3.524-1.307,4.171-1.856,10.814-9.159,20.723-39.759,22.138-46.205,1.223-5.591,8.206-19.433,10.061-24.845.411-1.2,1.87-5.321,1.87-5.321-6.878-5.739-12.5-4.051-13.916-4.538-.173-.06-.262-.088-.262-.088l-.07.307c-.034.121-.071.279-.124.474l0,.011c-.07.263-.154.582-.26.96v0c-.018.06-.037.119-.054.185-.031.1-.063.212-.1.319l-.034.108a65.041,65.041,0,0,1-9.762,20.013,152.08,152.08,0,0,0-11.126,17.282v0c-1.415,2.544-2.227,4.157-2.227,4.157-3.3-5.118-3.3-6.049-4.489-10.281-.678-2.42-3.566-18.877-3.566-18.877C353.127,147.379,336.68,150.339,336.68,150.339Z" transform="translate(-336.68 -135.788)" fill="#f5b183"/>
                <path id="Path_105881" data-name="Path 105881" d="M357.912,181.695c2.662-8.333,2.355-13.853,2.355-13.853s.812-1.615,2.228-4.159C363.523,175.507,360.271,179.941,357.912,181.695Z" transform="translate(-327.72 -124.017)" fill="#ef9168"/>
              </g>
              <path id="Path_105882" data-name="Path 105882" d="M403.653,133.045c-1.266,2.2-4.195,12.482-6.928,16.492a34.515,34.515,0,0,1-4.666,5.755l-2.325,4.36-.38.708s-9.69-5.042-11.146-7.032a.717.717,0,0,1-.183-.418.266.266,0,0,1,.033-.127l.009-.014v0a2.3,2.3,0,0,0,.2-.728l0-.009a4.063,4.063,0,0,0-.165-1.657v0h0a7.676,7.676,0,0,0-1.759-2.9c-2.889-3.188-4.959-5.63-3.893-9.517s1.864-6.4,1.816-8.039,4.249-6.493,5.094-6.854,2.726,1.452,1.055,4.9-2.281,6.672-1.522,6.831,1.839-1.692,3.15-4.039a23.094,23.094,0,0,0,2.271-6.918c.316-1.77,1.8-12.349,3.293-15.533s1.706-3.847,3.153-3.549,1.143,4.974.425,7.774c-.562,2.2-2.156,9.168-1.48,9.455.988.428,4.107-11.47,4.855-13.833s2.163-6.258,4.414-4.694c1.9,1.321-2.051,11.861-2.486,14,0,0-1.348,4.609-1.119,5.765s1.15-.392,1.534-1.085a75.843,75.843,0,0,0,2.946-9.3c.5-2.439,1.169-5.315,2.689-5.242s2.233,1.928.65,7.439-2.547,9.754-3.145,11.432.994,1.779,1.9.2,3.3-8.624,4.471-8.987,2.85.741,2.042,3.815A69.1,69.1,0,0,1,403.653,133.045Z" transform="translate(-321.706 -103.096)" fill="#f5b183"/>
              <path id="Path_105883" data-name="Path 105883" d="M379.787,124.1s6.359,4.62,2.5,12.819c0,0,2.817-1.039,2.675-5.881A7.711,7.711,0,0,0,379.787,124.1Z" transform="translate(-318.489 -94.234)" fill="#ef9168"/>
              <path id="Path_105884" data-name="Path 105884" d="M381.574,118.593a14.9,14.9,0,0,1,8.516.284c4.673,1.536,7.892,7.658,7.892,7.658S391.545,118.891,381.574,118.593Z" transform="translate(-317.734 -96.758)" fill="#ef9168"/>
              <path id="Path_105885" data-name="Path 105885" d="M376.4,136c-.034.121-.071.279-.124.474l0,.011c-.07.263-.154.582-.26.96v0c-.018.06-.037.119-.054.185-.031.1-.062.212-.1.319l-.034.108a8.162,8.162,0,0,0,4.434,1.627A8.684,8.684,0,0,1,376.4,136Z" transform="translate(-320.161 -89.208)" fill="#ef9168"/>
            </g>
            <path id="Path_105886" data-name="Path 105886" d="M395.341,163.038c-.228,10.382,0,18.379,0,18.379l-10.459.708c-.04,8.541-1.028,17.421-.613,29.491.444,12.892,6.176,41.036,9.213,61.37,1.594,10.675,2.444,19.2,1.394,22.23-3.046,8.8-12.411,4.752-25.5,5.1-16.9.454-70.836,5.448-70.836,5.448s-2.292-16.309-.262-40.347,1.017-50.444,2.371-62-1.719-10.958-1.719-10.958c-10.52-16.763-30.4-22.156-30.4-22.156s11.34-21.138,16.08-26.934,5.879-9.636,13.664-16.694c1.277-1.158,4.92-2.827,9.307-4.57l0,0c3.345-1.33,7.126-2.7,10.614-3.92a55.691,55.691,0,0,1,23.376-2.9l18.435,1.665,0,0c.343.193,22.253,12.556,26.286,15.891C390.364,136.207,395.564,152.655,395.341,163.038Z" transform="translate(-248.471 -25.017)" fill="#017bae"/>
            <path id="Path_105887" data-name="Path 105887" d="M394.876,293.125c-3.046,8.8-12.411,4.752-25.5,5.1-16.9.454-70.836,5.448-70.836,5.448s-2.292-16.309-.262-40.347,1.017-50.444,2.371-62-1.719-10.958-1.719-10.958c-10.52-16.763-30.4-22.156-30.4-22.156s11.34-21.138,16.08-26.934,5.879-9.636,13.664-16.694c1.277-1.158,4.92-2.827,9.307-4.57-.3.348-19.723,22.764-19.5,34.187.226,11.511,8.575,23.334,15.574,23.29,0,0,7.222,1.807,17.152-13.586,0,0-9.122,28.892-8.852,41.08s-5.031,46.832,14.382,60.374,33.673,16.812,49.281,14.557c9.166-1.324,16.955-.9,17.862-9.025C395.076,281.569,395.927,290.094,394.876,293.125Z" transform="translate(-248.471 -22.925)" fill="#252732" opacity="0.2"/>
            <path id="Path_105888" data-name="Path 105888" d="M302.85,121.1s13.182,21.113,11.635,40.688c-2.663,33.682-22.266,45.315-22.266,45.315s-9.587,11.7-.579,19.757c0,0,24.319-13.582,33.191-40.263s-.775-64.615-7.5-70.58C317.33,116.015,309.128,109.916,302.85,121.1Z" transform="translate(-240.348 -25.315)" fill="#252732"/>
            <path id="Path_105889" data-name="Path 105889" d="M332.864,116.389s23.355,20.387,24.2,84.759c0,0,8.363-2.079,6.834-17.508-1.581-15.942-1.806-42.72-15.134-57.522C348.759,126.118,345.7,118.841,332.864,116.389Z" transform="translate(-221.322 -24.456)" fill="#252732"/>
            <path id="Path_105890" data-name="Path 105890" d="M362.285,77.637a22.072,22.072,0,0,1,.41,3.42c-5.475,15.854-30.673,44.876-40.394,52.991S307.1,125,308.31,120.5c2.695-10.015-2.662-11.823-5.357-24.766A30.437,30.437,0,0,1,310.1,69.806l0-.006a28.215,28.215,0,0,1,15.9-11c10.573-2.624,18.871-10.749,27.473-5.105C361.066,58.671,365.766,67.664,362.285,77.637Z" transform="translate(-234.174 -51.739)" fill="#481b1e"/>
            <path id="Path_105891" data-name="Path 105891" d="M347.448,72.356a62.75,62.75,0,0,0,0,9.864c.324,3.966.323,6.133-1.184,9.583-2.956,6.763-7.336,5.352-7.336,5.352S335.768,73.71,347.448,72.356Z" transform="translate(-218.928 -43.038)" fill="#481b1e"/>
            <g id="Group_44807" data-name="Group 44807" transform="translate(68.78 23.354)">
              <g id="Group_44806" data-name="Group 44806">
                <path id="Path_105892" data-name="Path 105892" d="M303.681,98.821c3.323,10.7,9.227,8.858,9.227,8.858,1.846,17.717-2.584,23.622-2.584,23.622,9.66,11.589,21.216,13.387,28.052,13.243a31.808,31.808,0,0,0,4.424-.4,1.524,1.524,0,0,0,1.253-1.715c-1.436-10.962,4.821-21.6,4.821-21.6C313.972,115.9,315.492,90.7,315.492,90.7l-2.584-1.844C307,85.164,300.359,88.116,303.681,98.821Z" transform="translate(-302.793 -60.069)" fill="#f5b183"/>
                <path id="Path_105893" data-name="Path 105893" d="M317.524,118.356c8.533,9.614,21.37,12.135,29.077,10.352.185-.044.368-.088.546-.135h0a12.664,12.664,0,0,0,3.04-1.219,8.694,8.694,0,0,0,.775-.509,13.825,13.825,0,0,0,3.467-4.233c2.7-4.751,2.723-9.792,2.3-15.193l-1.045-11.985,0-.084.361-6.773.536-9.994a5,5,0,0,0-2.133-4.393l-.023-.016c-18.418-12.778-40.368-1.219-40.368-1.219S304.658,103.859,317.524,118.356Z" transform="translate(-299.435 -68.162)" fill="#f5b183"/>
                <path id="Path_105894" data-name="Path 105894" d="M335.961,110.855a1.393,1.393,0,0,0,.546-.135h0a3.447,3.447,0,0,0,.472-.252Z" transform="translate(-288.795 -50.309)" fill="#ef9168"/>
                <path id="Path_105895" data-name="Path 105895" d="M324.3,97.318h21.6s.442,10.095-10.8,10.095C324.3,107.413,324.3,97.318,324.3,97.318Z" transform="translate(-293.716 -55.858)" fill="#fff"/>
                <path id="Path_105896" data-name="Path 105896" d="M331.283,79.124l-.105,2.983a12,12,0,0,0-7.78.3c-3.878,1.637-4.145,2.417-4.145,2.417l-.977-1.731S322.016,77.024,331.283,79.124Z" transform="translate(-296.258 -63.723)" fill="#481b1e"/>
                <path id="Path_105897" data-name="Path 105897" d="M322.1,69.673s-1.382,7.933-7.814,10.885c0,0-.468,12.9,1.5,19.536h-4.215l-2.358-21.6S316.739,65.145,322.1,69.673Z" transform="translate(-300.083 -67.92)" fill="#481b1e"/>
                <path id="Path_105898" data-name="Path 105898" d="M313.836,101.155s.306,14.853,13.744,21.487a11.356,11.356,0,0,1,5.288,5.19c1.175,2.442,1.9,5.978.848,10.883a31.592,31.592,0,0,0,4.492-.407,1.451,1.451,0,0,0,1.193-1.635c-1.47-10.985,4.812-21.673,4.812-21.673A29.482,29.482,0,0,1,313.836,101.155Z" transform="translate(-298.132 -54.239)" fill="#ef9168"/>
                <path id="Path_105899" data-name="Path 105899" d="M305.97,91.174s6.99-.3,4.613,9.473C310.583,100.648,311.076,93.573,305.97,91.174Z" transform="translate(-301.452 -58.451)" fill="#ef9168"/>
                <path id="Path_105900" data-name="Path 105900" d="M310.131,96.706s-1.049-3.151-3.571-1.8c0,0,.515-1.722,3.16-1.291Z" transform="translate(-301.203 -57.449)" fill="#ef9168"/>
                <path id="Path_105901" data-name="Path 105901" d="M330.217,92.617s.088-2.821,4.705-2.821c4.122,0,5.24,2.821,5.24,2.821Z" transform="translate(-291.219 -59.033)" fill="#ef9168"/>
                <path id="Path_105902" data-name="Path 105902" d="M344.91,83.532l-.823,2.052a8.3,8.3,0,0,0-5.214-3.184,7.538,7.538,0,0,0-4.075.139l-.056-2.8A8.572,8.572,0,0,1,344.91,83.532Z" transform="translate(-289.31 -63.465)" fill="#481b1e"/>
                <path id="Path_105903" data-name="Path 105903" d="M339.868,105.1s-.647.825-5.431,1.057a19.378,19.378,0,0,1-7.734-1S334.181,112.365,339.868,105.1Z" transform="translate(-292.702 -52.576)" fill="#ef9168"/>
              </g>
              <path id="Path_105904" data-name="Path 105904" d="M330.517,86.058s-1.961-4.135-5.769-3a6.842,6.842,0,0,0-4.656,4.522S325.368,81.233,330.517,86.058Z" transform="translate(-295.492 -61.959)" fill="#252732"/>
              <path id="Path_105905" data-name="Path 105905" d="M334.741,85.93s1.623-3.42,4.772-2.48a5.658,5.658,0,0,1,3.851,3.74S339,81.939,334.741,85.93Z" transform="translate(-289.31 -61.779)" fill="#252732"/>
            </g>
            <path id="Path_105906" data-name="Path 105906" d="M289.5,237.588h0a3.886,3.886,0,0,1-1.887-.569l.326.06C289.727,237.4,290.52,237.6,289.5,237.588Z" transform="translate(-240.419 26.451)" fill="#f5b183"/>
            <g id="Group_44808" data-name="Group 44808" transform="translate(0 146.319)">
              <path id="Path_105907" data-name="Path 105907" d="M352.582,267.723c0,1.763-2.031,2.258-2.031,2.258-1.388.69-4.29-.451-5.982-1.92-1.059-.917-4.776-2.635-7.407-3.785a47.807,47.807,0,0,1,7.52,6.154,59.309,59.309,0,0,0,5.193,4.246c-1.355,3.342-6.173.761-8.89-1.182-2.218-1.588-7.858-5.2-8.034-5.315a63.46,63.46,0,0,0,7.895,6.5c4.514,3.114,6.152,3.6,6.152,3.6-.508,2.708-3.724,3.384-8.295,1.523s-12.357-7.76-12.357-7.76c.677,1.551,6.71,7.949,8.064,8.8s1.015,3.959-4.063,2.434-10.692-9.493-10.692-9.493-.758.031-1.987.038c-3.17.01-9.493-.152-14.162-1.459h0q-.529-.147-1.027-.316c-.182-.061-.363-.125-.535-.193-.237-.091-.464-.185-.684-.284A13.433,13.433,0,0,1,294.236,264l-1.952-3.643-.017-.027c-.35-.528-6.119-9.236-18.1-23.221-14.145-16.515-18.688-27.813-19.7-34-.792-4.832,11.018-27.132,19.617-40.224l.007-.017a65.539,65.539,0,0,1,6.107-8.233s11.924,2.749,19.213,10.058l0,0a17.632,17.632,0,0,1,5.472,11.067s-11.146,22.506-21.98,26.742c0,0,10.4,13.714,13.495,31.32l8.478,17.71a11.3,11.3,0,0,0,8.209,2.982c6.772-.223,17.266,1.132,20.99,2.258s11.173,5.306,12.866,7.11A26.8,26.8,0,0,0,352.582,267.723Z" transform="translate(-254.424 -154.635)" fill="#f5b183"/>
              <path id="Path_105908" data-name="Path 105908" d="M301.258,269.112a13.432,13.432,0,0,1-7.022-7.562l-1.952-3.643-.017-.027c-.35-.528-6.119-9.236-18.1-23.221-14.145-16.515-18.688-27.813-19.7-34-.792-4.832,11.018-27.132,19.617-40.224-.495.993-16.6,33.466-15.929,40.132.677,6.772,12.188,25.053,17.6,31.148s16.42,21.044,18.113,25.334C295.252,260.561,297.984,266.893,301.258,269.112Z" transform="translate(-254.424 -152.187)" fill="#ef9168"/>
              <path id="Path_105909" data-name="Path 105909" d="M299.907,172.78s-11.146,22.506-21.98,26.742c0,0-7.231-1.611-11.717,0,0,0,4.063-3.975,11.257-2.537,0,0,12.724-9.479,16.108-17.943s.857-17.334.857-17.334l0,0A17.633,17.633,0,0,1,299.907,172.78Z" transform="translate(-249.451 -151.65)" fill="#ef9168"/>
              <path id="Path_105910" data-name="Path 105910" d="M301.329,239.008s-.758.031-1.987.038a3.36,3.36,0,0,0-1.5-2.028C299.664,237.059,301.329,239.008,301.329,239.008Z" transform="translate(-236.1 -119.868)" fill="#ef9168"/>
            </g>
          </g>
        </g>
      </g>
    </g>
  </g>
</svg>
