<svg xmlns="http://www.w3.org/2000/svg" xmlns:xlink="http://www.w3.org/1999/xlink" width="217.988" height="181.845" viewBox="0 0 217.988 181.845">
  <defs>
    <linearGradient id="linear-gradient" x1="0.728" y1="0.135" x2="0.35" y2="0.711" gradientUnits="objectBoundingBox">
      <stop offset="0" stop-color="#1898af"/>
      <stop offset="1" stop-color="#63bb4c"/>
    </linearGradient>
    <filter id="Path_116134" x="0" y="0" width="217.988" height="181.845" filterUnits="userSpaceOnUse">
      <feOffset dy="10" input="SourceAlpha"/>
      <feGaussianBlur stdDeviation="9" result="blur"/>
      <feFlood flood-opacity="0.239"/>
      <feComposite operator="in" in2="blur"/>
      <feComposite in="SourceGraphic"/>
    </filter>
  </defs>
  <g transform="matrix(1, 0, 0, 1, 0, 0)" filter="url(#Path_116134)">
    <path id="Path_116134-2" data-name="Path 116134" d="M131.127,46.343c-1.4.155-2.8.318-4.194.465-12.254,1.293-24.532,2.677-36.827,2-13.1-.725-26.22-1.687-38.987-5.9a131.922,131.922,0,0,1-23.67-10.418C19.155,27.8,12.279,20.776,6.278,12.39A81.55,81.55,0,0,1,.846,3.437C.3,2.428-.437.912.327.19c.787-.745,1.446.894,2,1.649,5.8,7.873,12.174,14.891,19.8,20.023a76.189,76.189,0,0,0,15.435,7.632c7.936,3.059,15.891,5.982,24.145,7.52,5.734,1.068,11.518,1.463,17.277,2.188,10.9,1.372,21.806.691,32.708.216,4.48-.2,8.951-.734,13.636-1.134a3.536,3.536,0,0,0-2.031-.854,109.226,109.226,0,0,1-16.085-5.86,18.78,18.78,0,0,1-5.988-4.306,5.476,5.476,0,0,1-.37-5.215,1.259,1.259,0,0,1,1.518-.5c1.586.359,3.161.794,4.735,1.228,12.066,3.33,24.059,7.065,36.218,9.882a18.571,18.571,0,0,1,5.755,2.064,1.323,1.323,0,0,1,.752,1.269c.046,3.419-.579,6.346-3.256,8.239-6.214,4.4-12.378,8.9-18.541,13.4-3.993,2.918-7.787,6.248-11.988,8.736-.738.437-1.556,1.173-2.317.5-.791-.7-.323-1.883-.226-2.848a7.431,7.431,0,0,1,2.361-4.54,99.6,99.6,0,0,1,13.609-11.518c.574-.408,1.141-.833,1.711-1.25Z" transform="matrix(0.89, -0.45, 0.45, 0.89, 27, 85.03)" fill="url(#linear-gradient)"/>
  </g>
</svg>
