<svg id="school_black_24dp" xmlns="http://www.w3.org/2000/svg" width="31.355" height="31.355" viewBox="0 0 31.355 31.355">
  <path id="Path_106608" data-name="Path 106608" d="M0,0H31.355V31.355H0Z" fill="none"/>
  <g id="Group_49275" data-name="Group 49275" transform="translate(1.305 -41.198)">
    <path id="Path_116679" data-name="Path 116679" d="M27.779,48.261H25.764V46.175a.964.964,0,0,0-.822-.954,14.811,14.811,0,0,0-4.409.133A9.9,9.9,0,0,0,14.372,48.8,9.9,9.9,0,0,0,8.21,45.354,14.814,14.814,0,0,0,3.8,45.222a.965.965,0,0,0-.822.954v2.086H.965A.965.965,0,0,0,0,49.226V67.4a.965.965,0,0,0,1.282.911c.072-.025,7.3-2.492,12.69-.033a.964.964,0,0,0,.8,0c5.374-2.451,12.618.009,12.69.033a.964.964,0,0,0,1.282-.911V49.226A.965.965,0,0,0,27.779,48.261ZM1.929,66.111V50.19h1.05V63.035a.966.966,0,0,0,1.106.954c.053-.008,4.243-.583,7.3,1.517A23.484,23.484,0,0,0,1.929,66.111Zm11.478-1.474a10.393,10.393,0,0,0-5.2-2.423,15.136,15.136,0,0,0-2.689-.237c-.222,0-.427,0-.613.012V47.061h0c1.854-.084,6.363.115,8.5,3.734ZM15.336,50.8c2.128-3.6,6.644-3.812,8.5-3.732V61.99a15.289,15.289,0,0,0-3.3.225,10.392,10.392,0,0,0-5.2,2.423V50.8ZM17.35,65.507c3.062-2.1,7.254-1.526,7.306-1.518a.965.965,0,0,0,1.107-.954V50.19h1.05v15.92A23.478,23.478,0,0,0,17.35,65.507Z" fill="#0fa76f"/>
  </g>
</svg>
