<svg xmlns="http://www.w3.org/2000/svg" width="32.014" height="24.011" viewBox="0 0 32.014 24.011">
  <path id="Path_116680" data-name="Path 116680" d="M30.138,17.688V9.3L31.4,8.755a1.152,1.152,0,0,0,.006-2.03L16.341.071a.821.821,0,0,0-.669,0L.6,6.725A1.152,1.152,0,0,0,.61,8.755l6.956,3v4.658a4.756,4.756,0,0,0,2.716,4.039,11.617,11.617,0,0,0,5.725,1.385,11.617,11.617,0,0,0,5.725-1.385,4.756,4.756,0,0,0,2.716-4.039V11.759l3.814-1.648v7.577a3.265,3.265,0,0,0-1.876,3.068A3.062,3.062,0,0,0,29.2,24.011a3.062,3.062,0,0,0,2.814-3.254A3.264,3.264,0,0,0,30.138,17.688ZM16.007,2.246,28.421,7.727,16.007,13.089,3.593,7.727Zm6.565,14.171c0,1.536-2.808,3.254-6.565,3.254s-6.565-1.718-6.565-3.254V12.569l6.237,2.694a.819.819,0,0,0,.656,0l6.237-2.694ZM29.2,21.841a1.1,1.1,0,1,1,.938-1.085A1.021,1.021,0,0,1,29.2,21.841Zm0,0" transform="translate(0)" fill="#0fa76f"/>
</svg>
