<svg xmlns="http://www.w3.org/2000/svg" xmlns:xlink="http://www.w3.org/1999/xlink" width="319.412" height="327.628" viewBox="0 0 319.412 327.628">
  <defs>
    <filter id="Rectangle_17866" x="0" y="0" width="319.412" height="327.628" filterUnits="userSpaceOnUse">
      <feOffset dx="-20" dy="28" input="SourceAlpha"/>
      <feGaussianBlur stdDeviation="19" result="blur"/>
      <feFlood flood-opacity="0.169"/>
      <feComposite operator="in" in2="blur"/>
      <feComposite in="SourceGraphic"/>
    </filter>
  </defs>
  <g id="Group_44836" data-name="Group 44836" transform="translate(77 29)">
    <g transform="matrix(1, 0, 0, 1, -77, -29)" filter="url(#Rectangle_17866)">
      <rect id="Rectangle_17866-2" data-name="Rectangle 17866" width="152.034" height="167.543" rx="10" transform="matrix(0.92, -0.39, 0.39, 0.92, 77, 88.4)" fill="#ffc200"/>
    </g>
    <g id="Group_44713" data-name="Group 44713" transform="translate(38.286 67.027)">
      <path id="Path_116662" data-name="Path 116662" d="M-23.754.333a11.171,11.171,0,0,0,7.511-2.59A8.745,8.745,0,0,0-13.172-9.25,9.034,9.034,0,0,0-15.8-15.91a9.4,9.4,0,0,0-6.919-2.627,8.694,8.694,0,0,0-5.735,1.961l1.147-8.288h12.728v-4.107H-30.747L-32.93-13.69l3.885,1.591a7,7,0,0,1,5.476-2.479c3.219,0,5.7,2,5.7,5.4a4.8,4.8,0,0,1-1.7,3.885A6.05,6.05,0,0,1-23.68-3.848q-4.162,0-5.994-4.218L-33.6-5.883A10.145,10.145,0,0,0-23.754.333Zm23.643,0A11.171,11.171,0,0,0,7.4-2.257,8.745,8.745,0,0,0,10.471-9.25a9.034,9.034,0,0,0-2.627-6.66A9.4,9.4,0,0,0,.925-18.537,8.694,8.694,0,0,0-4.81-16.576l1.147-8.288H9.065v-4.107H-7.1L-9.287-13.69-5.4-12.1A7,7,0,0,1,.074-14.578c3.219,0,5.7,2,5.7,5.4a4.8,4.8,0,0,1-1.7,3.885A6.05,6.05,0,0,1-.037-3.848q-4.162,0-5.994-4.218L-9.953-5.883A10.145,10.145,0,0,0-.111.333Zm21.682-11.84v7.585h4.144v-7.585h7.733V-15.54H25.715v-7.474H21.571v7.474H13.838v4.033Z" transform="translate(59.67 46.527) rotate(-21)" fill="#fefdff" opacity="0.999"/>
      <circle id="Ellipse_4568" data-name="Ellipse 4568" cx="7.002" cy="7.002" r="7.002" transform="translate(0 0)" fill="#fff"/>
      <path id="Path_117332" data-name="Path 117332" d="M.44-14.718H5.9V0H8.6V-14.718H14.08v-2.508H.44ZM19.426-11.99a6.13,6.13,0,0,0-4.4,1.76A5.8,5.8,0,0,0,13.2-5.9,5.779,5.779,0,0,0,15-1.562,6.13,6.13,0,0,0,19.4.2a6.007,6.007,0,0,0,4.378-1.76,5.875,5.875,0,0,0,1.8-4.378,5.731,5.731,0,0,0-1.8-4.312A6.045,6.045,0,0,0,19.426-11.99ZM16.852-8.536A3.294,3.294,0,0,1,19.4-9.614a3.216,3.216,0,0,1,2.53,1.078,3.785,3.785,0,0,1,.99,2.64,3.869,3.869,0,0,1-.968,2.64,3.216,3.216,0,0,1-2.53,1.078,3.312,3.312,0,0,1-2.552-1.1,3.878,3.878,0,0,1-.99-2.662A3.72,3.72,0,0,1,16.852-8.536ZM40.568-5.918a6.207,6.207,0,0,0-1.606-4.2A5.211,5.211,0,0,0,34.8-11.968a5.4,5.4,0,0,0-2.134.484,3.779,3.779,0,0,0-1.8,1.562v-1.826H28.314V5.786h2.618v-7.5a3.8,3.8,0,0,0,1.76,1.43,5.613,5.613,0,0,0,2.046.462,5.384,5.384,0,0,0,4.18-1.8A6.167,6.167,0,0,0,40.568-5.918ZM31.856-8.536a3.293,3.293,0,0,1,2.552-1.078,3.216,3.216,0,0,1,2.53,1.078,3.785,3.785,0,0,1,.99,2.64,3.785,3.785,0,0,1-.99,2.64A3.272,3.272,0,0,1,34.408-2.2a3.352,3.352,0,0,1-2.552-1.056,3.869,3.869,0,0,1-.968-2.64A3.869,3.869,0,0,1,31.856-8.536Zm11.528-5.808a1.687,1.687,0,0,0,2.42,0,1.687,1.687,0,0,0,0-2.42,1.65,1.65,0,0,0-2.42,0A1.687,1.687,0,0,0,43.384-14.344Zm2.53,2.6H43.3V0h2.618ZM54.736.2a5.52,5.52,0,0,0,3.5-1.056A5.459,5.459,0,0,0,60.1-3.344L57.816-4.356A3.03,3.03,0,0,1,54.78-2.178a3.275,3.275,0,0,1-2.486-1.056A3.8,3.8,0,0,1,51.3-5.94a3.638,3.638,0,0,1,.99-2.64,3.357,3.357,0,0,1,2.464-1.034,2.958,2.958,0,0,1,3.014,2.156L60.016-8.47a5.288,5.288,0,0,0-5.28-3.52,5.793,5.793,0,0,0-4.356,1.8A5.987,5.987,0,0,0,48.62-5.9,5.922,5.922,0,0,0,50.38-1.54,5.9,5.9,0,0,0,54.736.2Zm11.7,0A4.844,4.844,0,0,0,69.652-.814a3.3,3.3,0,0,0,1.232-2.64c0-1.826-1.408-3.1-4.07-3.7-1.518-.33-2.178-.726-2.178-1.5,0-.638.836-1.144,1.65-1.144A2.591,2.591,0,0,1,68.75-8.206L70.774-9.35a4.437,4.437,0,0,0-4.4-2.64,4.646,4.646,0,0,0-2.992,1.012,3.158,3.158,0,0,0-1.276,2.6,3.029,3.029,0,0,0,.836,2.134A5.381,5.381,0,0,0,65.868-4.84c1.606.33,2.42.858,2.42,1.54,0,.792-.858,1.3-1.848,1.3a3.027,3.027,0,0,1-2.816-1.892L61.578-2.75A4.911,4.911,0,0,0,66.44.2Z" transform="translate(41.77 87.456) rotate(-21)" fill="#fff"/>
    </g>
  </g>
</svg>
