<svg xmlns="http://www.w3.org/2000/svg" width="37.248" height="46.744" viewBox="0 0 37.248 46.744">
  <path id="certificate" d="M81.224,20.45a8.034,8.034,0,1,0,8.034,8.034A8.043,8.043,0,0,0,81.224,20.45Zm3.406,6.745-2.921,4.382a1.461,1.461,0,0,1-2.026.4L77.492,30.52a1.461,1.461,0,0,1,1.621-2.43l.975.65c2.33-3.494,2.2-3.4,2.6-3.621A1.462,1.462,0,0,1,84.63,27.195ZM74.651,37.242v8.039a1.462,1.462,0,0,0,2.186,1.268l4.388-2.507,4.388,2.507A1.462,1.462,0,0,0,87.8,45.282V37.242A10.929,10.929,0,0,1,74.651,37.242Zm9.495-19.318V3.172A3.176,3.176,0,0,0,80.973,0H55.182A3.176,3.176,0,0,0,52.01,3.172V37a3.176,3.176,0,0,0,3.172,3.172H71.729c0-6.286-.01-5.9.023-6.186A10.966,10.966,0,0,1,84.145,17.925ZM60.774,7.3H73.19a1.461,1.461,0,0,1,0,2.921H60.774a1.461,1.461,0,0,1,0-2.921Zm7.3,14.607h-7.3a1.461,1.461,0,0,1,0-2.921h7.3a1.461,1.461,0,0,1,0,2.921Zm-7.3-5.843a1.461,1.461,0,0,1,0-2.921H73.19a1.461,1.461,0,0,1,0,2.921Z" transform="translate(-52.01)" fill="#4a97fa"/>
</svg>
