<svg xmlns="http://www.w3.org/2000/svg" width="206.257" height="24.364" viewBox="0 0 206.257 24.364">
  <g id="Chuvad" style="isolation: isolate">
    <path id="Path_106091" data-name="Path 106091" d="M987.23,981.889a1.711,1.711,0,0,1-.3.969,5.418,5.418,0,0,1-.738.877,7.158,7.158,0,0,1-.979.785c-.362.244-.688.452-.979.621h6.118V970.9c0-.365.23-.639.7-.822a4.64,4.64,0,0,1,1.7-.275,4.341,4.341,0,0,1,1.632.275q.673.274.673.822v16.656q0,.511-.678.785a4.38,4.38,0,0,1-1.64.274H971.911a1.1,1.1,0,0,1-.988-.511,2.189,2.189,0,0,1-.329-1.205,2.266,2.266,0,0,1,.329-1.243,1.1,1.1,0,0,1,.988-.51h5.574a2.309,2.309,0,0,0,.77-.329,14.48,14.48,0,0,0,1.294-.822q.7-.493,1.4-1.059a14.541,14.541,0,0,0,1.141-1h-.044a2,2,0,0,0,.351-.457,1.918,1.918,0,0,0,.133-.858v-4.639q0-.877-1.779-.877-1.69,0-1.689.877v5.369q0,.548-.7.8a4.941,4.941,0,0,1-1.7.255,4.608,4.608,0,0,1-1.63-.255q-.675-.256-.676-.8v-6.575a1.856,1.856,0,0,1,.482-1.224,4.3,4.3,0,0,1,1.335-1,7.808,7.808,0,0,1,2.034-.676,13.105,13.105,0,0,1,2.581-.237,12.861,12.861,0,0,1,2.536.237,8.173,8.173,0,0,1,2.056.676,4.269,4.269,0,0,1,1.357,1,1.855,1.855,0,0,1,.48,1.224Z" transform="translate(-970.594 -969.799)" fill="#fff"/>
    <path id="Path_106092" data-name="Path 106092" d="M997.419,974.218q-.086-.8-1.491-.8a1,1,0,0,1-.945-.511,2.434,2.434,0,0,1-.284-1.205,2.369,2.369,0,0,1,.307-1.242,1.046,1.046,0,0,1,.966-.511,9.216,9.216,0,0,1,4.455.932,2.663,2.663,0,0,1,1.69,2.246l-1.756,10.52a6.189,6.189,0,0,1,2.612,1.023,2.109,2.109,0,0,1,.988,1.717v4.638a2.541,2.541,0,0,1-1.6,2.32,9.672,9.672,0,0,1-4.368.822,9.8,9.8,0,0,1-4.388-.822,2.516,2.516,0,0,1-1.624-2.283v-4.639a2.154,2.154,0,0,1,.986-1.625,6.465,6.465,0,0,1,2.7-1.151Zm-.745,15.743a.741.741,0,0,0,.2.511q.2.219,1.076.219a2.264,2.264,0,0,0,1.031-.164.6.6,0,0,0,.285-.566v-2.447a.6.6,0,0,0-.285-.566,2.261,2.261,0,0,0-1.031-.164,2.1,2.1,0,0,0-1.01.164.614.614,0,0,0-.263.566Z" transform="translate(-965.904 -969.797)" fill="#fff"/>
    <path id="Path_106093" data-name="Path 106093" d="M1016.367,982.844a5.349,5.349,0,0,1-.155,1.439,1.849,1.849,0,0,1-.5.856h3.731V971q0-.511.7-.783a4.723,4.723,0,0,1,1.713-.274,4.268,4.268,0,0,1,1.6.274q.68.274.68.785V987.55q0,.511-.68.785a4.266,4.266,0,0,1-1.6.274h-11.019a1.053,1.053,0,0,1-.944-.516,2.221,2.221,0,0,1-.328-1.219,2.2,2.2,0,0,1,.328-1.237,1.065,1.065,0,0,1,.944-.5.717.717,0,0,0,.593-.328,1.253,1.253,0,0,0,.241-.765v-9.8q0-.4-.571-.618a3.946,3.946,0,0,0-1.4-.219,3.782,3.782,0,0,0-1.359.219q-.573.219-.572.621v13.405q0,.511-.7.785a4.722,4.722,0,0,1-1.712.274,4.272,4.272,0,0,1-1.6-.274q-.68-.274-.681-.785V973.085a1.77,1.77,0,0,1,.527-1.224,4.807,4.807,0,0,1,1.427-1,8.647,8.647,0,0,1,2.107-.676,14.271,14.271,0,0,1,5.181,0,8.684,8.684,0,0,1,2.105.674,4.834,4.834,0,0,1,1.427,1,1.762,1.762,0,0,1,.528,1.221Z" transform="translate(-963.473 -969.797)" fill="#fff"/>
    <path id="Path_106094" data-name="Path 106094" d="M1034.39,979.078a1.687,1.687,0,0,1,.7.42,1.873,1.873,0,0,1,.4.6,2.18,2.18,0,0,1,.154.657q.022.329.022.548v4.274a1.708,1.708,0,0,1-.57,1.224,5.209,5.209,0,0,1-1.531,1,9.691,9.691,0,0,1-2.231.676,14.751,14.751,0,0,1-5.272,0,9.677,9.677,0,0,1-2.209-.676,5.187,5.187,0,0,1-1.533-1,1.7,1.7,0,0,1-.568-1.224v-3.214c0-.341.23-.6.695-.785a4.643,4.643,0,0,1,1.7-.274,4.34,4.34,0,0,1,1.631.274q.675.274.674.785v2.009c0,.268.235.481.709.639a5,5,0,0,0,1.595.237,4.649,4.649,0,0,0,1.529-.237q.687-.237.688-.639v-2.046a.7.7,0,0,0-.263-.621,2.021,2.021,0,0,0-.484-.256l-7.2-2.046a1.678,1.678,0,0,1-.7-.42,1.88,1.88,0,0,1-.4-.6,2.115,2.115,0,0,1-.154-.657c-.015-.219-.022-.4-.022-.548v-4.237a1.7,1.7,0,0,1,.568-1.224,5.187,5.187,0,0,1,1.533-1,9.677,9.677,0,0,1,2.209-.676,14.7,14.7,0,0,1,5.272,0,9.691,9.691,0,0,1,2.231.676,5.209,5.209,0,0,1,1.531,1,1.708,1.708,0,0,1,.57,1.224v3.214c0,.341-.233.6-.7.785a4.635,4.635,0,0,1-1.7.274,4.373,4.373,0,0,1-1.61-.274q-.7-.274-.695-.785v-2.009c0-.268-.238-.481-.708-.639a5.023,5.023,0,0,0-1.6-.238,4.692,4.692,0,0,0-1.506.238c-.474.158-.709.371-.709.639v1.936a.7.7,0,0,0,.263.621,1.962,1.962,0,0,0,.483.256Z" transform="translate(-959.376 -969.799)" fill="#fff"/>
    <path id="Path_106095" data-name="Path 106095" d="M1039.829,974.218q-.089-.8-1.494-.8a.993.993,0,0,1-.942-.511,2.417,2.417,0,0,1-.287-1.205,2.368,2.368,0,0,1,.308-1.242,1.045,1.045,0,0,1,.966-.511,9.2,9.2,0,0,1,4.454.932,2.664,2.664,0,0,1,1.691,2.246l-1.755,10.52a6.194,6.194,0,0,1,2.61,1.023,2.108,2.108,0,0,1,.988,1.717v4.638a2.539,2.539,0,0,1-1.6,2.32,9.661,9.661,0,0,1-4.367.822,9.811,9.811,0,0,1-4.388-.822,2.518,2.518,0,0,1-1.624-2.283v-4.639a2.156,2.156,0,0,1,.987-1.625,6.466,6.466,0,0,1,2.7-1.151Zm-.747,15.743a.745.745,0,0,0,.2.511c.134.146.491.219,1.076.219a2.258,2.258,0,0,0,1.032-.164.6.6,0,0,0,.285-.566v-2.447a.6.6,0,0,0-.285-.566,2.254,2.254,0,0,0-1.032-.164,2.109,2.109,0,0,0-1.009.164.614.614,0,0,0-.264.566Z" transform="translate(-956.605 -969.797)" fill="#fff"/>
    <path id="Path_106096" data-name="Path 106096" d="M1055.305,969.944a27.784,27.784,0,0,1,4.1.274,9.981,9.981,0,0,1,3.094.932,4.585,4.585,0,0,1,2.635,4.42v12.09q0,.511-.682.785a4.273,4.273,0,0,1-1.6.274,4.721,4.721,0,0,1-1.712-.274q-.7-.274-.7-.785V975.423a1.27,1.27,0,0,0-.636-1.132,4.877,4.877,0,0,0-1.491-.6,9.309,9.309,0,0,0-1.712-.237c-.572-.023-1-.036-1.3-.036s-.724.013-1.295.036a9.3,9.3,0,0,0-1.712.237,4.863,4.863,0,0,0-1.491.6,1.266,1.266,0,0,0-.638,1.132v.146a3.112,3.112,0,0,1,1.471-.6,12.667,12.667,0,0,1,1.866-.128,7.3,7.3,0,0,1,1.734.2,4.027,4.027,0,0,1,1.45.677,3.419,3.419,0,0,1,1.008,1.205,3.9,3.9,0,0,1,.373,1.79v6.867a1.9,1.9,0,0,1-.46,1.224,4.116,4.116,0,0,1-1.3,1,7.523,7.523,0,0,1-2,.676,13.643,13.643,0,0,1-5.07,0,7.881,7.881,0,0,1-2-.676,4.026,4.026,0,0,1-1.317-1,1.9,1.9,0,0,1-.462-1.224V975.569a4.6,4.6,0,0,1,.748-2.685,5.34,5.34,0,0,1,2.062-1.735,10.488,10.488,0,0,1,3.116-.932A26.009,26.009,0,0,1,1055.305,969.944Zm-1.931,9.351q0-.986-1.624-.986a2.712,2.712,0,0,0-1.052.219.73.73,0,0,0-.528.694v5.187q0,.842,1.58.84,1.624,0,1.624-.84Z" transform="translate(-954.174 -969.797)" fill="#fff"/>
    <path id="Path_106097" data-name="Path 106097" d="M1076.305,982.844a5.342,5.342,0,0,1-.154,1.439,1.859,1.859,0,0,1-.5.856h3.732V971q0-.511.7-.783a4.724,4.724,0,0,1,1.712-.274,4.282,4.282,0,0,1,1.6.274q.68.274.68.785V987.55q0,.511-.68.785a4.28,4.28,0,0,1-1.6.274h-11.017a1.05,1.05,0,0,1-.942-.516,2.211,2.211,0,0,1-.331-1.219,2.187,2.187,0,0,1,.331-1.237,1.061,1.061,0,0,1,.942-.5.719.719,0,0,0,.593-.328,1.26,1.26,0,0,0,.242-.765v-9.8c0-.267-.191-.473-.571-.618a3.944,3.944,0,0,0-1.4-.219,3.8,3.8,0,0,0-1.361.219q-.571.219-.57.621v13.405c0,.341-.235.6-.7.785a4.728,4.728,0,0,1-1.712.274,4.275,4.275,0,0,1-1.6-.274c-.455-.182-.68-.444-.68-.785V973.085a1.761,1.761,0,0,1,.528-1.224,4.789,4.789,0,0,1,1.426-1,8.644,8.644,0,0,1,2.107-.676,13.525,13.525,0,0,1,2.612-.238,13.367,13.367,0,0,1,2.568.237,8.72,8.72,0,0,1,2.107.674,4.8,4.8,0,0,1,1.425,1,1.752,1.752,0,0,1,.528,1.221Z" transform="translate(-950.329 -969.797)" fill="#fff"/>
    <path id="Path_106098" data-name="Path 106098" d="M1102.42,975.752h1.8v-.218a4.765,4.765,0,0,1,.7-2.667,5.048,5.048,0,0,1,1.975-1.724,9.912,9.912,0,0,1,3.051-.925,25.7,25.7,0,0,1,3.883-.273,26.877,26.877,0,0,1,4.06.274,9.393,9.393,0,0,1,3.008.932,4.653,4.653,0,0,1,1.864,1.735,5.2,5.2,0,0,1,.636,2.685v12.09q0,.511-.7.785a4.445,4.445,0,0,1-1.624.274,4.529,4.529,0,0,1-1.689-.274q-.682-.274-.681-.785V975.423a1.278,1.278,0,0,0-.615-1.132,4.623,4.623,0,0,0-1.427-.6,8.366,8.366,0,0,0-1.624-.237c-.541-.023-.943-.036-1.207-.036q-.439,0-1.272.035a8.5,8.5,0,0,0-1.646.234,4.345,4.345,0,0,0-1.4.594,1.264,1.264,0,0,0-.593,1.114v.36h2.458a8,8,0,0,1,1.8.2,4.6,4.6,0,0,1,1.557.66,3.646,3.646,0,0,1,1.12,1.208,3.528,3.528,0,0,1,.44,1.813v5.934a2.63,2.63,0,0,1-1.624,2.235,8.96,8.96,0,0,1-4.391.915,9.1,9.1,0,0,1-4.41-.913,2.623,2.623,0,0,1-1.646-2.228v-6.355h-1.8v6.355a1.773,1.773,0,0,1-.527,1.224,4.815,4.815,0,0,1-1.427,1,8.57,8.57,0,0,1-2.129.676,13.645,13.645,0,0,1-2.591.238,12.761,12.761,0,0,1-2.874-.31,8.946,8.946,0,0,1-2.218-.785,5.929,5.929,0,0,1-1.624.822,7.053,7.053,0,0,1-2.239.311,7.336,7.336,0,0,1-1.8-.22,4.877,4.877,0,0,1-1.58-.7,4,4,0,0,1-1.141-1.155,2.93,2.93,0,0,1-.44-1.629V979.3a2.95,2.95,0,0,1,1.472-2.6,6.691,6.691,0,0,1,3.708-.953h2.108v-2.686a1.756,1.756,0,0,1,.526-1.217,4.807,4.807,0,0,1,1.427-1,8.647,8.647,0,0,1,2.108-.673,13.368,13.368,0,0,1,2.566-.235,13.748,13.748,0,0,1,2.591.235,8.618,8.618,0,0,1,2.129.673,4.824,4.824,0,0,1,1.427,1,1.758,1.758,0,0,1,.527,1.217Zm-13.3,3.47h-.966a2.065,2.065,0,0,0-1.252.292,1.091,1.091,0,0,0-.372.913v4.018c0,.561.379.84,1.141.84a1.267,1.267,0,0,0,1.272-.8,2.209,2.209,0,0,0,.155-.676c.014-.23.022-.42.022-.566Zm4.7-3.47h3.908v-1.511c0-.263-.19-.468-.572-.611a4.134,4.134,0,0,0-1.447-.216,3.7,3.7,0,0,0-1.317.216c-.382.143-.572.348-.572.611Zm3.908,3.47h-3.908v5.187c0,.269.19.475.572.621a3.651,3.651,0,0,0,1.317.219,4.08,4.08,0,0,0,1.447-.219c.382-.146.572-.352.572-.621Zm11.193,0v5.187a.736.736,0,0,0,.285.621,1.768,1.768,0,0,0,1.031.219q1.359,0,1.359-.84v-3.945a1.176,1.176,0,0,0-1.359-1.242Z" transform="translate(-946.201 -969.797)" fill="#fff"/>
    <path id="Path_106099" data-name="Path 106099" d="M1122.349,977.249c0,.341-.233.6-.7.785a4.729,4.729,0,0,1-1.713.274,4.259,4.259,0,0,1-1.6-.274q-.683-.274-.682-.785v-4.164a1.8,1.8,0,0,1,.505-1.224,4.648,4.648,0,0,1,1.36-1,7.932,7.932,0,0,1,2.04-.676,12.962,12.962,0,0,1,2.546-.238,13.3,13.3,0,0,1,2.57.238,7.931,7.931,0,0,1,2.062.676,4.6,4.6,0,0,1,1.36,1,1.809,1.809,0,0,1,.5,1.224v12.492a1.807,1.807,0,0,1-.5,1.224,4.577,4.577,0,0,1-1.36,1,7.886,7.886,0,0,1-2.062.676,13.292,13.292,0,0,1-2.57.238,12.952,12.952,0,0,1-2.546-.238,7.885,7.885,0,0,1-2.04-.676,4.627,4.627,0,0,1-1.36-1,1.8,1.8,0,0,1-.505-1.224v-4.2c0-.34.227-.6.682-.785a4.24,4.24,0,0,1,1.6-.274,4.708,4.708,0,0,1,1.713.274c.469.183.7.446.7.785v3.032a.681.681,0,0,0,.483.621,3.11,3.11,0,0,0,1.272.219,3.236,3.236,0,0,0,1.317-.219.684.684,0,0,0,.484-.621V974.254a.686.686,0,0,0-.484-.621,3.239,3.239,0,0,0-1.317-.219,3.113,3.113,0,0,0-1.272.219.683.683,0,0,0-.483.621Z" transform="translate(-938.346 -969.797)" fill="#fff"/>
    <path id="Path_106100" data-name="Path 106100" d="M1129.531,978.781a1.906,1.906,0,0,1,.462-1.226,3.981,3.981,0,0,1,1.272-.99,7.652,7.652,0,0,1,1.956-.658,12.417,12.417,0,0,1,2.546-.239,12.187,12.187,0,0,1,2.5.239,8.03,8.03,0,0,1,1.977.658,3.959,3.959,0,0,1,1.3.99,1.9,1.9,0,0,1,.46,1.226v6.7a1.908,1.908,0,0,1-.46,1.228,4.161,4.161,0,0,1-1.3,1.008,7.558,7.558,0,0,1-1.977.678,12.267,12.267,0,0,1-2.5.238,9.642,9.642,0,0,1-4.5-.915q-1.732-.916-1.734-2.235Zm4.7,5.544c0,.561.495.84,1.49.84,1.056,0,1.582-.279,1.582-.84v-4.347c0-.56-.526-.84-1.582-.84-.995,0-1.49.28-1.49.84Z" transform="translate(-935.741 -969.713)" fill="#fff"/>
  </g>
</svg>
