<svg xmlns="http://www.w3.org/2000/svg" width="163.988" height="31.778" viewBox="0 0 163.988 31.778">
  <g id="Dayryam" style="isolation: isolate">
    <path id="Path_106082" data-name="Path 106082" d="M838.422,969.944a27.8,27.8,0,0,1,4.105.274,9.972,9.972,0,0,1,3.095.932,4.58,4.58,0,0,1,2.633,4.42v12.09q0,.511-.68.785a4.27,4.27,0,0,1-1.6.274,4.716,4.716,0,0,1-1.712-.274q-.7-.274-.7-.785V975.423a1.269,1.269,0,0,0-.637-1.132,4.884,4.884,0,0,0-1.492-.6,9.287,9.287,0,0,0-1.712-.237c-.571-.023-1-.036-1.3-.036s-.723.013-1.294.036a9.266,9.266,0,0,0-1.712.237,4.871,4.871,0,0,0-1.492.6,1.267,1.267,0,0,0-.636,1.132v.146a3.116,3.116,0,0,1,1.469-.6,12.7,12.7,0,0,1,1.867-.128,7.318,7.318,0,0,1,1.735.2,4.022,4.022,0,0,1,1.447.677,3.434,3.434,0,0,1,1.01,1.205,3.919,3.919,0,0,1,.373,1.79v6.867a1.9,1.9,0,0,1-.461,1.224,4.1,4.1,0,0,1-1.3,1,7.51,7.51,0,0,1-2,.676,13.637,13.637,0,0,1-5.069,0,7.916,7.916,0,0,1-2-.676,4.043,4.043,0,0,1-1.317-1,1.9,1.9,0,0,1-.461-1.224V975.569a4.605,4.605,0,0,1,.746-2.685,5.354,5.354,0,0,1,2.063-1.735,10.486,10.486,0,0,1,3.116-.932A26.014,26.014,0,0,1,838.422,969.944Zm-1.931,9.351q0-.986-1.624-.986a2.719,2.719,0,0,0-1.052.219.73.73,0,0,0-.527.694v5.187q0,.842,1.579.84,1.626,0,1.624-.84Z" transform="translate(-828.591 -963.442)" fill="#fff"/>
    <path id="Path_106083" data-name="Path 106083" d="M855.957,969.944a27.776,27.776,0,0,1,4.1.274,9.977,9.977,0,0,1,3.1.932,4.582,4.582,0,0,1,2.632,4.42v12.09c0,.341-.228.6-.68.785a4.278,4.278,0,0,1-1.6.274,4.717,4.717,0,0,1-1.712-.274q-.7-.274-.7-.785V975.423a1.266,1.266,0,0,0-.635-1.132,4.872,4.872,0,0,0-1.492-.6,9.269,9.269,0,0,0-1.712-.237c-.571-.023-1-.036-1.294-.036s-.724.013-1.3.036a9.28,9.28,0,0,0-1.712.237,4.869,4.869,0,0,0-1.492.6,1.265,1.265,0,0,0-.637,1.132v.146a3.111,3.111,0,0,1,1.472-.6,12.616,12.616,0,0,1,1.864-.128,7.3,7.3,0,0,1,1.734.2,4.019,4.019,0,0,1,1.449.677,3.408,3.408,0,0,1,1.008,1.205,3.886,3.886,0,0,1,.374,1.79v6.867a1.9,1.9,0,0,1-.461,1.224,4.1,4.1,0,0,1-1.294,1,7.541,7.541,0,0,1-2,.676,13.644,13.644,0,0,1-5.07,0,7.9,7.9,0,0,1-2-.676,4.042,4.042,0,0,1-1.317-1,1.9,1.9,0,0,1-.461-1.224V975.569a4.6,4.6,0,0,1,.746-2.685,5.35,5.35,0,0,1,2.064-1.735,10.448,10.448,0,0,1,3.114-.932A26.053,26.053,0,0,1,855.957,969.944Zm-1.931,9.351c0-.657-.544-.986-1.625-.986a2.717,2.717,0,0,0-1.054.219.73.73,0,0,0-.527.694v5.187q0,.842,1.58.84c1.081,0,1.625-.279,1.625-.84Z" transform="translate(-824.746 -963.442)" fill="#fff"/>
    <path id="Path_106084" data-name="Path 106084" d="M879.633,988.719q-.439,0-1.1-.055a10.531,10.531,0,0,1-1.339-.2,8.3,8.3,0,0,1-1.361-.42,1.348,1.348,0,0,0-2.414,0,8.139,8.139,0,0,1-1.382.42,11.468,11.468,0,0,1-1.338.2c-.427.036-.784.055-1.076.055a8.883,8.883,0,0,1-4.324-.913,2.624,2.624,0,0,1-1.647-2.228V971q0-.511.682-.785a4.405,4.405,0,0,1,1.646-.274,4.55,4.55,0,0,1,1.69.274c.452.183.68.444.68.785v13.405c0,.269.189.475.571.621a3.79,3.79,0,0,0,1.361.219,3.693,3.693,0,0,0,1.294-.219,1.2,1.2,0,0,0,.726-.511V971c0-.341.233-.6.7-.785a4.454,4.454,0,0,1,1.624-.274,4.637,4.637,0,0,1,1.647.274c.482.183.726.444.726.785v13.515c.056.2.284.365.678.511a3.707,3.707,0,0,0,1.3.219,3.805,3.805,0,0,0,1.361-.219c.379-.146.57-.352.57-.621V971c0-.341.233-.6.7-.785a4.721,4.721,0,0,1,1.712-.274,4.277,4.277,0,0,1,1.6.274c.454.183.679.444.679.785v14.574a2.621,2.621,0,0,1-1.645,2.228A8.89,8.89,0,0,1,879.633,988.719Z" transform="translate(-820.902 -963.442)" fill="#fff"/>
    <path id="Path_106085" data-name="Path 106085" d="M892.883,969.944a26.461,26.461,0,0,1,3.929.274,10.515,10.515,0,0,1,3.138.932,5.353,5.353,0,0,1,2.063,1.735,4.605,4.605,0,0,1,.746,2.685v10.008a1.9,1.9,0,0,1-.461,1.224,4.056,4.056,0,0,1-1.317,1,7.9,7.9,0,0,1-2.019.676,12.622,12.622,0,0,1-2.524.238,9.778,9.778,0,0,1-4.521-.913q-1.756-.913-1.756-2.228V978.71a3.886,3.886,0,0,1,.373-1.79,3.409,3.409,0,0,1,1.01-1.205,4.019,4.019,0,0,1,1.449-.677,7.3,7.3,0,0,1,1.734-.2,12.665,12.665,0,0,1,1.866.128,3.11,3.11,0,0,1,1.47.6v-.146a1.27,1.27,0,0,0-.636-1.132,4.884,4.884,0,0,0-1.492-.6,9.357,9.357,0,0,0-1.734-.237c-.585-.023-1.025-.036-1.317-.036-.265,0-.682.013-1.251.036a9.269,9.269,0,0,0-1.712.237,4.859,4.859,0,0,0-1.492.6,1.267,1.267,0,0,0-.636,1.132v12.236c0,.341-.235.6-.7.785a4.726,4.726,0,0,1-1.712.274,4.281,4.281,0,0,1-1.6-.274q-.68-.274-.679-.785v-12.09a4.6,4.6,0,0,1,2.611-4.42,9.713,9.713,0,0,1,3.074-.932A27.773,27.773,0,0,1,892.883,969.944Zm1.974,14.465c0,.561.543.84,1.624.84q1.582,0,1.581-.84v-5.187a.73.73,0,0,0-.527-.694,2.728,2.728,0,0,0-1.055-.219q-1.622,0-1.624.986Z" transform="translate(-816.639 -963.442)" fill="#fff"/>
    <path id="Path_106086" data-name="Path 106086" d="M903.368,971q0-.511.681-.785a4.271,4.271,0,0,1,1.6-.274,4.728,4.728,0,0,1,1.712.274c.467.183.7.444.7.785v21.076q0,1.315-1.713,2.228a9.512,9.512,0,0,1-4.476.913,12.286,12.286,0,0,1-2.5-.237,7.225,7.225,0,0,1-1.953-.676,3.883,3.883,0,0,1-1.252-1.005,1.969,1.969,0,0,1-.439-1.223V990.07q0-.548.7-.8a4.738,4.738,0,0,1,1.624-.256,4.834,4.834,0,0,1,1.689.256q.68.256.68.8v.84c0,.56.47.84,1.4.84q1.536,0,1.536-.84Z" transform="translate(-813.868 -963.442)" fill="#fff"/>
    <path id="Path_106087" data-name="Path 106087" d="M915.772,980.478a4.23,4.23,0,0,0,1.449-1.712,3.934,3.934,0,0,0,.263-1.165v-3.35q0-.4-.8-.618a6.173,6.173,0,0,0-1.631-.219,5.4,5.4,0,0,0-1.5.219c-.507.146-.76.353-.76.621v6.5c0,.341-.272.6-.812.785a5.256,5.256,0,0,1-1.691.274,3.976,3.976,0,0,1-1.536-.274c-.438-.183-.658-.444-.658-.785v-7.671a1.652,1.652,0,0,1,.615-1.224,5.893,5.893,0,0,1,1.6-1,10.243,10.243,0,0,1,2.26-.676,13.886,13.886,0,0,1,5.115,0,10.754,10.754,0,0,1,2.259.676,5.783,5.783,0,0,1,1.624,1,1.657,1.657,0,0,1,.615,1.224v3.432a3.581,3.581,0,0,1,1.339.312q.593.274.593.749v9.972q0,.511-.707.785a4.242,4.242,0,0,1-1.546.274H908.091a1.052,1.052,0,0,1-.944-.516,2.221,2.221,0,0,1-.329-1.219,2.2,2.2,0,0,1,.329-1.237,1.064,1.064,0,0,1,.944-.5h.4a3.052,3.052,0,0,0,1.449-.436,7.851,7.851,0,0,0,1.141-.73Zm3.643,4.661v-3l-2.9,2.13c-.322.24-.541.414-.659.524s-.2.18-.241.216-.066.06-.066.072-.044.029-.13.054Z" transform="translate(-811.437 -963.442)" fill="#fff"/>
    <path id="Path_106088" data-name="Path 106088" d="M927.031,977.249q0,.511-.7.785a4.718,4.718,0,0,1-1.712.274,4.262,4.262,0,0,1-1.6-.274q-.682-.274-.682-.785v-4.164a1.815,1.815,0,0,1,.5-1.224,4.621,4.621,0,0,1,1.361-1,7.93,7.93,0,0,1,2.041-.676,12.952,12.952,0,0,1,2.546-.238,13.3,13.3,0,0,1,2.568.238,7.881,7.881,0,0,1,2.063.676,4.619,4.619,0,0,1,1.36,1,1.808,1.808,0,0,1,.5,1.224v12.492a1.806,1.806,0,0,1-.5,1.224,4.6,4.6,0,0,1-1.36,1,7.836,7.836,0,0,1-2.063.676,13.289,13.289,0,0,1-2.568.238,12.943,12.943,0,0,1-2.546-.238,7.884,7.884,0,0,1-2.041-.676,4.6,4.6,0,0,1-1.361-1,1.813,1.813,0,0,1-.5-1.224v-4.2c0-.34.227-.6.682-.785a4.242,4.242,0,0,1,1.6-.274,4.7,4.7,0,0,1,1.712.274c.468.183.7.446.7.785v3.032a.683.683,0,0,0,.483.621,3.113,3.113,0,0,0,1.273.219,3.249,3.249,0,0,0,1.317-.219.681.681,0,0,0,.483-.621V974.254a.683.683,0,0,0-.483-.621,3.252,3.252,0,0,0-1.317-.219,3.115,3.115,0,0,0-1.273.219.684.684,0,0,0-.483.621Z" transform="translate(-808.034 -963.442)" fill="#fff"/>
    <path id="Path_106089" data-name="Path 106089" d="M938.974,969.944a8.294,8.294,0,0,1,2.348.329,4.334,4.334,0,0,1,2.084,1.5,3.705,3.705,0,0,1,1.143-.931,7.009,7.009,0,0,1,1.382-.548,8.753,8.753,0,0,1,1.406-.274,11.758,11.758,0,0,1,1.25-.073q.044,0,.945.055a7.539,7.539,0,0,1,1.931.4,5.662,5.662,0,0,1,1.886,1.081,2.592,2.592,0,0,1,.857,2.086v8.02a5.043,5.043,0,0,1-.461,2.086,3.586,3.586,0,0,1-1.3,1.575H953.5a5.439,5.439,0,0,0,1.756-.22,1.915,1.915,0,0,0,.9-.585,1.625,1.625,0,0,0,.329-.879c.028-.341.044-.719.044-1.134V971.005q0-.511.7-.786a4.717,4.717,0,0,1,1.711-.275,4.286,4.286,0,0,1,1.6.274c.452.183.68.444.68.785v12.675a4.761,4.761,0,0,1-.527,2.338,4.239,4.239,0,0,1-1.492,1.552,6.95,6.95,0,0,1-2.326.876,15.382,15.382,0,0,1-3.029.274,26.7,26.7,0,0,1-3.4-.2,11.468,11.468,0,0,1-2.831-.712,12.855,12.855,0,0,1-2.9.731,24.953,24.953,0,0,1-3.423.219,15.374,15.374,0,0,1-3.029-.274,6.941,6.941,0,0,1-2.327-.876,4.247,4.247,0,0,1-1.493-1.552,4.776,4.776,0,0,1-.526-2.338V973.524a3,3,0,0,1,1.447-2.612A6.346,6.346,0,0,1,938.974,969.944Zm1.975,4.2a.669.669,0,0,0-.373-.566,1.81,1.81,0,0,0-.812-.164,1.453,1.453,0,0,0-.79.22.692.692,0,0,0-.353.623v8.207q0,.622.045,1.135a1.62,1.62,0,0,0,.329.88,1.916,1.916,0,0,0,.9.585,5.428,5.428,0,0,0,1.756.22,2.853,2.853,0,0,1,.525-.018,1.9,1.9,0,0,0,.44-.018,4.5,4.5,0,0,1-1.207-1.644,5.022,5.022,0,0,1-.461-2.082Zm8.558,1.607a2.24,2.24,0,0,0-.527-1.735,2.065,2.065,0,0,0-1.4-.458,2.3,2.3,0,0,0-1.36.4q-.572.4-.572,1.753V981.3a3.579,3.579,0,0,0,.374,1.5,3.143,3.143,0,0,0,1.557,1.388,3.126,3.126,0,0,0,1.931-2.849Z" transform="translate(-805.492 -963.442)" fill="#fff"/>
    <path id="Path_106090" data-name="Path 106090" d="M960.607,967.846q0-.84-1.536-.84-1.4,0-1.4.84v.84q0,.548-.679.8a4.84,4.84,0,0,1-1.691.256,4.739,4.739,0,0,1-1.624-.256c-.467-.17-.7-.438-.7-.8v-2.009a1.966,1.966,0,0,1,.439-1.224,3.9,3.9,0,0,1,1.251-1,7.216,7.216,0,0,1,1.953-.676,12.307,12.307,0,0,1,2.5-.237,9.524,9.524,0,0,1,4.477.913q1.71.913,1.712,2.228v21.076c0,.341-.235.6-.7.785a4.735,4.735,0,0,1-1.713.274,4.281,4.281,0,0,1-1.6-.274q-.68-.274-.68-.785Z" transform="translate(-801.316 -963.536)" fill="#fff"/>
  </g>
</svg>
