<svg xmlns="http://www.w3.org/2000/svg" width="46.189" height="37.663" viewBox="0 0 46.189 37.663">
  <g id="devices" transform="translate(0 -47.256)">
    <g id="Group_49594" data-name="Group 49594" transform="translate(16.344 70.616)">
      <g id="Group_49593" data-name="Group 49593">
        <path id="Path_117380" data-name="Path 117380" d="M181.172,306.2v5.983h4.564l-.4,3.264h-2.188v2.744h17.947v-2.744h-2.188l-.4-3.264h9.517a3,3,0,0,0,3-3V306.2H181.172Z" transform="translate(-181.172 -306.195)" fill="#ae55fa"/>
      </g>
    </g>
    <g id="Group_49596" data-name="Group 49596" transform="translate(8.396 47.256)">
      <g id="Group_49595" data-name="Group 49595">
        <path id="Path_117381" data-name="Path 117381" d="M127.865,47.256h-31.8a3,3,0,0,0-3,3v6.557h2.756A5.2,5.2,0,0,1,101.015,62v5.871h29.845V50.251A3,3,0,0,0,127.865,47.256Z" transform="translate(-93.067 -47.256)" fill="#ae55fa"/>
      </g>
    </g>
    <g id="Group_49598" data-name="Group 49598" transform="translate(0 80.514)">
      <g id="Group_49597" data-name="Group 49597">
        <path id="Path_117382" data-name="Path 117382" d="M0,415.914v1.957a2.451,2.451,0,0,0,2.449,2.449h8.7a2.451,2.451,0,0,0,2.449-2.449v-1.957Z" transform="translate(0 -415.914)" fill="#ae55fa"/>
      </g>
    </g>
    <g id="Group_49600" data-name="Group 49600" transform="translate(0 59.552)">
      <g id="Group_49599" data-name="Group 49599">
        <path id="Path_117383" data-name="Path 117383" d="M11.152,183.554h-8.7A2.451,2.451,0,0,0,0,186v1.957H13.6V186A2.451,2.451,0,0,0,11.152,183.554Z" transform="translate(0 -183.554)" fill="#ae55fa"/>
      </g>
    </g>
    <g id="Group_49602" data-name="Group 49602" transform="translate(0 66.701)">
      <g id="Group_49601" data-name="Group 49601">
        <rect id="Rectangle_20280" data-name="Rectangle 20280" width="13.6" height="11.069" fill="#ae55fa"/>
      </g>
    </g>
  </g>
</svg>
