<svg xmlns="http://www.w3.org/2000/svg" width="70.802" height="30.208" viewBox="0 0 70.802 30.208">
  <g id="Eth" style="isolation: isolate">
    <path id="Path_106068" data-name="Path 106068" d="M604.5,989.743a4.109,4.109,0,0,1-.7,2.557,4.255,4.255,0,0,1-1.646,1.333,5.81,5.81,0,0,1-1.931.493q-.986.073-1.514.073H598.4a1.051,1.051,0,0,1-.944-.53,2.28,2.28,0,0,1-.328-1.224,2.215,2.215,0,0,1,.333-1.242,1.079,1.079,0,0,1,.96-.511h.312c.566,0,.886-.1.96-.292a1.47,1.47,0,0,0,.112-.511v-4.931c0-.39-.13-.615-.4-.676a3.024,3.024,0,0,0-.657-.091h-.177a1.065,1.065,0,0,1-.942-.493,2.149,2.149,0,0,1-.33-1.224,2.237,2.237,0,0,1,.33-1.242,1.055,1.055,0,0,1,.942-.511h.177q.832,0,.943-.274a1.346,1.346,0,0,0,.11-.493v-3.36a3.42,3.42,0,0,0-.44-1.9,2.618,2.618,0,0,0-1.168-.968,4.934,4.934,0,0,0-1.654-.365c-.616-.036-1.263-.055-1.938-.055s-1.323.018-1.94.055a4.942,4.942,0,0,0-1.655.365,2.616,2.616,0,0,0-1.168.968,3.41,3.41,0,0,0-.439,1.9v8.547h2.808V974.95c0-.341.233-.6.7-.785a4.654,4.654,0,0,1,1.7-.274,4.331,4.331,0,0,1,1.63.274q.675.274.674.785v16.108a1.856,1.856,0,0,1-.482,1.224,4.359,4.359,0,0,1-1.312,1,7.514,7.514,0,0,1-1.946.676,12.085,12.085,0,0,1-4.767,0,7.146,7.146,0,0,1-1.924-.676,4.474,4.474,0,0,1-1.291-1,1.854,1.854,0,0,1-.48-1.224v-2.447h-8.077a1.053,1.053,0,0,1-.943-.511,2.168,2.168,0,0,1-.331-1.205,2.245,2.245,0,0,1,.331-1.243,1.058,1.058,0,0,1,.943-.51.772.772,0,0,0,.615-.329,1.185,1.185,0,0,0,.263-.767v-4.018q0-.877-1.778-.877-1.69,0-1.69.877v7.6q0,.548-.7.822a4.636,4.636,0,0,1-1.7.274,4.328,4.328,0,0,1-1.63-.274q-.675-.274-.674-.822v-8.8a1.853,1.853,0,0,1,.48-1.224,4.308,4.308,0,0,1,1.335-1,7.815,7.815,0,0,1,2.035-.676,13.1,13.1,0,0,1,2.58-.238,12.874,12.874,0,0,1,2.537.238,8.188,8.188,0,0,1,2.056.676,4.263,4.263,0,0,1,1.357,1,1.855,1.855,0,0,1,.482,1.224v4.018a4.821,4.821,0,0,1-.174,1.443,2.02,2.02,0,0,1-.523.858h3.2v-9.2a6.657,6.657,0,0,1,.57-2.922,4.412,4.412,0,0,1,1.773-1.881,8.687,8.687,0,0,1,3.089-1,29.584,29.584,0,0,1,4.469-.292,29.226,29.226,0,0,1,4.422.292,8.929,8.929,0,0,1,3.089.986A4.416,4.416,0,0,1,603.91,973a6.564,6.564,0,0,1,.591,2.94v3.872a2.823,2.823,0,0,1-.479,1.5,3.053,3.053,0,0,1-1.347,1.169,3.846,3.846,0,0,1,1.218,1,2.969,2.969,0,0,1,.608,1.991Zm-12.29-1.132H589.4v1.242a.718.718,0,0,0,.4.639,1.9,1.9,0,0,0,.982.238,2.01,2.01,0,0,0,1-.238.715.715,0,0,0,.424-.639Z" transform="translate(-569.342 -963.992)" fill="#fff"/>
    <path id="Path_106069" data-name="Path 106069" d="M619.444,973.343c-.236,0-.426-.005-.572-.018a2.685,2.685,0,0,0-.527.018,3.578,3.578,0,0,1,1.317,1.607,5.232,5.232,0,0,1,.439,2.082V985.1a2.594,2.594,0,0,1-.855,2.082,5.514,5.514,0,0,1-1.978,1.078,8.955,8.955,0,0,1-2.215.4c-.733.036-1.244.055-1.536.055q-.483,0-1.58-.055a9.254,9.254,0,0,1-2.239-.4,5.694,5.694,0,0,1-2.019-1.078,2.6,2.6,0,0,1-.879-2.118v-8a5.389,5.389,0,0,1,.44-2.1,4.063,4.063,0,0,1,1.23-1.662h-1.022a5.576,5.576,0,0,0-1.774.219,1.871,1.871,0,0,0-.91.6,1.712,1.712,0,0,0-.334.912q-.044.531-.044,1.151v11.433q0,.548-.7.822a4.638,4.638,0,0,1-1.7.274,4.331,4.331,0,0,1-1.63-.274q-.675-.274-.675-.822V974.877a4.884,4.884,0,0,1,.526-2.356,4.178,4.178,0,0,1,1.491-1.571,6.927,6.927,0,0,1,2.322-.877,15.6,15.6,0,0,1,3.069-.275,24.759,24.759,0,0,1,3.44.22,13.159,13.159,0,0,1,2.958.767,11.368,11.368,0,0,1,2.87-.73,25.677,25.677,0,0,1,3.4-.219,15.615,15.615,0,0,1,3.069.274,6.937,6.937,0,0,1,2.322.877,4.187,4.187,0,0,1,1.491,1.571,4.884,4.884,0,0,1,.527,2.356v12.748c0,.365-.227.639-.674.822a4.343,4.343,0,0,1-1.631.274,4.646,4.646,0,0,1-1.7-.274q-.695-.274-.695-.822V976.229c0-.414-.016-.8-.044-1.151a1.737,1.737,0,0,0-.329-.913,1.871,1.871,0,0,0-.9-.6A5.494,5.494,0,0,0,619.444,973.343Zm-4.039,3.908a3.344,3.344,0,0,0-.395-1.461,3.294,3.294,0,0,0-1.536-1.388,3.112,3.112,0,0,0-1.6,1.406,3.653,3.653,0,0,0-.373,1.479v5.662a3.593,3.593,0,0,0,.154,1.187,1.462,1.462,0,0,0,.417.639,1.26,1.26,0,0,0,.636.274,5.27,5.27,0,0,0,.768.055,5.2,5.2,0,0,0,.791-.055,1.244,1.244,0,0,0,.613-.274,1.334,1.334,0,0,0,.4-.657,4.412,4.412,0,0,0,.13-1.205Z" transform="translate(-562.687 -963.992)" fill="#fff"/>
    <path id="Path_106070" data-name="Path 106070" d="M623.644,970.03a8.59,8.59,0,0,1-4.325-.913,2.6,2.6,0,0,1-1.557-2.192v-1.79c0-.365.226-.633.68-.8a4.564,4.564,0,0,1,1.6-.256,5.073,5.073,0,0,1,1.711.253c.469.167.7.432.7.791v.576a.894.894,0,0,0,.22.63,1.3,1.3,0,0,0,.923.233,1.47,1.47,0,0,0,.986-.233.841.841,0,0,0,.243-.63v-.576c0-.359.234-.624.7-.791a5.078,5.078,0,0,1,1.711-.253,4.585,4.585,0,0,1,1.6.256q.68.256.68.8v1.79a2.6,2.6,0,0,1-1.558,2.192A8.585,8.585,0,0,1,623.644,970.03Z" transform="translate(-558.724 -964.076)" fill="#fff"/>
  </g>
</svg>
