<svg xmlns="http://www.w3.org/2000/svg" xmlns:xlink="http://www.w3.org/1999/xlink" width="651.982" height="410.371" viewBox="0 0 651.982 410.371">
  <defs>
    <linearGradient id="linear-gradient" x1="0.741" y1="-0.22" x2="0.249" y2="1.03" gradientUnits="objectBoundingBox">
      <stop offset="0" stop-color="#63380e"/>
      <stop offset="0.231" stop-color="#c38f24"/>
      <stop offset="0.409" stop-color="#fff9ca"/>
      <stop offset="0.446" stop-color="#f7ecba"/>
      <stop offset="0.646" stop-color="#d2ad6d"/>
      <stop offset="0.812" stop-color="#b77f35"/>
      <stop offset="0.934" stop-color="#a66212"/>
      <stop offset="1" stop-color="#a05805"/>
    </linearGradient>
    <linearGradient id="linear-gradient-2" x1="1.009" y1="0.069" x2="0.029" y2="0.912" gradientUnits="objectBoundingBox">
      <stop offset="0.007" stop-color="#b48426"/>
      <stop offset="0.166" stop-color="#f3e08d"/>
      <stop offset="0.234" stop-color="#dbb758"/>
      <stop offset="0.292" stop-color="#c99a32"/>
      <stop offset="0.322" stop-color="#c38f24"/>
      <stop offset="0.389" stop-color="#bb7e22"/>
      <stop offset="0.466" stop-color="#b57122"/>
      <stop offset="0.493" stop-color="#ba7b2f"/>
      <stop offset="0.543" stop-color="#ca9752"/>
      <stop offset="0.611" stop-color="#e3c58a"/>
      <stop offset="0.679" stop-color="#fff9ca"/>
      <stop offset="0.861" stop-color="#c38f24"/>
      <stop offset="1" stop-color="#63380e"/>
    </linearGradient>
    <linearGradient id="linear-gradient-3" x1="0.73" y1="-0.316" x2="0.285" y2="1.373" gradientUnits="objectBoundingBox">
      <stop offset="0" stop-color="#f3e08d"/>
      <stop offset="0.166" stop-color="#c59227"/>
      <stop offset="0.278" stop-color="#c38f24"/>
      <stop offset="0.292" stop-color="#c08a21"/>
      <stop offset="0.423" stop-color="#a8650c"/>
      <stop offset="0.493" stop-color="#a05805"/>
      <stop offset="0.517" stop-color="#a66212"/>
      <stop offset="0.562" stop-color="#b77f35"/>
      <stop offset="0.623" stop-color="#d2ad6d"/>
      <stop offset="0.696" stop-color="#f7ecba"/>
      <stop offset="0.71" stop-color="#fff9ca"/>
      <stop offset="0.861" stop-color="#c38f24"/>
    </linearGradient>
    <linearGradient id="linear-gradient-4" x1="0.539" y1="0.048" x2="0.461" y2="0.952" gradientUnits="objectBoundingBox">
      <stop offset="0.085" stop-color="#f3e08d"/>
      <stop offset="0.161" stop-color="#dbb758"/>
      <stop offset="0.227" stop-color="#c99a32"/>
      <stop offset="0.261" stop-color="#c38f24"/>
      <stop offset="0.338" stop-color="#bb7e22"/>
      <stop offset="0.425" stop-color="#b57122"/>
      <stop offset="0.457" stop-color="#ba7b2f"/>
      <stop offset="0.517" stop-color="#ca9752"/>
      <stop offset="0.598" stop-color="#e3c58a"/>
      <stop offset="0.679" stop-color="#fff9ca"/>
      <stop offset="0.861" stop-color="#c38f24"/>
      <stop offset="1" stop-color="#63380e"/>
    </linearGradient>
    <linearGradient id="linear-gradient-5" x1="11.677" y1="-10.674" x2="11.759" y2="-9.735" gradientUnits="objectBoundingBox">
      <stop offset="0.164" stop-color="#a05805"/>
      <stop offset="0.212" stop-color="#a66212"/>
      <stop offset="0.303" stop-color="#b77f35"/>
      <stop offset="0.426" stop-color="#d2ad6d"/>
      <stop offset="0.574" stop-color="#f7ecba"/>
      <stop offset="0.601" stop-color="#fff9ca"/>
      <stop offset="1" stop-color="#c38f24"/>
    </linearGradient>
    <linearGradient id="linear-gradient-6" x1="0.794" y1="0.306" x2="1.275" y2="-1.068" xlink:href="#linear-gradient-3"/>
    <linearGradient id="linear-gradient-7" x1="1.094" y1="-1.375" x2="1.125" y2="-0.352" gradientUnits="objectBoundingBox">
      <stop offset="0" stop-color="#89540f"/>
      <stop offset="0.118" stop-color="#8f550b"/>
      <stop offset="0.266" stop-color="#a05805"/>
      <stop offset="0.312" stop-color="#a66212"/>
      <stop offset="0.399" stop-color="#b77f35"/>
      <stop offset="0.517" stop-color="#d2ad6d"/>
      <stop offset="0.66" stop-color="#f7ecba"/>
      <stop offset="0.686" stop-color="#fff9ca"/>
      <stop offset="0.841" stop-color="#c38f24"/>
      <stop offset="1" stop-color="#63380e"/>
    </linearGradient>
    <linearGradient id="linear-gradient-8" x1="1.185" y1="-0.609" x2="1.31" y2="-2.036" gradientUnits="objectBoundingBox">
      <stop offset="0" stop-color="#63380e"/>
      <stop offset="0.139" stop-color="#c38f24"/>
      <stop offset="0.321" stop-color="#fff9ca"/>
      <stop offset="0.402" stop-color="#e3c58a"/>
      <stop offset="0.483" stop-color="#ca9752"/>
      <stop offset="0.543" stop-color="#ba7b2f"/>
      <stop offset="0.575" stop-color="#b57122"/>
      <stop offset="0.662" stop-color="#bb7e22"/>
      <stop offset="0.739" stop-color="#c38f24"/>
      <stop offset="0.773" stop-color="#c99a32"/>
      <stop offset="0.839" stop-color="#dbb758"/>
      <stop offset="0.915" stop-color="#f3e08d"/>
    </linearGradient>
    <linearGradient id="linear-gradient-9" x1="0.5" x2="0.5" y2="1" gradientUnits="objectBoundingBox">
      <stop offset="0" stop-color="#4e9cff"/>
      <stop offset="0.984" stop-color="#176ad4"/>
    </linearGradient>
  </defs>
  <g id="Group_44877" data-name="Group 44877" transform="translate(-418.75 -389.901)">
    <g id="Group_23145" data-name="Group 23145" transform="translate(419.988 499.849) rotate(1)">
      <path id="Path_41200" data-name="Path 41200" d="M46.8,3.172S19.014,13.716,0,0A20.225,20.225,0,0,0,1.761,3C19.6,28.21,60.878,13.519,60.878,13.519Z" transform="translate(130.069 153.472)" fill="url(#linear-gradient)"/>
      <path id="Path_41201" data-name="Path 41201" d="M60.284,12.553C59.217,5.382,55.36,1.184,50.054-.848c.213.752.4,1.538.549,2.366,4.56,24.967-69.54,50.258-47.962,83.827A22.135,22.135,0,0,0,4.2,87.392L4.2,87.4l9.548,10.909a33.783,33.783,0,0,1-3.182-4.927c-.051-.12-.118-.268-.2-.435C-1.588,66.01,65.345,46.523,60.284,12.553Z" transform="translate(119.508 60.089)" fill="url(#linear-gradient-2)"/>
      <path id="Path_41202" data-name="Path 41202" d="M98.191,4.656l-.086.037a14.362,14.362,0,0,0-1.218-1.1c-10.4-8.34-30.454-6.185-55.051,6.87q-5.262,2.791-10.78,6.248c-8.407,5.272-23.917,5.741-31.362.065,8.914,7.451,26.669,17.948,41.044,10.97,4.589-2.228,9.157-4.345,13.634-6.281C73.779,13.075,91.521,8.086,102.3,12.216a19.863,19.863,0,0,1,5.306,3.308Z" transform="translate(67.261 47.025)" fill="url(#linear-gradient-3)"/>
      <path id="Path_41203" data-name="Path 41203" d="M77.375,70.981s-7.093-5.808-9.911-8.7C51.561,45.942,37.728,17.67,33.2,6.5L0,0C5.343,13.178,24.494,41.083,57.568,60.592,61.985,63.2,77.375,70.981,77.375,70.981Z" fill="url(#linear-gradient-4)"/>
    </g>
    <g id="Group_36214" data-name="Group 36214" transform="translate(468.303 349.234)">
      <g id="Group_23143" data-name="Group 23143" transform="translate(352.916 237.13) rotate(12.007)">
        <path id="Path_41183" data-name="Path 41183" d="M0,0C9.233,5.809,4.854,21.192,4.685,20.374l12.463-1.438C17.8,14.837,16.18,1.818,0,0Z" transform="translate(238.365 2.374)" fill="url(#linear-gradient-5)"/>
        <path id="Path_41184" data-name="Path 41184" d="M51.786,5.955C33.78,18.389,21.422,60.177,0,51.1,45.47,66.627,44.592,24.792,65.415,8.554,73.241,2.451,83.546.9,91.3,3.684,85.7,1.325,66.674-4.326,51.786,5.955Z" transform="translate(152.885 0)" fill="url(#linear-gradient-6)"/>
        <path id="Path_41185" data-name="Path 41185" d="M0,0C9.167,2.728,14.332,8.655,26,16.148,55.419,35.034,67.7,31.281,80.307,30.5c-7.67-.82-24.82-8.289-31.332-12.493C29.021,5.145,12.826.386,0,0Z" transform="translate(70.649 23.997)" fill="url(#linear-gradient-7)"/>
        <path id="Path_41186" data-name="Path 41186" d="M0,19.367l17.785,3.022C20.318,17.414,42.474.1,65.607,3.339,21.119-8.181,3.078,13.323,0,19.367Z" transform="translate(0 21.466)" fill="url(#linear-gradient-8)"/>
      </g>
      <g id="Group_27880" data-name="Group 27880" transform="translate(116.773 40.666)">
        <rect id="Rectangle_5596" data-name="Rectangle 5596" width="347.122" height="295.904" rx="10" transform="translate(0 0)" fill="#fff"/>
        <rect id="Rectangle_5597" data-name="Rectangle 5597" width="347.122" height="32.835" rx="6" transform="translate(0 0)" fill="#5c9cf4"/>
        <g id="Group_27872" data-name="Group 27872" transform="translate(14.037 12.294)">
          <path id="Path_81108" data-name="Path 81108" d="M106.131,85.582a3.926,3.926,0,1,1,3.926,3.925A3.926,3.926,0,0,1,106.131,85.582Z" transform="translate(-106.131 -81.657)" fill="#dae6ff"/>
          <path id="Path_81109" data-name="Path 81109" d="M120.844,85.582a3.925,3.925,0,1,1,3.925,3.925A3.925,3.925,0,0,1,120.844,85.582Z" transform="translate(-104.367 -81.657)" fill="#dae6ff"/>
          <path id="Path_81110" data-name="Path 81110" d="M135.556,85.582a3.925,3.925,0,1,1,3.925,3.925A3.925,3.925,0,0,1,135.556,85.582Z" transform="translate(-102.603 -81.657)" fill="#dae6ff"/>
        </g>
        <rect id="Rectangle_5598" data-name="Rectangle 5598" width="98.398" height="98.398" transform="translate(27.509 58.888)" fill="#c8dffd" opacity="0.5"/>
        <path id="Path_81111" data-name="Path 81111" d="M308.579,130.607H230.311a3.718,3.718,0,0,1-3.719-3.718h0a3.719,3.719,0,0,1,3.719-3.719h78.267a3.718,3.718,0,0,1,3.718,3.719h0A3.718,3.718,0,0,1,308.579,130.607Z" transform="translate(-77.649 -64.385)" fill="#7798f8" opacity="0.5"/>
        <path id="Path_81112" data-name="Path 81112" d="M392.151,126.154H313.883a3.719,3.719,0,0,1-3.718-3.719h0a3.718,3.718,0,0,1,3.718-3.718h78.267a3.718,3.718,0,0,1,3.718,3.718h0A3.719,3.719,0,0,1,392.151,126.154Z" transform="translate(-67.628 -64.919)" fill="#7798f8" opacity="0.5"/>
        <g id="Group_27873" data-name="Group 27873" transform="translate(148.943 90.03)" opacity="0.3">
          <path id="Path_81113" data-name="Path 81113" d="M324.072,155.889H229a2.411,2.411,0,0,1-2.411-2.41h0a2.41,2.41,0,0,1,2.411-2.41h95.068a2.409,2.409,0,0,1,2.41,2.41h0A2.41,2.41,0,0,1,324.072,155.889Z" transform="translate(-226.592 -151.069)" fill="#b8d0fc"/>
          <path id="Path_81114" data-name="Path 81114" d="M348.85,155.889h-25.1a2.411,2.411,0,0,1-2.41-2.41h0a2.41,2.41,0,0,1,2.41-2.41h25.1a2.409,2.409,0,0,1,2.41,2.41h0A2.41,2.41,0,0,1,348.85,155.889Z" transform="translate(-215.23 -151.069)" fill="#b8d0fc"/>
          <path id="Path_81115" data-name="Path 81115" d="M264.873,169.237H229a2.411,2.411,0,0,1-2.411-2.411h0a2.411,2.411,0,0,1,2.411-2.41h35.87a2.41,2.41,0,0,1,2.41,2.41h0A2.41,2.41,0,0,1,264.873,169.237Z" transform="translate(-226.592 -149.469)" fill="#b8d0fc"/>
          <path id="Path_81116" data-name="Path 81116" d="M318.174,169.237H269.022a2.41,2.41,0,0,1-2.41-2.411h0a2.41,2.41,0,0,1,2.41-2.41h49.152a2.41,2.41,0,0,1,2.41,2.41h0A2.41,2.41,0,0,1,318.174,169.237Z" transform="translate(-221.793 -149.469)" fill="#b8d0fc"/>
          <path id="Path_81117" data-name="Path 81117" d="M348.85,169.237h-25.1a2.411,2.411,0,0,1-2.41-2.411h0a2.411,2.411,0,0,1,2.41-2.41h25.1a2.41,2.41,0,0,1,2.41,2.41h0A2.41,2.41,0,0,1,348.85,169.237Z" transform="translate(-215.23 -149.469)" fill="#b8d0fc"/>
          <path id="Path_81118" data-name="Path 81118" d="M277.675,180.778H229a2.411,2.411,0,0,1-2.411-2.41h0a2.41,2.41,0,0,1,2.411-2.41h48.671a2.41,2.41,0,0,1,2.411,2.41h0A2.411,2.411,0,0,1,277.675,180.778Z" transform="translate(-226.592 -148.085)" fill="#b8d0fc"/>
          <path id="Path_81119" data-name="Path 81119" d="M363.98,180.778h-79.6a2.41,2.41,0,0,1-2.41-2.41h0a2.409,2.409,0,0,1,2.41-2.41h79.6a2.41,2.41,0,0,1,2.41,2.41h0A2.411,2.411,0,0,1,363.98,180.778Z" transform="translate(-219.952 -148.085)" fill="#b8d0fc"/>
        </g>
        <g id="Group_27874" data-name="Group 27874" transform="translate(148.943 137.517)" opacity="0.3">
          <path id="Path_81120" data-name="Path 81120" d="M324.072,198.292H229a2.41,2.41,0,0,1-2.411-2.41h0a2.41,2.41,0,0,1,2.411-2.41h95.068a2.409,2.409,0,0,1,2.41,2.41h0A2.409,2.409,0,0,1,324.072,198.292Z" transform="translate(-226.592 -193.472)" fill="#b8d0fc"/>
          <path id="Path_81121" data-name="Path 81121" d="M348.85,198.292h-25.1a2.41,2.41,0,0,1-2.41-2.41h0a2.41,2.41,0,0,1,2.41-2.41h25.1a2.409,2.409,0,0,1,2.41,2.41h0A2.409,2.409,0,0,1,348.85,198.292Z" transform="translate(-215.23 -193.472)" fill="#b8d0fc"/>
          <path id="Path_81122" data-name="Path 81122" d="M264.873,211.64H229a2.411,2.411,0,0,1-2.411-2.41h0A2.41,2.41,0,0,1,229,206.82h35.87a2.409,2.409,0,0,1,2.41,2.41h0A2.41,2.41,0,0,1,264.873,211.64Z" transform="translate(-226.592 -191.871)" fill="#b8d0fc"/>
          <path id="Path_81123" data-name="Path 81123" d="M318.174,211.64H269.022a2.41,2.41,0,0,1-2.41-2.41h0a2.409,2.409,0,0,1,2.41-2.41h49.152a2.409,2.409,0,0,1,2.41,2.41h0A2.41,2.41,0,0,1,318.174,211.64Z" transform="translate(-221.793 -191.871)" fill="#b8d0fc"/>
        </g>
        <g id="Group_27875" data-name="Group 27875" transform="translate(44.173 73.556)">
          <path id="Path_81124" data-name="Path 81124" d="M160.495,136.359h10.162L198.111,199.2H186.524l-6.33-15.065h-29.5L144.272,199.2H133.04Zm15.689,38.062L165.4,149.463l-10.7,24.958Z" transform="translate(-133.04 -136.359)" fill="#b8d0fc"/>
        </g>
        <g id="Group_27876" data-name="Group 27876" transform="translate(27.509 177.106)">
          <rect id="Rectangle_5599" data-name="Rectangle 5599" width="54.966" height="10.611" fill="#ff912b"/>
          <rect id="Rectangle_5600" data-name="Rectangle 5600" width="54.966" height="10.611" transform="translate(0 10.611)" fill="#fc7600"/>
          <rect id="Rectangle_5601" data-name="Rectangle 5601" width="54.966" height="10.611" transform="translate(0 21.223)" fill="#4b49f2"/>
        </g>
        <g id="Group_27877" data-name="Group 27877" transform="translate(90.44 178.531)">
          <path id="Path_81125" data-name="Path 81125" d="M206.888,234.677H176.644a2.291,2.291,0,0,1-2.291-2.291h0a2.291,2.291,0,0,1,2.291-2.291h30.243a2.291,2.291,0,0,1,2.291,2.291h0A2.291,2.291,0,0,1,206.888,234.677Z" transform="translate(-174.353 -230.094)" fill="#b8d0fc"/>
          <path id="Path_81126" data-name="Path 81126" d="M196.7,241.89H176.644a2.291,2.291,0,0,1-2.291-2.291h0a2.291,2.291,0,0,1,2.291-2.291H196.7a2.291,2.291,0,0,1,2.291,2.291h0A2.291,2.291,0,0,1,196.7,241.89Z" transform="translate(-174.353 -229.229)" fill="#b8d0fc"/>
        </g>
        <g id="Group_27878" data-name="Group 27878" transform="translate(27.509 231.971)">
          <rect id="Rectangle_5602" data-name="Rectangle 5602" width="54.966" height="21.682" fill="#ff912b"/>
          <rect id="Rectangle_5603" data-name="Rectangle 5603" width="54.966" height="15.507" transform="translate(0 16.328)" fill="#c23b35"/>
          <path id="Path_81127" data-name="Path 81127" d="M118.161,277.813l19.719,16.563-19.719,15.271Z" transform="translate(-118.161 -277.813)" fill="#4b49f2"/>
        </g>
        <g id="Group_27879" data-name="Group 27879" transform="translate(90.44 233.396)">
          <path id="Path_81128" data-name="Path 81128" d="M206.888,283.668H176.644a2.291,2.291,0,0,1-2.291-2.291h0a2.291,2.291,0,0,1,2.291-2.291h30.243a2.291,2.291,0,0,1,2.291,2.291h0A2.291,2.291,0,0,1,206.888,283.668Z" transform="translate(-174.353 -279.085)" fill="#b8d0fc"/>
          <path id="Path_81129" data-name="Path 81129" d="M196.7,290.88H176.644a2.291,2.291,0,0,1-2.291-2.291h0a2.292,2.292,0,0,1,2.291-2.291H196.7a2.292,2.292,0,0,1,2.291,2.291h0A2.291,2.291,0,0,1,196.7,290.88Z" transform="translate(-174.353 -278.22)" fill="#b8d0fc"/>
        </g>
      </g>
    </g>
    <g id="Group_44826" data-name="Group 44826" transform="translate(-1602.111 -377.677)">
      <path id="Path_105955" data-name="Path 105955" d="M2268.481,1010.319a21.387,21.387,0,0,0-3.651-3.9c-1.947-1.5-4-4.315-3.4-5.228s6.449-5.205,6.449-5.205l3.114,7.708Z" transform="translate(-21.336 -114.065)" fill="#ffb27d"/>
      <path id="Path_105956" data-name="Path 105956" d="M2387.527,806.347l50.889-20.168,28.465,27.446-48.373,18.869Z" transform="translate(-89.948 0)" fill="#233862"/>
      <path id="Path_105957" data-name="Path 105957" d="M2299.676,1037.654l-20.26-26.018-2.41,7.194s20.752,47.194,30.256,42.8C2311.694,1059.587,2299.676,1037.654,2299.676,1037.654Z" transform="translate(-29.861 -122.575)" fill="#ffb27d"/>
      <path id="Path_105958" data-name="Path 105958" d="M2433.625,857.809s-9.885,5.824-3.82,17.107c0,0-8.655-1.584-10.524-4.168a6.822,6.822,0,0,0,.538,1.619s-10.142-1.288-12.012-5.07c-3.855-7.793,5.5-7.306,9.541-15.4,5.281-10.573,13.571-18.881,25.287-13.046,0,0,16.386-.894,8.978,20.1s-.407,22.853-.407,22.853a10.3,10.3,0,0,1-3.141.195s-1.235-.887-1.305-1.719a5.062,5.062,0,0,0,.208,1.738s-7.747-1.286-10.765-5.136S2431.376,861.951,2433.625,857.809Z" transform="translate(-100.478 -27.59)" fill="#c94c43"/>
      <path id="Path_105959" data-name="Path 105959" d="M2434.1,956.771l-.035.013C2434.008,956.775,2434.021,956.771,2434.1,956.771Z" transform="translate(-115.231 -92.746)" fill="#ffb27d"/>
      <path id="Path_105960" data-name="Path 105960" d="M2458.22,920.881c.29,2.6.637,4.938.792,6.051.111.8,1.914,15-1.388,15.14s-11.454,16.97-15.127,16.833c-4.115-.154-7.764-31.106-8.3-31.107,1.052-.457,4.261-10.638,5.277-14.52,1.232-4.71,2.2-9.8,2.2-9.8l16.707,1.055.993.062a58.183,58.183,0,0,0-1.358,6.425c-.04.268-.08.541-.114.8A43.322,43.322,0,0,0,2458.22,920.881Z" transform="translate(-115.318 -63.774)" fill="#ffb27d"/>
      <path id="Path_105961" data-name="Path 105961" d="M2442.864,866.077s-2.708-8.589-2.16-15.176c.391-4.7,7.886-18.039,23.98-11.213,0,0,3.931-.939,7.682,3.354,2.983,3.415,6.823,10.1-2.884,23.073l-2.822,4.5Z" transform="translate(-118.819 -28.055)" fill="#c94c43"/>
      <path id="Path_105962" data-name="Path 105962" d="M2467.017,921.45c-11.687-3.423-16.646-16.922-16.646-16.922,4.943.145,11.382,3.576,16.434,7.064-.04.268-.079.541-.114.8A43.3,43.3,0,0,0,2467.017,921.45Z" transform="translate(-124.115 -64.343)" fill="#ed975d"/>
      <path id="Path_105963" data-name="Path 105963" d="M2467.163,885.212s-21.113-5.219-17.661-18.316,3.052-22.593,16.678-19.815,14.917,8.464,14.829,13.116S2472.744,886.232,2467.163,885.212Z" transform="translate(-123.435 -32.847)" fill="#ffb27d"/>
      <path id="Path_105964" data-name="Path 105964" d="M2469.671,847.2s-9.822,13.838-19.257,13.771-12.639-3.448-12.639-3.448a25.878,25.878,0,0,0,12.094-12.612S2467.265,838.734,2469.671,847.2Z" transform="translate(-117.266 -30.747)" fill="#c94c43"/>
      <path id="Path_105965" data-name="Path 105965" d="M2503.822,852.467s3.39,4.568,3.555,8.18-1.181,10.6.882,10.9c0,0,7.1-9.293,3.791-16.49C2508.541,847.422,2503.822,852.467,2503.822,852.467Z" transform="translate(-153.174 -35.15)" fill="#c94c43"/>
      <path id="Path_105966" data-name="Path 105966" d="M2480.408,850.439s-8.36,15-20.869,17.2c0,0,13.762-6.933,17.519-17.3S2480.408,850.439,2480.408,850.439Z" transform="translate(-129.099 -32.391)" fill="#c94c43"/>
      <path id="Path_105967" data-name="Path 105967" d="M2481.438,912.8s.263,1.994,1.535,2.466,4.649,1.326,4.991,1.114a17,17,0,0,0,1.607-1.766S2484.251,912.571,2481.438,912.8Z" transform="translate(-141.005 -68.83)" fill="#fff"/>
      <path id="Path_105968" data-name="Path 105968" d="M2420.507,1272.943q-.408,1.682-.8,3.328c-1.593,6.612-3.074,12.747-4.009,17.882-1.21,6.678-1.5,11.648.094,13.735,4.111,5.388,3.066,34.215,1.713,54.976-.8,12.351-1.713,21.846-1.713,21.846l-7.461,7.684s-2.363-12.262-5.344-27.141c-4-20-9.13-44.716-11.145-50.767-1.6-4.8-3.933-25.29-5.993-46.211q-.154-1.568-.307-3.141c-.356-3.658-.7-7.3-1.028-10.861a185.024,185.024,0,0,1,.828-38.424s9.7-7.991,22.206-9.068c7.363-.64,14.291,1.7,17.712,10.755C2430.242,1230.7,2425.192,1253.433,2420.507,1272.943Z" transform="translate(-87.955 -228.616)" fill="#ffb27d"/>
      <path id="Path_105969" data-name="Path 105969" d="M2428.529,1272.943c-10.224-7.384-24.608-20.523-29.828-42.062-1-10.708,7.445-20.884,16.869-24.1,7.365-.642,14.291,1.7,17.713,10.752C2438.265,1230.7,2433.217,1253.435,2428.529,1272.943Z" transform="translate(-95.979 -228.617)" fill="#ed975d"/>
      <path id="Path_105970" data-name="Path 105970" d="M2541.209,1066.8l50.245,12.978v5.867s-50-.586-53.227-6.156S2541.209,1066.8,2541.209,1066.8Z" transform="translate(-171.375 -152.564)" fill="#ffb27d"/>
      <path id="Path_105971" data-name="Path 105971" d="M2532.381,1321.88l-2.349,9.695s-10.38-5.361-23.555-12.293c-20.529-10.812-47.848-25.446-53.205-29.553-3.528-2.709-8.2-17.418-12.516-34.055-6.438-24.8-12.111-53.894-12.111-53.894s9.526-36.645,35.033-14.216c15.262,13.419,12.89,39.283,11.217,59.4-1.112,13.494-1.914,24.4,3.15,27.229,7.266,4.058,24.88,18.879,37.33,33.384a85.346,85.346,0,0,1,10.683,14.971Z" transform="translate(-112.303 -214.271)" fill="#ffb27d"/>
      <path id="Path_105972" data-name="Path 105972" d="M2655.975,1088.842s9.218-4.541,12.883-4.98,9.821-.587,9.821,0-6.6,4.684-8.355,4.98-5.131,2.788-4.1,3.081,6.45-.953,6.523,0-3.3,1.539-3.884,2.272-2.638,1.613-5.937,1.173-6.946-.66-6.946-.66Z" transform="translate(-235.896 -161.632)" fill="#ffb27d"/>
      <path id="Path_105973" data-name="Path 105973" d="M2507.2,1155.9c-32.444,46.718-116.149,51.954-116.149,51.954-13.593-49.6-8.022-175.018-4.912-221.638-.191-8.142.125-15.025,1.459-17.673,2.083-4.129,13.4-11.288,17.46-14.843a7.025,7.025,0,0,1,1.753-.445c.61,2.135,8.151,27.732,8.9,27.2s13.467-24.845,14.807-27.719c1.365.04,2.3.071,2.572.089,2.242.107,14.349,2.532,15.363,4.485.356.681,3.831,9.891,8.2,22.087a.167.167,0,0,0,0,.031c8.187,22.874,20.191,18.58,24.96,25.357,3,4.253,1.709,12.2-3.853,19.057-.472.583-.97,1.157-1.5,1.717-4.231,4.476-9.967,7.124-19.3,5.749-2.323-.343-7.021-2.585-10.852-5.9C2455.29,1059.923,2507.2,1155.9,2507.2,1155.9Z" transform="translate(-87.122 -90.554)" fill="url(#linear-gradient-9)"/>
      <path id="Path_105974" data-name="Path 105974" d="M2431.967,950.487,2427.573,953s11.993,33.925,12.586,33.777,18.608-35.41,18.608-35.41l-3.675-1.533-14.784,29.045Z" transform="translate(-111.719 -88.974)" fill="#f99746"/>
      <path id="Path_105975" data-name="Path 105975" d="M2470.575,843.129s-15.373-8.621-40.772,6.538l1.095-4.167a13.829,13.829,0,0,1,6.842-8.7c3.832-2.043,9.749-4.042,18.181-3.975a15.544,15.544,0,0,1,13.719,8.472Z" transform="translate(-112.932 -25.359)" fill="#1c468a"/>
      <g id="Group_44824" data-name="Group 44824" transform="translate(2275.807 805.177)">
        <g id="Group_44823" data-name="Group 44823" transform="translate(4.843)">
          <path id="Path_105976" data-name="Path 105976" d="M2350.81,851.461l-.379-1.279c13.615-4.037,16.535-18.178,17.035-21.474a1.074,1.074,0,0,1,.786-.876h0a.59.59,0,0,1,.735.667C2368.357,832.324,2365.01,847.25,2350.81,851.461Z" transform="translate(-2350.43 -827.811)" fill="#efcbab"/>
        </g>
        <path id="Path_105977" data-name="Path 105977" d="M2348.272,876.833h-1.811l.7,2.2,1.5-.917Z" transform="translate(-2343.429 -854.463)" fill="#d8a987"/>
        <path id="Path_105978" data-name="Path 105978" d="M2342.848,876.833s-2.5.695-3.031,0c0,0-.056,2.114.834,2.67a6.96,6.96,0,0,0,2.892-.473Z" transform="translate(-2339.816 -854.463)" fill="#efcbab"/>
      </g>
      <path id="Path_105979" data-name="Path 105979" d="M2439.169,957.961s4.016,7.383,20,.657L2446.612,983.3Z" transform="translate(-118.025 -93.393)" fill="#fff"/>
      <path id="Path_105980" data-name="Path 105980" d="M2368.051,956.766s-2.087,70.232-19.408,83.843a10.49,10.49,0,0,1-3.9,1.993c-8.751,2.234-15.11-2.981-19.412-10.2-5.984-10.034-8.009-23.947-6.99-27.15,1.931-6.1,6.38,4.69,15.725,1.726s11.866-40.6,18.389-46.095C2354.16,959.453,2368.051,956.766,2368.051,956.766Z" transform="translate(-52.198 -92.744)" fill="url(#linear-gradient-9)"/>
      <g id="Group_44825" data-name="Group 44825" transform="translate(2222.082 850.446)">
        <path id="Path_105981" data-name="Path 105981" d="M2231.324,990.569a50.556,50.556,0,0,1-5.1-3.222,21.182,21.182,0,0,1-3.079-2.673,6.37,6.37,0,0,1-1.066-1.521s21.149-25.455,22.827-28.45,17.638-27.688,17.638-27.688a40.446,40.446,0,0,1,4.3,2.435c.869.567,1.8,1.22,2.692,1.937a16.775,16.775,0,0,1,4.159,4.574s-23.23,23.54-24.869,26.936S2231.324,990.569,2231.324,990.569Z" transform="translate(-2222.082 -927.015)" fill="#efcbab"/>
        <path id="Path_105982" data-name="Path 105982" d="M2226.227,987.346a21.182,21.182,0,0,1-3.079-2.673,6.37,6.37,0,0,1-1.066-1.521s21.149-25.455,22.827-28.45,17.638-27.688,17.638-27.688a40.446,40.446,0,0,1,4.3,2.435c.869.567,1.8,1.22,2.692,1.937-6.519,6.655-24.127,24.8-25.633,27.914C2242.446,962.326,2230.977,980.046,2226.227,987.346Z" transform="translate(-2222.082 -927.015)" fill="#ddb08e"/>
        <path id="Path_105983" data-name="Path 105983" d="M2270.557,976.8s-6.237,6.052-6.952,10.178l6.522,5.234s5.707-5.59,7.517-9.726Z" transform="translate(-2244.657 -954.081)" fill="#c94c43"/>
      </g>
      <path id="Path_105984" data-name="Path 105984" d="M2277.646,999.019s.446-4.106-.5-5.553-1.03-5.429-1.91-5.005-.315,3.686-.871,5.264-1.373,8.909.871,10.3S2277.646,999.019,2277.646,999.019Z" transform="translate(-28.091 -109.958)" fill="#ffb27d"/>
      <path id="Path_105985" data-name="Path 105985" d="M2262.7,989s-2.6-.4-3.542,1.323-2.121,4.526-.333,5.636S2262.7,989,2262.7,989Z" transform="translate(-19.472 -110.246)" fill="#ffb27d"/>
      <path id="Path_105986" data-name="Path 105986" d="M2440.287,1548.94c-.8,12.351-1.713,21.846-1.713,21.846l-7.462,7.683s-2.363-12.262-5.343-27.14C2425.77,1551.329,2434.135,1554.239,2440.287,1548.94Z" transform="translate(-110.74 -414.693)" fill="#fff"/>
      <path id="Path_105987" data-name="Path 105987" d="M2433.046,1604.9l-4.026,2.18c-1.464.517-2.671.666-4.151,1.234a8.582,8.582,0,0,0-3.908,2.86c-1.135,4.618-2.748,4.324-2.748,4.324l-16.174.152c-.762-.381.53-3.646,1.15-4.256,1.529-1.507,6.1-.749,7.774-5.486.941-2.662,5.583-10.936,5.583-10.936l.033-.029c.156-.081,1.017-.254,5.691.718,2.415.5,3.417-4.4,3.417-4.4a4.58,4.58,0,0,1,1.607.755,4.829,4.829,0,0,1,1.789,2.426c.579,1.679,2.953,4.1,4.658,5.679,1.035.957,1.821,1.608,1.821,1.608S2436.275,1602.59,2433.046,1604.9Z" transform="translate(-97.71 -437.701)" fill="#233862"/>
      <path id="Path_105988" data-name="Path 105988" d="M2625.111,1473.522l-2.349,9.695s-10.38-5.361-23.555-12.293a22.056,22.056,0,0,0,8.9-11.706,85.316,85.316,0,0,1,10.683,14.972Z" transform="translate(-205.033 -365.913)" fill="#fff"/>
      <path id="Path_105989" data-name="Path 105989" d="M2661.872,1482.914a.6.6,0,0,1-.06-.014c-.3-.076-1.7-.537-2.629-2.761-.611-1.464-.795-2.666-1.354-4.114l-2.3-3.961c-2.4-3.161-3.242-2.421-3.242-2.421s-.627.8-1.554,1.866c-1.532,1.751-3.88,4.194-5.542,4.821a4.83,4.83,0,0,0-2.374,1.858,4.587,4.587,0,0,0-.709,1.628s4.929.859,4.5,3.288c-.837,4.7-.639,5.555-.553,5.709l.029.032s8.405,4.4,11.094,5.263c4.782,1.531,7.281,4.783,8.832,6.268a2.767,2.767,0,0,0,2.353.741c1.26-.2,2.9-.6,3.255-1.377Z" transform="translate(-228.359 -371.54)" fill="#233862"/>
      <path id="Path_105990" data-name="Path 105990" d="M2448.207,1058.082a2.428,2.428,0,1,1,2.428,2.428A2.428,2.428,0,0,1,2448.207,1058.082Z" transform="translate(-122.938 -146.506)" fill="#233862"/>
      <path id="Path_105991" data-name="Path 105991" d="M2448.207,1097.571a2.428,2.428,0,1,1,2.428,2.428A2.428,2.428,0,0,1,2448.207,1097.571Z" transform="translate(-122.938 -167.976)" fill="#233862"/>
      <path id="Path_105992" data-name="Path 105992" d="M2545.685,1081.513c-.472.583-.97,1.157-1.5,1.717-4.231,4.476-9.967,7.124-19.3,5.749-2.323-.343-7.021-2.585-10.852-5.9,0,0-7.7-21.036-6.665-24s15.871,20.1,28.181,21.17A90.229,90.229,0,0,1,2545.685,1081.513Z" transform="translate(-155.047 -148.223)" fill="url(#linear-gradient-9)"/>
      <path id="Path_105993" data-name="Path 105993" d="M2360.937,1072.717l-3.666,30.931a10.484,10.484,0,0,1-3.9,1.993c-8.752,2.234-15.11-2.981-19.412-10.2,4.485.622,15.364,1.593,17.739-3.146C2354.708,1086.287,2360.937,1072.717,2360.937,1072.717Z" transform="translate(-60.826 -155.783)" fill="url(#linear-gradient-9)"/>
    </g>
  </g>
</svg>
