<svg xmlns="http://www.w3.org/2000/svg" width="984" height="16" viewBox="0 0 984 16">
  <g id="Group_44636" data-name="Group 44636" transform="translate(-628.217 -805)" opacity="0.874">
    <path id="Path_105410" data-name="Path 105410" d="M0,0H984V11a5,5,0,0,1-5,5H5a5,5,0,0,1-5-5Z" transform="translate(628.217 805)" fill="#08bd80"/>
    <path id="Rectangle_14658" data-name="Rectangle 14658" d="M0,0H984a0,0,0,0,1,0,0V3a5,5,0,0,1-5,5H5A5,5,0,0,1,0,3V0A0,0,0,0,1,0,0Z" transform="translate(628.217 813)" fill="#18484c" opacity="0.362"/>
  </g>
</svg>
