<svg xmlns="http://www.w3.org/2000/svg" width="188" height="68" viewBox="0 0 188 68">
  <g id="Group_46820" data-name="Group 46820" transform="translate(0.494 -0.059)">
    <g id="Rectangle_20230" data-name="Rectangle 20230" transform="translate(-0.494 0.059)" fill="#fff" stroke="#ddd" stroke-width="1">
      <rect width="188" height="68" rx="8" stroke="none"/>
      <rect x="0.5" y="0.5" width="187" height="67" rx="7.5" fill="none"/>
    </g>
    <path id="Path_116871" data-name="Path 116871" d="M12.048,48.148a2.9,2.9,0,0,1-1.079-.187L28.349,30.4,34.1,36.217,14.131,47.551a4.28,4.28,0,0,1-2.082.6ZM9.536,46.7a4.174,4.174,0,0,1-.509-2.114V12.535A4.685,4.685,0,0,1,9.243,11.1L27.009,29.049,9.53,46.7l.006,0Zm26.282-11.46-6.131-6.188,6.761-6.826,6.006,3.406a3.432,3.432,0,0,1,2,2.918,3.453,3.453,0,0,1-.6,1.743,3.4,3.4,0,0,1-1.406,1.178Zm-7.469-7.548-18-18.175a2.856,2.856,0,0,1,1.707-.569,4.363,4.363,0,0,1,2.061.6l20.611,11.7-6.379,6.441Z" transform="translate(5.475 5.568)" fill="#003c3c"/>
    <path id="Path_116872" data-name="Path 116872" d="M49.981,24.151a6.207,6.207,0,0,0-2.35-3.059A7.032,7.032,0,0,0,43.4,19.823a7.452,7.452,0,0,0-7.443,7.536,7.3,7.3,0,0,0,2.071,5.335A7.209,7.209,0,0,0,43.378,34.8a6.456,6.456,0,0,0,6.808-6.678v-.8H42.464v2.089h5.242c-.355,1.921-1.884,3.283-4.346,3.283a4.7,4.7,0,0,1-3.6-1.548A5.439,5.439,0,0,1,38.341,27.3a5.406,5.406,0,0,1,1.436-3.824,4.738,4.738,0,0,1,3.6-1.53,4.689,4.689,0,0,1,4.57,3.134Zm7.061.317a5.2,5.2,0,0,0-3.731,1.492,5.157,5.157,0,0,0-.019,7.35A5.2,5.2,0,0,0,57.024,34.8a5.093,5.093,0,0,0,3.712-1.492,4.982,4.982,0,0,0,1.53-3.712,4.859,4.859,0,0,0-1.53-3.656A5.125,5.125,0,0,0,57.042,24.468ZM54.86,27.4a2.793,2.793,0,0,1,2.164-.914,2.727,2.727,0,0,1,2.145.914,3.209,3.209,0,0,1,.839,2.238,3.281,3.281,0,0,1-.821,2.239,2.727,2.727,0,0,1-2.145.914,2.808,2.808,0,0,1-2.164-.933,3.288,3.288,0,0,1-.839-2.257A3.154,3.154,0,0,1,54.86,27.4Zm14.315-2.929a5.2,5.2,0,0,0-3.731,1.492,5.157,5.157,0,0,0-.019,7.35A5.2,5.2,0,0,0,69.156,34.8a5.093,5.093,0,0,0,3.712-1.492A4.982,4.982,0,0,0,74.4,29.6a4.859,4.859,0,0,0-1.53-3.656A5.125,5.125,0,0,0,69.175,24.468ZM66.992,27.4a2.793,2.793,0,0,1,2.164-.914A2.727,2.727,0,0,1,71.3,27.4a3.209,3.209,0,0,1,.839,2.238,3.281,3.281,0,0,1-.821,2.239,2.727,2.727,0,0,1-2.145.914,2.808,2.808,0,0,1-2.164-.933,3.288,3.288,0,0,1-.839-2.257A3.154,3.154,0,0,1,66.992,27.4Zm13.885,7.312a4.474,4.474,0,0,0,1.754-.41,3.162,3.162,0,0,0,1.511-1.268V34.6a2.815,2.815,0,0,1-3.022,3.041,3.343,3.343,0,0,1-3.134-2.108L76.14,36.593a5.031,5.031,0,0,0,5.018,3.022,5.206,5.206,0,0,0,3.768-1.38A4.946,4.946,0,0,0,86.362,34.5v-9.83H84.2v1.511a3.276,3.276,0,0,0-1.492-1.25,4.379,4.379,0,0,0-1.753-.429,4.532,4.532,0,0,0-3.581,1.567,5.288,5.288,0,0,0-1.343,3.544A5.143,5.143,0,0,0,77.389,33.2,4.521,4.521,0,0,0,80.878,34.709Zm3.3-5.13a3.209,3.209,0,0,1-.839,2.239,2.735,2.735,0,0,1-2.127.9,2.8,2.8,0,0,1-2.145-.9,3.281,3.281,0,0,1-.821-2.239,3.122,3.122,0,0,1,.821-2.2,3.018,3.018,0,0,1,4.29,0A3.154,3.154,0,0,1,84.179,29.579Zm5.163,5.055h2.22V19.45h-2.22Zm14.35-4.328a6.083,6.083,0,0,0,.037-.69,5.336,5.336,0,0,0-1.287-3.731,4.557,4.557,0,0,0-3.563-1.418A4.72,4.72,0,0,0,95.3,25.979a5.13,5.13,0,0,0-1.436,3.656,5.064,5.064,0,0,0,1.492,3.712,5.121,5.121,0,0,0,3.731,1.474,4.723,4.723,0,0,0,4.253-2.406l-1.6-1.063A2.81,2.81,0,0,1,99.048,32.9a3.041,3.041,0,0,1-2.015-.727,2.457,2.457,0,0,1-.9-1.865ZM98.88,26.371a2.4,2.4,0,0,1,2.593,2.257H96.25A2.576,2.576,0,0,1,98.88,26.371Zm22.7-1.809a4.435,4.435,0,0,0-1.287-3.208,5.087,5.087,0,0,0-3.824-1.324H111.3V34.634H113.6V29.225h2.593a5.6,5.6,0,0,0,3.955-1.324A4.416,4.416,0,0,0,121.579,24.561Zm-5.316-2.406a3.02,3.02,0,0,1,2.295.727,2.408,2.408,0,0,1,.69,1.735c0,1.343-.951,2.5-2.985,2.5H113.6V22.155Zm7.4,12.479h2.22V19.45h-2.22Zm10.881-6.752c0,.56-.317.839-.933.839h-1.231c-1.753,0-4.141.727-4.141,3.04v.112a2.649,2.649,0,0,0,.951,2.108,3.584,3.584,0,0,0,2.406.821,3.15,3.15,0,0,0,2.929-1.53v1.362h2.182V28.292a4.385,4.385,0,0,0-.336-1.791c-.616-1.362-1.865-2.033-3.731-2.033A4.261,4.261,0,0,0,128.405,27l1.7.97a2.567,2.567,0,0,1,2.481-1.586C133.833,26.389,134.542,27.061,134.542,27.881Zm-.019,2.723a2.287,2.287,0,0,1-2.481,2.425,1.4,1.4,0,0,1-1.586-1.362,1.138,1.138,0,0,1,.6-1.007,2.586,2.586,0,0,1,1.324-.373h2.145Zm6.056-5.932h-2.537l4.44,8.842L139.74,39.54h2.369l6.845-14.867h-2.406L143.676,31.2Z" transform="translate(24.2 12.871)" fill="#003c3c"/>
    <path id="Path_116873" data-name="Path 116873" d="M44.1,11.928a3.871,3.871,0,0,0-1.388-1.869,3.956,3.956,0,0,0-2.518-.783,4.221,4.221,0,0,0-3.145,1.3,4.425,4.425,0,0,0-1.265,3.2,4.411,4.411,0,0,0,1.209,3.178,4.189,4.189,0,0,0,3.167,1.265,3.963,3.963,0,0,0,2.977-1.142,3.9,3.9,0,0,0,1.119-2.854v-.336H39.61v.851h3.66a2.482,2.482,0,0,1-.974,1.914,3.3,3.3,0,0,1-2.115.705,3.235,3.235,0,0,1-2.507-1.041,3.761,3.761,0,0,1-.94-2.6,3.5,3.5,0,0,1,1-2.563,3.329,3.329,0,0,1,2.44-1.007,3.076,3.076,0,0,1,2.015.627,3.392,3.392,0,0,1,1.086,1.533Zm7.38-2.563H45.994v8.763h5.529v-.851H46.912V14.1h4.175v-.851H46.912V10.215h4.566Zm3.9,8.763H56.3v-7.9h2.921V9.365H52.442v.862h2.932Zm8.949-8.763h-.918v8.763h.918Zm4.385,8.763h.929v-7.9h2.921V9.365H65.776v.862h2.932Zm16.224-4.41a4.321,4.321,0,0,0-1.265-3.156,4.179,4.179,0,0,0-3.123-1.287,4.228,4.228,0,0,0-3.156,1.3,4.424,4.424,0,0,0-1.265,3.2,4.355,4.355,0,0,0,1.254,3.167,4.486,4.486,0,0,0,6.29-.022A4.424,4.424,0,0,0,84.932,13.719Zm-.951.056a3.607,3.607,0,0,1-.974,2.54,3.222,3.222,0,0,1-2.462,1.041,3.266,3.266,0,0,1-2.485-1.063,3.629,3.629,0,0,1-.985-2.574,3.561,3.561,0,0,1,.974-2.529,3.192,3.192,0,0,1,2.462-1.052A3.266,3.266,0,0,1,83,11.2,3.63,3.63,0,0,1,83.981,13.774Zm9.911-4.41h-.907v7.32l-5.171-7.32H86.751v8.763h.907V10.663l5.249,7.465h.985Z" transform="translate(24.081 5.796)" fill="#003c3c"/>
  </g>
</svg>
