<svg xmlns="http://www.w3.org/2000/svg" xmlns:xlink="http://www.w3.org/1999/xlink" width="710.246" height="480.41" viewBox="0 0 710.246 480.41">
  <defs>
    <linearGradient id="linear-gradient" x1="0.741" y1="-0.22" x2="0.249" y2="1.03" gradientUnits="objectBoundingBox">
      <stop offset="0" stop-color="#63380e"/>
      <stop offset="0.231" stop-color="#c38f24"/>
      <stop offset="0.409" stop-color="#fff9ca"/>
      <stop offset="0.446" stop-color="#f7ecba"/>
      <stop offset="0.646" stop-color="#d2ad6d"/>
      <stop offset="0.812" stop-color="#b77f35"/>
      <stop offset="0.934" stop-color="#a66212"/>
      <stop offset="1" stop-color="#a05805"/>
    </linearGradient>
    <linearGradient id="linear-gradient-2" x1="1.009" y1="0.069" x2="0.029" y2="0.912" gradientUnits="objectBoundingBox">
      <stop offset="0.007" stop-color="#b48426"/>
      <stop offset="0.166" stop-color="#f3e08d"/>
      <stop offset="0.234" stop-color="#dbb758"/>
      <stop offset="0.292" stop-color="#c99a32"/>
      <stop offset="0.322" stop-color="#c38f24"/>
      <stop offset="0.389" stop-color="#bb7e22"/>
      <stop offset="0.466" stop-color="#b57122"/>
      <stop offset="0.493" stop-color="#ba7b2f"/>
      <stop offset="0.543" stop-color="#ca9752"/>
      <stop offset="0.611" stop-color="#e3c58a"/>
      <stop offset="0.679" stop-color="#fff9ca"/>
      <stop offset="0.861" stop-color="#c38f24"/>
      <stop offset="1" stop-color="#63380e"/>
    </linearGradient>
    <linearGradient id="linear-gradient-3" x1="0.73" y1="-0.316" x2="0.285" y2="1.373" gradientUnits="objectBoundingBox">
      <stop offset="0" stop-color="#f3e08d"/>
      <stop offset="0.166" stop-color="#c59227"/>
      <stop offset="0.278" stop-color="#c38f24"/>
      <stop offset="0.292" stop-color="#c08a21"/>
      <stop offset="0.423" stop-color="#a8650c"/>
      <stop offset="0.493" stop-color="#a05805"/>
      <stop offset="0.517" stop-color="#a66212"/>
      <stop offset="0.562" stop-color="#b77f35"/>
      <stop offset="0.623" stop-color="#d2ad6d"/>
      <stop offset="0.696" stop-color="#f7ecba"/>
      <stop offset="0.71" stop-color="#fff9ca"/>
      <stop offset="0.861" stop-color="#c38f24"/>
    </linearGradient>
    <linearGradient id="linear-gradient-4" x1="0.539" y1="0.048" x2="0.461" y2="0.952" gradientUnits="objectBoundingBox">
      <stop offset="0.085" stop-color="#f3e08d"/>
      <stop offset="0.161" stop-color="#dbb758"/>
      <stop offset="0.227" stop-color="#c99a32"/>
      <stop offset="0.261" stop-color="#c38f24"/>
      <stop offset="0.338" stop-color="#bb7e22"/>
      <stop offset="0.425" stop-color="#b57122"/>
      <stop offset="0.457" stop-color="#ba7b2f"/>
      <stop offset="0.517" stop-color="#ca9752"/>
      <stop offset="0.598" stop-color="#e3c58a"/>
      <stop offset="0.679" stop-color="#fff9ca"/>
      <stop offset="0.861" stop-color="#c38f24"/>
      <stop offset="1" stop-color="#63380e"/>
    </linearGradient>
    <linearGradient id="linear-gradient-5" x1="11.677" y1="-10.674" x2="11.759" y2="-9.735" gradientUnits="objectBoundingBox">
      <stop offset="0.164" stop-color="#a05805"/>
      <stop offset="0.212" stop-color="#a66212"/>
      <stop offset="0.303" stop-color="#b77f35"/>
      <stop offset="0.426" stop-color="#d2ad6d"/>
      <stop offset="0.574" stop-color="#f7ecba"/>
      <stop offset="0.601" stop-color="#fff9ca"/>
      <stop offset="1" stop-color="#c38f24"/>
    </linearGradient>
    <linearGradient id="linear-gradient-6" x1="0.794" y1="0.306" x2="1.275" y2="-1.068" xlink:href="#linear-gradient-3"/>
    <linearGradient id="linear-gradient-7" x1="1.094" y1="-1.375" x2="1.125" y2="-0.352" gradientUnits="objectBoundingBox">
      <stop offset="0" stop-color="#89540f"/>
      <stop offset="0.118" stop-color="#8f550b"/>
      <stop offset="0.266" stop-color="#a05805"/>
      <stop offset="0.312" stop-color="#a66212"/>
      <stop offset="0.399" stop-color="#b77f35"/>
      <stop offset="0.517" stop-color="#d2ad6d"/>
      <stop offset="0.66" stop-color="#f7ecba"/>
      <stop offset="0.686" stop-color="#fff9ca"/>
      <stop offset="0.841" stop-color="#c38f24"/>
      <stop offset="1" stop-color="#63380e"/>
    </linearGradient>
    <linearGradient id="linear-gradient-8" x1="1.185" y1="-0.609" x2="1.31" y2="-2.036" gradientUnits="objectBoundingBox">
      <stop offset="0" stop-color="#63380e"/>
      <stop offset="0.139" stop-color="#c38f24"/>
      <stop offset="0.321" stop-color="#fff9ca"/>
      <stop offset="0.402" stop-color="#e3c58a"/>
      <stop offset="0.483" stop-color="#ca9752"/>
      <stop offset="0.543" stop-color="#ba7b2f"/>
      <stop offset="0.575" stop-color="#b57122"/>
      <stop offset="0.662" stop-color="#bb7e22"/>
      <stop offset="0.739" stop-color="#c38f24"/>
      <stop offset="0.773" stop-color="#c99a32"/>
      <stop offset="0.839" stop-color="#dbb758"/>
      <stop offset="0.915" stop-color="#f3e08d"/>
    </linearGradient>
    <linearGradient id="linear-gradient-9" x1="0.5" x2="0.5" y2="1" gradientUnits="objectBoundingBox">
      <stop offset="0" stop-color="#4e9cff"/>
      <stop offset="0.984" stop-color="#176ad4"/>
    </linearGradient>
  </defs>
  <g id="Group_44833" data-name="Group 44833" transform="translate(-386.486 -325.284)">
    <g id="Group_23145" data-name="Group 23145" transform="translate(387.725 507.083) rotate(1)">
      <path id="Path_41200" data-name="Path 41200" d="M46.8,3.172S19.014,13.716,0,0A20.225,20.225,0,0,0,1.761,3C19.6,28.21,60.878,13.519,60.878,13.519Z" transform="translate(130.069 153.472)" fill="url(#linear-gradient)"/>
      <path id="Path_41201" data-name="Path 41201" d="M60.284,12.553C59.217,5.382,55.36,1.184,50.054-.848c.213.752.4,1.538.549,2.366,4.56,24.967-69.54,50.258-47.962,83.827A22.135,22.135,0,0,0,4.2,87.392L4.2,87.4l9.548,10.909a33.783,33.783,0,0,1-3.182-4.927c-.051-.12-.118-.268-.2-.435C-1.588,66.01,65.345,46.523,60.284,12.553Z" transform="translate(119.508 60.089)" fill="url(#linear-gradient-2)"/>
      <path id="Path_41202" data-name="Path 41202" d="M98.191,4.656l-.086.037a14.362,14.362,0,0,0-1.218-1.1c-10.4-8.34-30.454-6.185-55.051,6.87q-5.262,2.791-10.78,6.248c-8.407,5.272-23.917,5.741-31.362.065,8.914,7.451,26.669,17.948,41.044,10.97,4.589-2.228,9.157-4.345,13.634-6.281C73.779,13.075,91.521,8.086,102.3,12.216a19.863,19.863,0,0,1,5.306,3.308Z" transform="translate(67.261 47.025)" fill="url(#linear-gradient-3)"/>
      <path id="Path_41203" data-name="Path 41203" d="M77.375,70.981s-7.093-5.808-9.911-8.7C51.561,45.942,37.728,17.67,33.2,6.5L0,0C5.343,13.178,24.494,41.083,57.568,60.592,61.985,63.2,77.375,70.981,77.375,70.981Z" fill="url(#linear-gradient-4)"/>
    </g>
    <g id="Group_36214" data-name="Group 36214" transform="translate(468.303 349.234)">
      <g id="Group_23143" data-name="Group 23143" transform="translate(378.916 205.13) rotate(12.007)">
        <path id="Path_41183" data-name="Path 41183" d="M0,0C9.233,5.809,4.854,21.192,4.685,20.374l12.463-1.438C17.8,14.837,16.18,1.818,0,0Z" transform="translate(238.365 2.374)" fill="url(#linear-gradient-5)"/>
        <path id="Path_41184" data-name="Path 41184" d="M51.786,5.955C33.78,18.389,21.422,60.177,0,51.1,45.47,66.627,44.592,24.792,65.415,8.554,73.241,2.451,83.546.9,91.3,3.684,85.7,1.325,66.674-4.326,51.786,5.955Z" transform="translate(152.885 0)" fill="url(#linear-gradient-6)"/>
        <path id="Path_41185" data-name="Path 41185" d="M0,0C9.167,2.728,14.332,8.655,26,16.148,55.419,35.034,67.7,31.281,80.307,30.5c-7.67-.82-24.82-8.289-31.332-12.493C29.021,5.145,12.826.386,0,0Z" transform="translate(70.649 23.997)" fill="url(#linear-gradient-7)"/>
        <path id="Path_41186" data-name="Path 41186" d="M0,19.367l17.785,3.022C20.318,17.414,42.474.1,65.607,3.339,21.119-8.181,3.078,13.323,0,19.367Z" transform="translate(0 21.466)" fill="url(#linear-gradient-8)"/>
      </g>
      <g id="Group_27880" data-name="Group 27880" transform="translate(116.773 40.666)">
        <rect id="Rectangle_5596" data-name="Rectangle 5596" width="347.122" height="295.904" rx="10" transform="translate(0 0)" fill="#fff" opacity="0.6"/>
        <rect id="Rectangle_5597" data-name="Rectangle 5597" width="347.122" height="32.835" rx="6" transform="translate(0 0)" fill="#5c9cf4"/>
        <g id="Group_27872" data-name="Group 27872" transform="translate(14.037 12.294)">
          <path id="Path_81108" data-name="Path 81108" d="M106.131,85.582a3.926,3.926,0,1,1,3.926,3.925A3.926,3.926,0,0,1,106.131,85.582Z" transform="translate(-106.131 -81.657)" fill="#dae6ff"/>
          <path id="Path_81109" data-name="Path 81109" d="M120.844,85.582a3.925,3.925,0,1,1,3.925,3.925A3.925,3.925,0,0,1,120.844,85.582Z" transform="translate(-104.367 -81.657)" fill="#dae6ff"/>
          <path id="Path_81110" data-name="Path 81110" d="M135.556,85.582a3.925,3.925,0,1,1,3.925,3.925A3.925,3.925,0,0,1,135.556,85.582Z" transform="translate(-102.603 -81.657)" fill="#dae6ff"/>
        </g>
        <rect id="Rectangle_5598" data-name="Rectangle 5598" width="98.398" height="98.398" transform="translate(27.509 58.888)" fill="#c8dffd" opacity="0.5"/>
        <path id="Path_81111" data-name="Path 81111" d="M308.579,130.607H230.311a3.718,3.718,0,0,1-3.719-3.718h0a3.719,3.719,0,0,1,3.719-3.719h78.267a3.718,3.718,0,0,1,3.718,3.719h0A3.718,3.718,0,0,1,308.579,130.607Z" transform="translate(-77.649 -64.385)" fill="#7798f8" opacity="0.5"/>
        <path id="Path_81112" data-name="Path 81112" d="M392.151,126.154H313.883a3.719,3.719,0,0,1-3.718-3.719h0a3.718,3.718,0,0,1,3.718-3.718h78.267a3.718,3.718,0,0,1,3.718,3.718h0A3.719,3.719,0,0,1,392.151,126.154Z" transform="translate(-67.628 -64.919)" fill="#7798f8" opacity="0.5"/>
        <g id="Group_27873" data-name="Group 27873" transform="translate(148.943 90.03)" opacity="0.3">
          <path id="Path_81113" data-name="Path 81113" d="M324.072,155.889H229a2.411,2.411,0,0,1-2.411-2.41h0a2.41,2.41,0,0,1,2.411-2.41h95.068a2.409,2.409,0,0,1,2.41,2.41h0A2.41,2.41,0,0,1,324.072,155.889Z" transform="translate(-226.592 -151.069)" fill="#b8d0fc"/>
          <path id="Path_81114" data-name="Path 81114" d="M348.85,155.889h-25.1a2.411,2.411,0,0,1-2.41-2.41h0a2.41,2.41,0,0,1,2.41-2.41h25.1a2.409,2.409,0,0,1,2.41,2.41h0A2.41,2.41,0,0,1,348.85,155.889Z" transform="translate(-215.23 -151.069)" fill="#b8d0fc"/>
          <path id="Path_81115" data-name="Path 81115" d="M264.873,169.237H229a2.411,2.411,0,0,1-2.411-2.411h0a2.411,2.411,0,0,1,2.411-2.41h35.87a2.41,2.41,0,0,1,2.41,2.41h0A2.41,2.41,0,0,1,264.873,169.237Z" transform="translate(-226.592 -149.469)" fill="#b8d0fc"/>
          <path id="Path_81116" data-name="Path 81116" d="M318.174,169.237H269.022a2.41,2.41,0,0,1-2.41-2.411h0a2.41,2.41,0,0,1,2.41-2.41h49.152a2.41,2.41,0,0,1,2.41,2.41h0A2.41,2.41,0,0,1,318.174,169.237Z" transform="translate(-221.793 -149.469)" fill="#b8d0fc"/>
          <path id="Path_81117" data-name="Path 81117" d="M348.85,169.237h-25.1a2.411,2.411,0,0,1-2.41-2.411h0a2.411,2.411,0,0,1,2.41-2.41h25.1a2.41,2.41,0,0,1,2.41,2.41h0A2.41,2.41,0,0,1,348.85,169.237Z" transform="translate(-215.23 -149.469)" fill="#b8d0fc"/>
          <path id="Path_81118" data-name="Path 81118" d="M277.675,180.778H229a2.411,2.411,0,0,1-2.411-2.41h0a2.41,2.41,0,0,1,2.411-2.41h48.671a2.41,2.41,0,0,1,2.411,2.41h0A2.411,2.411,0,0,1,277.675,180.778Z" transform="translate(-226.592 -148.085)" fill="#b8d0fc"/>
          <path id="Path_81119" data-name="Path 81119" d="M363.98,180.778h-79.6a2.41,2.41,0,0,1-2.41-2.41h0a2.409,2.409,0,0,1,2.41-2.41h79.6a2.41,2.41,0,0,1,2.41,2.41h0A2.411,2.411,0,0,1,363.98,180.778Z" transform="translate(-219.952 -148.085)" fill="#b8d0fc"/>
        </g>
        <g id="Group_27874" data-name="Group 27874" transform="translate(148.943 137.517)" opacity="0.3">
          <path id="Path_81120" data-name="Path 81120" d="M324.072,198.292H229a2.41,2.41,0,0,1-2.411-2.41h0a2.41,2.41,0,0,1,2.411-2.41h95.068a2.409,2.409,0,0,1,2.41,2.41h0A2.409,2.409,0,0,1,324.072,198.292Z" transform="translate(-226.592 -193.472)" fill="#b8d0fc"/>
          <path id="Path_81121" data-name="Path 81121" d="M348.85,198.292h-25.1a2.41,2.41,0,0,1-2.41-2.41h0a2.41,2.41,0,0,1,2.41-2.41h25.1a2.409,2.409,0,0,1,2.41,2.41h0A2.409,2.409,0,0,1,348.85,198.292Z" transform="translate(-215.23 -193.472)" fill="#b8d0fc"/>
          <path id="Path_81122" data-name="Path 81122" d="M264.873,211.64H229a2.411,2.411,0,0,1-2.411-2.41h0A2.41,2.41,0,0,1,229,206.82h35.87a2.409,2.409,0,0,1,2.41,2.41h0A2.41,2.41,0,0,1,264.873,211.64Z" transform="translate(-226.592 -191.871)" fill="#b8d0fc"/>
          <path id="Path_81123" data-name="Path 81123" d="M318.174,211.64H269.022a2.41,2.41,0,0,1-2.41-2.41h0a2.409,2.409,0,0,1,2.41-2.41h49.152a2.409,2.409,0,0,1,2.41,2.41h0A2.41,2.41,0,0,1,318.174,211.64Z" transform="translate(-221.793 -191.871)" fill="#b8d0fc"/>
        </g>
        <g id="Group_27875" data-name="Group 27875" transform="translate(44.173 73.556)">
          <path id="Path_81124" data-name="Path 81124" d="M160.495,136.359h10.162L198.111,199.2H186.524l-6.33-15.065h-29.5L144.272,199.2H133.04Zm15.689,38.062L165.4,149.463l-10.7,24.958Z" transform="translate(-133.04 -136.359)" fill="#b8d0fc"/>
        </g>
        <g id="Group_27876" data-name="Group 27876" transform="translate(27.509 177.106)">
          <rect id="Rectangle_5599" data-name="Rectangle 5599" width="54.966" height="10.611" fill="#ff912b"/>
          <rect id="Rectangle_5600" data-name="Rectangle 5600" width="54.966" height="10.611" transform="translate(0 10.611)" fill="#fc7600"/>
          <rect id="Rectangle_5601" data-name="Rectangle 5601" width="54.966" height="10.611" transform="translate(0 21.223)" fill="#4b49f2"/>
        </g>
        <g id="Group_27877" data-name="Group 27877" transform="translate(90.44 178.531)">
          <path id="Path_81125" data-name="Path 81125" d="M206.888,234.677H176.644a2.291,2.291,0,0,1-2.291-2.291h0a2.291,2.291,0,0,1,2.291-2.291h30.243a2.291,2.291,0,0,1,2.291,2.291h0A2.291,2.291,0,0,1,206.888,234.677Z" transform="translate(-174.353 -230.094)" fill="#b8d0fc"/>
          <path id="Path_81126" data-name="Path 81126" d="M196.7,241.89H176.644a2.291,2.291,0,0,1-2.291-2.291h0a2.291,2.291,0,0,1,2.291-2.291H196.7a2.291,2.291,0,0,1,2.291,2.291h0A2.291,2.291,0,0,1,196.7,241.89Z" transform="translate(-174.353 -229.229)" fill="#b8d0fc"/>
        </g>
        <g id="Group_27878" data-name="Group 27878" transform="translate(27.509 231.971)">
          <rect id="Rectangle_5602" data-name="Rectangle 5602" width="54.966" height="21.682" fill="#ff912b"/>
          <rect id="Rectangle_5603" data-name="Rectangle 5603" width="54.966" height="15.507" transform="translate(0 16.328)" fill="#c23b35"/>
          <path id="Path_81127" data-name="Path 81127" d="M118.161,277.813l19.719,16.563-19.719,15.271Z" transform="translate(-118.161 -277.813)" fill="#4b49f2"/>
        </g>
        <g id="Group_27879" data-name="Group 27879" transform="translate(90.44 233.396)">
          <path id="Path_81128" data-name="Path 81128" d="M206.888,283.668H176.644a2.291,2.291,0,0,1-2.291-2.291h0a2.291,2.291,0,0,1,2.291-2.291h30.243a2.291,2.291,0,0,1,2.291,2.291h0A2.291,2.291,0,0,1,206.888,283.668Z" transform="translate(-174.353 -279.085)" fill="#b8d0fc"/>
          <path id="Path_81129" data-name="Path 81129" d="M196.7,290.88H176.644a2.291,2.291,0,0,1-2.291-2.291h0a2.292,2.292,0,0,1,2.291-2.291H196.7a2.292,2.292,0,0,1,2.291,2.291h0A2.291,2.291,0,0,1,196.7,290.88Z" transform="translate(-174.353 -278.22)" fill="#b8d0fc"/>
        </g>
      </g>
    </g>
    <g id="Group_44691" data-name="Group 44691" transform="translate(426.652 290.721)">
      <g id="Group_44699" data-name="Group 44699" transform="translate(347.628 114.359)">
        <g id="Group_44691-2" data-name="Group 44691" transform="translate(131.447 356.338)">
          <path id="Path_105587" data-name="Path 105587" d="M410.828,405.929s8.142-1.437,7.662-12.212-4.07-25.62-11.254-29.93S394.81,365.7,394.81,365.7Z" transform="translate(-378.74 -361.653)" fill="#7b7b9a"/>
          <path id="Path_105588" data-name="Path 105588" d="M382.755,363.942c.24,3.592,3.592,8.856,10.775,12.689s11.015,17.48,14.244,23.464a12.856,12.856,0,0,0,4.406,5.046,5.653,5.653,0,0,0,2.661.941s.04-.945.047-2.579a121.759,121.759,0,0,0-1.534-19.93c-1.964-11.731-8.917-15.8-8.917-15.8-1.267-2.163-4-3.7-7.116-4.677-5.092-1.591-11.2-1.663-13.565-.464C383.088,362.965,382.719,363.406,382.755,363.942Z" transform="translate(-382.752 -361.807)" fill="#b0b1ca"/>
          <path id="Path_105589" data-name="Path 105589" d="M406.949,381.338c1.7,7.186,2.467,19.046,1.594,23.482a5.653,5.653,0,0,0,2.661.941,120.979,120.979,0,0,0-1.487-22.509c-1.964-11.731-8.917-15.8-8.917-15.8-1.267-2.163-4-3.7-7.116-4.677C397.8,366.9,405.508,375.254,406.949,381.338Z" transform="translate(-379.115 -361.485)" fill="#2c2a40"/>
          <path id="Path_105590" data-name="Path 105590" d="M382.755,363.736c.24,3.592,3.592,8.856,10.775,12.689s11.015,17.48,14.244,23.464a12.856,12.856,0,0,0,4.406,5.046,5.653,5.653,0,0,0,2.661.941s.04-.945.047-2.579a1.217,1.217,0,0,0-.528-.295c-2.392-.6-5.624-1.523-7.542-10.415s-5.147-15.325-10.653-18.077c-5.026-2.51-11.336-10.666-12.409-12.085C383.088,362.76,382.719,363.2,382.755,363.736Z" transform="translate(-382.752 -361.601)" fill="#2c2a40" opacity="0.2"/>
        </g>
        <path id="Path_105591" data-name="Path 105591" d="M342.681,194.922s55.449-8.328,70.5,15.217S408.015,312.387,391.7,324.3s-43.429,5.739-53.575-1.751S323.271,206.29,342.681,194.922Z" transform="translate(-269.085 -61.475)" fill="#2c2a40"/>
        <path id="Path_105592" data-name="Path 105592" d="M387.72,271.506a14.369,14.369,0,0,0,9.542-9.937l-8.38-3.712S385.6,266.357,387.72,271.506Z" transform="translate(-249.889 -40.058)" fill="#00497b"/>
        <path id="Path_105593" data-name="Path 105593" d="M387.543,267.287c11.492,17.48,37.436,22.028,37.436,22.028,5.37-1.57,12.528-9.04,19.606-18.152h0c13.447-17.319,26.6-40.572,26.6-40.572L460.416,227s-18.917,20.892-27.055,25.438-10.538,8.862-10.538,8.862a28.561,28.561,0,0,0-2.884-2.694A75.755,75.755,0,0,0,406.18,250.1C396.96,247.523,387.543,267.287,387.543,267.287Z" transform="translate(-249.711 -50.325)" fill="#f9b587"/>
        <path id="Path_105594" data-name="Path 105594" d="M387.543,261.578c11.492,17.48,37.436,22.028,37.436,22.028,5.37-1.57,12.528-9.04,19.606-18.152,0,0-12.643,13.433-20.684,14.56s-23.266-9.816-24.8-14.007.733-14.855,7.084-21.615C396.96,241.813,387.543,261.578,387.543,261.578Z" transform="translate(-249.711 -44.615)" fill="#f39568"/>
        <path id="Path_105595" data-name="Path 105595" d="M304.8,291.644s-.605,35.335,4.355,57.647,26.151-36.529,26.151-36.529S316.32,296.086,304.8,291.644Z" transform="translate(-277.25 -28.815)" fill="#2c2a40"/>
        <path id="Path_105596" data-name="Path 105596" d="M381.254,310.881s-.46,20.832-14.108,35.558a100.268,100.268,0,0,0-19.51,31.965s20.43-9.337,33.619-6.824c0,0,6.9.359,9.417-2.514s3.232-6.287,7.182-5.208,9.518-.18,10.955-.358,10.6,14.366,8.8,23.884c0,0-7.182,1.975-8.08,3.232s-6.105,6.645-9.339,6.465-11.852,4.849-11.852,4.849-44.421,16.9-48.487,19.754c-6.849,4.8-39.15,10.057-42.023-8.082S323.147,309.264,327.1,299.927,376.505,299.567,381.254,310.881Z" transform="translate(-279.632 -27.354)" fill="#2c2a40"/>
        <g id="Group_44692" data-name="Group 44692" transform="translate(59.514 281.879)">
          <path id="Path_105597" data-name="Path 105597" d="M330.067,353.041l1.251.457c.454-1.245,1.012-2.57,1.655-3.938l-1.2-.568C331.108,350.4,330.535,351.759,330.067,353.041Z" transform="translate(-328.35 -291.612)" fill="#5b5b6c"/>
          <path id="Path_105598" data-name="Path 105598" d="M379.343,350.882l.285,1.3c1.319-.289,2.743-.566,4.231-.826l-.229-1.313C382.123,350.306,380.68,350.589,379.343,350.882Z" transform="translate(-311.954 -291.262)" fill="#5b5b6c"/>
          <path id="Path_105599" data-name="Path 105599" d="M330.134,359.727l-1.325.148.019.149a7.271,7.271,0,0,0,1.694,4.2l.978-.9a6.109,6.109,0,0,1-1.35-3.461Z" transform="translate(-328.769 -288.04)" fill="#5b5b6c"/>
          <path id="Path_105600" data-name="Path 105600" d="M337.7,362.984l.358,1.284c1.369-.381,2.809-.844,4.168-1.285l-.411-1.267C340.468,362.151,339.042,362.609,337.7,362.984Z" transform="translate(-325.811 -287.378)" fill="#5b5b6c"/>
          <path id="Path_105601" data-name="Path 105601" d="M337.5,339.423c-.842,1.265-1.638,2.495-2.364,3.654l1.13.708c.72-1.149,1.507-2.368,2.343-3.622Z" transform="translate(-326.664 -294.796)" fill="#5b5b6c"/>
          <path id="Path_105602" data-name="Path 105602" d="M335.639,344.777l-1.148-.677c-.777,1.315-1.494,2.6-2.132,3.809l1.179.621C334.166,347.337,334.873,346.074,335.639,344.777Z" transform="translate(-327.588 -293.24)" fill="#5b5b6c"/>
          <path id="Path_105603" data-name="Path 105603" d="M356.087,306.166l-1.314-.228c-.244,1.406-.529,2.824-.85,4.214l1.3.3C355.548,309.038,355.839,307.6,356.087,306.166Z" transform="translate(-320.412 -305.938)" fill="#5b5b6c"/>
          <path id="Path_105604" data-name="Path 105604" d="M341.757,335.654l-1.086-.772c-.908,1.274-1.723,2.439-2.494,3.56l1.1.756C340.042,338.082,340.853,336.924,341.757,335.654Z" transform="translate(-325.652 -296.307)" fill="#5b5b6c"/>
          <path id="Path_105605" data-name="Path 105605" d="M343.913,330.42q-1.267,1.733-2.551,3.505l1.081.781q1.275-1.767,2.546-3.5Z" transform="translate(-324.592 -297.792)" fill="#5b5b6c"/>
          <path id="Path_105606" data-name="Path 105606" d="M330.851,354.561l-1.286-.348a24.124,24.124,0,0,0-.786,4.377l1.329.1A22.843,22.843,0,0,1,330.851,354.561Z" transform="translate(-328.779 -289.874)" fill="#5b5b6c"/>
          <path id="Path_105607" data-name="Path 105607" d="M332.572,363.339l-.251,1.309a8.708,8.708,0,0,0,1.649.145,15.87,15.87,0,0,0,2.9-.3l-.245-1.31A11.114,11.114,0,0,1,332.572,363.339Z" transform="translate(-327.6 -286.891)" fill="#5b5b6c"/>
          <path id="Path_105608" data-name="Path 105608" d="M359.281,359.187l.223,1.314c1.451-.247,2.895-.561,4.293-.936l-.345-1.286C362.094,358.641,360.691,358.948,359.281,359.187Z" transform="translate(-318.629 -288.521)" fill="#5b5b6c"/>
          <path id="Path_105609" data-name="Path 105609" d="M364.527,358.037l.437,1.259a34.148,34.148,0,0,0,4.076-1.7l-.6-1.191A32.888,32.888,0,0,1,364.527,358.037Z" transform="translate(-316.884 -289.146)" fill="#5b5b6c"/>
          <path id="Path_105610" data-name="Path 105610" d="M342.932,361.327l.4,1.27c1.663-.526,2.936-.9,4.125-1.2l-.331-1.291C345.916,360.415,344.621,360.792,342.932,361.327Z" transform="translate(-324.07 -287.914)" fill="#5b5b6c"/>
          <path id="Path_105611" data-name="Path 105611" d="M353.886,359.5l.012,1.333c1.446-.013,2.921-.1,4.386-.249l-.137-1.325C356.723,359.409,355.289,359.49,353.886,359.5Z" transform="translate(-320.425 -288.195)" fill="#5b5b6c"/>
          <path id="Path_105612" data-name="Path 105612" d="M373.975,352.539l.483,1.242a39.309,39.309,0,0,1,4.063-1.287l-.341-1.289A40.626,40.626,0,0,0,373.975,352.539Z" transform="translate(-313.74 -290.875)" fill="#5b5b6c"/>
          <path id="Path_105613" data-name="Path 105613" d="M371.345,354.323A11.538,11.538,0,0,1,369.351,356l.753,1.1a12.869,12.869,0,0,0,2.223-1.874,5.368,5.368,0,0,1,1.085-.868l-.713-1.128A6.678,6.678,0,0,0,371.345,354.323Z" transform="translate(-315.279 -290.202)" fill="#5b5b6c"/>
          <path id="Path_105614" data-name="Path 105614" d="M353.691,311.265c-.378,1.4-.8,2.777-1.247,4.109l1.263.425c.457-1.355.885-2.764,1.27-4.185Z" transform="translate(-320.904 -304.165)" fill="#5b5b6c"/>
          <path id="Path_105615" data-name="Path 105615" d="M344.606,329.477l1.076.786c.87-1.19,1.726-2.36,2.554-3.506l-1.08-.781Q345.914,327.693,344.606,329.477Z" transform="translate(-323.513 -299.27)" fill="#5b5b6c"/>
          <path id="Path_105616" data-name="Path 105616" d="M351.141,322.018l-1.173-.63c-.686,1.277-1.419,2.514-2.178,3.678l1.115.728C349.685,324.6,350.438,323.328,351.141,322.018Z" transform="translate(-322.453 -300.797)" fill="#5b5b6c"/>
          <path id="Path_105617" data-name="Path 105617" d="M350.423,320.385l1.2.568c.608-1.291,1.186-2.647,1.722-4.028l-1.243-.481C351.582,317.8,351.016,319.121,350.423,320.385Z" transform="translate(-321.577 -302.442)" fill="#5b5b6c"/>
          <path id="Path_105618" data-name="Path 105618" d="M348.321,359.707l.224,1.314a18.871,18.871,0,0,1,4.166-.3l.068-1.33A20.113,20.113,0,0,0,348.321,359.707Z" transform="translate(-322.276 -288.159)" fill="#5b5b6c"/>
        </g>
        <path id="Path_105619" data-name="Path 105619" d="M303.569,115l5.416,23.085.032.143a92.191,92.191,0,0,0,1.523,9.921c1.3,6.289,3.61,14.283,7.557,19.966a22.672,22.672,0,0,0,1.933,2.439s3.43,13.177,7.126,24.559h0c2.178,6.706,4.443,12.79,6.16,15.187,0,0,21.888-4.113,16.643-17.2,0,0-7.445-17.065-13.31-29.643l0-.009c-1.134-2.436-2.212-4.7-3.164-6.645l-6.709-15.312-3.215-7.337-9.754-22.265Z" transform="translate(-277.653 -88.631)" fill="#f9b587"/>
        <path id="Path_105620" data-name="Path 105620" d="M321.269,182.232c2.178,6.706,4.443,12.79,6.16,15.187,0,0,21.888-4.113,16.643-17.2,0,0-7.445-17.065-13.31-29.643.14.489,5.266,18.469,3.732,23.523C332.939,179.222,328.391,184.05,321.269,182.232Z" transform="translate(-271.764 -75.756)" fill="#f39568"/>
        <path id="Path_105621" data-name="Path 105621" d="M321.374,190.868c.324,9.515,4.242,20.85,8.782,27.605,2.737,2.884,6.16,2.873,9.658,1.369,8.9-3.818,18.307-17.272,18.307-17.272l-12.818-27.1-1.258-2.654c-7.24,1.975-14.574,7.129-18.83,10.5-2.3,1.824-3.7,3.128-3.7,3.128A32.254,32.254,0,0,0,321.374,190.868Z" transform="translate(-271.736 -68.355)" fill="url(#linear-gradient-9)"/>
        <path id="Path_105622" data-name="Path 105622" d="M321.374,188.246c.324,9.515,4.242,20.85,8.782,27.605,2.737,2.884,6.16,2.873,9.658,1.369-7.683-7.629-12.937-28.981-14.6-36.523-2.3,1.825-3.7,3.128-3.7,3.128A32.254,32.254,0,0,0,321.374,188.246Z" transform="translate(-271.736 -65.733)" fill="#2c2a40" opacity="0.2"/>
        <path id="Path_105623" data-name="Path 105623" d="M321.374,190.868c5.995-5.951,19.711-13.232,23.928-15.4l-1.258-2.654c-11.155,3.045-22.533,13.63-22.533,13.63A32.254,32.254,0,0,0,321.374,190.868Z" transform="translate(-271.736 -68.355)" fill="#2c2a40"/>
        <path id="Path_105624" data-name="Path 105624" d="M299.527,329.307c16.679,21.6,86.34,22.986,86.34,22.986s-2.468-28.585,0-42.74c2.715-15.562,5.067-38.431,5.067-38.431,6.372,4.659,16.1,13.329,21.648,18.364,2.579,2.346,4.249,3.9,4.249,3.9a68.8,68.8,0,0,1,6.69-18.673c5.719-10.373,11.947-13,11.947-13l-2.917-3.81L411.406,230.3l-22.721-18.824-3.91-3.239-17.88-11.454-7.319-4.691s-18.924,7.919-24.312,16.145-17.764,46.336-21.549,65.044c-4.91,24.265-10.8,44.806-13.149,52.636l-.008.015C299.9,328.114,299.527,329.307,299.527,329.307Z" transform="translate(-278.998 -61.942)" fill="url(#linear-gradient-9)"/>
        <path id="Path_105625" data-name="Path 105625" d="M299.527,314.865c16.679,21.6,86.34,22.986,86.34,22.986s-2.468-28.585,0-42.74c2.715-15.563,5.067-38.431,5.067-38.431,6.372,4.659,16.1,13.329,21.648,18.364,2.579,2.346,4.249,3.9,4.249,3.9a68.8,68.8,0,0,1,6.69-18.673s-24.417-13.23-34.851-24.787c0,0-13.01,35.983-17.49,54.115-5.8,23.466-25.457,33.044-43.5,31.845s-27.116-9.978-27.116-9.978l-.008.015C299.9,313.672,299.527,314.865,299.527,314.865Z" transform="translate(-278.998 -47.501)" fill="#2c2a40" opacity="0.2"/>
        <path id="Path_105626" data-name="Path 105626" d="M362.581,215.429c4.13-.813,6.229-3.112,9.365-5.662l-2.156-1.786-19.072-15.14c-2.53,1.606-5.688,3.183-6.127,9.608C343.927,212.148,354.153,217.086,362.581,215.429Z" transform="translate(-264.013 -61.691)" fill="#2c2a40"/>
        <path id="Path_105627" data-name="Path 105627" d="M384.355,273.052c2.579,2.346,4.249,3.9,4.249,3.9,5.711-26.219,18.637-31.671,18.637-31.671l-2.917-3.81A50.874,50.874,0,0,0,384.355,273.052Z" transform="translate(-250.772 -45.509)" fill="#2c2a40"/>
        <g id="Group_44695" data-name="Group 44695" transform="translate(79.177 64.206)">
          <path id="Path_105628" data-name="Path 105628" d="M377.143,187.573s.373,10.406-11.62,12.54C365.523,200.113,368.523,186.5,377.143,187.573Z" transform="translate(-336.215 -127.671)" fill="#2c2a40"/>
          <path id="Path_105629" data-name="Path 105629" d="M360.887,178.1c7.245,11.644,18.953,21.443,18.953,21.443s24.99-12.068,16.777-31.894a34.529,34.529,0,0,0-7.845-12.007v0h0c-12.5-11.935-29.158-4.223-29.158-4.223C352.339,158.946,355.27,169.075,360.887,178.1Z" transform="translate(-339.62 -140.5)" fill="url(#linear-gradient-9)"/>
          <path id="Path_105630" data-name="Path 105630" d="M380.411,153.968l0,0v0Z" transform="translate(-331.261 -138.833)" fill="#3e86aa"/>
          <path id="Path_105631" data-name="Path 105631" d="M359.49,176.429c7.245,11.644,18.953,21.443,18.953,21.443s24.99-12.068,16.777-31.894a34.529,34.529,0,0,0-7.845-12.007c.144.231,7.037,11.267,0,18.612C380.257,180.008,367.934,182.668,359.49,176.429Z" transform="translate(-338.222 -138.832)" fill="#2c2a40" opacity="0.2"/>
          <path id="Path_105632" data-name="Path 105632" d="M382.951,174.919s-6.533-33.791-27.437-32.257C335.94,144.1,351.192,170,351.192,170S379.448,178.073,382.951,174.919Z" transform="translate(-342.867 -142.612)" fill="#2c2a40"/>
          <path id="Path_105633" data-name="Path 105633" d="M356.264,157.884s-8.967,1.786-8.128,10.046C348.136,167.93,355.731,163.428,356.264,157.884Z" transform="translate(-342.019 -137.53)" fill="#2c2a40"/>
          <g id="Group_44694" data-name="Group 44694" transform="translate(0 20)">
            <g id="Group_44693" data-name="Group 44693">
              <path id="Path_105634" data-name="Path 105634" d="M372.326,199.874l-3.285,11.695a4.162,4.162,0,0,1-3.167,3.2c-13.723,3.019-20.26-7.044-18.88-10.573,1.774-.63,32.325-10.4,37.882-22.144A30.593,30.593,0,0,1,372.326,199.874Z" transform="translate(-342.441 -149.487)" fill="#f9b587"/>
              <path id="Path_105635" data-name="Path 105635" d="M349.655,207.5c4.391,1.693,10.581,3.225,17.023,2.083,12.155-2.158,18.483-16.543,18.483-16.543s2.03-9.772-.7-18.8a22.626,22.626,0,0,0-3.405-6.978c-5.717-7.73-15.221-9.109-20.451-9.608a6.83,6.83,0,0,0-6.479,3.225l-2.292,3.749-1.53,2.5a16.891,16.891,0,0,0-.89,1.651,17.247,17.247,0,0,0-1.6,6.052l-.179,2.45a17.288,17.288,0,0,0-3.624,9.845l-.474,11.034A9.568,9.568,0,0,0,349.655,207.5Z" transform="translate(-343.532 -157.619)" fill="#f9b587"/>
              <path id="Path_105636" data-name="Path 105636" d="M357.657,167.719s9.725-3.676,11.8,4.37l-1.519,1.163s-2.94-6.2-10.677-3.436Z" transform="translate(-338.964 -154.536)" fill="#2c2a40"/>
              <path id="Path_105637" data-name="Path 105637" d="M347.289,174.492a17.111,17.111,0,0,0-2.706,5c1.915-.4,5.236.021,10.809,3.412,0,0-2.051-3.969-5.2-5.411a1.383,1.383,0,0,1-.457-2.176l4.141-4.65a4.038,4.038,0,0,0-1.335-2.358,25.355,25.355,0,0,0-3.48-2.319,17.186,17.186,0,0,0-1.593,6.052Z" transform="translate(-343.182 -154.832)" fill="#f39568"/>
              <path id="Path_105638" data-name="Path 105638" d="M349.1,164.9a18.751,18.751,0,0,1,3.794,2.619l-.561,1.861a13.3,13.3,0,0,0-4.041-2.595,1.109,1.109,0,0,1-.668-1.485l.011-.019A1.067,1.067,0,0,1,349.1,164.9Z" transform="translate(-342.204 -155.243)" fill="#2c2a40"/>
              <path id="Path_105639" data-name="Path 105639" d="M346.176,179.6l16.866,5.54s-5.677,7.931-14.194,3.945C342.169,185.96,346.176,179.6,346.176,179.6Z" transform="translate(-343.049 -150.304)" fill="#fff"/>
              <path id="Path_105640" data-name="Path 105640" d="M349.6,197.261s10.59,3.136,22.1-8.488c0,0,.251,6.247-5.923,12.372-4.494,4.458-12.981,3.72-17.268,2.988a1.868,1.868,0,0,1-1.3-2.788Z" transform="translate(-342.396 -147.252)" fill="#f39568"/>
              <path id="Path_105641" data-name="Path 105641" d="M373.293,181.542s5.591-4.485,8.9.076-4.97,16.751-10.345,11.44S373.293,181.542,373.293,181.542Z" transform="translate(-334.797 -150.314)" fill="#f9b587"/>
            </g>
            <path id="Path_105642" data-name="Path 105642" d="M357.386,172.428s2.21-2.475,4.8-1.358a4.769,4.769,0,0,1,3.113,5.138S363.839,169.567,357.386,172.428Z" transform="translate(-338.923 -153.239)" fill="#2c2a40"/>
            <path id="Path_105643" data-name="Path 105643" d="M351.457,171.313s-1.247-4.23-4.431-1.149A3.171,3.171,0,0,1,351.457,171.313Z" transform="translate(-342.37 -153.818)" fill="#2c2a40"/>
            <path id="Path_105644" data-name="Path 105644" d="M349.74,164.561c.007.125-.289.6-.283.725,0,0,5.459-4.57,15.071-.86s14.319,12.808,14.319,12.808l3.642-3a22.627,22.627,0,0,0-3.405-6.978c-5.718-7.73-15.221-9.109-20.451-9.608a6.83,6.83,0,0,0-6.479,3.225Z" transform="translate(-341.561 -157.619)" fill="#f39568"/>
          </g>
          <path id="Path_105645" data-name="Path 105645" d="M370.221,186.782l3.157,1.437,4.6-4.13c.725-3.969-2.492-14.564-3.247-16.949-.406-.388-1.073-.769-1.543-1.15,0,0-3.169,10.962.261,15.021Z" transform="translate(-334.652 -134.833)" fill="#2c2a40"/>
        </g>
        <path id="Path_105646" data-name="Path 105646" d="M307.633,132.521l.032.143a92.175,92.175,0,0,0,1.523,9.921l16.234-6.66-3.215-7.337Z" transform="translate(-276.301 -83.072)" fill="#f39568"/>
        <path id="Path_105647" data-name="Path 105647" d="M327.121,215.022l12.85,11.475s-4.6,18.031-14.431,14.007C313.688,235.656,327.121,215.022,327.121,215.022Z" transform="translate(-271.968 -54.311)" fill="#2c2a40" opacity="0.2"/>
        <g id="Group_44697" data-name="Group 44697" transform="translate(0 0)">
          <g id="Group_44696" data-name="Group 44696">
            <rect id="Rectangle_17864" data-name="Rectangle 17864" width="61.055" height="40.428" transform="matrix(-0.937, 0.35, -0.35, -0.937, 71.339, 40.218)" fill="#2c2a40"/>
            <path id="Path_105648" data-name="Path 105648" d="M284.124,113.036l14.141,37.875,57.2-21.355-2.153-.611-67.56-19.187-1.095,2.208v0Z" transform="translate(-284.124 -89.338)" fill="#2c2a40"/>
            <path id="Path_105649" data-name="Path 105649" d="M284.521,111.966l13.5,36.313,1.733-.646,20.532-29.083-34.673-8.792Z" transform="translate(-283.992 -89.338)" fill="#fff"/>
            <rect id="Rectangle_17865" data-name="Rectangle 17865" width="58.386" height="40.428" transform="matrix(-0.937, 0.35, -0.35, -0.937, 70.464, 37.874)" fill="#2c2a40"/>
          </g>
          <path id="Path_105650" data-name="Path 105650" d="M299.488,103.592l.008-.009a3.725,3.725,0,0,1,2.6-1.258,2.443,2.443,0,0,1,2.031-1.509,2.59,2.59,0,0,1,1.694.257c.451-.868,1.585-1.383,2.2-1.04,0,0,.151.064.406.183a2.046,2.046,0,0,1,.7-.981h0a3.142,3.142,0,0,1,3.149-.988s6.055,2.444,6.632,7.112,1.433,10.1-.73,9.327a4.052,4.052,0,0,1-1.768-2.043c.233,2.8.1,4.9-1.3,4.4-.778-.279-1.542-1.427-2.168-2.9.135,2.376-.1,4.028-1.359,3.576-1.137-.406-2.24-2.665-2.935-5.088.211,2.7.048,4.689-1.318,4.2-1.674-.6-2.152-4.358-3.323-7.4-1.374-3.56-1.69-1.7-3.706-3l-1.811.676A4.071,4.071,0,0,1,299.488,103.592Z" transform="translate(-279.366 -93.212)" fill="#f9b587"/>
        </g>
        <path id="Path_105651" data-name="Path 105651" d="M441.535,241.493a11.9,11.9,0,0,1-5.186-6.954c-.229-.83-.5-1.711-.808-2.576-1.2-3.352-.239-10.535,0-13.409s2.275-8.38,2.873-8.979,4.19,1.954,2.754,5.646a11.819,11.819,0,0,0,.337,8.976c.741,1.181,4.093-.974,4.931-3.129s8.14-18.436,9.577-18.916,2.635-.119,1.677,4.07-5.507,11.494-4.909,13.529,1.675.36,2.035-.718,6.225-16.487,7.184-17.043,3.712-1.515,2.275,5.01-5.9,14.488-5.627,15.925,6.375-14.456,8.08-15.355,2.963.718,1.617,4.669S463.4,223.85,463.1,224.715c-.255.729-.112,1.343.517.984s4.426-9.689,5.3-10.228,3.024.449.689,6.824-3.89,12.024-10.236,17.891c-3.917,3.621-5.837,5.815-9.518,5.275C447.643,245.138,444.289,243.2,441.535,241.493Z" transform="translate(-233.935 -58.781)" fill="#f9b587"/>
        <path id="Path_105652" data-name="Path 105652" d="M391.432,223.347s1.565-17.262-11.989-20.854c-9.72-2.575-26.189,15.331-30.357,35.438-7.371,35.556,9.714,66.564,20.887,70.636,0,0,10.2-7.9,2.424-18.557,0,0-21.029-21.2-11.654-51.72,7.809-25.42,20.282-31.966,24.973-19.489Z" transform="translate(-263.103 -58.562)" fill="#2c2a40"/>
        <path id="Path_105653" data-name="Path 105653" d="M315.68,249.477l5.808-17.87s-.808-31.218,32.126-39.087a9.463,9.463,0,0,1-.437-3.3l.2-4.759C349.261,184.733,307.278,196.869,315.68,249.477Z" transform="translate(-273.992 -64.479)" fill="#2c2a40"/>
        <path id="Path_105654" data-name="Path 105654" d="M414.807,263.825a48.155,48.155,0,0,1,0-10.415,28.566,28.566,0,0,0-2.884-2.693C410.5,261.73,414.807,263.825,414.807,263.825Z" transform="translate(-241.694 -42.434)" fill="#f39568"/>
        <path id="Path_105655" data-name="Path 105655" d="M314.47,154.479a22.672,22.672,0,0,0,1.933,2.439s5.542-3.233,7.141-4.073A30.819,30.819,0,0,0,314.47,154.479Z" transform="translate(-274.026 -75)" fill="#f39568"/>
        <g id="Group_44698" data-name="Group 44698" transform="translate(129.176 325.527)">
          <path id="Path_105656" data-name="Path 105656" d="M381.048,350.139c2.973,2.808,5.38,9.377,6.942,14.7l.008.021c1.267,4.317,1.975,7.813,1.975,7.813,2.643,2.873,8.674,2.047,18.368,3.1,8.724.949,14.836,7.014,21.341,9.626h.007a17.759,17.759,0,0,0,2.18.732c3.868,1.017,6.594.381,8.078-1.49,1.343-1.691,1.67-4.4.9-7.815-1.617-7.2-19.754-23-24.961-25.105s-8.44-3.337-14.63-8.431-12.488-5.44-13.745-3.533c-.212.32-.532.826-.924,1.443C384.657,344.269,381.048,350.139,381.048,350.139Z" transform="translate(-381.048 -338.688)" fill="#b0b1ca"/>
          <path id="Path_105657" data-name="Path 105657" d="M385.206,341.2c2.051-.227,5.52-.331,7.989,1.1,3.71,2.155,8.979,7.184,14.6,9.817s16.4,10.056,22.032,15.325,8.936,13.558,7.3,16.281-4.613,2.628-8.826,1.674a17.757,17.757,0,0,0,2.18.732c7.362,1.932,10.6-2.108,8.979-9.305s-19.754-23-24.961-25.105-8.44-3.337-14.63-8.431-12.488-5.44-13.745-3.533C385.918,340.075,385.6,340.582,385.206,341.2Z" transform="translate(-379.664 -338.688)" fill="#2c2a40"/>
          <path id="Path_105658" data-name="Path 105658" d="M386.263,358.326c1.267,4.317,1.975,7.813,1.975,7.813,2.643,2.873,8.674,2.047,18.368,3.1,8.724.949,14.836,7.014,21.341,9.626h.007a17.764,17.764,0,0,0,2.18.732c3.868,1.017,6.594.381,8.078-1.49l.481-2.831a15.33,15.33,0,0,1-13.886-1.077c-5.682-3.3-8.244-6.512-12.805-7.783.848-3.451-1.083-7.184-1.083-7.184a27.429,27.429,0,0,1-1.415,6.59,15.087,15.087,0,0,0-2.895-.125C399.2,366.056,387.634,362.49,386.263,358.326Z" transform="translate(-379.313 -332.154)" fill="#2c2a40" opacity="0.2"/>
        </g>
      </g>
      <g id="Group_44710" data-name="Group 44710" transform="translate(54.21 34.563)">
        <g id="Group_44700" data-name="Group 44700" transform="translate(0 307.362)">
          <path id="Path_105659" data-name="Path 105659" d="M63.609,320.834a8.575,8.575,0,0,0,5.733-2.96c.049-.051.1-.105.152-.159l.007,0c2.792-3.005,4.8-7.582,6.782-11.026a21.591,21.591,0,0,1,1.755-2.68c1.87-2.354,5.135-8.562,7.975-14.28.145-.289.288-.58.429-.865,2.764-5.592,5.023-10.489,5.023-10.489a47.911,47.911,0,0,0-2.724-6.219,28.667,28.667,0,0,0-1.711-2.841c-1.246-1.8-2.685-3.288-4.222-3.76-4.789-1.474-9.227,1.7-12.912,5.991-3.608,4.2-13.535,21.913-15.153,29.267-.035.156-.067.309-.092.458C52.969,310.513,56.123,321.264,63.609,320.834Z" transform="translate(-54.21 -265.185)" fill="#b0b1ca"/>
          <path id="Path_105660" data-name="Path 105660" d="M63.609,320.834a8.7,8.7,0,0,0,5.885-3.119c-5.211,2.5-8.386.986-10.213-1.081-2.284-2.583-3.144-9.676-2.548-12.672,1.453-7.294,6.85-18.729,9.6-23.282s8.191-12.065,13.482-12.8a11.721,11.721,0,0,1,7.22,1.43c-1.246-1.8-2.685-3.288-4.222-3.76-4.789-1.474-9.227,1.7-12.912,5.991S55.935,294.22,54.651,301.268C52.969,310.513,56.123,321.264,63.609,320.834Z" transform="translate(-54.21 -265.185)" fill="#2c2a40"/>
          <path id="Path_105661" data-name="Path 105661" d="M63.609,315.233a8.575,8.575,0,0,0,5.733-2.96c.049-.051.1-.105.152-.159l.007,0c2.792-3.005,4.8-7.582,6.782-11.026a21.586,21.586,0,0,1,1.755-2.68c1.87-2.354,5.135-8.562,7.975-14.28.145-.289.288-.58.429-.865a3.256,3.256,0,0,0-3.62-1.078A38.608,38.608,0,0,0,75.6,292.652c-3.858,7.743-5.885,15.095-13.109,15.157S56.566,303.133,55.6,296.3c-.136-.952-.437-1.263-.858-1.094-.035.156-.067.309-.092.458C52.969,304.912,56.123,315.663,63.609,315.233Z" transform="translate(-54.21 -259.584)" fill="#2c2a40" opacity="0.2"/>
        </g>
        <g id="Group_44701" data-name="Group 44701" transform="translate(125.443 393.004)">
          <path id="Path_105662" data-name="Path 105662" d="M151.826,364.255c.08,4,3.227,30.5,11.863,35.858,4.362,2.705,6.866,2.6,8.12.577a10.238,10.238,0,0,0,1.052-5.166,42.272,42.272,0,0,0-.365-5.435c-1.183-9.714-1.327-32.2,7.214-37.082,0,0-1.565-11.6-5.562-18.752a11.89,11.89,0,0,0-4.294-4.81,96.55,96.55,0,0,0-9.712.542,40.871,40.871,0,0,0-5.851.7c-2.688.736-5.14,2.548-5.775,7.529C147.4,346.992,151.744,360.252,151.826,364.255Z" transform="translate(-148.333 -329.445)" fill="#b0b1ca"/>
          <path id="Path_105663" data-name="Path 105663" d="M151.826,363.944c.08,4,3.227,30.5,11.863,35.858,4.362,2.705,6.866,2.6,8.12.577a11.766,11.766,0,0,1-7.982-2.984c-3.753-3.224-8.472-21.412-8.2-27.28s-2.143-16.545-4.267-24.737c-1.61-6.2,1.381-12.368,2.927-15-2.688.736-5.14,2.548-5.775,7.529C147.4,346.681,151.744,359.94,151.826,363.944Z" transform="translate(-148.333 -329.134)" fill="#2c2a40"/>
          <path id="Path_105664" data-name="Path 105664" d="M151.826,364.255c.08,4,3.227,30.5,11.863,35.858,4.362,2.705,6.866,2.6,8.12.577a10.238,10.238,0,0,0,1.052-5.166c-1.649.369-4.126-.255-7-1.871-5.062-2.845-6.071-18.363-5.343-28.609s-5.4-18.3-1.877-24.752S173.8,335.3,173.8,335.3a9.809,9.809,0,0,0,.348-1.046,11.89,11.89,0,0,0-4.294-4.81,96.55,96.55,0,0,0-9.712.542,40.871,40.871,0,0,0-5.851.7c-2.688.736-5.14,2.548-5.775,7.529C147.4,346.992,151.744,360.252,151.826,364.255Z" transform="translate(-148.333 -329.445)" fill="#2c2a40" opacity="0.2"/>
        </g>
        <path id="Path_105665" data-name="Path 105665" d="M167.45,144.9s-52,1.409-61.917,25.361,21.344,92.544,38.183,100.775,40.6-1.818,48.647-10.309S187.026,152.132,167.45,144.9Z" transform="translate(-37.765 2.153)" fill="#2c2a40"/>
        <g id="Group_44703" data-name="Group 44703" transform="translate(59.955 202.456)">
          <g id="Group_44702" data-name="Group 44702" transform="translate(3.09)">
            <path id="Path_105666" data-name="Path 105666" d="M135.692,194.892a65.482,65.482,0,0,1-4.038,20.193s-1.163,7.018-2.976,15.718v0c-2.134,10.245-4.209,17.779-7.281,24.01a107.709,107.709,0,0,0-5.739,14.2q-.234.716-.437,1.377v0c-1.218,3.925-1.759,6.437-1.759,6.437l-11.406-3.8s-.71-12.016-.5-18.561c.255-8.111-.593-23.964,4.593-37.1h0a22.981,22.981,0,0,1,1.347-2.861,211.543,211.543,0,0,1,3.57-21.5,23.59,23.59,0,0,1,2.284-6.42S130.236,184.824,135.692,194.892Z" transform="translate(-101.514 -186.471)" fill="#f9b587"/>
            <path id="Path_105667" data-name="Path 105667" d="M113.707,208.691s-6.64.071-8.718,1.685h0a22.979,22.979,0,0,1,1.347-2.861S111.436,207.213,113.707,208.691Z" transform="translate(-100.359 -179.478)" fill="#f39568"/>
            <path id="Path_105668" data-name="Path 105668" d="M133.309,194.892a65.482,65.482,0,0,1-4.038,20.193s-1.163,7.018-2.976,15.718c.7-6.549.208-18.3.344-26.872.092-5.853-5.176-7.226-9.781-8.879-1.917-.689-5.678-1.4-7.9-2.132-.1-.032-.189.063-.281.091a23.59,23.59,0,0,1,2.284-6.42S127.852,184.824,133.309,194.892Z" transform="translate(-99.131 -186.471)" fill="#f39568"/>
          </g>
          <path id="Path_105669" data-name="Path 105669" d="M112.546,247.6l10.929,7.749a4.455,4.455,0,0,1,1.878,3.56l.179,10.527a2.266,2.266,0,0,1-2.232,2.306h0a2.27,2.27,0,0,1-2.234-1.71l-2.518-9.92-2.579-.944,1.618,5.923,1.991,5.371,4.982,6.232a2.031,2.031,0,0,1-.4,2.913h0a2.031,2.031,0,0,1-2.655-.236l-6.565-6.821-4.391-5.388,3.458,6.766,6.666,9.954a1.95,1.95,0,0,1-.005,2.176h0a1.948,1.948,0,0,1-2.985.289l-7.225-7.182-4.108-6.4,3.609,11.292,3.2,7.225a1.751,1.751,0,0,1-.676,2.2h0a1.751,1.751,0,0,1-2.415-.565l-4.642-7.5-3.351-8.705,2.159,7.5,1.187,2.556a1.064,1.064,0,0,1-.516,1.414h0a1.065,1.065,0,0,1-1.31-.341l-1.771-2.447L99.2,279.178l3.682-26.6S104.41,248.928,112.546,247.6Z" transform="translate(-99.196 -166.129)" fill="#f9b587"/>
          <path id="Path_105670" data-name="Path 105670" d="M113.628,249.984a12.7,12.7,0,0,0-7.331-1.5s4.262-1.609,7.77.124Z" transform="translate(-96.833 -166.064)" fill="#f39568"/>
        </g>
        <g id="Group_44705" data-name="Group 44705" transform="translate(129.373)">
          <path id="Path_105671" data-name="Path 105671" d="M199.572,157.139c11.63-22.934,6.9-53.055,6.072-60.672a10.574,10.574,0,0,0-.848-2.732v0c-4.409-10.477-24.375-38.724-28.921-45.1-.308-.433-.546-.762-.705-.981-.143-.2-.22-.309-.22-.309L160.944,53.86s9.417,9.846,13.12,22.208,12.56,28.561,12.56,28.561c-3.9,14.336-4.193,33.1-4.193,33.1C189.2,153.623,199.572,157.139,199.572,157.139Z" transform="translate(-148.067 -30.313)" fill="#f9b587"/>
          <path id="Path_105672" data-name="Path 105672" d="M194.208,145.554c11.63-22.934,6.9-53.056,6.072-60.672a10.574,10.574,0,0,0-.848-2.732c-.007.379-.343,24.631-1.922,32.466-1.593,7.9-4.132,16.188-8.736,17.3s-9.215-1.506-11.708-5.773C183.839,142.039,194.208,145.554,194.208,145.554Z" transform="translate(-142.702 -18.729)" fill="#f39568"/>
          <g id="Group_44704" data-name="Group 44704">
            <path id="Path_105673" data-name="Path 105673" d="M178.128,52.711c-1.874,1.987-10.013,7.5-11.2,8.035-.416.184-.974-.08-1.523-.5-.544.015-4.124.071-6.064-.865-1.066-.517-1.013-2.042-.693-3.65-2.576-.69-7.526-4.773-7.362-8.535.179-4.1,4.591-4.293,4.591-4.293.193-4.707,4.655-3.836,4.655-3.836.28-2.044,4.024-2.863,4.024-2.863.424-1.738,2.861-1.98,4.287-1.261s9.76,10.883,10.094,12.716S178.128,52.711,178.128,52.711Z" transform="translate(-151.282 -34.563)" fill="#f9b587"/>
            <path id="Path_105674" data-name="Path 105674" d="M164.078,51.851c.564,2.37-1.425,2.624-1.425,2.624.409-.3.4-1.3.313-2.172a5.3,5.3,0,0,0-.2-1.3l0-.007a3.289,3.289,0,0,0-1.663-2.16c-1.757-.837-2.576-.316-2.576-.316l-3.411-4.874a26.515,26.515,0,0,1,4.161,3.828,4.574,4.574,0,0,1,4.631,3.569,1.6,1.6,0,0,0,1.575-1.134,4.446,4.446,0,0,0-.56-3.376L160.182,39.9s6.528,6.4,6.618,8.829A2.68,2.68,0,0,1,164.078,51.851Z" transform="translate(-150.008 -32.788)" fill="#f39568"/>
            <path id="Path_105675" data-name="Path 105675" d="M162.63,38.451s4.241,5.328,4.785,6.77a2.572,2.572,0,0,1-1.581,3.38,1.969,1.969,0,0,1-1.782-.323l-.037,1.645s4.4.794,4.461-3.4C168.506,44.427,162.63,38.451,162.63,38.451Z" transform="translate(-147.506 -33.27)" fill="#f39568"/>
            <path id="Path_105676" data-name="Path 105676" d="M166.834,44.124a2.567,2.567,0,0,0,2.347.664c1.3-.385,1.589-1.253,1.3-2.058a1.532,1.532,0,0,1,.067,1.9c-.91,1.447-3.075,1.129-3.754.933Z" transform="translate(-146.119 -31.846)" fill="#f39568"/>
          </g>
          <path id="Path_105677" data-name="Path 105677" d="M170.165,50.289a4.578,4.578,0,0,0,2.643-1.741c-.308-.433-.546-.762-.705-.981A10.775,10.775,0,0,1,170.165,50.289Z" transform="translate(-144.999 -30.236)" fill="#f39568"/>
          <path id="Path_105678" data-name="Path 105678" d="M162.681,54.469a8.782,8.782,0,0,0,3.209-.9,5.244,5.244,0,0,1-2.536,1.751Z" transform="translate(-147.489 -28.241)" fill="#f39568"/>
          <path id="Path_105679" data-name="Path 105679" d="M180.387,90.991s6.131-.932,8.218-2.672a9.934,9.934,0,0,1-8.92,5.467Z" transform="translate(-141.831 -16.676)" fill="#f39568"/>
        </g>
        <path id="Path_105680" data-name="Path 105680" d="M75.144,309.716c2.472,1.837,1.334,2.258,3.773,3.576,2.363,1.278,8.564,6.359,8.949,6.673l.019.016c16.214,17.215,43.545,44.008,58.356,46.043,13.962,1.919,34.767-37.242,48.06-65.99l0,0c.141-.211,5.56-8.2,13.654-5.847,8.2,2.386,38.418,30.751,52.328,37.926,0,0-18.64.954-24.731,8.767s-23.067,15.281-26.147,16.518-4.69-.147-7.554,1.742-7.2,4.221-7.2,4.221c-.116,8.7,3.129,16.234,9.483,23.791a31.692,31.692,0,0,1,5.187-2.182c3.529-1.042,10.966-3,12.285-5.442s47.257-12.1,47.257-12.1,35.29-7,38.03-23.743-68.914-92.01-68.914-92.01l-5.544-24.136-25.866,4.279V231.8l-47.21,3.578s-8.072,21.7-10.349,41.273c-1.523,13.1-10.19,44.225-10.19,44.225s-7.987-8.211-23.527-14.859c-3.972-1.7-8.066-3.556-11.959-5.372l0,0s-5.891-2.959-7.945-5.811-3.308-1.754-5.53-2.42-4.1-3.365-5.58-3.087a2.807,2.807,0,0,0-1.922,1.009c-3.782,3.562-5.491,5.9-8,14.614C74.359,304.95,72.673,307.878,75.144,309.716Z" transform="translate(-47.692 29.648)" fill="#2c2a40"/>
        <g id="Group_44706" data-name="Group 44706" transform="translate(31.99 266.122)">
          <path id="Path_105681" data-name="Path 105681" d="M106.63,292.879l-.54.841c1.1.7,2.286,1.533,3.522,2.462l.6-.8C108.957,294.438,107.751,293.6,106.63,292.879Z" transform="translate(-68.937 -214.73)" fill="#5b5b6c"/>
          <path id="Path_105682" data-name="Path 105682" d="M101.746,290.246l-.468.882c1.068.565,2.1,1.089,3.056,1.558.267.129.536.268.806.41l.468-.884c-.28-.148-.558-.29-.836-.425C103.821,291.323,102.8,290.8,101.746,290.246Z" transform="translate(-70.538 -215.607)" fill="#5b5b6c"/>
          <path id="Path_105683" data-name="Path 105683" d="M96.461,288.426c1.283.754,2.552,1.481,3.774,2.159l.485-.874c-1.214-.674-2.478-1.4-3.752-2.147Z" transform="translate(-72.141 -216.499)" fill="#5b5b6c"/>
          <path id="Path_105684" data-name="Path 105684" d="M110.5,296.927c1.041.84,2.123,1.746,3.311,2.773l.654-.756c-1.2-1.034-2.287-1.949-3.337-2.795Z" transform="translate(-67.47 -213.642)" fill="#5b5b6c"/>
          <path id="Path_105685" data-name="Path 105685" d="M119.428,303.414l-.658.75a29.345,29.345,0,0,0,3.063,2.462,4.043,4.043,0,0,0,.477.265l.424-.9a3.019,3.019,0,0,1-.358-.2A28.663,28.663,0,0,1,119.428,303.414Z" transform="translate(-64.718 -211.225)" fill="#5b5b6c"/>
          <path id="Path_105686" data-name="Path 105686" d="M123.552,305.938l.486.873a10.11,10.11,0,0,0,3.181-3.211l-.825-.564A9.18,9.18,0,0,1,123.552,305.938Z" transform="translate(-63.126 -211.35)" fill="#5b5b6c"/>
          <path id="Path_105687" data-name="Path 105687" d="M115.335,299.737l-.665.746c.945.841,1.85,1.659,2.7,2.428l.52.469.67-.741-.52-.469C117.188,301.4,116.281,300.581,115.335,299.737Z" transform="translate(-66.082 -212.448)" fill="#5b5b6c"/>
          <path id="Path_105688" data-name="Path 105688" d="M91.757,285.536c1.189.76,2.43,1.534,3.688,2.3l.52-.853c-1.251-.764-2.487-1.533-3.668-2.29Z" transform="translate(-73.706 -217.454)" fill="#5b5b6c"/>
          <path id="Path_105689" data-name="Path 105689" d="M78.958,277.522q-.38.444-.745.9c.78.107,1.926.292,3.173.584l.228-.973C80.617,277.8,79.7,277.637,78.958,277.522Z" transform="translate(-78.213 -219.841)" fill="#5b5b6c"/>
          <path id="Path_105690" data-name="Path 105690" d="M83.055,278.556l-.345.938a9.9,9.9,0,0,1,3.333,1.863c.069.065.145.135.225.205l.665-.746c-.075-.067-.144-.129-.208-.189A10.868,10.868,0,0,0,83.055,278.556Z" transform="translate(-76.717 -219.496)" fill="#5b5b6c"/>
          <path id="Path_105691" data-name="Path 105691" d="M87.768,281.622l-.589.808c1.014.74,2.219,1.577,3.58,2.483l.554-.83C89.964,283.183,88.772,282.355,87.768,281.622Z" transform="translate(-75.23 -218.476)" fill="#5b5b6c"/>
          <path id="Path_105692" data-name="Path 105692" d="M136.856,259.527l.966.255q.552-2.1,1.122-4.188l-.965-.264Q137.41,257.425,136.856,259.527Z" transform="translate(-58.699 -227.225)" fill="#5b5b6c"/>
          <path id="Path_105693" data-name="Path 105693" d="M138.3,254.2l.964.268c.39-1.4.786-2.8,1.181-4.17l-.96-.277Q138.888,252.085,138.3,254.2Z" transform="translate(-58.219 -228.992)" fill="#5b5b6c"/>
          <path id="Path_105694" data-name="Path 105694" d="M134.238,270.249l.976.217c.3-1.363.629-2.784.97-4.222l-.973-.231C134.87,267.457,134.542,268.882,134.238,270.249Z" transform="translate(-59.571 -223.67)" fill="#5b5b6c"/>
          <path id="Path_105695" data-name="Path 105695" d="M135.5,264.873l.97.237c.335-1.363.689-2.777,1.054-4.2l-.968-.248C136.187,262.088,135.832,263.506,135.5,264.873Z" transform="translate(-59.152 -225.452)" fill="#5b5b6c"/>
          <path id="Path_105696" data-name="Path 105696" d="M139.818,248.893l.96.283c.416-1.414.832-2.8,1.243-4.153l-.957-.291C140.652,246.086,140.235,247.476,139.818,248.893Z" transform="translate(-57.714 -230.751)" fill="#5b5b6c"/>
          <path id="Path_105697" data-name="Path 105697" d="M126.809,302.114l.886.461a43.178,43.178,0,0,0,1.809-3.993l-.928-.369C128,299.647,127.41,300.96,126.809,302.114Z" transform="translate(-62.043 -212.956)" fill="#5b5b6c"/>
          <path id="Path_105698" data-name="Path 105698" d="M143.12,238.35l.946.321c.505-1.493.985-2.867,1.43-4.086l-.94-.342C144.11,235.469,143.626,236.852,143.12,238.35Z" transform="translate(-56.615 -234.242)" fill="#5b5b6c"/>
          <path id="Path_105699" data-name="Path 105699" d="M141.418,243.608l.954.3c.445-1.427.889-2.816,1.317-4.129l-.95-.309C142.31,240.784,141.864,242.178,141.418,243.608Z" transform="translate(-57.181 -232.503)" fill="#5b5b6c"/>
          <path id="Path_105700" data-name="Path 105700" d="M128.908,297.145l.945.324c.453-1.321.888-2.723,1.293-4.166l-.962-.269C129.784,294.458,129.354,295.841,128.908,297.145Z" transform="translate(-61.344 -214.679)" fill="#5b5b6c"/>
          <path id="Path_105701" data-name="Path 105701" d="M133.12,275.666l.982.184c.249-1.327.536-2.755.848-4.245l-.977-.205C133.658,272.9,133.371,274.332,133.12,275.666Z" transform="translate(-59.943 -221.878)" fill="#5b5b6c"/>
          <path id="Path_105702" data-name="Path 105702" d="M130.433,291.918l.97.239c.34-1.389.657-2.82.941-4.253l-.981-.195C131.082,289.128,130.769,290.544,130.433,291.918Z" transform="translate(-60.837 -216.451)" fill="#5b5b6c"/>
          <path id="Path_105703" data-name="Path 105703" d="M131.534,286.57l.986.165c.24-1.433.45-2.883.626-4.31l-.992-.123C131.98,283.716,131.771,285.151,131.534,286.57Z" transform="translate(-60.47 -218.25)" fill="#5b5b6c"/>
          <path id="Path_105704" data-name="Path 105704" d="M132.251,281.144l.993.12c.153-1.277.363-2.713.622-4.271l-.985-.165C132.619,278.4,132.407,279.852,132.251,281.144Z" transform="translate(-60.232 -220.072)" fill="#5b5b6c"/>
        </g>
        <g id="Group_44707" data-name="Group 44707" transform="translate(149.145 318.901)">
          <path id="Path_105705" data-name="Path 105705" d="M179.158,273.848a13.8,13.8,0,0,0-4.431.618l.3.956a12.781,12.781,0,0,1,4.11-.574Z" transform="translate(-163.252 -273.844)" fill="#5b5b6c"/>
          <path id="Path_105706" data-name="Path 105706" d="M184.054,276.705l.493-.869c-.4-.225-.777-.424-1.126-.589a16.467,16.467,0,0,0-3-1.082l-.243.969a15.467,15.467,0,0,1,2.819,1.017C183.321,276.305,183.678,276.492,184.054,276.705Z" transform="translate(-161.439 -273.737)" fill="#5b5b6c"/>
          <path id="Path_105707" data-name="Path 105707" d="M185.031,324.52l.445.894c1.3-.648,2.607-1.314,3.876-1.978l-.465-.886C187.625,323.212,186.328,323.875,185.031,324.52Z" transform="translate(-159.823 -257.636)" fill="#5b5b6c"/>
          <path id="Path_105708" data-name="Path 105708" d="M189.906,322.022l.478.877c1.347-.736,2.623-1.455,3.79-2.14l-.505-.862C192.51,320.576,191.244,321.29,189.906,322.022Z" transform="translate(-158.201 -258.52)" fill="#5b5b6c"/>
          <path id="Path_105709" data-name="Path 105709" d="M194.645,319.343l.534.845a40.263,40.263,0,0,0,3.605-2.512l-.628-.778A38.921,38.921,0,0,1,194.645,319.343Z" transform="translate(-156.624 -259.518)" fill="#5b5b6c"/>
          <path id="Path_105710" data-name="Path 105710" d="M166.324,334.14c.9-.624,1.777-1.2,2.619-1.722l-.528-.85c-.741.46-1.511.966-2.3,1.5C166.182,333.428,166.253,333.784,166.324,334.14Z" transform="translate(-166.117 -254.636)" fill="#5b5b6c"/>
          <path id="Path_105711" data-name="Path 105711" d="M169.815,330.865l.468.884a22.328,22.328,0,0,1,3.89-1.667l-.289-.957A23.342,23.342,0,0,0,169.815,330.865Z" transform="translate(-164.886 -255.449)" fill="#5b5b6c"/>
          <path id="Path_105712" data-name="Path 105712" d="M189.276,280.823c1.01.842,2.119,1.787,3.293,2.808l.656-.754c-1.18-1.026-2.294-1.975-3.309-2.821Z" transform="translate(-158.411 -271.777)" fill="#5b5b6c"/>
          <path id="Path_105713" data-name="Path 105713" d="M175.006,328.868l.335.942c1.151-.409,2.519-.95,4.064-1.606l-.39-.92C177.486,327.933,176.137,328.466,175.006,328.868Z" transform="translate(-163.159 -256.061)" fill="#5b5b6c"/>
          <path id="Path_105714" data-name="Path 105714" d="M180.069,326.84l.41.912c1.267-.572,2.595-1.189,3.944-1.837l-.432-.9C182.649,325.658,181.33,326.272,180.069,326.84Z" transform="translate(-161.474 -256.817)" fill="#5b5b6c"/>
          <path id="Path_105715" data-name="Path 105715" d="M172.45,276.751c.327-.216.686-.437,1.077-.652l-.481-.877a16.394,16.394,0,0,0-1.821,1.165C171.631,276.511,172.039,276.633,172.45,276.751Z" transform="translate(-164.417 -273.385)" fill="#5b5b6c"/>
          <path id="Path_105716" data-name="Path 105716" d="M185.525,276.654l-.573.82c1.02.713,2.178,1.585,3.443,2.59l.622-.782C187.736,278.264,186.562,277.379,185.525,276.654Z" transform="translate(-159.85 -272.908)" fill="#5b5b6c"/>
          <path id="Path_105717" data-name="Path 105717" d="M218.59,310.011a12.686,12.686,0,0,1-3.485,1.285l.263.965a12.861,12.861,0,0,0,3.82-1.447c.123-.092.243-.188.359-.291l-.658-.752C218.79,309.856,218.691,309.936,218.59,310.011Z" transform="translate(-149.816 -261.889)" fill="#5b5b6c"/>
          <path id="Path_105718" data-name="Path 105718" d="M210.563,298.264l-.626.78c1.338,1.073,2.482,1.934,3.5,2.632l.566-.824C213,300.168,211.882,299.322,210.563,298.264Z" transform="translate(-151.536 -265.718)" fill="#5b5b6c"/>
          <path id="Path_105719" data-name="Path 105719" d="M215,301.348l-.032-.016-.428.9.033.016a16.2,16.2,0,0,1,3.534,2.182l.642-.766A17.238,17.238,0,0,0,215,301.348Z" transform="translate(-150.003 -264.697)" fill="#5b5b6c"/>
          <path id="Path_105720" data-name="Path 105720" d="M219.473,304.868l-.862.505a5.242,5.242,0,0,1,.66,1.742,4.409,4.409,0,0,1-.107,2.03l.961.28a5.454,5.454,0,0,0,.131-2.484A6.239,6.239,0,0,0,219.473,304.868Z" transform="translate(-148.65 -263.52)" fill="#5b5b6c"/>
          <path id="Path_105721" data-name="Path 105721" d="M211.842,311.978c-.676.16-1.371.325-2.078.494l.235.972c.7-.169,1.4-.333,2.074-.493.741-.176,1.459-.346,2.147-.513l-.236-.972C213.3,311.633,212.581,311.8,211.842,311.978Z" transform="translate(-151.593 -261.325)" fill="#5b5b6c"/>
          <path id="Path_105722" data-name="Path 105722" d="M204.42,313.919l.288.958c1.235-.37,2.6-.746,4.162-1.146l-.248-.968C207.044,313.165,205.67,313.544,204.42,313.919Z" transform="translate(-153.372 -260.893)" fill="#5b5b6c"/>
          <path id="Path_105723" data-name="Path 105723" d="M199.219,316.053l.464.886a31.064,31.064,0,0,1,3.924-1.665l-.333-.942A31.584,31.584,0,0,0,199.219,316.053Z" transform="translate(-155.102 -260.371)" fill="#5b5b6c"/>
          <path id="Path_105724" data-name="Path 105724" d="M200.485,289.415l-2.283-2.072-.672.741q1.142,1.033,2.283,2.071l.929.845.672-.741Z" transform="translate(-155.664 -269.352)" fill="#5b5b6c"/>
          <path id="Path_105725" data-name="Path 105725" d="M201.61,291.786c1.092.989,2.17,1.96,3.227,2.9l.666-.745c-1.056-.942-2.132-1.914-3.223-2.9Z" transform="translate(-154.307 -268.12)" fill="#5b5b6c"/>
          <path id="Path_105726" data-name="Path 105726" d="M209.657,297.541c-1-.845-2.075-1.77-3.277-2.827l-.66.75c1.207,1.062,2.284,1.991,3.293,2.841Z" transform="translate(-152.939 -266.899)" fill="#5b5b6c"/>
          <path id="Path_105727" data-name="Path 105727" d="M197.336,286.554q-1.633-1.471-3.236-2.893l-.662.749c1.064.942,2.143,1.909,3.229,2.888Z" transform="translate(-157.026 -270.577)" fill="#5b5b6c"/>
        </g>
        <path id="Path_105728" data-name="Path 105728" d="M226.247,279.266s-47.313,15.407-72.862,8.5c-1.906-.52-17.446-3.665-17.446-3.665s8.77-33.292,6.317-55.4c-.64-5.864-2.026-17.432-6.171-27.934-1.479-3.758-3-7.583-4.491-11.3-4.438-11.009-8.57-21.044-10.4-25.442a20.677,20.677,0,0,1,7.623-3.438,1.4,1.4,0,0,1,.147-.013,126.367,126.367,0,0,0,15.273-3.532h.013a81.079,81.079,0,0,0,22.2-10.236l6.4-3.558,6.717-3.745s8.263,2.985,16.846,15.247a55.552,55.552,0,0,1-7.13,7.144,39.328,39.328,0,0,0,6.944,3.492,25.937,25.937,0,0,0,4.651-3.372c5.438,10.076,10.422,24.443,12.861,44.767,2.2,18.459,6.077,40,8.943,54.776C224.728,272.149,226.247,279.266,226.247,279.266Z" transform="translate(-31.919 0.355)" fill="#84519e"/>
        <path id="Path_105729" data-name="Path 105729" d="M151.161,163.587c-8.769-.746-10.782-4.931-12.661-7.783a81.081,81.081,0,0,0,22.2-10.236l4.194-2.356c1.2,0,4.163,2.208,4.163,6.642C169.061,155.813,162.823,164.587,151.161,163.587Z" transform="translate(-26.162 1.59)" fill="#2c2a40"/>
        <path id="Path_105730" data-name="Path 105730" d="M169.053,169.735l15.389-6.89s11.963,17.975,2.21,21.492C176.171,188.117,169.053,169.735,169.053,169.735Z" transform="translate(-15.996 8.123)" fill="#2c2a40" opacity="0.2"/>
        <path id="Path_105731" data-name="Path 105731" d="M169.719,120.248s6.463-4.893,3.813-14.716c0,0-2.168,3.729-4.14,4.1,0,0,5-13.522-10.277-21.052,0,0,1.789,7.439-.028,9.916,0,0-4.033-8.606-10.01-10.379,0,0,.9,15.08-8.45,18.127-6.668,2.174-15.287,9.92-17.663,22.649,0,0-3.872-1.118-5.316.4,0,0,4.964.836,5.65,4a3.552,3.552,0,0,0-3.654.277s3.508.724,4.05,3.468,13.821,23.718,21.829,27.212S169.719,120.248,169.719,120.248Z" transform="translate(-33.101 -16.743)" fill="#2c2a40"/>
        <g id="Group_44709" data-name="Group 44709" transform="translate(97.024 96.749)">
          <g id="Group_44708" data-name="Group 44708">
            <path id="Path_105732" data-name="Path 105732" d="M144.48,153.421l1.068,6.152a4.058,4.058,0,0,0,2.963,3.236c13.249,3.453,19.089-4.779,19.747-7.968-1.7-.68-32.054-12.958-37.025-24.6C131.232,130.243,134.431,145.891,144.48,153.421Z" transform="translate(-125.604 -99.475)" fill="#f9b587"/>
            <path id="Path_105733" data-name="Path 105733" d="M169.168,126.791a16.838,16.838,0,0,1,3.16,9.72l.049,10.759a9.326,9.326,0,0,1-6.3,8.868c-4.341,1.485-10.421,2.746-16.651,1.391-11.756-2.556-17.38-16.8-17.38-16.8s-4.9-14.766,4.962-24.948c6.83-7.053,16-8.438,20.983-8.623a5.7,5.7,0,0,1,5.188,2.9l3.776,6.741a16.256,16.256,0,0,1,.8,1.642,16.793,16.793,0,0,1,1.326,5.953Z" transform="translate(-125.739 -107.157)" fill="#f9b587"/>
            <path id="Path_105734" data-name="Path 105734" d="M152.031,117s-9.332-3.942-11.654,3.816L141.812,122s3.095-5.928,10.523-2.945Z" transform="translate(-122.561 -104.216)" fill="#2c2a40"/>
            <path id="Path_105735" data-name="Path 105735" d="M161.643,123.972a16.652,16.652,0,0,1,2.447,4.971c-1.848-.46-5.1-.176-10.651,2.917,0,0,2.146-3.788,5.263-5.074a1.347,1.347,0,0,0,.526-2.1L155.372,120a3.925,3.925,0,0,1,1.387-2.244,24.867,24.867,0,0,1,3.474-2.13,16.793,16.793,0,0,1,1.326,5.953Z" transform="translate(-118.215 -104.338)" fill="#f39568"/>
            <path id="Path_105736" data-name="Path 105736" d="M158.787,114.531A18.246,18.246,0,0,0,155,116.939l.476,1.833A12.964,12.964,0,0,1,159.5,116.4a1.08,1.08,0,0,0,.705-1.419l-.009-.019A1.039,1.039,0,0,0,158.787,114.531Z" transform="translate(-117.697 -104.742)" fill="#2c2a40"/>
            <path id="Path_105737" data-name="Path 105737" d="M164.194,128.955l-16.63,4.766s5.231,7.934,13.673,4.371C167.856,135.3,164.194,128.955,164.194,128.955Z" transform="translate(-120.17 -99.904)" fill="#fff"/>
            <path id="Path_105738" data-name="Path 105738" d="M161.773,146.244s-10.427,2.658-21.2-9.092c0,0-.477,6.073,5.3,12.269s19.273,3.12,19.273,3.12Z" transform="translate(-122.499 -97.176)" fill="#f39568"/>
            <path id="Path_105739" data-name="Path 105739" d="M136.522,129.9s-5.276-4.575-8.671-.26,4.214,16.5,9.645,11.527S136.522,129.9,136.522,129.9Z" transform="translate(-127.01 -100.291)" fill="#f9b587"/>
          </g>
          <path id="Path_105740" data-name="Path 105740" d="M151.086,121.575s-2.059-2.492-4.626-1.5a4.646,4.646,0,0,0-3.223,4.886S144.908,118.548,151.086,121.575Z" transform="translate(-121.618 -102.936)" fill="#2c2a40"/>
          <path id="Path_105741" data-name="Path 105741" d="M156.017,120.7s1.373-4.073,4.358-.953A3.09,3.09,0,0,0,156.017,120.7Z" transform="translate(-117.357 -103.359)" fill="#2c2a40"/>
        </g>
        <path id="Path_105742" data-name="Path 105742" d="M133.753,117.051s4.046,4.893.758,10l3.405,7.831-3.522.9-2.928-4.343L129.2,120.217S131.933,115.08,133.753,117.051Z" transform="translate(-29.255 -7.265)" fill="#2c2a40"/>
        <path id="Path_105743" data-name="Path 105743" d="M208.118,125.988s-.427,2.132-1.306,5.518c-2.865,10.929-10.555,34.9-24.443,42.688a39.33,39.33,0,0,1-6.944-3.492c-5.851-3.665-13.181-10.289-12.515-20.311,0,0,11.915-19.791,16.966-33.719.466-1.266.866-2.492,1.2-3.652l22.15,10.622Z" transform="translate(-18.054 -8.457)" fill="#84519e"/>
        <path id="Path_105744" data-name="Path 105744" d="M203.871,125.988s-.426,2.132-1.306,5.518c-5.2-4.025-21.71-12.261-26.935-14.834.466-1.266.866-2.492,1.2-3.652l22.15,10.622Z" transform="translate(-13.807 -8.457)" fill="#2c2a40"/>
        <path id="Path_105745" data-name="Path 105745" d="M203.206,123.336s-6.261,31.494-21.1,44.832a72.911,72.911,0,0,0-4.465-7.265c11.29-13.454,18.208-32.382,20.666-39.916Z" transform="translate(-13.139 -5.805)" fill="#2c2a40" opacity="0.2"/>
        <path id="Path_105746" data-name="Path 105746" d="M143.959,176.1a41.677,41.677,0,0,1-.92,4.4l-1.319,15.007-1.493,14.447-.426,4.185c-2.519,3.532-11.048,3.852-19.112,3.265v-.013a145.827,145.827,0,0,1-16.419-2.239s.213-1.626.693-4.411a200.3,200.3,0,0,1,8.943-34.038c3.572-9.676,8.676-15.02,12.928-17.939a20.676,20.676,0,0,1,7.623-3.438,1.4,1.4,0,0,1,.147-.013C145.559,156.336,145.052,169.157,143.959,176.1Z" transform="translate(-37.552 5.615)" fill="#84519e"/>
        <path id="Path_105747" data-name="Path 105747" d="M140.228,196.31l-.426,4.185c-2.519,3.532-11.048,3.852-19.112,3.265v-.013a145.831,145.831,0,0,1-16.419-2.239s.213-1.626.693-4.411a97.524,97.524,0,0,0,19.424,2.243C132.787,199.451,137.669,197.456,140.228,196.31Z" transform="translate(-37.552 19.258)" fill="#2c2a40"/>
        <path id="Path_105748" data-name="Path 105748" d="M156.571,145.823s17.3-2.644,28.285,7.136,21.9,30.288,15.257,42.6l2.691,17.826s18.092-28.42-1.319-55.952c-13.062-18.525-29.758-18.977-38.194-17.732a9.053,9.053,0,0,1-5.734,5.576Z" transform="translate(-20.149 0.283)" fill="#2c2a40"/>
        <path id="Path_105749" data-name="Path 105749" d="M125.267,158.312S130.221,147,139.453,148.3s36.873,38.862,31.025,66.483-29.743,30.556-29.743,30.556-4.626-7.012.574-13.533a29.284,29.284,0,0,0,19.939-21.832c4.238-17.981-17.127-54.454-24.976-55.573-2.825-.4-4.951,2.6-4.951,2.6S128,157.908,125.267,158.312Z" transform="translate(-30.565 3.248)" fill="#2c2a40"/>
        <path id="Path_105750" data-name="Path 105750" d="M227.785,269.168s-47.322,15.411-72.865,8.5c-1.906-.514-17.451-3.657-17.451-3.657s8.779-33.3,6.329-55.412c-.649-5.857-2.035-17.428-6.172-27.936L135.7,209.3c-2.522,3.521-11.046,3.848-19.11,3.257v0s12.87-6.853,14.258-22.242a44.423,44.423,0,0,1,2.282-10.945c2.474-6.97,5.881-9.521,5.881-9.521s.317.505.842,1.41c2.508,4.285,9.777,17.518,10.627,28.172,1.034,12.9,5.116,40.376,25.029,56.646,11.078,9.052,48.088,7.63,48.679-4.261,0-.127.013-.247.027-.361C226.263,262.054,227.785,269.168,227.785,269.168Z" transform="translate(-33.452 10.454)" fill="#2c2a40" opacity="0.2"/>
      </g>
    </g>
  </g>
</svg>
