<svg xmlns="http://www.w3.org/2000/svg" xmlns:xlink="http://www.w3.org/1999/xlink" width="182" height="50" viewBox="0 0 182 50">
  <defs>
    <clipPath id="clip-path">
      <rect id="Rectangle_17981" data-name="Rectangle 17981" width="182" height="50" transform="translate(-0.088 0.445)" fill="#fff" opacity="0.372"/>
    </clipPath>
  </defs>
  <g id="Group_288" data-name="Group 288" transform="translate(0.088 -0.445)" clip-path="url(#clip-path)">
    <g id="Group_46804" data-name="Group 46804" transform="translate(0.921 13.689)">
      <path id="Path_108791" data-name="Path 108791" d="M294.355,452.9a2.864,2.864,0,0,1-.641,1.789,5.922,5.922,0,0,1-1.736,1.467,9.2,9.2,0,0,1-2.59.988,13.894,13.894,0,0,1-3.149.349,13.562,13.562,0,0,1-3.126-.349,9.618,9.618,0,0,1-2.59-.988,5.863,5.863,0,0,1-1.762-1.467,2.874,2.874,0,0,1-.641-1.789V436.344a1,1,0,0,0-.694-.909,4.183,4.183,0,0,0-3.2,0,1.531,1.531,0,0,0-.855.748v19.761a1.254,1.254,0,0,1-.853,1.148,4.756,4.756,0,0,1-2.031.4,4.612,4.612,0,0,1-1.976-.4,1.254,1.254,0,0,1-.854-1.148V436.182a1.527,1.527,0,0,0-.854-.748,3.809,3.809,0,0,0-1.6-.319,4,4,0,0,0-1.629.319,1.006,1.006,0,0,0-.721.909v19.6a1.252,1.252,0,0,1-.826,1.148,4.711,4.711,0,0,1-2.058.4,4.608,4.608,0,0,1-1.976-.4,1.254,1.254,0,0,1-.854-1.148v-21.31a3.857,3.857,0,0,1,2.031-3.256,9.458,9.458,0,0,1,5.286-1.335c.356,0,.794.018,1.308.053a9.535,9.535,0,0,1,1.629.266,8.156,8.156,0,0,1,1.655.616,4.942,4.942,0,0,1,1.442,1.095,4.87,4.87,0,0,1,1.469-1.095,8.857,8.857,0,0,1,3.258-.881q.774-.053,1.362-.053a9.329,9.329,0,0,1,5.26,1.335,3.863,3.863,0,0,1,2,3.256V451.19a1,1,0,0,0,.721.908,4,4,0,0,0,1.629.32,4.281,4.281,0,0,0,1.736-.32,1,1,0,0,0,.721-.908v-19.6a1.253,1.253,0,0,1,.829-1.15,4.44,4.44,0,0,1,1.948-.4,4.9,4.9,0,0,1,2.083.4,1.256,1.256,0,0,1,.854,1.15Z" transform="translate(-257.133 -429.827)" fill="#fff"/>
      <path id="Path_108792" data-name="Path 108792" d="M289.488,440.723a1.252,1.252,0,0,1-.854,1.147,4.869,4.869,0,0,1-2.083.4,4.419,4.419,0,0,1-1.951-.4,1.249,1.249,0,0,1-.828-1.147v-6.09a2.941,2.941,0,0,1,.616-1.789,5.8,5.8,0,0,1,1.656-1.467,8.494,8.494,0,0,1,2.483-.988,13.194,13.194,0,0,1,3.1-.347,13.561,13.561,0,0,1,3.126.347,8.508,8.508,0,0,1,2.51.988,5.842,5.842,0,0,1,1.656,1.467,2.958,2.958,0,0,1,.614,1.789V452.9a2.953,2.953,0,0,1-.614,1.789,5.822,5.822,0,0,1-1.656,1.467,8.472,8.472,0,0,1-2.51.988,13.562,13.562,0,0,1-3.126.349,13.2,13.2,0,0,1-3.1-.349,8.457,8.457,0,0,1-2.483-.988,5.779,5.779,0,0,1-1.656-1.467,2.936,2.936,0,0,1-.616-1.789v-6.143a1.25,1.25,0,0,1,.828-1.147,4.421,4.421,0,0,1,1.951-.4,4.871,4.871,0,0,1,2.083.4,1.253,1.253,0,0,1,.854,1.147v4.434a.993.993,0,0,0,.587.908,3.246,3.246,0,0,0,1.547.32,3.385,3.385,0,0,0,1.6-.32,1,1,0,0,0,.587-.908V436.344a1,1,0,0,0-.587-.909,3.386,3.386,0,0,0-1.6-.319,3.247,3.247,0,0,0-1.547.319,1,1,0,0,0-.587.909Z" transform="translate(-244.255 -429.827)" fill="#fff"/>
      <path id="Path_108793" data-name="Path 108793" d="M320.918,438.585h2.617a7.12,7.12,0,0,1,4.513,1.4,4.561,4.561,0,0,1,1.789,3.805V452.2a.112.112,0,0,1-.027.082.107.107,0,0,0-.027.079h11.749v-3.737a15.356,15.356,0,0,1-7.21-1.922,4.983,4.983,0,0,1-2.67-4.379v-7.8a3.027,3.027,0,0,1,.587-1.789,5.472,5.472,0,0,1,1.629-1.469,8.558,8.558,0,0,1,2.457-.988,14.053,14.053,0,0,1,6.221,0,8.514,8.514,0,0,1,2.483.988,5.472,5.472,0,0,1,1.629,1.469,3.027,3.027,0,0,1,.587,1.789v8.7a4.407,4.407,0,0,0,1.629-.641,3.066,3.066,0,0,0,.935-.988,4.1,4.1,0,0,0,.455-1.2,11.22,11.22,0,0,0,.187-1.282v-7.477a1.252,1.252,0,0,1,.826-1.15,4.451,4.451,0,0,1,1.949-.4,4.906,4.906,0,0,1,2.083.4,1.256,1.256,0,0,1,.854,1.15v24.19a1.253,1.253,0,0,1-.854,1.15,4.909,4.909,0,0,1-2.083.4h-29.96a1.87,1.87,0,0,1-1.709-.748,3.182,3.182,0,0,1-.479-1.761,3.659,3.659,0,0,1,.4-1.789,1.192,1.192,0,0,1,1.2-.668q1.44,0,1.44-1.283v-5.713a1.764,1.764,0,0,0-.452-1.337,2.205,2.205,0,0,0-1.523-.427h-1.228v9.294a2.856,2.856,0,0,1-.641,1.789,5.923,5.923,0,0,1-1.736,1.467,9.245,9.245,0,0,1-2.563.988,13.559,13.559,0,0,1-3.124.349,13.315,13.315,0,0,1-3.523-.454,9.64,9.64,0,0,1-2.725-1.15,7.8,7.8,0,0,1-1.816,1.2,6.088,6.088,0,0,1-2.563.454,7.581,7.581,0,0,1-2.19-.322,5.543,5.543,0,0,1-3.31-2.7,4.964,4.964,0,0,1-.537-2.384v-8.408a4.555,4.555,0,0,1,1.79-3.8,7.128,7.128,0,0,1,4.511-1.394h2.244v-3.925a2.829,2.829,0,0,1,.642-1.779,5.926,5.926,0,0,1,1.736-1.46,9.267,9.267,0,0,1,2.562-.982,13.878,13.878,0,0,1,3.178-.344,13.648,13.648,0,0,1,3.124.344,9.332,9.332,0,0,1,2.563.982,5.925,5.925,0,0,1,1.736,1.46,2.828,2.828,0,0,1,.641,1.779Zm-17.57,13.94a1.128,1.128,0,0,0,.828-.294,1.779,1.779,0,0,0,.427-.694,2.683,2.683,0,0,0,.134-.854v-7.024h-.854a2.2,2.2,0,0,0-1.522.427,1.759,1.759,0,0,0-.454,1.337V451.3Q301.907,452.524,303.349,452.524Zm7.1-13.94H315.2v-2.207a.985.985,0,0,0-.694-.895,4.135,4.135,0,0,0-1.707-.314,4.01,4.01,0,0,0-1.659.314.984.984,0,0,0-.691.895Zm4.751,5.073h-4.751v7.585a1,1,0,0,0,.691.908,3.961,3.961,0,0,0,1.659.32,4.083,4.083,0,0,0,1.707-.32,1,1,0,0,0,.694-.908Zm22.163-3.737a6.71,6.71,0,0,0,.133,1.415,2.217,2.217,0,0,0,.561,1.068,3.114,3.114,0,0,0,1.255.746,8.777,8.777,0,0,0,2.216.4v-7.318q0-1.226-2.136-1.228-2.032,0-2.029,1.228Zm13.085,12.442V446.6q-.75.427-1.524.826a9.358,9.358,0,0,1-1.682.668v4.272Z" transform="translate(-238.251 -429.88)" fill="#fff"/>
      <path id="Path_108794" data-name="Path 108794" d="M350.581,430.042a27.035,27.035,0,0,1,4.78.4,11.317,11.317,0,0,1,3.818,1.362,7.022,7.022,0,0,1,2.51,2.538,7.761,7.761,0,0,1,.908,3.925V452.9a3.128,3.128,0,0,1-.561,1.789,5.128,5.128,0,0,1-1.6,1.467,8.519,8.519,0,0,1-2.457.988,12.879,12.879,0,0,1-3.071.349,10.216,10.216,0,0,1-5.5-1.337,3.837,3.837,0,0,1-2.136-3.256V442.857a6.66,6.66,0,0,1,.454-2.615,4.913,4.913,0,0,1,1.228-1.764,4.581,4.581,0,0,1,1.762-.988,7.41,7.41,0,0,1,2.109-.292,12.861,12.861,0,0,1,2.27.187,3.478,3.478,0,0,1,1.789.881v-.214a1.961,1.961,0,0,0-.774-1.656,5.394,5.394,0,0,0-1.816-.881,9.5,9.5,0,0,0-2.11-.347c-.712-.036-1.247-.053-1.6-.053q-.481,0-1.522.053a9.436,9.436,0,0,0-2.083.347,5.4,5.4,0,0,0-1.816.881,1.957,1.957,0,0,0-.774,1.656v17.89a1.254,1.254,0,0,1-.854,1.148,4.888,4.888,0,0,1-2.083.4,4.442,4.442,0,0,1-1.951-.4,1.25,1.25,0,0,1-.826-1.148V438.266a8.377,8.377,0,0,1,.826-3.925,6.6,6.6,0,0,1,2.351-2.538,10.469,10.469,0,0,1,3.738-1.362A28.378,28.378,0,0,1,350.581,430.042Zm2.4,21.148q0,1.228,1.976,1.228,1.922,0,1.922-1.228v-7.585a1.062,1.062,0,0,0-.641-1.013,2.845,2.845,0,0,0-1.282-.32q-1.976,0-1.976,1.44Z" transform="translate(-217.714 -429.827)" fill="#fff"/>
      <path id="Path_108795" data-name="Path 108795" d="M380.38,435.077c-.286,0-.518-.007-.694-.025a2.79,2.79,0,0,0-.642.025,5.153,5.153,0,0,1,1.6,2.35,9.008,9.008,0,0,1,.534,3.045v11.8a4.184,4.184,0,0,1-1.041,3.044,6.462,6.462,0,0,1-2.4,1.574,9.265,9.265,0,0,1-2.7.589q-1.335.08-1.869.08c-.392,0-1.034-.027-1.923-.08a9.551,9.551,0,0,1-2.724-.589,6.677,6.677,0,0,1-2.458-1.574,4.2,4.2,0,0,1-1.067-3.1v-11.7a9.207,9.207,0,0,1,.534-3.069,6,6,0,0,1,1.5-2.431h-1.242a5.7,5.7,0,0,0-2.16.322,2.314,2.314,0,0,0-1.107.881,2.857,2.857,0,0,0-.407,1.334q-.051.777-.052,1.684v16.714a1.286,1.286,0,0,1-.847,1.2,4.8,4.8,0,0,1-2.063.4,4.5,4.5,0,0,1-1.985-.4,1.282,1.282,0,0,1-.819-1.2V437.322a8.317,8.317,0,0,1,.639-3.445,5.786,5.786,0,0,1,1.813-2.3,7.587,7.587,0,0,1,2.826-1.282,15.875,15.875,0,0,1,3.732-.4,24.992,24.992,0,0,1,4.185.322,13.8,13.8,0,0,1,3.6,1.121,12,12,0,0,1,3.491-1.068,26.117,26.117,0,0,1,4.134-.322,15.889,15.889,0,0,1,3.731.4,7.611,7.611,0,0,1,2.826,1.282,5.81,5.81,0,0,1,1.813,2.3,8.32,8.32,0,0,1,.641,3.443v18.639a1.281,1.281,0,0,1-.82,1.2,4.467,4.467,0,0,1-1.985.4,4.763,4.763,0,0,1-2.062-.4,1.279,1.279,0,0,1-.847-1.2V439.3q0-.908-.053-1.684a2.871,2.871,0,0,0-.4-1.333,2.322,2.322,0,0,0-1.1-.883A5.631,5.631,0,0,0,380.38,435.077Zm-4.915,5.716a5.707,5.707,0,0,0-.479-2.138,4.418,4.418,0,0,0-1.871-2.029,4.132,4.132,0,0,0-1.948,2.058,6.193,6.193,0,0,0-.454,2.163v8.278a6.2,6.2,0,0,0,.187,1.736,2.2,2.2,0,0,0,.507.935,1.421,1.421,0,0,0,.773.4,5.254,5.254,0,0,0,.934.082,5.128,5.128,0,0,0,.963-.082,1.417,1.417,0,0,0,.748-.4,2.038,2.038,0,0,0,.481-.963,7.6,7.6,0,0,0,.159-1.761Z" transform="translate(-209.168 -429.897)" fill="#fff"/>
    </g>
  </g>
</svg>
