<svg id="instagram_-_color" data-name="instagram - color" xmlns="http://www.w3.org/2000/svg" xmlns:xlink="http://www.w3.org/1999/xlink" width="27.287" height="27.287" viewBox="0 0 27.287 27.287">
  <defs>
    <linearGradient id="linear-gradient" x1="0.967" y1="0.061" x2="-0.07" y2="1.092" gradientUnits="objectBoundingBox">
      <stop offset="0" stop-color="#da08ae"/>
      <stop offset="0.345" stop-color="#fd003f"/>
      <stop offset="1" stop-color="#ffd100"/>
    </linearGradient>
  </defs>
  <path id="Path_94111" data-name="Path 94111" d="M27.205,8.018a10.017,10.017,0,0,0-.634-3.312A6.687,6.687,0,0,0,25,2.29,6.689,6.689,0,0,0,22.581.716,10.015,10.015,0,0,0,19.269.082C17.814.016,17.349,0,13.644,0S9.473.016,8.018.082A10.018,10.018,0,0,0,4.707.716,6.687,6.687,0,0,0,2.29,2.29,6.688,6.688,0,0,0,.716,4.706,10.016,10.016,0,0,0,.082,8.018C.016,9.473,0,9.938,0,13.643s.016,4.17.082,5.625a10.014,10.014,0,0,0,.634,3.312A6.686,6.686,0,0,0,2.29,25a6.685,6.685,0,0,0,2.417,1.574,10.011,10.011,0,0,0,3.312.634c1.455.066,1.92.082,5.625.082s4.17-.016,5.625-.082a10.012,10.012,0,0,0,3.312-.634,6.975,6.975,0,0,0,3.99-3.99,10.014,10.014,0,0,0,.634-3.312c.066-1.455.082-1.92.082-5.625S27.271,9.473,27.205,8.018ZM24.749,19.157a7.549,7.549,0,0,1-.47,2.533A4.518,4.518,0,0,1,21.69,24.28a7.549,7.549,0,0,1-2.533.47c-1.438.066-1.87.08-5.513.08s-4.075-.014-5.513-.08A7.551,7.551,0,0,1,5.6,24.28a4.228,4.228,0,0,1-1.569-1.021A4.227,4.227,0,0,1,3.007,21.69a7.549,7.549,0,0,1-.47-2.533c-.066-1.439-.08-1.87-.08-5.513s.014-4.075.08-5.513A7.554,7.554,0,0,1,3.007,5.6,4.23,4.23,0,0,1,4.028,4.028,4.224,4.224,0,0,1,5.6,3.008a7.547,7.547,0,0,1,2.533-.47c1.439-.066,1.87-.08,5.513-.08h0c3.643,0,4.075.014,5.513.08a7.55,7.55,0,0,1,2.533.47,4.23,4.23,0,0,1,1.569,1.021A4.224,4.224,0,0,1,24.279,5.6a7.542,7.542,0,0,1,.47,2.533c.066,1.439.08,1.87.08,5.513S24.815,17.718,24.749,19.157Zm0,0" transform="translate(0 0)" fill="url(#linear-gradient)"/>
  <path id="Path_94112" data-name="Path 94112" d="M131.545,124.539a7.006,7.006,0,1,0,7.006,7.006A7.006,7.006,0,0,0,131.545,124.539Zm0,11.554a4.548,4.548,0,1,1,4.548-4.548A4.548,4.548,0,0,1,131.545,136.093Zm0,0" transform="translate(-117.902 -117.901)" fill="url(#linear-gradient)"/>
  <path id="Path_94113" data-name="Path 94113" d="M365.2,90.262a1.637,1.637,0,1,1-1.637-1.637A1.637,1.637,0,0,1,365.2,90.262Zm0,0" transform="translate(-342.64 -83.901)" fill="#ec0384"/>
</svg>
