<svg xmlns="http://www.w3.org/2000/svg" xmlns:xlink="http://www.w3.org/1999/xlink" width="258" height="75" viewBox="0 0 258 75">
  <defs>
    <clipPath id="clip-path">
      <rect id="Rectangle_17969" data-name="Rectangle 17969" width="258" height="75" transform="translate(531.346 676.434)" fill="#fff" opacity="0.379"/>
    </clipPath>
  </defs>
  <g id="Mask_Group_280" data-name="Mask Group 280" transform="translate(-531.346 -676.434)" clip-path="url(#clip-path)">
    <g id="kerala" transform="translate(534.346 691.434)" style="isolation: isolate">
      <path id="Path_106022" data-name="Path 106022" d="M575.454,867.692a4.163,4.163,0,0,1,1.674-.932,9.624,9.624,0,0,1,2.658-.292,8.478,8.478,0,0,1,2.573.377,6.624,6.624,0,0,1,2.051,1.043,5.33,5.33,0,0,1,1.385,1.568,3.8,3.8,0,0,1,.522,1.944v4.059a3.219,3.219,0,0,1-.664,1.945,6.348,6.348,0,0,1-1.791,1.6,9.166,9.166,0,0,1-2.716,1.074,14.747,14.747,0,0,1-3.381.377,14.274,14.274,0,0,1-3.351-.377,9.15,9.15,0,0,1-2.687-1.069,6.255,6.255,0,0,1-1.791-1.588,3.173,3.173,0,0,1-.664-1.936V855.718a3.18,3.18,0,0,1,.664-1.936,6.275,6.275,0,0,1,1.791-1.587,9.19,9.19,0,0,1,2.687-1.069,14.282,14.282,0,0,1,3.351-.376,14.674,14.674,0,0,1,3.381.376,9.207,9.207,0,0,1,2.716,1.069,6.322,6.322,0,0,1,1.791,1.587,3.2,3.2,0,0,1,.664,1.936v4.047a3.774,3.774,0,0,1-.522,1.936,5.3,5.3,0,0,1-1.385,1.56,6.654,6.654,0,0,1-2.051,1.04,8.475,8.475,0,0,1-2.573.374,9.64,9.64,0,0,1-2.658-.29,4.168,4.168,0,0,1-1.674-.934Zm0-9.81a1.055,1.055,0,0,0,.636.966,3.728,3.728,0,0,0,1.734.339,3.58,3.58,0,0,0,1.676-.339,1.06,1.06,0,0,0,.636-.966v-.339a1.056,1.056,0,0,0-.636-.963,3.561,3.561,0,0,0-1.676-.34,3.708,3.708,0,0,0-1.734.34,1.05,1.05,0,0,0-.636.963Zm0,15.751a1.074,1.074,0,0,0,.636.982,3.66,3.66,0,0,0,1.734.347,3.515,3.515,0,0,0,1.676-.347,1.08,1.08,0,0,0,.636-.982v-.346a1.083,1.083,0,0,0-.636-.984,3.515,3.515,0,0,0-1.676-.345,3.66,3.66,0,0,0-1.734.345,1.077,1.077,0,0,0-.636.984Z" transform="translate(-569.271 -840.463)" fill="#fff"/>
      <path id="Path_106023" data-name="Path 106023" d="M607.922,859.91h2.83a7.729,7.729,0,0,1,4.94,1.53,5,5,0,0,1,1.936,4.132V874.7a5.213,5.213,0,0,1-1.849,4.421,8.5,8.5,0,0,1-5.258,1.416,2.086,2.086,0,0,1-1.907-.817,3.517,3.517,0,0,1-.52-1.928,4.14,4.14,0,0,1,.442-1.987,1.358,1.358,0,0,1,1.382-.758q1.526,0,1.528-1.38V867.3a1.866,1.866,0,0,0-.5-1.437,2.456,2.456,0,0,0-1.674-.459h-1.35v10.17a3.1,3.1,0,0,1-.695,1.936,6.457,6.457,0,0,1-1.878,1.588,9.955,9.955,0,0,1-2.8,1.069,15.308,15.308,0,0,1-3.467.377,14.425,14.425,0,0,1-3.814-.491,9.461,9.461,0,0,1-2.947-1.3,6.85,6.85,0,0,1-2.138,1.359,7.886,7.886,0,0,1-2.947.491,8.552,8.552,0,0,1-2.4-.347,5.986,5.986,0,0,1-2.111-1.1,5.893,5.893,0,0,1-1.5-1.848,5.51,5.51,0,0,1-.578-2.6v-9.131a5,5,0,0,1,1.936-4.132,7.638,7.638,0,0,1,4.884-1.53h2.83v-4.334a3.106,3.106,0,0,1,.693-1.936,6.465,6.465,0,0,1,1.878-1.589,9.975,9.975,0,0,1,2.774-1.069,14.912,14.912,0,0,1,3.438-.377,15.308,15.308,0,0,1,3.467.377,9.942,9.942,0,0,1,2.8,1.069,6.486,6.486,0,0,1,1.878,1.589,3.1,3.1,0,0,1,.695,1.936Zm-19.566,15.14a1.591,1.591,0,0,0,1.117-.374,2.118,2.118,0,0,0,.589-.889,4.139,4.139,0,0,0,.206-1.091c.019-.382.029-.69.029-.92V865.4H589a2.456,2.456,0,0,0-1.676.459,1.866,1.866,0,0,0-.5,1.437v6.374Q586.829,875.051,588.355,875.049Zm8.124-15.14h5.258v-2.428a1.141,1.141,0,0,0-.779-1.011,4.479,4.479,0,0,0-1.937-.374,4.035,4.035,0,0,0-1.762.374,1.141,1.141,0,0,0-.78,1.011Zm5.258,5.49h-5.258v8.387a1.22,1.22,0,0,0,.838.918,4.611,4.611,0,0,0,1.7.287,4.478,4.478,0,0,0,1.937-.374,1.131,1.131,0,0,0,.779-1Z" transform="translate(-562.388 -840.551)" fill="#fff"/>
      <path id="Path_106024" data-name="Path 106024" d="M617.976,850.75a29.264,29.264,0,0,1,5.172.432,12.259,12.259,0,0,1,4.131,1.473,7.581,7.581,0,0,1,2.714,2.746,8.382,8.382,0,0,1,.984,4.247v15.833a3.385,3.385,0,0,1-.607,1.936,5.534,5.534,0,0,1-1.733,1.588,9.2,9.2,0,0,1-2.658,1.069,13.93,13.93,0,0,1-3.323.377,11.052,11.052,0,0,1-5.952-1.446,4.148,4.148,0,0,1-2.311-3.523V864.617a7.269,7.269,0,0,1,.49-2.83,5.343,5.343,0,0,1,1.331-1.909,4.959,4.959,0,0,1,1.907-1.069,8.034,8.034,0,0,1,2.282-.316,13.955,13.955,0,0,1,2.456.2,3.753,3.753,0,0,1,1.934.954v-.231a2.121,2.121,0,0,0-.836-1.791,5.836,5.836,0,0,0-1.965-.953,10.266,10.266,0,0,0-2.284-.375c-.769-.039-1.348-.058-1.732-.058-.347,0-.894.019-1.647.058a10.2,10.2,0,0,0-2.254.375,5.835,5.835,0,0,0-1.965.953,2.114,2.114,0,0,0-.84,1.791v19.358a1.355,1.355,0,0,1-.925,1.242,5.272,5.272,0,0,1-2.252.433,4.793,4.793,0,0,1-2.109-.433,1.352,1.352,0,0,1-.9-1.242V859.649a9.042,9.042,0,0,1,.9-4.247,7.12,7.12,0,0,1,2.542-2.746,11.329,11.329,0,0,1,4.045-1.473A30.7,30.7,0,0,1,617.976,850.75Zm2.6,22.882q0,1.329,2.138,1.329,2.08,0,2.079-1.329v-8.207a1.145,1.145,0,0,0-.692-1.1,3.081,3.081,0,0,0-1.387-.347q-2.138,0-2.138,1.559Z" transform="translate(-547.596 -840.463)" fill="#fff"/>
      <path id="Path_106025" data-name="Path 106025" d="M649.2,872.288a10.29,10.29,0,0,1-.809,4.345,6.718,6.718,0,0,1-1.966,2.605h3.526a1.355,1.355,0,0,1,1.242.894,4.8,4.8,0,0,1,.432,2.111,4.478,4.478,0,0,1-.432,2.022,1.353,1.353,0,0,1-1.242.867H624.3a1.349,1.349,0,0,1-1.242-.867,4.474,4.474,0,0,1-.435-2.022,4.8,4.8,0,0,1,.435-2.111,1.352,1.352,0,0,1,1.242-.894h9.417a13.2,13.2,0,0,0,6.733-1.734,5.016,5.016,0,0,0,2.571-4.451V870.8q0-.867-.493-1.011a3.051,3.051,0,0,0-.836-.146h-.462a1.356,1.356,0,0,1-1.244-.778,4.554,4.554,0,0,1,0-3.872,1.356,1.356,0,0,1,1.244-.782l.462-.058c.693,0,1.088-.151,1.184-.457a2.781,2.781,0,0,0,.145-.8v-3.5a2.05,2.05,0,0,0-.9-1.779,6.419,6.419,0,0,0-2.109-.945,11.684,11.684,0,0,0-2.4-.372c-.79-.039-1.379-.058-1.764-.058-.422,0-1.021.019-1.79.058a11.177,11.177,0,0,0-2.342.375,6.086,6.086,0,0,0-2.05.953,2.092,2.092,0,0,0-.867,1.791v.231a4.086,4.086,0,0,1,1.963-.954,13.453,13.453,0,0,1,2.427-.2,8.039,8.039,0,0,1,2.284.316,4.971,4.971,0,0,1,1.907,1.069,5.314,5.314,0,0,1,1.327,1.909,7.209,7.209,0,0,1,.491,2.83v7.745a3.387,3.387,0,0,1-.605,1.936,5.368,5.368,0,0,1-1.7,1.559,9.359,9.359,0,0,1-2.631,1.042,15.006,15.006,0,0,1-6.672,0,9.859,9.859,0,0,1-2.629-1.042,5.252,5.252,0,0,1-1.734-1.559,3.391,3.391,0,0,1-.608-1.936V859.649a8.2,8.2,0,0,1,1.013-4.247,7.681,7.681,0,0,1,2.8-2.746,12.884,12.884,0,0,1,4.217-1.473,29.784,29.784,0,0,1,5.2-.432,30.137,30.137,0,0,1,5.26.432,12.919,12.919,0,0,1,4.218,1.47,7.9,7.9,0,0,1,2.83,2.74,7.984,7.984,0,0,1,1.042,4.241v3.056a5.2,5.2,0,0,1-.607,2.395,4.218,4.218,0,0,1-1.764,1.815,5.264,5.264,0,0,1,1.589,1.565,5.342,5.342,0,0,1,.782,3.127Zm-16.18-6.756q0-1.551-2.138-1.549a3.083,3.083,0,0,0-1.387.343,1.14,1.14,0,0,0-.693,1.088v5.05q0,1.319,2.08,1.318,2.136,0,2.138-1.318Z" transform="translate(-536.988 -840.463)" fill="#fff"/>
      <path id="Path_106026" data-name="Path 106026" d="M698.281,856.1a1.7,1.7,0,0,1-.5.029,1.279,1.279,0,0,0-.435.027,9.618,9.618,0,0,1,1.83,5.952V874.76a4.554,4.554,0,0,1-1.151,3.352,7.144,7.144,0,0,1-2.679,1.7,10.594,10.594,0,0,1-2.966.637q-1.44.087-2.016.087-.633,0-2.043-.087a10.3,10.3,0,0,1-2.91-.637,6.94,6.94,0,0,1-2.62-1.71,4.544,4.544,0,0,1-1.124-3.3V862a10.311,10.311,0,0,1,1.661-5.851h-.806a6.014,6.014,0,0,0-2.3.348,2.5,2.5,0,0,0-1.183.957,3.134,3.134,0,0,0-.432,1.448c-.039.56-.056,1.168-.056,1.825V878.8a1.393,1.393,0,0,1-.926,1.3,5.28,5.28,0,0,1-2.254.435,4.988,4.988,0,0,1-2.138-.435,1.392,1.392,0,0,1-.924-1.3l-.056-18.07c0-.657-.021-1.265-.059-1.825a3.117,3.117,0,0,0-.437-1.448,2.519,2.519,0,0,0-1.225-.957,6.411,6.411,0,0,0-2.361-.348c-.273.04-.4.05-.38.03s-.106-.01-.377.027a10.26,10.26,0,0,1,1.66,5.838v12.77a4.539,4.539,0,0,1-1.122,3.294,6.943,6.943,0,0,1-2.621,1.7,10.291,10.291,0,0,1-2.937.637q-1.437.087-2.016.087t-2.016-.087a10.633,10.633,0,0,1-2.965-.637,7.115,7.115,0,0,1-2.677-1.71,4.553,4.553,0,0,1-1.154-3.359V862.062a10.01,10.01,0,0,1,1.775-5.966h-.873a6.4,6.4,0,0,0-2.36.347,2.508,2.508,0,0,0-1.226.957,3.079,3.079,0,0,0-.435,1.448c-.04.56-.058,1.167-.058,1.825V878.8a1.392,1.392,0,0,1-.918,1.3,5.184,5.184,0,0,1-2.231.435,4.915,4.915,0,0,1-2.12-.433,1.393,1.393,0,0,1-.915-1.3V858.639a9.022,9.022,0,0,1,.693-3.727,6.2,6.2,0,0,1,1.994-2.485,8.525,8.525,0,0,1,3.091-1.387,17.241,17.241,0,0,1,4.045-.435,29.427,29.427,0,0,1,8.379,1.042,29.07,29.07,0,0,1,3.785-.724,36.062,36.062,0,0,1,4.478-.26,17.243,17.243,0,0,1,3.729.377,9.164,9.164,0,0,1,2.974,1.185,9.151,9.151,0,0,1,3-1.185,17.625,17.625,0,0,1,3.758-.377,31.036,31.036,0,0,1,8.2.984,29.667,29.667,0,0,1,8.436-1.042,17.241,17.241,0,0,1,4.045.435,8.22,8.22,0,0,1,3.063,1.387,6.3,6.3,0,0,1,1.966,2.485,9.027,9.027,0,0,1,.692,3.727V878.8a1.388,1.388,0,0,1-.894,1.3,4.794,4.794,0,0,1-2.109.433,5.276,5.276,0,0,1-2.254-.435,1.389,1.389,0,0,1-.924-1.3V860.672c0-.658-.021-1.265-.059-1.825a3.1,3.1,0,0,0-.437-1.448,2.509,2.509,0,0,0-1.225-.957A6.392,6.392,0,0,0,698.281,856.1Zm-35.388,6.3a6.14,6.14,0,0,0-.526-2.313,4.788,4.788,0,0,0-2.047-2.2,4.527,4.527,0,0,0-2.074,2.226,6.617,6.617,0,0,0-.5,2.34v8.956a6.686,6.686,0,0,0,.206,1.878,2.415,2.415,0,0,0,.554,1.011,1.556,1.556,0,0,0,.819.432,5.3,5.3,0,0,0,.994.088,5.64,5.64,0,0,0,1.051-.088,1.544,1.544,0,0,0,.819-.432,2.18,2.18,0,0,0,.526-1.042,8.09,8.09,0,0,0,.177-1.905Zm24.963,8.956a8.212,8.212,0,0,0,.173,1.905,2.195,2.195,0,0,0,.526,1.042,1.55,1.55,0,0,0,.819.432,5.645,5.645,0,0,0,1.053.088,5.292,5.292,0,0,0,.992-.088,1.55,1.55,0,0,0,.819-.432,2.417,2.417,0,0,0,.555-1.011,6.687,6.687,0,0,0,.205-1.878v-8.956a5.982,5.982,0,0,0-.555-2.371,4.979,4.979,0,0,0-2.076-2.2,4.6,4.6,0,0,0-2.016,2.2,6.4,6.4,0,0,0-.5,2.313Z" transform="translate(-525.137 -840.551)" fill="#fff"/>
      <path id="Path_106027" data-name="Path 106027" d="M690.385,851.161q0-1.329-2.024-1.331c-1.234,0-1.848.445-1.848,1.331v1.329a1.335,1.335,0,0,1-.9,1.271,5.4,5.4,0,0,1-2.225.4,5.291,5.291,0,0,1-2.138-.4,1.336,1.336,0,0,1-.925-1.271v-3.18a3.5,3.5,0,0,1,.578-1.934,5.449,5.449,0,0,1,1.647-1.589,8.481,8.481,0,0,1,2.571-1.069,13.569,13.569,0,0,1,3.294-.377,10.77,10.77,0,0,1,5.894,1.446,4.161,4.161,0,0,1,2.254,3.523v33.343a1.357,1.357,0,0,1-.924,1.242,5.283,5.283,0,0,1-2.254.434,4.792,4.792,0,0,1-2.109-.434,1.352,1.352,0,0,1-.894-1.242Z" transform="translate(-502.067 -844.341)" fill="#fff"/>
      <path id="Path_106028" data-name="Path 106028" d="M704.577,850.75a30.742,30.742,0,0,1,5.4.432,11.66,11.66,0,0,1,4.076,1.473,7.073,7.073,0,0,1,2.57,2.746,9.084,9.084,0,0,1,.9,4.247v19.127a1.356,1.356,0,0,1-.9,1.242,4.8,4.8,0,0,1-2.109.433,5.292,5.292,0,0,1-2.255-.433,1.359,1.359,0,0,1-.924-1.242V859.418a2.121,2.121,0,0,0-.836-1.791,5.837,5.837,0,0,0-1.965-.953,10.2,10.2,0,0,0-2.254-.375q-1.127-.058-1.7-.058c-.385,0-.952.019-1.7.058a10.23,10.23,0,0,0-2.255.375,5.829,5.829,0,0,0-1.963.953,2.115,2.115,0,0,0-.839,1.791v.231a3.763,3.763,0,0,1,1.937-.954,13.918,13.918,0,0,1,2.456-.2,8.034,8.034,0,0,1,2.282.316,4.981,4.981,0,0,1,1.907,1.069,5.293,5.293,0,0,1,1.327,1.909,7.234,7.234,0,0,1,.493,2.83v10.865a3.385,3.385,0,0,1-.607,1.936,5.67,5.67,0,0,1-1.7,1.588,8.833,8.833,0,0,1-2.629,1.069,14.941,14.941,0,0,1-6.674,0,9.215,9.215,0,0,1-2.629-1.069,5.55,5.55,0,0,1-1.734-1.588,3.385,3.385,0,0,1-.607-1.936V859.649a8.382,8.382,0,0,1,.982-4.247,7.566,7.566,0,0,1,2.717-2.746,12.192,12.192,0,0,1,4.1-1.473A28.806,28.806,0,0,1,704.577,850.75Zm-2.543,14.791q0-1.558-2.138-1.559a3.07,3.07,0,0,0-1.387.347,1.15,1.15,0,0,0-.695,1.1v8.207q0,1.329,2.082,1.329,2.136,0,2.138-1.329Z" transform="translate(-495.227 -840.463)" fill="#fff"/>
      <path id="Path_106029" data-name="Path 106029" d="M730.719,874.787V852.423a1.354,1.354,0,0,1,.925-1.241,5.31,5.31,0,0,1,2.254-.432,4.817,4.817,0,0,1,2.109.432,1.356,1.356,0,0,1,.9,1.244V878.6a1.353,1.353,0,0,1-.9,1.244,4.816,4.816,0,0,1-2.109.432H712.17a4.817,4.817,0,0,1-2.109-.432,1.353,1.353,0,0,1-.9-1.244V855.718a3.1,3.1,0,0,1,.7-1.936,6.413,6.413,0,0,1,1.878-1.587,10,10,0,0,1,2.772-1.069,14.931,14.931,0,0,1,3.438-.376,14.662,14.662,0,0,1,3.38.376,10.029,10.029,0,0,1,2.774,1.069,6.46,6.46,0,0,1,1.88,1.587,3.115,3.115,0,0,1,.692,1.936v10.75a5.173,5.173,0,0,1-.953,3.323,3.009,3.009,0,0,1-2.456,1.183H715.35v3.814ZM715.35,865.6h4.043a.913.913,0,0,0,.78-.549,2.339,2.339,0,0,0,.318-1.185v-6.3a1.086,1.086,0,0,0-.751-.984,4.426,4.426,0,0,0-1.848-.345,4.274,4.274,0,0,0-1.793.345,1.082,1.082,0,0,0-.75.984Z" transform="translate(-484.618 -840.463)" fill="#fff"/>
    </g>
  </g>
</svg>
