<svg xmlns="http://www.w3.org/2000/svg" xmlns:xlink="http://www.w3.org/1999/xlink" width="233" height="75" viewBox="0 0 233 75">
  <defs>
    <clipPath id="clip-path">
      <rect id="Rectangle_17968" data-name="Rectangle 17968" width="233" height="75" transform="translate(1017.346 676.434)" fill="#fff" opacity="0.379"/>
    </clipPath>
  </defs>
  <g id="Mask_Group_279" data-name="Mask Group 279" transform="translate(-1017.346 -676.434)" clip-path="url(#clip-path)">
    <g id="kuttikal" transform="translate(1019.346 689.434)" style="isolation: isolate">
      <path id="Path_106035" data-name="Path 106035" d="M877.623,858.815h2.83a7.73,7.73,0,0,1,4.942,1.53,5,5,0,0,1,1.936,4.132v9.132a5.214,5.214,0,0,1-1.851,4.421,8.5,8.5,0,0,1-5.257,1.414,2.087,2.087,0,0,1-1.907-.815,3.522,3.522,0,0,1-.52-1.929,4.138,4.138,0,0,1,.44-1.985,1.363,1.363,0,0,1,1.382-.759q1.529,0,1.53-1.379V866.2a1.865,1.865,0,0,0-.5-1.435,2.451,2.451,0,0,0-1.674-.459h-1.352v10.17a3.1,3.1,0,0,1-.695,1.936A6.416,6.416,0,0,1,875.05,878a9.953,9.953,0,0,1-2.8,1.069,15.3,15.3,0,0,1-3.467.376,14.408,14.408,0,0,1-3.812-.49,9.46,9.46,0,0,1-2.947-1.3,6.874,6.874,0,0,1-2.138,1.36,7.9,7.9,0,0,1-2.947.49,8.548,8.548,0,0,1-2.4-.345,5.955,5.955,0,0,1-2.109-1.1,5.831,5.831,0,0,1-1.5-1.848,5.511,5.511,0,0,1-.578-2.6v-9.132a4.99,4.99,0,0,1,1.936-4.132,7.633,7.633,0,0,1,4.883-1.53H860v-4.334a3.1,3.1,0,0,1,.693-1.936,6.418,6.418,0,0,1,1.878-1.591,10.064,10.064,0,0,1,2.774-1.069,15,15,0,0,1,3.437-.376,15.382,15.382,0,0,1,3.467.376,10.048,10.048,0,0,1,2.8,1.069,6.42,6.42,0,0,1,1.878,1.591,3.089,3.089,0,0,1,.695,1.936Zm-19.565,15.138a1.6,1.6,0,0,0,1.117-.373,2.093,2.093,0,0,0,.588-.891,4,4,0,0,0,.205-1.09c.019-.384.031-.69.031-.921V864.3h-1.294a2.443,2.443,0,0,0-1.674.459,1.865,1.865,0,0,0-.5,1.435v6.375Q856.532,873.954,858.058,873.953Zm8.124-15.138h5.257v-2.429a1.139,1.139,0,0,0-.779-1.011,4.48,4.48,0,0,0-1.936-.374,4.037,4.037,0,0,0-1.762.374,1.138,1.138,0,0,0-.78,1.011Zm5.257,5.489h-5.257v8.385a1.22,1.22,0,0,0,.836.92,4.627,4.627,0,0,0,1.706.286,4.479,4.479,0,0,0,1.936-.372,1.131,1.131,0,0,0,.779-1Z" transform="translate(-850.349 -839.456)" fill="#fff"/>
      <path id="Path_106036" data-name="Path 106036" d="M881.2,856.415q-.115-1.269-1.965-1.271a1.28,1.28,0,0,1-1.242-.809,4.482,4.482,0,0,1-.374-1.907,4.362,4.362,0,0,1,.4-1.965,1.335,1.335,0,0,1,1.271-.809,10.464,10.464,0,0,1,5.865,1.474,4.238,4.238,0,0,1,2.225,3.554l-2.313,16.642a7.464,7.464,0,0,1,3.44,1.618,3.532,3.532,0,0,1,1.3,2.717V883a4.089,4.089,0,0,1-2.107,3.669,10.919,10.919,0,0,1-5.75,1.3,11.065,11.065,0,0,1-5.778-1.3,4.029,4.029,0,0,1-2.138-3.612v-7.337a3.593,3.593,0,0,1,1.3-2.573,7.9,7.9,0,0,1,3.554-1.82Zm-.981,24.905a1.311,1.311,0,0,0,.26.811c.172.23.644.347,1.416.347a2.547,2.547,0,0,0,1.356-.26,1.015,1.015,0,0,0,.377-.9v-3.87a1.015,1.015,0,0,0-.377-.9,2.548,2.548,0,0,0-1.356-.26,2.387,2.387,0,0,0-1.331.26,1.057,1.057,0,0,0-.345.9Z" transform="translate(-836.015 -839.368)" fill="#fff"/>
      <path id="Path_106037" data-name="Path 106037" d="M902.741,872.742a4.423,4.423,0,0,1-1.473,1.268A4.746,4.746,0,0,1,902.8,875.2a2.65,2.65,0,0,1,.607,1.764v6.66a3.043,3.043,0,0,1-.721,1.939,6.274,6.274,0,0,1-1.994,1.563,12.1,12.1,0,0,1-2.978,1.042,17.044,17.044,0,0,1-3.669.376,15.782,15.782,0,0,1-3.5-.374,11.137,11.137,0,0,1-2.86-1.042,6.017,6.017,0,0,1-1.907-1.56,3.1,3.1,0,0,1-.693-1.936v-3.409a1.352,1.352,0,0,1,.9-1.242,5.087,5.087,0,0,1,2.225-.433,5.033,5.033,0,0,1,2.138.429,1.34,1.34,0,0,1,.923,1.228v1.539c0,.417.329.742.985.969a5.622,5.622,0,0,0,1.847.342,6.24,6.24,0,0,0,2.225-.344c.6-.228.9-.554.9-.973V878.7a1.731,1.731,0,0,0-.692-1.374,3.775,3.775,0,0,0-2.371-.573h-7.339a1.376,1.376,0,0,1-1.329-.817,4.31,4.31,0,0,1,.058-3.766,1.41,1.41,0,0,1,1.271-.907h7.456a5.12,5.12,0,0,0,1.994-.374c.6-.249.894-.586.894-1.008v-.576a1.3,1.3,0,0,0-.347-1.039,2.484,2.484,0,0,0-.636-.4l-9.417-3.169a1.994,1.994,0,0,1-.9-.665,3.347,3.347,0,0,1-.491-.949,3.835,3.835,0,0,1-.2-1.009c-.021-.326-.03-.605-.03-.836v-6.628a2.935,2.935,0,0,1,.751-1.931,7.089,7.089,0,0,1,1.994-1.584,10.9,10.9,0,0,1,2.891-1.066,15.474,15.474,0,0,1,3.437-.376,15.809,15.809,0,0,1,3.467.377A10.827,10.827,0,0,1,900.6,851.1a7.033,7.033,0,0,1,1.993,1.587,2.965,2.965,0,0,1,.753,1.936v4.971a1.392,1.392,0,0,1-.925,1.3,5.3,5.3,0,0,1-2.255.433,4.8,4.8,0,0,1-2.109-.433,1.386,1.386,0,0,1-.9-1.3v-3.122q0-.633-.925-.982a5.928,5.928,0,0,0-2.08-.347,5.355,5.355,0,0,0-1.936.347c-.6.233-.894.559-.894.982v3a1.362,1.362,0,0,0,.316,1.037,2.065,2.065,0,0,0,.608.4l8.493,3a4.338,4.338,0,0,1,1.474.865,3.34,3.34,0,0,1,.78,1.04,3.488,3.488,0,0,1,.289,1.008,7.78,7.78,0,0,1,.059.836v2.886A3.57,3.57,0,0,1,902.741,872.742Z" transform="translate(-829.328 -839.368)" fill="#fff"/>
      <path id="Path_106038" data-name="Path 106038" d="M902.955,850.065q0-1.327-2.023-1.329-1.849,0-1.849,1.329v1.329a1.332,1.332,0,0,1-.9,1.271,5.388,5.388,0,0,1-2.221.4,5.287,5.287,0,0,1-2.138-.4,1.334,1.334,0,0,1-.926-1.271v-3.178a3.51,3.51,0,0,1,.578-1.934,5.429,5.429,0,0,1,1.647-1.589,8.461,8.461,0,0,1,2.573-1.069,13.453,13.453,0,0,1,3.291-.377,10.763,10.763,0,0,1,5.894,1.446,4.16,4.16,0,0,1,2.255,3.523v33.342a1.358,1.358,0,0,1-.926,1.244,5.272,5.272,0,0,1-2.252.432,4.78,4.78,0,0,1-2.107-.432,1.355,1.355,0,0,1-.9-1.244Z" transform="translate(-824.601 -843.246)" fill="#fff"/>
      <path id="Path_106039" data-name="Path 106039" d="M931.477,858.815h2.831a7.728,7.728,0,0,1,4.94,1.53,4.991,4.991,0,0,1,1.938,4.132v9.132a5.217,5.217,0,0,1-1.849,4.421,8.516,8.516,0,0,1-5.258,1.414,2.088,2.088,0,0,1-1.907-.815,3.524,3.524,0,0,1-.52-1.929,4.141,4.141,0,0,1,.44-1.985,1.365,1.365,0,0,1,1.382-.759q1.529,0,1.53-1.379V866.2a1.866,1.866,0,0,0-.5-1.435,2.446,2.446,0,0,0-1.674-.459h-1.351v10.17a3.1,3.1,0,0,1-.692,1.936A6.435,6.435,0,0,1,928.907,878a9.953,9.953,0,0,1-2.8,1.069,15.325,15.325,0,0,1-3.467.376,14.419,14.419,0,0,1-3.814-.49,9.427,9.427,0,0,1-2.947-1.3,6.86,6.86,0,0,1-2.138,1.36,7.9,7.9,0,0,1-2.947.49,8.568,8.568,0,0,1-2.4-.345,5.948,5.948,0,0,1-2.107-1.1,5.839,5.839,0,0,1-1.5-1.848,5.529,5.529,0,0,1-.578-2.6v-9.132a4.991,4.991,0,0,1,1.937-4.132,7.632,7.632,0,0,1,4.881-1.53h2.833v-4.334a3.087,3.087,0,0,1,.693-1.936,6.441,6.441,0,0,1,1.878-1.591,10.064,10.064,0,0,1,2.774-1.069,15,15,0,0,1,3.438-.376,15.409,15.409,0,0,1,3.467.376,10.049,10.049,0,0,1,2.8,1.069,6.44,6.44,0,0,1,1.878,1.591,3.1,3.1,0,0,1,.692,1.936Zm-19.562,15.138a1.6,1.6,0,0,0,1.115-.373,2.089,2.089,0,0,0,.586-.891,3.874,3.874,0,0,0,.207-1.09c.019-.384.03-.69.03-.921V864.3h-1.294a2.446,2.446,0,0,0-1.674.459,1.859,1.859,0,0,0-.5,1.435v6.375Q910.388,873.954,911.916,873.953Zm8.122-15.138H925.3v-2.429a1.138,1.138,0,0,0-.782-1.011A4.472,4.472,0,0,0,922.58,855a4.032,4.032,0,0,0-1.762.374,1.136,1.136,0,0,0-.78,1.011ZM925.3,864.3h-5.259v8.385a1.214,1.214,0,0,0,.838.92,4.607,4.607,0,0,0,1.7.286,4.471,4.471,0,0,0,1.934-.372,1.13,1.13,0,0,0,.782-1Z" transform="translate(-817.761 -839.456)" fill="#fff"/>
      <path id="Path_106040" data-name="Path 106040" d="M955.9,852.428a18.508,18.508,0,0,1,4.1.749,9.609,9.609,0,0,1,3.18,1.649,7.238,7.238,0,0,1,2.05,2.629,8.875,8.875,0,0,1,.721,3.754v15.835a4.157,4.157,0,0,1-2.252,3.523,10.757,10.757,0,0,1-5.894,1.445,10.606,10.606,0,0,1-5.865-1.445,4.169,4.169,0,0,1-2.224-3.523V858.032a7.565,7.565,0,0,0-2.369.982,2.2,2.2,0,0,0-1.1,1.966v16.064a3.112,3.112,0,0,1-.693,1.936,6.306,6.306,0,0,1-1.907,1.588,10.438,10.438,0,0,1-2.8,1.069,14.7,14.7,0,0,1-3.382.376,14.909,14.909,0,0,1-3.437-.376,9.978,9.978,0,0,1-2.775-1.069,6.406,6.406,0,0,1-1.878-1.588,3.1,3.1,0,0,1-.692-1.936V854.1a1.355,1.355,0,0,1,.924-1.244,5.3,5.3,0,0,1,2.252-.432,4.822,4.822,0,0,1,2.109.432,1.352,1.352,0,0,1,.9,1.244v21.09a1.082,1.082,0,0,0,.751.984,4.582,4.582,0,0,0,1.907.345,4.315,4.315,0,0,0,1.762-.345,1.087,1.087,0,0,0,.78-.984V861.21q0-4.331,2.571-6.3a13.814,13.814,0,0,1,7.078-2.427v-5.547a1.331,1.331,0,0,1,.9-1.271,5.383,5.383,0,0,1,2.221-.4,5.243,5.243,0,0,1,2.169.4,1.332,1.332,0,0,1,.9,1.271Zm3.872,8.552a2.219,2.219,0,0,0-1.214-2.138,8.555,8.555,0,0,0-2.658-.867v17.218q0,1.332,1.965,1.329,1.907,0,1.907-1.329Z" transform="translate(-802.947 -842.025)" fill="#fff"/>
      <path id="Path_106041" data-name="Path 106041" d="M980.66,858.842h2.371V858.5a8.723,8.723,0,0,1,.923-4.22,7.244,7.244,0,0,1,2.6-2.727,11.573,11.573,0,0,1,4.016-1.464,28.3,28.3,0,0,1,5.114-.432,29.571,29.571,0,0,1,5.345.433,10.977,10.977,0,0,1,3.96,1.474,6.773,6.773,0,0,1,2.454,2.746,9.587,9.587,0,0,1,.838,4.245V877.68a1.359,1.359,0,0,1-.924,1.244,4.988,4.988,0,0,1-2.138.432,5.09,5.09,0,0,1-2.225-.432,1.354,1.354,0,0,1-.9-1.244V858.323a2.143,2.143,0,0,0-.809-1.791,5.6,5.6,0,0,0-1.878-.953,9.222,9.222,0,0,0-2.138-.376c-.711-.039-1.241-.059-1.589-.059q-.578,0-1.674.058a9.463,9.463,0,0,0-2.169.369,5.271,5.271,0,0,0-1.848.941,2.132,2.132,0,0,0-.782,1.762v.568h3.236a8.852,8.852,0,0,1,2.371.319,5.58,5.58,0,0,1,2.05,1.045,5.5,5.5,0,0,1,1.474,1.91,6.517,6.517,0,0,1,.577,2.868v9.388a4.206,4.206,0,0,1-2.138,3.534A10.153,10.153,0,0,1,991,879.355a10.309,10.309,0,0,1-5.806-1.445,4.179,4.179,0,0,1-2.167-3.523V864.331H980.66v10.056a3.11,3.11,0,0,1-.692,1.936,6.473,6.473,0,0,1-1.878,1.587,9.956,9.956,0,0,1-2.8,1.069,15.066,15.066,0,0,1-3.411.376,14.125,14.125,0,0,1-3.785-.49,10.511,10.511,0,0,1-2.918-1.244,7.44,7.44,0,0,1-2.138,1.3,7.89,7.89,0,0,1-2.947.489,8.2,8.2,0,0,1-2.369-.347,5.969,5.969,0,0,1-2.08-1.1,5.909,5.909,0,0,1-1.5-1.827,5.36,5.36,0,0,1-.579-2.578v-9.1a4.924,4.924,0,0,1,1.937-4.112,7.7,7.7,0,0,1,4.881-1.509h2.774v-4.247a3.084,3.084,0,0,1,.694-1.926,6.48,6.48,0,0,1,1.878-1.578,10.076,10.076,0,0,1,2.774-1.063,14.749,14.749,0,0,1,3.38-.374,15.15,15.15,0,0,1,3.411.374,10.047,10.047,0,0,1,2.8,1.063,6.5,6.5,0,0,1,1.878,1.578,3.082,3.082,0,0,1,.692,1.926Zm-17.509,5.489H961.88a2.379,2.379,0,0,0-1.647.462,1.906,1.906,0,0,0-.491,1.445v6.356q0,1.332,1.5,1.331a1.549,1.549,0,0,0,1.1-.377,2.114,2.114,0,0,0,.578-.894,4.111,4.111,0,0,0,.2-1.069c.018-.366.027-.666.027-.9Zm6.183-5.489h5.144v-2.388a1.065,1.065,0,0,0-.753-.968,4.638,4.638,0,0,0-1.905-.342,4.173,4.173,0,0,0-1.735.342,1.066,1.066,0,0,0-.751.968Zm5.144,5.489h-5.144v8.206a1.082,1.082,0,0,0,.751.984,4.124,4.124,0,0,0,1.735.345,4.585,4.585,0,0,0,1.905-.345,1.081,1.081,0,0,0,.753-.984Zm14.733,0v8.206a1.275,1.275,0,0,0,.377.984,2.025,2.025,0,0,0,1.358.345q1.789,0,1.79-1.329V866.3a2.365,2.365,0,0,0-.4-1.388,1.574,1.574,0,0,0-1.385-.578Z" transform="translate(-787.894 -839.368)" fill="#fff"/>
      <path id="Path_106042" data-name="Path 106042" d="M991.253,853.2a9.739,9.739,0,0,1-5.69-1.445,4.183,4.183,0,0,1-2.051-3.466v-2.833a1.336,1.336,0,0,1,.894-1.271,5.124,5.124,0,0,1,2.111-.4,5.674,5.674,0,0,1,2.254.4,1.318,1.318,0,0,1,.925,1.254v.91a1.58,1.58,0,0,0,.289,1,1.505,1.505,0,0,0,1.214.371,1.7,1.7,0,0,0,1.3-.371,1.489,1.489,0,0,0,.318-1v-.91a1.316,1.316,0,0,1,.924-1.254,5.663,5.663,0,0,1,2.254-.4,5.109,5.109,0,0,1,2.109.4,1.334,1.334,0,0,1,.894,1.271v2.833a4.181,4.181,0,0,1-2.05,3.466A9.749,9.749,0,0,1,991.253,853.2Z" transform="translate(-769.77 -842.919)" fill="#fff"/>
    </g>
  </g>
</svg>
