<svg xmlns="http://www.w3.org/2000/svg" xmlns:xlink="http://www.w3.org/1999/xlink" width="201" height="75" viewBox="0 0 201 75">
  <defs>
    <clipPath id="clip-path">
      <rect id="Rectangle_17967" data-name="Rectangle 17967" width="201" height="75" transform="translate(804.346 676.434)" fill="#fff" opacity="0.379"/>
    </clipPath>
  </defs>
  <g id="Mask_Group_278" data-name="Mask Group 278" transform="translate(-804.346 -676.434)" clip-path="url(#clip-path)">
    <g id="_20_laks" data-name="20 laks" transform="translate(-2.975)">
      <g id="Group_44956" data-name="Group 44956" transform="translate(828.45 701.045)" style="isolation: isolate">
        <path id="Path_106030" data-name="Path 106030" d="M752.177,874.673a1.353,1.353,0,0,1,1.236.779,3.987,3.987,0,0,1,.432,1.936,3.9,3.9,0,0,1-.464,1.966,1.415,1.415,0,0,1-1.271.809H736.739v-9.457a3.21,3.21,0,0,1,.665-1.944,6.2,6.2,0,0,1,1.82-1.6,9.658,9.658,0,0,1,2.716-1.074,14.283,14.283,0,0,1,3.351-.376,3.8,3.8,0,0,0,1.793-.345,1.07,1.07,0,0,0,.634-.976v-6.835a1.069,1.069,0,0,0-.628-.977,3.748,3.748,0,0,0-1.769-.344,3.475,3.475,0,0,0-1.628.345,1.077,1.077,0,0,0-.656.984v2.772a1.352,1.352,0,0,1-.9,1.244,4.9,4.9,0,0,1-2.13.432,5.408,5.408,0,0,1-2.275-.432,1.357,1.357,0,0,1-.932-1.244v-4.623a3.192,3.192,0,0,1,.664-1.936,6.181,6.181,0,0,1,1.82-1.587A9.623,9.623,0,0,1,742,851.126a14.274,14.274,0,0,1,3.351-.376,14.658,14.658,0,0,1,3.379.376,9.172,9.172,0,0,1,2.716,1.069,6.325,6.325,0,0,1,1.793,1.587,3.2,3.2,0,0,1,.665,1.936v10.575a3.193,3.193,0,0,1-.661,1.936,5.921,5.921,0,0,1-1.783,1.562,9.656,9.656,0,0,1-2.7,1.038,14.441,14.441,0,0,1-3.364.377,3.626,3.626,0,0,0-1.695.374,1.132,1.132,0,0,0-.719,1.013v2.08Z" transform="translate(-736.739 -850.75)" fill="#fff"/>
        <path id="Path_106031" data-name="Path 106031" d="M766.119,875.482a3.2,3.2,0,0,1-.665,1.936,6.3,6.3,0,0,1-1.791,1.588,9.167,9.167,0,0,1-2.716,1.069,14.675,14.675,0,0,1-3.38.377,14.274,14.274,0,0,1-3.351-.377,9.568,9.568,0,0,1-2.716-1.069,6.12,6.12,0,0,1-1.82-1.588,3.175,3.175,0,0,1-.665-1.936V855.718a3.182,3.182,0,0,1,.665-1.936,6.139,6.139,0,0,1,1.82-1.587,9.612,9.612,0,0,1,2.716-1.069,14.282,14.282,0,0,1,3.351-.376,14.683,14.683,0,0,1,3.38.376,9.207,9.207,0,0,1,2.716,1.069,6.32,6.32,0,0,1,1.791,1.587,3.2,3.2,0,0,1,.665,1.936Zm-6.185-17.913a1.078,1.078,0,0,0-.634-.984,3.816,3.816,0,0,0-1.791-.345,3.548,3.548,0,0,0-1.647.345,1.075,1.075,0,0,0-.665.984v16.064a1.072,1.072,0,0,0,.665.982,3.547,3.547,0,0,0,1.647.347,3.814,3.814,0,0,0,1.791-.347,1.075,1.075,0,0,0,.634-.982Z" transform="translate(-729.311 -850.75)" fill="#fff"/>
      </g>
      <g id="Group_44957" data-name="Group 44957" transform="translate(878.209 701.276)" style="isolation: isolate">
        <path id="Path_106032" data-name="Path 106032" d="M791.523,875.04V852.675a1.352,1.352,0,0,1,.926-1.239A5.275,5.275,0,0,1,794.7,851a4.8,4.8,0,0,1,2.109.433,1.355,1.355,0,0,1,.9,1.242v26.176a1.353,1.353,0,0,1-.9,1.242,4.8,4.8,0,0,1-2.109.433H772.976a4.789,4.789,0,0,1-2.109-.433,1.348,1.348,0,0,1-.9-1.242V855.971a3.111,3.111,0,0,1,.692-1.936,6.505,6.505,0,0,1,1.878-1.589,10.093,10.093,0,0,1,2.775-1.069,14.913,14.913,0,0,1,3.438-.376,14.656,14.656,0,0,1,3.38.376,10.085,10.085,0,0,1,2.774,1.069,6.508,6.508,0,0,1,1.878,1.589,3.112,3.112,0,0,1,.693,1.936v10.748a5.17,5.17,0,0,1-.953,3.323,3.006,3.006,0,0,1-2.456,1.184h-7.918v3.814Zm-15.371-9.188H780.2a.906.906,0,0,0,.778-.549,2.3,2.3,0,0,0,.319-1.184v-6.3a1.08,1.08,0,0,0-.751-.982,4.415,4.415,0,0,0-1.851-.347,4.243,4.243,0,0,0-1.79.347,1.081,1.081,0,0,0-.753.982Z" transform="translate(-769.971 -850.829)" fill="#fff"/>
        <path id="Path_106033" data-name="Path 106033" d="M815.805,860.255h2.83a7.694,7.694,0,0,1,4.883,1.509,4.939,4.939,0,0,1,1.936,4.119v9.106a.119.119,0,0,1-.027.088.115.115,0,0,0-.03.087H838.11v-4.045a16.6,16.6,0,0,1-7.8-2.08,5.394,5.394,0,0,1-2.888-4.738v-8.437a3.267,3.267,0,0,1,.636-1.936,5.88,5.88,0,0,1,1.762-1.589,9.235,9.235,0,0,1,2.656-1.069,15.274,15.274,0,0,1,6.733,0,9.256,9.256,0,0,1,2.687,1.069,5.916,5.916,0,0,1,1.761,1.589,3.281,3.281,0,0,1,.637,1.936v9.419a4.777,4.777,0,0,0,1.761-.693,3.28,3.28,0,0,0,1.011-1.069,4.423,4.423,0,0,0,.491-1.3,11.183,11.183,0,0,0,.2-1.387v-8.09a1.353,1.353,0,0,1,.9-1.242,4.789,4.789,0,0,1,2.108-.433,5.276,5.276,0,0,1,2.254.433,1.358,1.358,0,0,1,.926,1.242v26.176a1.356,1.356,0,0,1-.926,1.242,5.274,5.274,0,0,1-2.254.434H818.348a2.026,2.026,0,0,1-1.851-.809,3.462,3.462,0,0,1-.52-1.907,3.93,3.93,0,0,1,.435-1.936,1.291,1.291,0,0,1,1.3-.722q1.563,0,1.562-1.387v-6.183a1.9,1.9,0,0,0-.493-1.445,2.369,2.369,0,0,0-1.645-.462h-1.329V875.8a3.109,3.109,0,0,1-.693,1.936,6.481,6.481,0,0,1-1.878,1.589,10.031,10.031,0,0,1-2.774,1.069,14.667,14.667,0,0,1-3.38.375,14.443,14.443,0,0,1-3.815-.491,10.54,10.54,0,0,1-2.947-1.242,8.422,8.422,0,0,1-1.963,1.3,6.576,6.576,0,0,1-2.774.491,8.149,8.149,0,0,1-2.369-.348,6,6,0,0,1-3.584-2.926,5.361,5.361,0,0,1-.576-2.578v-9.1a4.929,4.929,0,0,1,1.934-4.114,7.716,7.716,0,0,1,4.884-1.507H798.3v-4.249a3.08,3.08,0,0,1,.692-1.924,6.478,6.478,0,0,1,1.878-1.578,10.076,10.076,0,0,1,2.775-1.063,14.93,14.93,0,0,1,3.438-.374,14.678,14.678,0,0,1,3.38.374,10.081,10.081,0,0,1,2.774,1.063,6.5,6.5,0,0,1,1.878,1.578,3.082,3.082,0,0,1,.693,1.924Zm-19.011,15.082a1.212,1.212,0,0,0,.9-.318,1.93,1.93,0,0,0,.462-.751,2.941,2.941,0,0,0,.145-.925v-7.6h-.926a2.363,2.363,0,0,0-1.645.462,1.9,1.9,0,0,0-.493,1.445v6.356C795.232,874.9,795.754,875.337,796.794,875.337Zm7.684-15.082h5.144v-2.39a1.068,1.068,0,0,0-.753-.966,4.454,4.454,0,0,0-1.849-.342,4.284,4.284,0,0,0-1.79.342,1.065,1.065,0,0,0-.753.966Zm5.144,5.49h-5.144v8.205a1.078,1.078,0,0,0,.753.982,4.236,4.236,0,0,0,1.79.347,4.4,4.4,0,0,0,1.849-.347,1.08,1.08,0,0,0,.753-.982ZM833.6,861.7a7.256,7.256,0,0,0,.143,1.531,2.385,2.385,0,0,0,.607,1.156,3.4,3.4,0,0,0,1.36.809,9.421,9.421,0,0,0,2.4.433v-7.916q0-1.329-2.313-1.329-2.2,0-2.194,1.329Zm14.157,13.464v-6.241c-.541.31-1.09.607-1.647.9a10.31,10.31,0,0,1-1.82.722v4.623Z" transform="translate(-758.425 -850.894)" fill="#fff"/>
        <path id="Path_106034" data-name="Path 106034" d="M831.35,861.651a3.392,3.392,0,0,1,.608-1.939,5.464,5.464,0,0,1,1.672-1.565A8.947,8.947,0,0,1,836.2,857.1a13.739,13.739,0,0,1,3.352-.377,13.5,13.5,0,0,1,3.294.377,9.346,9.346,0,0,1,2.6,1.043,5.372,5.372,0,0,1,1.7,1.565,3.392,3.392,0,0,1,.608,1.939v10.606a3.4,3.4,0,0,1-.608,1.941,5.677,5.677,0,0,1-1.7,1.594,8.865,8.865,0,0,1-2.6,1.072,13.578,13.578,0,0,1-3.294.376,10.914,10.914,0,0,1-5.925-1.448,4.17,4.17,0,0,1-2.281-3.535Zm6.181,8.77q0,1.331,1.966,1.329,2.08,0,2.08-1.329v-6.876q0-1.329-2.08-1.329-1.967,0-1.966,1.329Z" transform="translate(-732.829 -847.365)" fill="#fff"/>
      </g>
      <path id="Path_106103" data-name="Path 106103" d="M-18481.9-23506.674s-36-3.248-61.1,4.234c-5.809,1.992-13.256,4.654-19.654,9.24s-7.531,8.76-8.078,10.391c-4.455,13.381,17.916,30.758,64.328,33.92s120.143-7.535,128.416-27.051-29.645-30.6-54.812-37.191c-23.117-7.83-52.02-5.375-52.02-5.375" transform="translate(19382.609 24197.424)" fill="none" stroke="#fed637" stroke-linecap="round" stroke-width="3"/>
    </g>
  </g>
</svg>
