<svg xmlns="http://www.w3.org/2000/svg" width="23.991" height="27.254" viewBox="0 0 23.991 27.254">
  <g id="Layer_2" data-name="Layer 2" transform="translate(0.014 0.014)">
    <g id="Bell" transform="translate(-0.014 -0.014)">
      <path id="Path_16" data-name="Path 16" d="M19.994,41v.545a1.635,1.635,0,1,1-3.27,0V41H14v.545a4.359,4.359,0,1,0,8.719,0V41Z" transform="translate(-6.364 -18.651)" fill="#00c569"/>
      <path id="Path_17" data-name="Path 17" d="M22.532,19.611a1.286,1.286,0,0,1-1.286-1.286V11.982a9.264,9.264,0,0,0-7.9-9.155v-1.4A1.417,1.417,0,0,0,12.124-.006a1.362,1.362,0,0,0-1.5,1.362V2.827a9.264,9.264,0,0,0-7.9,9.155v6.343a1.286,1.286,0,0,1-1.286,1.286A1.417,1.417,0,0,0-.006,20.832a1.362,1.362,0,0,0,1.362,1.5H22.608a1.362,1.362,0,0,0,1.362-1.5A1.417,1.417,0,0,0,22.532,19.611Zm-17.089,0V12.173a6.675,6.675,0,0,1,5.907-6.7,6.539,6.539,0,0,1,7.171,6.512v7.629Z" transform="translate(0.014 0.014)" fill="#15232e"/>
    </g>
  </g>
</svg>
