<svg xmlns="http://www.w3.org/2000/svg" width="26" height="26" viewBox="0 0 26 26"><defs><style>.a{fill:#aaa;}</style></defs><path class="a" d="M24.64,24.684h.006V15.515c0-4.485-.966-7.941-6.209-7.941a5.444,5.444,0,0,0-4.9,2.695h-.073V7.993H8.489V24.683h5.177V16.419c0-2.176.413-4.28,3.107-4.28,2.655,0,2.695,2.483,2.695,4.42v8.126Z" transform="translate(1.354 1.315)"/><path class="a" d="M.4,7.977H5.579V24.668H.4Z" transform="translate(0.016 1.332)"/><path class="a" d="M3,0A3.016,3.016,0,1,0,6,3,3,3,0,0,0,3,0Z"/></svg>