<svg xmlns="http://www.w3.org/2000/svg" width="361.002" height="328.238" viewBox="0 0 361.002 328.238">
  <g id="Layer_2" data-name="Layer 2" transform="translate(0.002 0.004)">
    <g id="Layer_3" data-name="Layer 3" transform="translate(-0.002 -0.004)">
      <path id="Path_117362" data-name="Path 117362" d="M12.894,671.9a6.3,6.3,0,0,1-1.849,4.637,6.189,6.189,0,0,1-4.553,1.884,6.158,6.158,0,0,1-4.553-1.884,6.738,6.738,0,0,1,0-9.274,6.158,6.158,0,0,1,4.553-1.884,6.114,6.114,0,0,1,4.553,1.9A6.3,6.3,0,0,1,12.894,671.9Zm-11.207,0a4.938,4.938,0,0,0,1.362,3.572,4.577,4.577,0,0,0,3.415,1.4,4.528,4.528,0,0,0,3.4-1.4,5.323,5.323,0,0,0,0-7.144,4.528,4.528,0,0,0-3.4-1.4,4.577,4.577,0,0,0-3.415,1.4A4.938,4.938,0,0,0,1.7,671.9Zm23.237-4.7v10.948H23.317V667.2H19.832v-1.534h8.594V667.2Zm15.812,0v10.948h-1.6V667.2h-3.5v-1.534h8.577V667.2Zm27.317,11.228a6.588,6.588,0,0,1-4.637-11.158,6.234,6.234,0,0,1,4.637-1.884,5.772,5.772,0,0,1,4.584,2.042l-1.149,1.114a4.273,4.273,0,0,0-3.436-1.621,4.7,4.7,0,0,0-3.467,1.4,5.358,5.358,0,0,0,0,7.18,4.7,4.7,0,0,0,3.467,1.4,4.9,4.9,0,0,0,3.782-1.832l1.17,1.131a6.071,6.071,0,0,1-2.178,1.65,6.655,6.655,0,0,1-2.781.578ZM93.322,671.9a6.332,6.332,0,0,1-1.856,4.644,6.476,6.476,0,0,1-9.134,0,6.738,6.738,0,0,1,0-9.274,6.455,6.455,0,0,1,9.128.012l.006.006A6.3,6.3,0,0,1,93.322,671.9Zm-11.207,0a4.935,4.935,0,0,0,1.359,3.572,4.577,4.577,0,0,0,3.418,1.4,4.522,4.522,0,0,0,3.4-1.4,5.323,5.323,0,0,0,0-7.144,4.522,4.522,0,0,0-3.4-1.4,4.577,4.577,0,0,0-3.418,1.4,4.934,4.934,0,0,0-1.341,3.572Zm21.094,6.241h-1.586V665.665h1.6l4.35,7.6h.07l4.339-7.6h1.6v12.482h-1.6v-7.411l.07-2.1h-.07l-3.9,6.85h-.942l-3.9-6.85h-.07l.07,2.1Zm20.863,0h-1.6V665.665h1.6l4.343,7.6h.07l4.339-7.6h1.6v12.482h-1.6v-7.411l.07-2.1h-.07l-3.884,6.861h-.946l-3.9-6.85h-.053l.07,2.1Zm23.6.28a4.372,4.372,0,0,1-3.348-1.362,4.947,4.947,0,0,1-1.271-3.555v-7.838h1.6v7.915a3.5,3.5,0,0,0,.8,2.424,3.2,3.2,0,0,0,4.427,0,3.5,3.5,0,0,0,.8-2.424v-7.915h1.6v7.845a5.005,5.005,0,0,1-1.257,3.59,4.415,4.415,0,0,1-3.345,1.327Zm14.849-.28h-1.6V665.665h1.989l6.066,9.708h.07l-.07-2.4v-7.306h1.6v12.482h-1.674l-6.346-10.181h-.07l.07,2.406Zm18.53,0h-1.6V665.665h1.6Zm13.161-10.948V678.14h-1.6V667.2h-3.5v-1.534h8.612V667.2Zm16.324,5.148v5.807h-1.6V672.34l-4.2-6.675h1.884l3.085,5.071h.07l3.015-5.071h1.884Zm23.815.749v5.057h-1.6V665.665h4.255a3.853,3.853,0,0,1,2.753,1.082,3.611,3.611,0,0,1,.178,5.1c-.057.061-.117.121-.178.178a3.852,3.852,0,0,1-2.753,1.051Zm0-5.891v4.35h2.683a2.206,2.206,0,0,0,2.234-2.178h0a2.238,2.238,0,0,0-2.234-2.178Zm21.633,10.948h-7V665.665h1.6v10.948h5.4Zm8.8,0h-1.751l4.707-12.482h1.811l4.724,12.482H272.5l-1.2-3.383h-5.253Zm3.8-10.507-2.014,5.625h4.15l-2.049-5.628Zm16.632-.438V678.15h-1.6V667.2h-3.5v-1.534h8.577V667.2Zm13.161,5.6v5.351h-1.6V665.665h7.285V667.2h-5.656v4.1h5.124v1.5Zm25.979-.907a6.3,6.3,0,0,1-1.849,4.637,6.476,6.476,0,0,1-9.134,0,6.749,6.749,0,0,1,0-9.274,6.455,6.455,0,0,1,9.128.012l.006.006A6.3,6.3,0,0,1,324.362,671.9Zm-11.207,0a4.935,4.935,0,0,0,1.359,3.572,4.577,4.577,0,0,0,3.415,1.4,4.524,4.524,0,0,0,3.4-1.4,5.323,5.323,0,0,0,0-7.144,4.524,4.524,0,0,0-3.4-1.4,4.577,4.577,0,0,0-3.415,1.4A4.935,4.935,0,0,0,313.155,671.9Zm21.09,6.241h-1.6V665.665H336.9a3.9,3.9,0,0,1,2.763,1.072,3.579,3.579,0,0,1,.294,4.935,3.753,3.753,0,0,1-2.133,1.282l-.035.053,3.5,5.071v.07h-1.9l-3.366-5.057h-1.779Zm0-10.948v4.392h2.581a2.339,2.339,0,0,0,1.657-.634,2.1,2.1,0,0,0,.679-1.579,2.206,2.206,0,0,0-2.231-2.178Zm16.46,10.948h-1.6V665.665h1.6l4.339,7.6h.07l4.339-7.6h1.6v12.482h-1.6v-7.411l.07-2.1h-.07l-3.9,6.85h-.939l-3.9-6.85h-.07l.07,2.1Z" transform="translate(-0.058 -432.347)" fill="#949494"/>
      <path id="Path_117376" data-name="Path 117376" d="M0,0H359.995V65.235H0Z" transform="translate(0.022 263.003)" fill="#949494"/>
      <path id="Path_117363" data-name="Path 117363" d="M918.439.14v2q-.221,12.867-7.764,20.411t-22.186,7.544q-14.2,0-21.524-7.544T859.42,2.14v-2h19.525V.364a15.311,15.311,0,0,0,1.776,6.878q1.548,2.676,7.768,2.882,5.989,0,7.873-2.662A14.352,14.352,0,0,0,898.694.585V.14Z" transform="translate(-558.433 -0.09)" fill="#949494"/>
      <path id="Path_117364" data-name="Path 117364" d="M357.005,30.814l16.681-17.3c-.539-.592-1.086-1.173-1.66-1.751a37.376,37.376,0,0,0-12.181-7.845A38.794,38.794,0,0,0,345.21,1.07V25.211a14.219,14.219,0,0,1,10.3,3.929A15.988,15.988,0,0,1,357.005,30.814Z" transform="translate(-224.31 -0.694)" fill="#949494"/>
      <path id="Path_117365" data-name="Path 117365" d="M133.376,104.993a15.767,15.767,0,0,1-3.278,3.033q-5.155,3.66-14.359,5.558a32.81,32.81,0,0,0,2.984-13.823V36.878a37.424,37.424,0,0,0-10.156-25.885A33.849,33.849,0,0,0,97.184,3.135,35.749,35.749,0,0,0,82.938.287,34.124,34.124,0,0,0,59.084,9.775,41.669,41.669,0,0,0,48.378,2.988,31.411,31.411,0,0,0,35.5.287,34.747,34.747,0,0,0,21.411,3.135a34.15,34.15,0,0,0-11.256,7.859A37.424,37.424,0,0,0,0,36.878V99.76q0,10.57,4.609,17.749a32.741,32.741,0,0,0,12.608,11.382,64.135,64.135,0,0,0,18.975,6.1,139.4,139.4,0,0,0,23.7,1.9q7.32,0,13.011-.406a64.336,64.336,0,0,0,11.112-1.751q4.609.816,10.156,1.355t11.792.543q29.355,0,42.482-11.844ZM30.9,109.1q-6.784-3.929-6.777-9.351V36.878a13.128,13.128,0,0,1,3.254-8.538A10.12,10.12,0,0,1,35.5,24.411a11.324,11.324,0,0,1,8.538,3.929,12.333,12.333,0,0,1,3.66,8.538l.277,60.441a37.839,37.839,0,0,0,1.086,8.675,76.3,76.3,0,0,0,2.452,8.405Q37.675,113.04,30.9,109.1ZM94.862,99.48a12.368,12.368,0,0,1-2.711,7.046q-2.711,3.789-8.945,4.889a17.274,17.274,0,0,1-8.538-4.609,10.074,10.074,0,0,1-3.117-7.046V37.152a13.48,13.48,0,0,1,3.254-8.812,10.158,10.158,0,0,1,8.132-3.929,10.809,10.809,0,0,1,8.535,3.929,12.835,12.835,0,0,1,3.39,8.538Z" transform="translate(0.002 -0.184)" fill="#949494"/>
      <path id="Path_117366" data-name="Path 117366" d="M654.89,37.842v61.9q0,4.339-5.148,8t-14.359,5.554a32.8,32.8,0,0,0,2.973-13.83V36.588A37.424,37.424,0,0,0,628.2,10.7,33.8,33.8,0,0,0,616.81,2.845,35.739,35.739,0,0,0,602.581,0a34.124,34.124,0,0,0-23.854,9.487,41.6,41.6,0,0,0-10.706-6.777A31.413,31.413,0,0,0,555.137,0a34.747,34.747,0,0,0-14.093,2.847A34.1,34.1,0,0,0,529.795,10.7a37.424,37.424,0,0,0-10.156,25.885V99.46q0,10.57,4.609,17.753a32.668,32.668,0,0,0,12.608,11.382,64.067,64.067,0,0,0,18.975,6.1,139.031,139.031,0,0,0,23.713,1.9q7.32,0,13.011-.406a64.61,64.61,0,0,0,11.112-1.751q4.609.816,10.156,1.355t11.792.543q53.114,0,53.121-38.759V37.842ZM550.524,108.818q-6.763-3.922-6.759-9.358V36.588a13.127,13.127,0,0,1,3.25-8.538,10.12,10.12,0,0,1,8.122-3.929,11.324,11.324,0,0,1,8.538,3.929,12.335,12.335,0,0,1,3.66,8.538l.27,60.441a37.792,37.792,0,0,0,1.086,8.671,76.954,76.954,0,0,0,2.452,8.405q-13.827-1.338-20.6-5.288ZM614.489,99.2a12.39,12.39,0,0,1-2.711,7.046q-2.711,3.8-8.927,4.879a17.216,17.216,0,0,1-8.538-4.605,9.979,9.979,0,0,1-3.1-7.057v-62.6a13.471,13.471,0,0,1,3.253-8.808,10.163,10.163,0,0,1,8.132-3.929,10.808,10.808,0,0,1,8.521,3.929,12.858,12.858,0,0,1,3.39,8.538Z" transform="translate(-337.649 0.004)" fill="#949494"/>
      <path id="Path_117367" data-name="Path 117367" d="M443.941,99.763q-.546,15.451-10.339,26.154t-28.284,10.706a41.116,41.116,0,0,1-16.46-3.117,39.1,39.1,0,0,1-12.24-8.132A33.308,33.308,0,0,1,369,113.723a38.15,38.15,0,0,1-2.585-13.96V78.893h23.853v20.87a11.662,11.662,0,0,0,3.691,8.538q3.691,3.663,11.081,4.2,7.379,0,11.207-3.793a12.18,12.18,0,0,0,3.828-8.945V37.154a12.343,12.343,0,0,0-3.828-8.812q-3.828-3.933-11.207-3.929-7.393.546-11.081,4.066a11.522,11.522,0,0,0-3.691,8.675v20.87h-23.85V37.154a38.15,38.15,0,0,1,2.585-13.96,33.354,33.354,0,0,1,7.614-11.655,39.221,39.221,0,0,1,12.24-8.132A41.246,41.246,0,0,1,405.322.29Q423.813.29,433.606,11t10.339,26.158Z" transform="translate(-238.091 -0.187)" fill="#949494"/>
      <path id="Path_117368" data-name="Path 117368" d="M8.7,520.5q-1.657-3.232-4.024-9.169T.06,497.877a4.755,4.755,0,0,1,1.583-1.219,4.661,4.661,0,0,1,2.1-.494,3.855,3.855,0,0,1,2.374.7,4.967,4.967,0,0,1,1.516,2.41q1.782,5.344,3.695,10.507t4.2,10.72H15.8q.988-2.1,2.01-4.949t2.014-6q.988-3.152,1.846-6.43t1.516-6.234a7.888,7.888,0,0,1,1.369-.525,5.878,5.878,0,0,1,1.618-.2,4.153,4.153,0,0,1,2.452.7,2.452,2.452,0,0,1,.988,2.143,24.023,24.023,0,0,1-.89,5.253q-.89,3.537-2.343,7.785t-3.3,8.608a83.468,83.468,0,0,1-3.695,7.7,55.427,55.427,0,0,1-5.954,8.84q-2.655,3.036-5.064,3.033a4.1,4.1,0,0,1-2.935-1.023,3.2,3.2,0,0,1-.784-.974A2.542,2.542,0,0,1,5.128,536c.287-.371.721-.921,1.264-1.576,1.17-1.4,1.6-1.734,2.508-2.837q1.25-1.52,2.374-3.131a29.807,29.807,0,0,0,1.912-3.152,5.629,5.629,0,0,1-2.175-1.285A12.026,12.026,0,0,1,8.7,520.5Z" transform="translate(-0.038 -322.394)" fill="#949494"/>
      <path id="Path_117369" data-name="Path 117369" d="M228,463.46a3.852,3.852,0,0,1,1.187-2.872,4.2,4.2,0,0,1,3.036-1.152,4.028,4.028,0,1,1,0,8.055,4.17,4.17,0,0,1-3.036-1.152A3.853,3.853,0,0,1,228,463.459Z" transform="translate(-148.147 -298.529)" fill="#949494"/>
      <path id="Path_117370" data-name="Path 117370" d="M410.579,495.409q6.132,0,9.761,2.672t3.628,8.405v15.368a3.541,3.541,0,0,1-.7,2.343,7.527,7.527,0,0,1-1.877,1.551,18.635,18.635,0,0,1-4.416,1.737,24.174,24.174,0,0,1-6.265.7q-6.4,0-10-2.508a8.421,8.421,0,0,1-3.593-7.39,8.115,8.115,0,0,1,2.8-6.654q2.8-2.3,8.083-2.837l9.169-.925v-1.45a4.8,4.8,0,0,0-1.881-4.224,9.013,9.013,0,0,0-5.257-1.331,17.752,17.752,0,0,0-5.082.728,29.055,29.055,0,0,0-4.353,1.65,4.862,4.862,0,0,1-1.121-1.289,3.152,3.152,0,0,1-.462-1.681,2.924,2.924,0,0,1,.56-1.846,4.422,4.422,0,0,1,1.751-1.254,15.53,15.53,0,0,1,4.224-1.352A28.075,28.075,0,0,1,410.579,495.409Zm.13,27.377a15.566,15.566,0,0,0,4.024-.462,7.87,7.87,0,0,0,2.452-.988v-8.377l-7.19.725a10.293,10.293,0,0,0-4.553,1.352,3.515,3.515,0,0,0-1.516,3.134,3.992,3.992,0,0,0,1.65,3.4A8.653,8.653,0,0,0,410.708,522.785Z" transform="translate(-258.04 -321.905)" fill="#949494"/>
      <path id="Path_117371" data-name="Path 117371" d="M615.424,568.046a4.483,4.483,0,0,1,1.152-3.152,4.753,4.753,0,0,1,6.434,0,5.033,5.033,0,0,1,0,6.332,4.753,4.753,0,0,1-6.434,0A4.49,4.49,0,0,1,615.424,568.046Z" transform="translate(-399.887 -366.241)" fill="#949494"/>
      <path id="Path_117372" data-name="Path 117372" d="M791.048,495.409q6.136,0,9.761,2.672t3.628,8.405v15.368a3.486,3.486,0,0,1-.7,2.343,7.611,7.611,0,0,1-1.881,1.552,18.667,18.667,0,0,1-4.4,1.737,24.171,24.171,0,0,1-6.269.7q-6.4,0-9.992-2.508a8.44,8.44,0,0,1-3.6-7.39,8.115,8.115,0,0,1,2.8-6.654q2.8-2.3,8.08-2.837l9.172-.925v-1.45a4.8,4.8,0,0,0-1.881-4.224,9.011,9.011,0,0,0-5.253-1.32,17.729,17.729,0,0,0-5.078.728,28.926,28.926,0,0,0-4.357,1.65,4.92,4.92,0,0,1-1.121-1.289,3.152,3.152,0,0,1-.462-1.681,2.929,2.929,0,0,1,.564-1.846,4.4,4.4,0,0,1,1.751-1.254,15.48,15.48,0,0,1,4.22-1.352A28.083,28.083,0,0,1,791.048,495.409Zm.13,27.377a15.553,15.553,0,0,0,4.024-.462,7.874,7.874,0,0,0,2.452-.988v-8.377l-7.19.725a10.293,10.293,0,0,0-4.553,1.352,3.515,3.515,0,0,0-1.516,3.134,3.993,3.993,0,0,0,1.649,3.4,8.705,8.705,0,0,0,5.145,1.219Z" transform="translate(-505.268 -321.906)" fill="#949494"/>
      <path id="Path_117373" data-name="Path 117373" d="M1004.2,463.459a3.832,3.832,0,0,1,1.187-2.872,4.175,4.175,0,0,1,3.033-1.152,4.028,4.028,0,1,1,0,8.055,4.162,4.162,0,0,1-3.033-1.152A3.828,3.828,0,0,1,1004.2,463.459Z" transform="translate(-652.506 -298.529)" fill="#949494"/>
      <g id="Group_49588" data-name="Group 49588" transform="translate(59.353 276.49)" style="isolation: isolate">
        <path id="P" d="M4.592-8.12V0H2.016V-20.048H8.848a6.173,6.173,0,0,1,4.424,1.736,5.583,5.583,0,0,1,1.848,4.228,5.557,5.557,0,0,1-1.848,4.256A6.166,6.166,0,0,1,8.848-8.12Zm0-9.464v7H8.9a3.4,3.4,0,0,0,2.548-1.036,3.365,3.365,0,0,0,1.036-2.464,3.334,3.334,0,0,0-1.036-2.436A3.36,3.36,0,0,0,8.9-17.584Z" transform="translate(0 27)" fill="#1e1e1e"/>
        <path id="ow" d="M.784-6.86A7.258,7.258,0,0,1,2.772-12.1,6.776,6.776,0,0,1,7.84-14.168,6.685,6.685,0,0,1,12.88-12.1,7.2,7.2,0,0,1,14.9-6.86,7.142,7.142,0,0,1,12.88-1.624,6.685,6.685,0,0,1,7.84.448,6.776,6.776,0,0,1,2.772-1.624,7.258,7.258,0,0,1,.784-6.86Zm2.576,0A5.024,5.024,0,0,0,4.648-3.276,4.2,4.2,0,0,0,7.84-1.9a4.2,4.2,0,0,0,3.192-1.372A5.024,5.024,0,0,0,12.32-6.86a4.986,4.986,0,0,0-1.288-3.556,4.219,4.219,0,0,0-3.192-1.4,4.219,4.219,0,0,0-3.192,1.4A4.986,4.986,0,0,0,3.36-6.86Zm33.32-6.86L32.256,0H29.624L26.208-10.528,22.82,0h-2.6L15.792-13.72H18.48L21.532-3.36h.028l3.388-10.36h2.66L31-3.36h.028l3.024-10.36Z" transform="translate(15.686 27)" fill="#1e1e1e"/>
        <path id="e" d="M7.728.448A6.563,6.563,0,0,1,2.744-1.624,7.316,7.316,0,0,1,.784-6.86a7.452,7.452,0,0,1,1.9-5.222A6.3,6.3,0,0,1,7.56-14.168a6.262,6.262,0,0,1,4.858,1.974,7.893,7.893,0,0,1,1.806,5.53l-.028.28H3.416A4.47,4.47,0,0,0,4.76-3.136,4.3,4.3,0,0,0,7.84-1.9,4.287,4.287,0,0,0,11.7-4.368L14-3.248A6.844,6.844,0,0,1,11.438-.532,7.085,7.085,0,0,1,7.728.448ZM3.612-8.512H11.48a3.416,3.416,0,0,0-1.162-2.366A4.068,4.068,0,0,0,7.5-11.816,3.734,3.734,0,0,0,5-10.92,4.279,4.279,0,0,0,3.612-8.512Z" transform="translate(53.797 27)" fill="#1e1e1e"/>
        <path id="r" d="M4.144,0H1.568V-13.72H4.032v2.24h.112a3.718,3.718,0,0,1,1.61-1.862,4.468,4.468,0,0,1,2.394-.77,4.827,4.827,0,0,1,1.9.336l-.784,2.492a4.267,4.267,0,0,0-1.512-.2A3.334,3.334,0,0,0,5.222-10.3,3.933,3.933,0,0,0,4.144-7.56Z" transform="translate(69.683 27)" fill="#1e1e1e"/>
        <path id="e-2" data-name="e" d="M7.728.448A6.563,6.563,0,0,1,2.744-1.624,7.316,7.316,0,0,1,.784-6.86a7.452,7.452,0,0,1,1.9-5.222A6.3,6.3,0,0,1,7.56-14.168a6.262,6.262,0,0,1,4.858,1.974,7.893,7.893,0,0,1,1.806,5.53l-.028.28H3.416A4.47,4.47,0,0,0,4.76-3.136,4.3,4.3,0,0,0,7.84-1.9,4.287,4.287,0,0,0,11.7-4.368L14-3.248A6.844,6.844,0,0,1,11.438-.532,7.085,7.085,0,0,1,7.728.448ZM3.612-8.512H11.48a3.416,3.416,0,0,0-1.162-2.366A4.068,4.068,0,0,0,7.5-11.816,3.734,3.734,0,0,0,5-10.92,4.279,4.279,0,0,0,3.612-8.512Z" transform="translate(79.766 27)" fill="#1e1e1e"/>
        <path id="d_" data-name="d " d="M7.728-1.9a3.944,3.944,0,0,0,3.108-1.372A5.09,5.09,0,0,0,12.1-6.86a5.115,5.115,0,0,0-1.26-3.556,3.963,3.963,0,0,0-3.108-1.4,4.017,4.017,0,0,0-3.108,1.4A5.115,5.115,0,0,0,3.36-6.86,5.051,5.051,0,0,0,4.62-3.3,4.017,4.017,0,0,0,7.728-1.9ZM7.308.448A6.031,6.031,0,0,1,2.688-1.68a7.558,7.558,0,0,1-1.9-5.18,7.558,7.558,0,0,1,1.9-5.18,6.031,6.031,0,0,1,4.62-2.128,5.916,5.916,0,0,1,2.758.644,4.826,4.826,0,0,1,1.918,1.708H12.1l-.112-1.9v-6.328H14.56V0H12.1V-1.9h-.112A4.826,4.826,0,0,1,10.066-.2,5.916,5.916,0,0,1,7.308.448Z" transform="translate(95.796 27)" fill="#1e1e1e"/>
        <path id="b" d="M8.82.448A5.916,5.916,0,0,1,6.062-.2,4.826,4.826,0,0,1,4.144-1.9H4.032V0H1.568V-20.048H4.144v6.328l-.112,1.9h.112a4.826,4.826,0,0,1,1.918-1.708,5.916,5.916,0,0,1,2.758-.644,5.892,5.892,0,0,1,4.592,2.128,7.494,7.494,0,0,1,1.932,5.18,7.429,7.429,0,0,1-1.932,5.18A5.892,5.892,0,0,1,8.82.448ZM8.4-1.9a4.017,4.017,0,0,0,3.108-1.4,5.051,5.051,0,0,0,1.26-3.556,5.115,5.115,0,0,0-1.26-3.556,4.017,4.017,0,0,0-3.108-1.4,4.047,4.047,0,0,0-3.136,1.4A5.185,5.185,0,0,0,4.032-6.86,5.225,5.225,0,0,0,5.264-3.276,4.084,4.084,0,0,0,8.4-1.9Z" transform="translate(119.677 27)" fill="#1e1e1e"/>
        <path id="y_" data-name="y " d="M13.832-13.72,5.236,6.048H2.576L5.768-.868.112-13.72h2.8L7-3.864h.056l3.976-9.856Z" transform="translate(136.134 27)" fill="#1e1e1e"/>
        <path id="T" d="M6.272,0V-16.464H.672v-3.584h14.98v3.584h-5.6V0Z" transform="translate(157.792 27)" fill="#1e1e1e"/>
        <path id="al" d="M10.024-1.456H9.8A6.188,6.188,0,0,1,8.246-.112a4.4,4.4,0,0,1-2.338.56,5.68,5.68,0,0,1-2-.35A5.208,5.208,0,0,1,2.268-.868,4.32,4.32,0,0,1,1.176-2.352a4.572,4.572,0,0,1-.392-1.9A4.288,4.288,0,0,1,1.2-6.174,4.362,4.362,0,0,1,2.38-7.644a5.3,5.3,0,0,1,1.778-.938A7.374,7.374,0,0,1,6.384-8.9a9.648,9.648,0,0,1,2.212.21,10.728,10.728,0,0,1,1.428.434v-.42a2.24,2.24,0,0,0-.868-1.806A3.282,3.282,0,0,0,7-11.2,4.028,4.028,0,0,0,3.78-9.6l-2.66-1.82a7.211,7.211,0,0,1,5.964-2.744,7.1,7.1,0,0,1,4.872,1.5,5.638,5.638,0,0,1,1.68,4.438V0H10.024Zm0-4.116a7.583,7.583,0,0,0-1.33-.49,5.831,5.831,0,0,0-1.5-.182,3.167,3.167,0,0,0-2.03.574,1.75,1.75,0,0,0-.714,1.414,1.586,1.586,0,0,0,.686,1.344,2.6,2.6,0,0,0,1.582.5,3.354,3.354,0,0,0,1.344-.266,3.336,3.336,0,0,0,1.05-.7,3.078,3.078,0,0,0,.672-1.008A3.078,3.078,0,0,0,10.024-5.572ZM17.108,0V-20.048h3.668V0Z" transform="translate(172.876 27)" fill="#1e1e1e"/>
        <path id="r-2" data-name="r" d="M1.568-13.72H5.012v1.9h.224a3.545,3.545,0,0,1,.672-.924,4.763,4.763,0,0,1,.938-.728,4.6,4.6,0,0,1,1.12-.476,4.412,4.412,0,0,1,1.19-.168,4.827,4.827,0,0,1,1.246.14,3.343,3.343,0,0,1,.882.364l-.98,3.332a3.479,3.479,0,0,0-.742-.266,4.306,4.306,0,0,0-.994-.1,3.145,3.145,0,0,0-1.372.294,3.016,3.016,0,0,0-1.05.826,3.9,3.9,0,0,0-.672,1.246A4.887,4.887,0,0,0,5.236-6.72V0H1.568Z" transform="translate(196.246 27)" fill="#1e1e1e"/>
        <path id="o" d="M8.064-14.168a7.633,7.633,0,0,1,2.926.546,6.926,6.926,0,0,1,2.3,1.512A6.893,6.893,0,0,1,14.8-9.8a7.739,7.739,0,0,1,.546,2.94A7.739,7.739,0,0,1,14.8-3.92a6.893,6.893,0,0,1-1.512,2.31A6.926,6.926,0,0,1,10.99-.1,7.633,7.633,0,0,1,8.064.448,7.633,7.633,0,0,1,5.138-.1a6.926,6.926,0,0,1-2.3-1.512A6.893,6.893,0,0,1,1.33-3.92,7.739,7.739,0,0,1,.784-6.86,7.739,7.739,0,0,1,1.33-9.8a6.893,6.893,0,0,1,1.512-2.31,6.926,6.926,0,0,1,2.3-1.512A7.633,7.633,0,0,1,8.064-14.168Zm0,11.228a3.591,3.591,0,0,0,1.358-.266,3.463,3.463,0,0,0,1.162-.77,3.65,3.65,0,0,0,.8-1.232,4.381,4.381,0,0,0,.294-1.652,4.381,4.381,0,0,0-.294-1.652,3.65,3.65,0,0,0-.8-1.232,3.463,3.463,0,0,0-1.162-.77,3.591,3.591,0,0,0-1.358-.266,3.558,3.558,0,0,0-1.372.266,3.5,3.5,0,0,0-1.148.77,3.65,3.65,0,0,0-.8,1.232A4.381,4.381,0,0,0,4.452-6.86a4.381,4.381,0,0,0,.294,1.652,3.65,3.65,0,0,0,.8,1.232,3.5,3.5,0,0,0,1.148.77A3.558,3.558,0,0,0,8.064-2.94Z" transform="translate(207.586 27)" fill="#1e1e1e"/>
        <path id="p-2" data-name="p" d="M1.456-13.72H4.9v1.652h.224a4.163,4.163,0,0,1,1.568-1.484,5.181,5.181,0,0,1,2.632-.616,5.94,5.94,0,0,1,2.506.546,6.7,6.7,0,0,1,2.1,1.512A7.181,7.181,0,0,1,15.372-9.8,7.919,7.919,0,0,1,15.9-6.86a7.919,7.919,0,0,1-.532,2.94A7.181,7.181,0,0,1,13.93-1.61,6.7,6.7,0,0,1,11.83-.1,5.94,5.94,0,0,1,9.324.448,5.181,5.181,0,0,1,6.692-.168,4.163,4.163,0,0,1,5.124-1.652H4.9L5.124.308v5.74H1.456ZM8.568-2.94a3.5,3.5,0,0,0,1.386-.28A3.648,3.648,0,0,0,11.116-4a3.827,3.827,0,0,0,.812-1.232,4.129,4.129,0,0,0,.308-1.624,4.129,4.129,0,0,0-.308-1.624,3.827,3.827,0,0,0-.812-1.232A3.648,3.648,0,0,0,9.954-10.5a3.5,3.5,0,0,0-1.386-.28,3.663,3.663,0,0,0-1.386.266,3.463,3.463,0,0,0-1.162.77,3.827,3.827,0,0,0-.812,1.232A4.2,4.2,0,0,0,4.9-6.86a4.2,4.2,0,0,0,.308,1.652A3.827,3.827,0,0,0,6.02-3.976a3.463,3.463,0,0,0,1.162.77A3.663,3.663,0,0,0,8.568-2.94Z" transform="translate(224.473 27)" fill="#1e1e1e"/>
      </g>
      <path id="Path_117374" data-name="Path 117374" d="M231.164,497h2.487a2.224,2.224,0,0,1,2.224,2.224h0v26.942a2.452,2.452,0,0,1-2.452,2.452H228.94v-29.38A2.224,2.224,0,0,1,231.15,497Z" transform="translate(-148.76 -322.939)" fill="#949494"/>
      <path id="Path_117375" data-name="Path 117375" d="M1008.367,497h2.487a2.224,2.224,0,0,1,2.224,2.224v26.942a2.452,2.452,0,0,1-2.452,2.452h-4.486v-29.38a2.224,2.224,0,0,1,2.21-2.238Z" transform="translate(-653.769 -322.939)" fill="#949494"/>
    </g>
  </g>
</svg>
