<svg xmlns="http://www.w3.org/2000/svg" xmlns:xlink="http://www.w3.org/1999/xlink" width="137.3" height="83.082" viewBox="0 0 137.3 83.082">
  <defs>
    <linearGradient id="linear-gradient" y1="0.5" x2="1" y2="0.5" gradientUnits="objectBoundingBox">
      <stop offset="0" stop-color="#14b797"/>
      <stop offset="1" stop-color="#198cb8"/>
    </linearGradient>
    <linearGradient id="linear-gradient-2" x1="-0.001" y1="0.5" x2="1" y2="0.5" gradientUnits="objectBoundingBox">
      <stop offset="0" stop-color="#dfd023"/>
      <stop offset="1" stop-color="#4ab754"/>
    </linearGradient>
    <linearGradient id="linear-gradient-3" x1="0" y1="0.5" x2="1" y2="0.5" xlink:href="#linear-gradient-2"/>
    <linearGradient id="linear-gradient-4" x1="0" y1="0.5" x2="1" y2="0.5" xlink:href="#linear-gradient"/>
    <linearGradient id="linear-gradient-5" x1="0" y1="0.5" x2="1" y2="0.5" xlink:href="#linear-gradient-2"/>
    <linearGradient id="linear-gradient-6" x1="0" y1="0.5" x2="1" y2="0.5" xlink:href="#linear-gradient-2"/>
    <linearGradient id="linear-gradient-7" x1="-0.001" y1="0.5" x2="1.006" y2="0.5" xlink:href="#linear-gradient-2"/>
    <linearGradient id="linear-gradient-8" x1="0" y1="0.5" x2="1" y2="0.5" xlink:href="#linear-gradient-2"/>
    <linearGradient id="linear-gradient-9" x1="0" y1="0.498" x2="1" y2="0.498" xlink:href="#linear-gradient"/>
    <linearGradient id="linear-gradient-10" x1="0" y1="0.5" x2="1" y2="0.5" xlink:href="#linear-gradient"/>
    <linearGradient id="linear-gradient-11" x1="0" y1="0.5" x2="1.008" y2="0.5" xlink:href="#linear-gradient"/>
    <linearGradient id="linear-gradient-12" x1="0" y1="0.5" x2="1" y2="0.5" xlink:href="#linear-gradient-2"/>
    <linearGradient id="linear-gradient-13" x1="0" y1="0.5" x2="1" y2="0.5" xlink:href="#linear-gradient"/>
  </defs>
  <g id="Layer_2" data-name="Layer 2" transform="translate(0.002 0.004)">
    <g id="Layer_3" data-name="Layer 3" transform="translate(-0.002 -0.004)">
      <path id="Path_113843" data-name="Path 113843" d="M881.929.14V.9a10.8,10.8,0,0,1-2.961,7.784q-2.877,2.877-8.462,2.877-5.415,0-8.209-2.877A10.977,10.977,0,0,1,859.42.9V.14h7.446V.225a5.839,5.839,0,0,0,.677,2.623q.59,1.02,2.963,1.1,2.284,0,3-1.015A5.473,5.473,0,0,0,874.4.31V.14Z" transform="translate(-744.629 -0.121)" fill="url(#linear-gradient)"/>
      <path id="Path_113844" data-name="Path 113844" d="M349.709,12.414l6.362-6.6c-.206-.226-.414-.447-.633-.668a14.256,14.256,0,0,0-4.646-2.992A14.8,14.8,0,0,0,345.21,1.07v9.207a5.423,5.423,0,0,1,3.928,1.5A6.1,6.1,0,0,1,349.709,12.414Z" transform="translate(-299.101 -0.926)" fill="url(#linear-gradient-2)"/>
      <path id="Path_113845" data-name="Path 113845" d="M50.866,40.219a6.01,6.01,0,0,1-1.25,1.157,14.563,14.563,0,0,1-5.476,2.12,12.514,12.514,0,0,0,1.138-5.272V14.242A14.273,14.273,0,0,0,41.4,4.37a12.911,12.911,0,0,0-4.341-3A13.636,13.636,0,0,0,31.629.286a13.014,13.014,0,0,0-9.1,3.618,15.894,15.894,0,0,0-4.083-2.589,11.98,11.98,0,0,0-4.91-1.03A13.251,13.251,0,0,0,8.164,1.372a13.024,13.024,0,0,0-4.293,3A14.273,14.273,0,0,0,0,14.242V38.224a12.284,12.284,0,0,0,1.758,6.769,12.488,12.488,0,0,0,4.808,4.341A24.46,24.46,0,0,0,13.8,51.661a53.17,53.17,0,0,0,9.037.724q2.792,0,4.962-.155a24.523,24.523,0,0,0,4.238-.668q1.758.311,3.873.517t4.5.207q11.2,0,16.2-4.517ZM11.783,41.787Q9.2,40.289,9.2,38.221V14.242a5.007,5.007,0,0,1,1.241-3.256,3.86,3.86,0,0,1,3.1-1.5,4.319,4.319,0,0,1,3.256,1.5,4.7,4.7,0,0,1,1.4,3.256L18.3,37.293a14.432,14.432,0,0,0,.414,3.308,29.117,29.117,0,0,0,.935,3.206A20.093,20.093,0,0,1,11.783,41.787Zm24.395-3.67A4.717,4.717,0,0,1,35.144,40.8a5.05,5.05,0,0,1-3.411,1.865,6.588,6.588,0,0,1-3.256-1.758,3.842,3.842,0,0,1-1.189-2.687V14.346a5.141,5.141,0,0,1,1.241-3.361,3.874,3.874,0,0,1,3.1-1.5,4.122,4.122,0,0,1,3.255,1.5,4.9,4.9,0,0,1,1.293,3.256Z" transform="translate(0.002 -0.247)" fill="url(#linear-gradient-3)"/>
      <path id="Path_113846" data-name="Path 113846" d="M571.22,14.43V38.036a3.851,3.851,0,0,1-1.963,3.049,14.555,14.555,0,0,1-5.476,2.118,12.513,12.513,0,0,0,1.134-5.275V13.952a14.273,14.273,0,0,0-3.874-9.872,12.891,12.891,0,0,0-4.344-3A13.63,13.63,0,0,0,551.271,0a13.014,13.014,0,0,0-9.1,3.618A15.867,15.867,0,0,0,538.09,1.03,11.98,11.98,0,0,0,533.176,0,13.252,13.252,0,0,0,527.8,1.082a13.006,13.006,0,0,0-4.29,3,14.272,14.272,0,0,0-3.873,9.872V37.93A12.289,12.289,0,0,0,521.4,44.7a12.459,12.459,0,0,0,4.808,4.341,24.433,24.433,0,0,0,7.237,2.325,53.026,53.026,0,0,0,9.044.724q2.792,0,4.962-.155a24.632,24.632,0,0,0,4.238-.668q1.758.311,3.873.517t4.5.207q20.257,0,20.26-14.782V14.43ZM531.417,41.5q-2.579-1.5-2.578-3.569V13.952a5.006,5.006,0,0,1,1.24-3.256,3.86,3.86,0,0,1,3.1-1.5,4.318,4.318,0,0,1,3.256,1.5,4.7,4.7,0,0,1,1.4,3.256l.1,23.051a14.4,14.4,0,0,0,.414,3.307,29.338,29.338,0,0,0,.935,3.206,19.921,19.921,0,0,1-7.856-2.017Zm24.395-3.669a4.725,4.725,0,0,1-1.034,2.687,5.016,5.016,0,0,1-3.4,1.861,6.566,6.566,0,0,1-3.256-1.756,3.806,3.806,0,0,1-1.183-2.691V14.054a5.137,5.137,0,0,1,1.241-3.359,3.876,3.876,0,0,1,3.1-1.5,4.122,4.122,0,0,1,3.25,1.5,4.9,4.9,0,0,1,1.293,3.256Z" transform="translate(-450.231 0.004)" fill="url(#linear-gradient-4)"/>
      <path id="Path_113847" data-name="Path 113847" d="M395.984,38.227a15.069,15.069,0,0,1-3.943,9.975q-3.735,4.082-10.787,4.083a15.681,15.681,0,0,1-6.278-1.189,14.912,14.912,0,0,1-4.668-3.1,12.705,12.705,0,0,1-2.9-4.444,14.549,14.549,0,0,1-.986-5.324V30.268h9.1v7.959a4.448,4.448,0,0,0,1.408,3.256,6.471,6.471,0,0,0,4.226,1.6,5.825,5.825,0,0,0,4.274-1.447,4.645,4.645,0,0,0,1.46-3.411V14.349a4.707,4.707,0,0,0-1.46-3.361,5.7,5.7,0,0,0-4.274-1.5,6.658,6.658,0,0,0-4.226,1.551,4.395,4.395,0,0,0-1.408,3.308v7.959h-9.1V14.349a14.548,14.548,0,0,1,.986-5.324,12.722,12.722,0,0,1,2.9-4.445,14.96,14.96,0,0,1,4.668-3.1A15.73,15.73,0,0,1,381.256.29q7.052,0,10.787,4.083a15.075,15.075,0,0,1,3.943,9.976Z" transform="translate(-317.477 -0.251)" fill="url(#linear-gradient-5)"/>
      <path id="Path_113848" data-name="Path 113848" d="M3.355,505.445q-.632-1.233-1.535-3.5T.06,496.815a1.813,1.813,0,0,1,.6-.465,1.776,1.776,0,0,1,.8-.188,1.47,1.47,0,0,1,.906.267,1.9,1.9,0,0,1,.578.919q.68,2.038,1.409,4.007t1.6,4.089h.1q.377-.8.767-1.887t.768-2.289q.377-1.2.7-2.452t.578-2.378a3.011,3.011,0,0,1,.522-.2,2.242,2.242,0,0,1,.617-.075,1.584,1.584,0,0,1,.935.267.935.935,0,0,1,.377.817,9.162,9.162,0,0,1-.339,2q-.339,1.349-.894,2.969T8.841,505.5a31.851,31.851,0,0,1-1.409,2.938,21.14,21.14,0,0,1-2.271,3.371,2.74,2.74,0,0,1-1.931,1.157,1.565,1.565,0,0,1-1.119-.39,1.223,1.223,0,0,1-.3-.371.969.969,0,0,1,.182-.852c.11-.142.275-.351.482-.6.446-.534.609-.661.956-1.082q.477-.58.906-1.194a11.369,11.369,0,0,0,.729-1.2,2.147,2.147,0,0,1-.829-.49A4.591,4.591,0,0,1,3.355,505.445Z" transform="translate(-0.052 -429.89)" fill="url(#linear-gradient-6)"/>
      <path id="Path_113849" data-name="Path 113849" d="M228,460.969a1.469,1.469,0,0,1,.453-1.1,1.6,1.6,0,0,1,1.158-.439,1.536,1.536,0,1,1,0,3.072,1.591,1.591,0,0,1-1.158-.439A1.469,1.469,0,0,1,228,460.969Z" transform="translate(-197.543 -398.067)" fill="url(#linear-gradient-7)"/>
      <path id="Path_113850" data-name="Path 113850" d="M402.253,495.408a6.144,6.144,0,0,1,3.722,1.019,3.716,3.716,0,0,1,1.384,3.206v5.861a1.351,1.351,0,0,1-.267.894,2.87,2.87,0,0,1-.716.592,7.105,7.105,0,0,1-1.684.662,9.211,9.211,0,0,1-2.39.267,6.586,6.586,0,0,1-3.812-.956,3.212,3.212,0,0,1-1.37-2.818,3.1,3.1,0,0,1,1.068-2.538,5.689,5.689,0,0,1,3.083-1.082l3.5-.353v-.553a1.831,1.831,0,0,0-.717-1.611,3.438,3.438,0,0,0-2-.508,6.768,6.768,0,0,0-1.938.278,11.083,11.083,0,0,0-1.66.629,1.854,1.854,0,0,1-.427-.491,1.2,1.2,0,0,1-.176-.641,1.115,1.115,0,0,1,.214-.7,1.686,1.686,0,0,1,.668-.478,5.926,5.926,0,0,1,1.611-.516A10.7,10.7,0,0,1,402.253,495.408Zm.049,10.441a5.934,5.934,0,0,0,1.535-.176,3,3,0,0,0,.935-.377V502.1l-2.742.277a3.928,3.928,0,0,0-1.736.516,1.34,1.34,0,0,0-.578,1.2,1.523,1.523,0,0,0,.629,1.3A3.3,3.3,0,0,0,402.3,505.849Z" transform="translate(-344.077 -429.237)" fill="url(#linear-gradient-8)"/>
      <path id="Path_113851" data-name="Path 113851" d="M615.422,565.32a1.709,1.709,0,0,1,.439-1.2,1.813,1.813,0,0,1,2.454,0,1.919,1.919,0,0,1,0,2.415,1.813,1.813,0,0,1-2.454,0A1.712,1.712,0,0,1,615.422,565.32Z" transform="translate(-533.22 -488.355)" fill="url(#linear-gradient-9)"/>
      <path id="Path_113852" data-name="Path 113852" d="M782.729,495.409a6.14,6.14,0,0,1,3.723,1.019,3.721,3.721,0,0,1,1.384,3.206v5.861a1.33,1.33,0,0,1-.267.894,2.905,2.905,0,0,1-.717.592,7.12,7.12,0,0,1-1.677.662,9.215,9.215,0,0,1-2.391.267,6.58,6.58,0,0,1-3.811-.956,3.219,3.219,0,0,1-1.372-2.818,3.1,3.1,0,0,1,1.069-2.538,5.687,5.687,0,0,1,3.081-1.082l3.5-.353v-.553a1.83,1.83,0,0,0-.717-1.611,3.436,3.436,0,0,0-2-.5,6.763,6.763,0,0,0-1.937.278,11.039,11.039,0,0,0-1.662.629,1.878,1.878,0,0,1-.427-.492,1.2,1.2,0,0,1-.176-.641,1.118,1.118,0,0,1,.215-.7,1.679,1.679,0,0,1,.668-.478,5.9,5.9,0,0,1,1.609-.516A10.707,10.707,0,0,1,782.729,495.409Zm.049,10.441a5.928,5.928,0,0,0,1.535-.176,3,3,0,0,0,.935-.377V502.1l-2.742.276a3.929,3.929,0,0,0-1.736.516,1.34,1.34,0,0,0-.578,1.2,1.523,1.523,0,0,0,.629,1.3,3.32,3.32,0,0,0,1.962.465Z" transform="translate(-673.738 -429.238)" fill="url(#linear-gradient-10)"/>
      <path id="Path_113853" data-name="Path 113853" d="M1004.2,460.968a1.461,1.461,0,0,1,.453-1.1,1.592,1.592,0,0,1,1.157-.439,1.536,1.536,0,0,1,0,3.072,1.587,1.587,0,0,1-1.157-.439A1.459,1.459,0,0,1,1004.2,460.968Z" transform="translate(-870.068 -398.067)" fill="url(#linear-gradient-11)"/>
      <path id="Path_113854" data-name="Path 113854" d="M229.788,497h.948a.848.848,0,0,1,.848.848v10.275a.935.935,0,0,1-.935.935h-1.71v-11.2a.848.848,0,0,1,.848-.853Z" transform="translate(-198.361 -430.616)" fill="url(#linear-gradient-12)"/>
      <path id="Path_113855" data-name="Path 113855" d="M1006.989,497h.948a.848.848,0,0,1,.848.848v10.275a.935.935,0,0,1-.935.935h-1.711v-11.2a.848.848,0,0,1,.849-.853Z" transform="translate(-871.752 -430.616)" fill="url(#linear-gradient-13)"/>
    </g>
  </g>
</svg>
