<svg xmlns="http://www.w3.org/2000/svg" width="69.943" height="97.462" viewBox="0 0 69.943 97.462">
  <g id="medal_1_" data-name="medal (1)" transform="translate(-72)">
    <path id="Path_91570" data-name="Path 91570" d="M153.955,3.847,142.323,35.809a2.87,2.87,0,0,1-2.695,1.886c-.548,0,.737.306-16.695-4.449-.276.092,1.835-.524-15.848,4.531A2.869,2.869,0,0,1,103.6,36L91.9,3.847A2.869,2.869,0,0,1,94.6,0h17.9a2.866,2.866,0,0,1,2.695,1.886l7.742,21.268L130.67,1.886A2.866,2.866,0,0,1,133.364,0h17.9a2.869,2.869,0,0,1,2.695,3.847Z" transform="translate(-15.956 0)" fill="#4a696f"/>
    <path id="Path_91571" data-name="Path 91571" d="M286.008,3.847,274.376,35.809a2.87,2.87,0,0,1-2.695,1.886c-.548,0,.737.306-16.695-4.449-.019.006-.006.453-.006-10.092l7.742-21.268A2.867,2.867,0,0,1,265.417,0h17.9a2.869,2.869,0,0,1,2.695,3.847Z" transform="translate(-148.009 0)" fill="#384949"/>
    <path id="Path_91572" data-name="Path 91572" d="M141.943,178.975a34.972,34.972,0,1,1-34.523-34.968,34.181,34.181,0,0,1,17.738,4.854C135.836,155.336,141.943,167.7,141.943,178.975Z" transform="translate(0 -116.485)" fill="#fed843"/>
    <path id="Path_91573" data-name="Path 91573" d="M255,214.081V144.17c.106.106,20.455-1.545,30.851,18.59A34.924,34.924,0,0,1,255,214.081Z" transform="translate(-148.028 -116.619)" fill="#fabe2c"/>
    <path id="Path_91574" data-name="Path 91574" d="M185.49,230.485l-9.633,7.1,3.684,11.493a2.87,2.87,0,0,1-4.428,3.184l-9.6-7.065-9.6,7.065a2.869,2.869,0,0,1-4.428-3.184l3.684-11.493-9.633-7.1a2.869,2.869,0,0,1,1.7-5.175h11.869l3.675-11.464a2.868,2.868,0,0,1,5.458,0l3.675,11.464h11.869A2.869,2.869,0,0,1,185.49,230.485Z" transform="translate(-58.546 -171.373)" fill="#fabe2c"/>
    <path id="Path_91575" data-name="Path 91575" d="M274.972,230.461l-9.633,7.1,3.684,11.493a2.87,2.87,0,0,1-4.428,3.184l-9.6-7.065V211.83a2.865,2.865,0,0,1,2.729,1.991l3.675,11.464h11.869A2.869,2.869,0,0,1,274.972,230.461Z" transform="translate(-148.028 -171.349)" fill="#ff9100"/>
  </g>
</svg>
