<svg xmlns="http://www.w3.org/2000/svg" width="229.697" height="30.719" viewBox="0 0 229.697 30.719">
  <g id="Mekhala" style="isolation: isolate">
    <path id="Path_106071" data-name="Path 106071" d="M637.575,980.654a3.375,3.375,0,0,1,1.272-.589,8.729,8.729,0,0,1,2.02-.186,7.642,7.642,0,0,1,1.953.238,5.5,5.5,0,0,1,1.56.661,3.674,3.674,0,0,1,1.052.99,2.1,2.1,0,0,1,.395,1.229v2.567a1.824,1.824,0,0,1-.5,1.229,4.618,4.618,0,0,1-1.359,1.01,7.875,7.875,0,0,1-2.064.679,13.366,13.366,0,0,1-2.568.238,12.946,12.946,0,0,1-2.546-.238,7.865,7.865,0,0,1-2.041-.676,4.6,4.6,0,0,1-1.361-1,1.807,1.807,0,0,1-.5-1.224V973.085a1.809,1.809,0,0,1,.5-1.224,4.622,4.622,0,0,1,1.361-1,7.911,7.911,0,0,1,2.041-.676,12.955,12.955,0,0,1,2.546-.238,13.3,13.3,0,0,1,2.568.238,7.923,7.923,0,0,1,2.064.676,4.63,4.63,0,0,1,1.359,1,1.814,1.814,0,0,1,.5,1.224v2.557a2.088,2.088,0,0,1-.395,1.224,3.662,3.662,0,0,1-1.052.986,5.524,5.524,0,0,1-1.56.658,7.594,7.594,0,0,1-1.953.237,8.737,8.737,0,0,1-2.02-.185,3.376,3.376,0,0,1-1.272-.591Zm0-6.2a.673.673,0,0,0,.483.611,3.312,3.312,0,0,0,1.317.214,3.168,3.168,0,0,0,1.273-.214.675.675,0,0,0,.483-.611v-.214a.673.673,0,0,0-.483-.609,3.169,3.169,0,0,0-1.273-.215,3.313,3.313,0,0,0-1.317.215.672.672,0,0,0-.483.609Zm0,9.957a.681.681,0,0,0,.483.621,3.249,3.249,0,0,0,1.317.219,3.108,3.108,0,0,0,1.273-.219.683.683,0,0,0,.483-.621v-.219a.684.684,0,0,0-.483-.621,3.11,3.11,0,0,0-1.273-.219,3.251,3.251,0,0,0-1.317.219.682.682,0,0,0-.483.621Z" transform="translate(-632.878 -963.442)" fill="#fff"/>
    <path id="Path_106072" data-name="Path 106072" d="M653.532,980.478a4.246,4.246,0,0,0,1.447-1.712,3.9,3.9,0,0,0,.265-1.165v-3.35c0-.267-.27-.473-.8-.618a6.187,6.187,0,0,0-1.632-.219,5.4,5.4,0,0,0-1.5.219q-.761.219-.761.621v6.5q0,.511-.812.785a5.257,5.257,0,0,1-1.69.274,3.967,3.967,0,0,1-1.536-.274q-.659-.274-.66-.785v-7.671a1.656,1.656,0,0,1,.614-1.224,5.877,5.877,0,0,1,1.6-1,10.244,10.244,0,0,1,2.261-.676,13.885,13.885,0,0,1,5.115,0,10.745,10.745,0,0,1,2.261.676,5.8,5.8,0,0,1,1.624,1,1.656,1.656,0,0,1,.615,1.224v3.432a3.576,3.576,0,0,1,1.338.312q.594.274.594.749v9.972c0,.341-.237.6-.707.785a4.25,4.25,0,0,1-1.547.274H645.85a1.05,1.05,0,0,1-.943-.516,2.22,2.22,0,0,1-.329-1.219,2.2,2.2,0,0,1,.329-1.237,1.061,1.061,0,0,1,.943-.5h.395a3.052,3.052,0,0,0,1.45-.436,7.747,7.747,0,0,0,1.14-.73Zm3.643,4.661v-3l-2.9,2.13c-.321.24-.54.414-.657.524s-.2.18-.243.216-.065.06-.065.072-.045.029-.132.054Z" transform="translate(-630.312 -963.442)" fill="#fff"/>
    <path id="Path_106073" data-name="Path 106073" d="M675.23,975.316a1.3,1.3,0,0,0-.662-1.151,4.929,4.929,0,0,0-1.52-.621,9.29,9.29,0,0,0-1.719-.237c-.573-.024-1.007-.037-1.3-.037s-.735.012-1.324.037a9.351,9.351,0,0,0-1.741.237,4.642,4.642,0,0,0-1.5.621,1.312,1.312,0,0,0-.64,1.151l.038.146a2.946,2.946,0,0,1,1.463-.584,14.6,14.6,0,0,1,1.856-.11,7.414,7.414,0,0,1,1.749.2,4.171,4.171,0,0,1,1.464.657,3.206,3.206,0,0,1,1,1.205,4.018,4.018,0,0,1,.373,1.808v6.94a1.913,1.913,0,0,1-.46,1.224,4.044,4.044,0,0,1-1.312,1,7.873,7.873,0,0,1-2.012.676,12.568,12.568,0,0,1-2.515.237,12.8,12.8,0,0,1-2.56-.237,7.477,7.477,0,0,1-1.989-.676,4.387,4.387,0,0,1-1.314-1,1.86,1.86,0,0,1-.48-1.224V975.462a4.7,4.7,0,0,1,.745-2.7,5.252,5.252,0,0,1,2.08-1.752,10.766,10.766,0,0,1,3.154-.932,26.344,26.344,0,0,1,3.92-.275,28.46,28.46,0,0,1,4.16.275,9.94,9.94,0,0,1,3.109.932,4.86,4.86,0,0,1,1.95,1.752,5.05,5.05,0,0,1,.678,2.7v7.378a4.79,4.79,0,0,1-.173,1.443,2.043,2.043,0,0,1-.522.858h4.032V970.9c0-.365.23-.639.7-.822a4.645,4.645,0,0,1,1.7-.275,4.333,4.333,0,0,1,1.63.275c.451.183.674.457.674.822v16.656q0,.511-.679.785a4.421,4.421,0,0,1-1.647.274H674.308a1.057,1.057,0,0,1-.945-.511,2.19,2.19,0,0,1-.329-1.205,2.218,2.218,0,0,1,.337-1.243,1.087,1.087,0,0,1,.963-.51.792.792,0,0,0,.627-.329,1.183,1.183,0,0,0,.269-.767Zm-7.155,3.908q0-.986-1.647-.986a3.012,3.012,0,0,0-1.068.2.722.722,0,0,0-.534.712v5.223q0,.877,1.6.877,1.646,0,1.647-.877Z" transform="translate(-626.902 -963.445)" fill="#fff"/>
    <path id="Path_106074" data-name="Path 106074" d="M700.766,985.139V971c0-.341.235-.6.7-.783a4.736,4.736,0,0,1,1.713-.274,4.28,4.28,0,0,1,1.6.274c.452.183.682.444.682.785V987.55c0,.341-.229.6-.682.785a4.277,4.277,0,0,1-1.6.274h-16.5a4.276,4.276,0,0,1-1.6-.274c-.455-.183-.68-.444-.68-.785V973.085a1.77,1.77,0,0,1,.527-1.224,4.806,4.806,0,0,1,1.427-1,8.628,8.628,0,0,1,2.107-.676,13.532,13.532,0,0,1,2.612-.238,13.292,13.292,0,0,1,2.568.238,8.646,8.646,0,0,1,2.107.676,4.809,4.809,0,0,1,1.427,1,1.77,1.77,0,0,1,.527,1.224v6.794a2.891,2.891,0,0,1-.724,2.1,2.48,2.48,0,0,1-1.864.749H689.09v2.411Zm-11.676-5.808h3.074a.7.7,0,0,0,.591-.347,1.281,1.281,0,0,0,.241-.749v-3.982q0-.4-.572-.621a3.928,3.928,0,0,0-1.4-.219,3.793,3.793,0,0,0-1.361.219c-.382.146-.571.353-.571.621Z" transform="translate(-621.581 -963.442)" fill="#fff"/>
    <path id="Path_106075" data-name="Path 106075" d="M708.2,969.944a8.283,8.283,0,0,1,2.348.329,4.355,4.355,0,0,1,2.085,1.5,3.7,3.7,0,0,1,1.141-.931,7.022,7.022,0,0,1,1.383-.548,8.732,8.732,0,0,1,1.4-.274,11.823,11.823,0,0,1,1.252-.073c.028,0,.344.018.944.055a7.539,7.539,0,0,1,1.931.4,5.669,5.669,0,0,1,1.888,1.081,2.6,2.6,0,0,1,.856,2.086v8.02a5.045,5.045,0,0,1-.462,2.086,3.579,3.579,0,0,1-1.294,1.575h1.053a5.438,5.438,0,0,0,1.756-.22,1.922,1.922,0,0,0,.9-.585,1.607,1.607,0,0,0,.328-.879q.046-.511.045-1.134V971.005q0-.511.7-.786a4.7,4.7,0,0,1,1.711-.275,4.269,4.269,0,0,1,1.6.274c.454.183.682.444.682.785v12.675a4.775,4.775,0,0,1-.527,2.338,4.25,4.25,0,0,1-1.492,1.552,6.952,6.952,0,0,1-2.326.876,15.405,15.405,0,0,1-3.03.274,26.679,26.679,0,0,1-3.4-.2,11.468,11.468,0,0,1-2.831-.712,12.859,12.859,0,0,1-2.9.731,24.982,24.982,0,0,1-3.424.219,15.384,15.384,0,0,1-3.029-.274,6.94,6.94,0,0,1-2.326-.876,4.235,4.235,0,0,1-1.492-1.552,4.763,4.763,0,0,1-.528-2.338V973.524a3,3,0,0,1,1.45-2.612A6.338,6.338,0,0,1,708.2,969.944Zm1.974,4.2a.666.666,0,0,0-.371-.566,1.813,1.813,0,0,0-.812-.164,1.452,1.452,0,0,0-.791.22.693.693,0,0,0-.351.623v8.207q0,.622.044,1.135a1.612,1.612,0,0,0,.329.88,1.923,1.923,0,0,0,.9.585,5.425,5.425,0,0,0,1.755.22,2.879,2.879,0,0,1,.528-.018,1.884,1.884,0,0,0,.439-.018,4.5,4.5,0,0,1-1.207-1.644,5.024,5.024,0,0,1-.462-2.082Zm8.561,1.607a2.244,2.244,0,0,0-.527-1.735,2.072,2.072,0,0,0-1.4-.458,2.3,2.3,0,0,0-1.361.4q-.572.4-.571,1.753V981.3a3.59,3.59,0,0,0,.372,1.5,3.155,3.155,0,0,0,1.559,1.388,3.133,3.133,0,0,0,1.932-2.849Z" transform="translate(-617.469 -963.442)" fill="#fff"/>
    <path id="Path_106076" data-name="Path 106076" d="M729.831,967.846q0-.84-1.537-.84-1.4,0-1.4.84v.84c0,.365-.228.633-.682.8a4.831,4.831,0,0,1-1.689.256,4.729,4.729,0,0,1-1.624-.256q-.7-.256-.7-.8v-2.009a1.959,1.959,0,0,1,.44-1.224,3.9,3.9,0,0,1,1.25-1,7.213,7.213,0,0,1,1.954-.676,12.282,12.282,0,0,1,2.5-.237,9.513,9.513,0,0,1,4.477.913q1.712.913,1.713,2.228v21.076c0,.341-.235.6-.7.785a4.72,4.72,0,0,1-1.712.274,4.269,4.269,0,0,1-1.6-.274q-.68-.274-.68-.785Z" transform="translate(-613.292 -963.536)" fill="#fff"/>
    <path id="Path_106077" data-name="Path 106077" d="M738.158,980.654a3.362,3.362,0,0,1,1.271-.589,8.731,8.731,0,0,1,2.02-.186,7.642,7.642,0,0,1,1.953.238,5.492,5.492,0,0,1,1.559.661,3.671,3.671,0,0,1,1.052.99,2.1,2.1,0,0,1,.4,1.229v2.567a1.824,1.824,0,0,1-.5,1.229,4.618,4.618,0,0,1-1.359,1.01,7.875,7.875,0,0,1-2.064.679,13.367,13.367,0,0,1-2.568.238,12.952,12.952,0,0,1-2.546-.238,7.865,7.865,0,0,1-2.041-.676,4.6,4.6,0,0,1-1.361-1,1.807,1.807,0,0,1-.5-1.224V973.085a1.809,1.809,0,0,1,.5-1.224,4.62,4.62,0,0,1,1.361-1,7.911,7.911,0,0,1,2.041-.676,12.961,12.961,0,0,1,2.546-.238,13.3,13.3,0,0,1,2.568.238,7.922,7.922,0,0,1,2.064.676,4.63,4.63,0,0,1,1.359,1,1.814,1.814,0,0,1,.5,1.224v2.557a2.086,2.086,0,0,1-.4,1.224,3.659,3.659,0,0,1-1.052.986,5.521,5.521,0,0,1-1.559.658,7.6,7.6,0,0,1-1.953.237,8.739,8.739,0,0,1-2.02-.185,3.363,3.363,0,0,1-1.271-.591Zm0-6.2a.672.672,0,0,0,.482.611,3.312,3.312,0,0,0,1.317.214,3.168,3.168,0,0,0,1.273-.214.676.676,0,0,0,.484-.611v-.214a.675.675,0,0,0-.484-.609,3.169,3.169,0,0,0-1.273-.215,3.313,3.313,0,0,0-1.317.215.67.67,0,0,0-.482.609Zm0,9.957a.68.68,0,0,0,.482.621,3.249,3.249,0,0,0,1.317.219,3.108,3.108,0,0,0,1.273-.219.684.684,0,0,0,.484-.621v-.219a.685.685,0,0,0-.484-.621,3.11,3.11,0,0,0-1.273-.219,3.251,3.251,0,0,0-1.317.219.681.681,0,0,0-.482.621Z" transform="translate(-610.821 -963.442)" fill="#fff"/>
    <path id="Path_106078" data-name="Path 106078" d="M761.749,985.139V971q0-.511.7-.783a4.728,4.728,0,0,1,1.712-.274,4.287,4.287,0,0,1,1.6.274c.452.183.68.444.68.785V987.55c0,.341-.228.6-.68.785a4.285,4.285,0,0,1-1.6.274h-16.5a4.269,4.269,0,0,1-1.6-.274q-.682-.274-.682-.785V973.085a1.772,1.772,0,0,1,.528-1.224,4.793,4.793,0,0,1,1.427-1,8.617,8.617,0,0,1,2.106-.676,13.537,13.537,0,0,1,2.613-.238,13.275,13.275,0,0,1,2.567.238,8.673,8.673,0,0,1,2.108.676,4.822,4.822,0,0,1,1.427,1,1.768,1.768,0,0,1,.526,1.224v6.794a2.891,2.891,0,0,1-.724,2.1,2.48,2.48,0,0,1-1.864.749h-6.013v2.411Zm-11.676-5.808h3.072a.7.7,0,0,0,.591-.347,1.282,1.282,0,0,0,.243-.749v-3.982c0-.268-.191-.475-.572-.621a3.934,3.934,0,0,0-1.4-.219,3.8,3.8,0,0,0-1.362.219c-.38.146-.569.353-.569.621Z" transform="translate(-608.209 -963.442)" fill="#fff"/>
    <path id="Path_106079" data-name="Path 106079" d="M784.789,975.752h1.8v-.218a4.757,4.757,0,0,1,.7-2.667,5.047,5.047,0,0,1,1.974-1.724,9.944,9.944,0,0,1,3.051-.925,25.727,25.727,0,0,1,3.886-.273,26.856,26.856,0,0,1,4.058.274,9.391,9.391,0,0,1,3.008.932,4.636,4.636,0,0,1,1.864,1.735,5.2,5.2,0,0,1,.639,2.685v12.09c0,.341-.235.6-.7.785a4.451,4.451,0,0,1-1.624.274,4.551,4.551,0,0,1-1.691-.274c-.452-.182-.682-.444-.682-.785V975.423a1.277,1.277,0,0,0-.615-1.132,4.593,4.593,0,0,0-1.425-.6,8.366,8.366,0,0,0-1.624-.237c-.541-.023-.944-.036-1.206-.036-.293,0-.719.012-1.274.035a8.47,8.47,0,0,0-1.645.234,4.367,4.367,0,0,0-1.406.594,1.265,1.265,0,0,0-.593,1.114v.36h2.458a8,8,0,0,1,1.8.2,4.593,4.593,0,0,1,1.558.66,3.658,3.658,0,0,1,1.119,1.208,3.538,3.538,0,0,1,.44,1.813v5.934a2.63,2.63,0,0,1-1.624,2.235,8.961,8.961,0,0,1-4.39.915,9.1,9.1,0,0,1-4.413-.913,2.623,2.623,0,0,1-1.646-2.228v-6.355h-1.8v6.355a1.773,1.773,0,0,1-.527,1.224,4.756,4.756,0,0,1-1.427,1,8.575,8.575,0,0,1-2.129.676,13.631,13.631,0,0,1-2.59.238,12.755,12.755,0,0,1-2.874-.31,8.928,8.928,0,0,1-2.218-.785,5.949,5.949,0,0,1-1.624.822,7.051,7.051,0,0,1-2.239.311,7.363,7.363,0,0,1-1.8-.22,4.872,4.872,0,0,1-1.579-.7,4.023,4.023,0,0,1-1.142-1.155,2.929,2.929,0,0,1-.439-1.629V979.3a2.952,2.952,0,0,1,1.471-2.6,6.7,6.7,0,0,1,3.709-.953h2.108v-2.686a1.752,1.752,0,0,1,.526-1.217,4.794,4.794,0,0,1,1.427-1,8.651,8.651,0,0,1,2.108-.673,13.359,13.359,0,0,1,2.567-.235,13.734,13.734,0,0,1,2.59.235,8.623,8.623,0,0,1,2.129.673,4.764,4.764,0,0,1,1.427,1,1.758,1.758,0,0,1,.527,1.217Zm-13.3,3.47h-.967a2.058,2.058,0,0,0-1.251.292,1.089,1.089,0,0,0-.373.913v4.018q0,.842,1.141.84a1.267,1.267,0,0,0,1.273-.8,2.207,2.207,0,0,0,.154-.676c.016-.23.023-.42.023-.566Zm4.7-3.47h3.907v-1.511c0-.263-.19-.468-.57-.611a4.13,4.13,0,0,0-1.449-.216,3.693,3.693,0,0,0-1.316.216c-.38.143-.572.348-.572.611Zm3.907,3.47h-3.907v5.187c0,.269.191.475.572.621a3.646,3.646,0,0,0,1.316.219,4.076,4.076,0,0,0,1.449-.219c.38-.146.57-.352.57-.621Zm11.193,0v5.187a.736.736,0,0,0,.285.621,1.771,1.771,0,0,0,1.032.219q1.361,0,1.36-.84v-3.945a1.176,1.176,0,0,0-1.36-1.242Z" transform="translate(-604.08 -963.442)" fill="#fff"/>
    <path id="Path_106080" data-name="Path 106080" d="M805.43,974.218q-.09-.8-1.492-.8a.993.993,0,0,1-.944-.511,2.42,2.42,0,0,1-.285-1.205,2.369,2.369,0,0,1,.307-1.242,1.044,1.044,0,0,1,.966-.511,9.222,9.222,0,0,1,4.455.932,2.665,2.665,0,0,1,1.69,2.246l-1.757,10.52a6.194,6.194,0,0,1,2.613,1.023,2.108,2.108,0,0,1,.986,1.717v4.638a2.538,2.538,0,0,1-1.6,2.32,9.673,9.673,0,0,1-4.368.822,9.816,9.816,0,0,1-4.391-.822,2.52,2.52,0,0,1-1.624-2.283v-4.639a2.158,2.158,0,0,1,.989-1.625,6.457,6.457,0,0,1,2.7-1.151Zm-.746,15.743a.741.741,0,0,0,.2.511q.2.219,1.075.219a2.264,2.264,0,0,0,1.032-.164.6.6,0,0,0,.285-.566v-2.447a.6.6,0,0,0-.285-.566,2.26,2.26,0,0,0-1.032-.164,2.1,2.1,0,0,0-1.009.164.614.614,0,0,0-.263.566Z" transform="translate(-596.233 -963.442)" fill="#fff"/>
    <path id="Path_106081" data-name="Path 106081" d="M811.039,978.781a1.9,1.9,0,0,1,.461-1.226,3.971,3.971,0,0,1,1.273-.99,7.617,7.617,0,0,1,1.953-.658,12.452,12.452,0,0,1,2.546-.239,12.207,12.207,0,0,1,2.5.239,8.017,8.017,0,0,1,1.975.658,3.939,3.939,0,0,1,1.3.99,1.9,1.9,0,0,1,.461,1.226v6.7a1.909,1.909,0,0,1-.461,1.228,4.138,4.138,0,0,1-1.3,1.008,7.546,7.546,0,0,1-1.975.678,12.287,12.287,0,0,1-2.5.238,9.631,9.631,0,0,1-4.5-.915q-1.734-.916-1.734-2.235Zm4.7,5.544q0,.842,1.491.84,1.58,0,1.58-.84v-4.347q0-.84-1.58-.84-1.493,0-1.491.84Z" transform="translate(-593.809 -963.359)" fill="#fff"/>
  </g>
</svg>
