<svg xmlns="http://www.w3.org/2000/svg" xmlns:xlink="http://www.w3.org/1999/xlink" width="158" height="75" viewBox="0 0 158 75">
  <defs>
    <clipPath id="clip-path">
      <rect id="Rectangle_17972" data-name="Rectangle 17972" width="158" height="75" transform="translate(1053.346 743.434)" fill="#fff" opacity="0.379"/>
    </clipPath>
  </defs>
  <g id="Mask_Group_282" data-name="Mask Group 282" transform="translate(-1053.346 -743.434)" clip-path="url(#clip-path)">
    <g id="Padikkam" transform="translate(1055.346 760.434)" style="isolation: isolate">
      <path id="Path_106062" data-name="Path 106062" d="M1329.662,870.053a8.913,8.913,0,0,1-.233,2.282,3.349,3.349,0,0,1-.692,1.358h4.968V851.328a1.35,1.35,0,0,1,.9-1.241,5.109,5.109,0,0,1,2.225-.432,5.011,5.011,0,0,1,2.138.432,1.361,1.361,0,0,1,.924,1.244v26.176a1.358,1.358,0,0,1-.924,1.242,4.985,4.985,0,0,1-2.138.432h-14.5a1.349,1.349,0,0,1-1.242-.815,4.065,4.065,0,0,1-.433-1.929,4.017,4.017,0,0,1,.433-1.955,1.356,1.356,0,0,1,1.242-.788.977.977,0,0,0,.808-.517,2.1,2.1,0,0,0,.348-1.207v-6.316q0-1.322-2.311-1.323-2.2,0-2.2,1.331V877.68a1.357,1.357,0,0,1-.926,1.242,5.275,5.275,0,0,1-2.254.433,4.786,4.786,0,0,1-2.107-.435,1.355,1.355,0,0,1-.9-1.245V863.767a3.272,3.272,0,0,1,.636-1.939,5.62,5.62,0,0,1,1.762-1.567,9.8,9.8,0,0,1,2.656-1.042,14.116,14.116,0,0,1,3.382-.377,14.319,14.319,0,0,1,3.352.375,9.824,9.824,0,0,1,2.687,1.039,5.61,5.61,0,0,1,1.761,1.562,3.282,3.282,0,0,1,.637,1.936Z" transform="translate(-1312.789 -839.369)" fill="#fff"/>
      <path id="Path_106063" data-name="Path 106063" d="M1349.323,874.475a2.956,2.956,0,0,1-.751,1.936,6.826,6.826,0,0,1-2.016,1.588,11.061,11.061,0,0,1-2.937,1.069,16.152,16.152,0,0,1-6.941,0,11.165,11.165,0,0,1-2.908-1.069,6.886,6.886,0,0,1-2.016-1.588,2.961,2.961,0,0,1-.748-1.936V854.481a2.958,2.958,0,0,1,.748-1.936,6.912,6.912,0,0,1,2.016-1.589,11.278,11.278,0,0,1,2.908-1.069,16.152,16.152,0,0,1,6.941,0,11.17,11.17,0,0,1,2.937,1.069,6.852,6.852,0,0,1,2.016,1.589,2.953,2.953,0,0,1,.751,1.936Zm-6.184-18.086c0-.424-.31-.761-.934-1.011a5.57,5.57,0,0,0-2.1-.376,5.268,5.268,0,0,0-1.984.376q-.931.375-.932,1.011v16.18q0,.636.932,1.011a5.267,5.267,0,0,0,1.984.376,5.568,5.568,0,0,0,2.1-.376c.624-.25.934-.588.934-1.011Z" transform="translate(-1301.766 -839.457)" fill="#fff"/>
      <path id="Path_106064" data-name="Path 106064" d="M1348.836,850.066q0-1.329-2.024-1.329-1.849,0-1.847,1.329v1.329a1.335,1.335,0,0,1-.9,1.271,5.393,5.393,0,0,1-2.224.4,5.3,5.3,0,0,1-2.138-.4,1.338,1.338,0,0,1-.924-1.271v-3.18a3.492,3.492,0,0,1,.579-1.934,5.45,5.45,0,0,1,1.645-1.589,8.5,8.5,0,0,1,2.573-1.069,13.545,13.545,0,0,1,3.292-.376,10.78,10.78,0,0,1,5.894,1.444,4.163,4.163,0,0,1,2.254,3.523v33.343a1.355,1.355,0,0,1-.924,1.242,5.279,5.279,0,0,1-2.254.433,4.786,4.786,0,0,1-2.108-.433,1.35,1.35,0,0,1-.9-1.242Z" transform="translate(-1297.061 -843.247)" fill="#fff"/>
      <path id="Path_106065" data-name="Path 106065" d="M1377.294,858.843h2.371V858.5a8.726,8.726,0,0,1,.923-4.22,7.227,7.227,0,0,1,2.6-2.727,11.545,11.545,0,0,1,4.016-1.466,28.454,28.454,0,0,1,5.114-.43,29.733,29.733,0,0,1,5.345.432,10.993,10.993,0,0,1,3.958,1.474,6.764,6.764,0,0,1,2.455,2.746,9.611,9.611,0,0,1,.838,4.247V877.68a1.355,1.355,0,0,1-.924,1.242,4.987,4.987,0,0,1-2.138.433,5.084,5.084,0,0,1-2.224-.433,1.35,1.35,0,0,1-.9-1.242V858.323a2.147,2.147,0,0,0-.809-1.791,5.6,5.6,0,0,0-1.878-.953,9.328,9.328,0,0,0-2.138-.375c-.713-.037-1.242-.058-1.589-.058-.387,0-.944.019-1.674.056a9.554,9.554,0,0,0-2.168.369,5.3,5.3,0,0,0-1.847.941,2.128,2.128,0,0,0-.782,1.762v.57h3.236a8.835,8.835,0,0,1,2.369.319,5.574,5.574,0,0,1,2.051,1.043,5.5,5.5,0,0,1,1.474,1.912,6.507,6.507,0,0,1,.578,2.868v9.387a4.208,4.208,0,0,1-2.138,3.536,10.171,10.171,0,0,1-5.778,1.448,10.32,10.32,0,0,1-5.808-1.446,4.179,4.179,0,0,1-2.165-3.523V864.331h-2.371v10.056a3.109,3.109,0,0,1-.692,1.936,6.5,6.5,0,0,1-1.878,1.588,9.939,9.939,0,0,1-2.8,1.069,14.975,14.975,0,0,1-3.411.377,14.119,14.119,0,0,1-3.785-.491,10.551,10.551,0,0,1-2.918-1.242,7.444,7.444,0,0,1-2.138,1.3,7.893,7.893,0,0,1-2.947.491,8.145,8.145,0,0,1-2.369-.348,5.983,5.983,0,0,1-3.581-2.926,5.363,5.363,0,0,1-.581-2.579v-9.1a4.931,4.931,0,0,1,1.937-4.114,7.71,7.71,0,0,1,4.881-1.507h2.775v-4.249a3.079,3.079,0,0,1,.693-1.924,6.494,6.494,0,0,1,1.878-1.579,10.129,10.129,0,0,1,2.774-1.062,14.737,14.737,0,0,1,3.38-.372,15.151,15.151,0,0,1,3.411.372,10.135,10.135,0,0,1,2.8,1.063,6.56,6.56,0,0,1,1.878,1.579,3.079,3.079,0,0,1,.692,1.924Zm-17.509,5.488h-1.271a2.371,2.371,0,0,0-1.647.464,1.9,1.9,0,0,0-.491,1.445V872.6c0,.887.5,1.329,1.5,1.329a1.55,1.55,0,0,0,1.1-.376,2.1,2.1,0,0,0,.576-.9,3.962,3.962,0,0,0,.2-1.069c.019-.364.029-.665.029-.9Zm6.183-5.488h5.144v-2.39a1.066,1.066,0,0,0-.753-.966,4.621,4.621,0,0,0-1.907-.342,4.145,4.145,0,0,0-1.734.342,1.064,1.064,0,0,0-.751.966Zm5.144,5.488h-5.144v8.207a1.079,1.079,0,0,0,.751.982,4.1,4.1,0,0,0,1.734.347,4.564,4.564,0,0,0,1.907-.347,1.082,1.082,0,0,0,.753-.982Zm14.733,0v8.207a1.266,1.266,0,0,0,.377.982,2.012,2.012,0,0,0,1.356.347q1.792,0,1.792-1.329V866.3a2.358,2.358,0,0,0-.4-1.387,1.577,1.577,0,0,0-1.387-.579Z" transform="translate(-1290.156 -839.369)" fill="#fff"/>
      <path id="Path_106066" data-name="Path 106066" d="M1392.193,861.212a1.356,1.356,0,0,1-.925,1.242,5.28,5.28,0,0,1-2.253.433,4.8,4.8,0,0,1-2.109-.433,1.351,1.351,0,0,1-.894-1.242v-6.588a3.178,3.178,0,0,1,.665-1.936,6.248,6.248,0,0,1,1.79-1.589,9.28,9.28,0,0,1,2.687-1.069,14.3,14.3,0,0,1,3.351-.375,14.688,14.688,0,0,1,3.382.375,9.279,9.279,0,0,1,2.716,1.069,6.29,6.29,0,0,1,1.79,1.589,3.187,3.187,0,0,1,.665,1.936v19.762a3.184,3.184,0,0,1-.665,1.936,6.289,6.289,0,0,1-1.79,1.588,9.144,9.144,0,0,1-2.716,1.069,14.6,14.6,0,0,1-3.382.377,14.21,14.21,0,0,1-3.351-.377,9.143,9.143,0,0,1-2.687-1.069,6.247,6.247,0,0,1-1.79-1.588,3.174,3.174,0,0,1-.665-1.936v-6.645a1.353,1.353,0,0,1,.894-1.242,4.772,4.772,0,0,1,2.109-.433,5.254,5.254,0,0,1,2.253.433,1.357,1.357,0,0,1,.925,1.242v4.8a1.075,1.075,0,0,0,.637.982,3.485,3.485,0,0,0,1.674.347,3.635,3.635,0,0,0,1.734-.347,1.076,1.076,0,0,0,.636-.982V856.474a1.076,1.076,0,0,0-.636-.982,3.637,3.637,0,0,0-1.734-.347,3.486,3.486,0,0,0-1.674.347,1.075,1.075,0,0,0-.637.982Z" transform="translate(-1268.48 -839.369)" fill="#fff"/>
      <path id="Path_106067" data-name="Path 106067" d="M1397.891,860.3a3.391,3.391,0,0,1,.608-1.939,5.475,5.475,0,0,1,1.674-1.567,8.988,8.988,0,0,1,2.573-1.042,13.728,13.728,0,0,1,3.352-.377,13.479,13.479,0,0,1,3.292.377,9.419,9.419,0,0,1,2.6,1.042,5.411,5.411,0,0,1,1.7,1.567,3.389,3.389,0,0,1,.607,1.939v10.6a3.4,3.4,0,0,1-.607,1.942,5.736,5.736,0,0,1-1.7,1.594,8.829,8.829,0,0,1-2.6,1.071,13.475,13.475,0,0,1-3.292.377,10.914,10.914,0,0,1-5.925-1.448,4.172,4.172,0,0,1-2.282-3.536Zm6.183,8.77q0,1.331,1.964,1.329,2.083,0,2.082-1.329V862.2q0-1.329-2.082-1.331-1.965,0-1.964,1.331Z" transform="translate(-1261.292 -835.906)" fill="#fff"/>
    </g>
  </g>
</svg>
