<svg xmlns="http://www.w3.org/2000/svg" width="45.618" height="45.618" viewBox="0 0 45.618 45.618">
  <g id="phone-call" transform="translate(0 0)">
    <g id="Group_49078" data-name="Group 49078" transform="translate(0 0)">
      <path id="Path_116446" data-name="Path 116446" d="M38.934,6.678A22.809,22.809,0,1,0,45.617,22.8,22.809,22.809,0,0,0,38.934,6.678ZM34.543,31.772l0,0v-.008l-1.156,1.148a6.082,6.082,0,0,1-5.74,1.642,20.21,20.21,0,0,1-5.869-2.631,27.119,27.119,0,0,1-4.63-3.733A27.327,27.327,0,0,1,13.685,24a21.286,21.286,0,0,1-2.6-5.261,6.082,6.082,0,0,1,1.521-6.212l1.353-1.353a.965.965,0,0,1,1.365,0l0,0L19.6,15.444a.965.965,0,0,1,0,1.365l0,0-2.509,2.509a2.045,2.045,0,0,0-.213,2.661,29.342,29.342,0,0,0,3,3.5,29.162,29.162,0,0,0,3.953,3.323,2.06,2.06,0,0,0,2.631-.228l2.425-2.463a.965.965,0,0,1,1.365,0l0,0,4.28,4.288A.965.965,0,0,1,34.543,31.772Z" transform="translate(0 0)" fill="#009a66"/>
    </g>
  </g>
</svg>
