<svg id="Layer_2" data-name="Layer 2" xmlns="http://www.w3.org/2000/svg" width="16.817" height="24.848" viewBox="0 0 16.817 24.848">
  <g id="Phone" transform="translate(0 0)">
    <path id="Path_7828" data-name="Path 7828" d="M16.163,19.844l-4.58-5.22a2.074,2.074,0,0,0-2.054-.655l-.377.089a.858.858,0,0,1-.992-.5,9.9,9.9,0,0,1-.65-2.238.65.65,0,0,1,.5-.729A2.069,2.069,0,0,0,9.43,9.423a2.109,2.109,0,0,0,.164-.992l-.471-6.1A2.506,2.506,0,0,0,5.842.114L2.482,1.4A3.429,3.429,0,0,0,.13,4.327,24.113,24.113,0,0,0,6.839,23.555a1.136,1.136,0,0,0,1.816-.337l.03-.055a1.146,1.146,0,0,0-.248-1.305A21.85,21.85,0,0,1,2.4,5.061a1.816,1.816,0,0,1,1.27-1.593L5.956,2.53a.675.675,0,0,1,.868.591l.357,4.59a.789.789,0,0,1-.6.829l-.774.189a1.206,1.206,0,0,0-.9,1.345,15.065,15.065,0,0,0,2.417,6.575,1.2,1.2,0,0,0,1.434.442L9.8,16.668a.784.784,0,0,1,.893.228l3.315,3.94a.67.67,0,0,1-.283,1.067l-1.856.655a1.172,1.172,0,1,0,.784,2.208l2.481-.893a2.481,2.481,0,0,0,1.027-4.029Z" transform="translate(-0.002 0.011)" fill="#111"/>
    <path id="Path_7829" data-name="Path 7829" d="M22.516,1.99a1.226,1.226,0,0,0,.9,1.092,2.481,2.481,0,0,1,.362,4.689A1.231,1.231,0,0,0,23.057,9a1.25,1.25,0,0,0,1.767,1.027A4.962,4.962,0,0,0,24.1.7a1.246,1.246,0,0,0-1.588,1.29Z" transform="translate(-11.343 -0.323)" fill="#00c569"/>
  </g>
</svg>
