<svg xmlns="http://www.w3.org/2000/svg" xmlns:xlink="http://www.w3.org/1999/xlink" width="239" height="87" viewBox="0 0 239 87">
  <defs>
    <linearGradient id="linear-gradient" x1="0.5" x2="0.5" y2="1" gradientUnits="objectBoundingBox">
      <stop offset="0" stop-color="#1898af"/>
      <stop offset="1" stop-color="#63bb4c"/>
    </linearGradient>
  </defs>
  <g id="Group_46820" data-name="Group 46820" transform="translate(0.016)">
    <g id="Rectangle_20230" data-name="Rectangle 20230" transform="translate(-0.016)" fill="#fff" stroke="#ddd" stroke-width="1">
      <rect width="239" height="87" rx="8" stroke="none"/>
      <rect x="0.5" y="0.5" width="238" height="86" rx="7.5" fill="none"/>
    </g>
    <path id="Path_116871" data-name="Path 116871" d="M12.863,58.719a3.684,3.684,0,0,1-1.37-.238l22.067-22.3,7.3,7.386L15.507,57.961a5.434,5.434,0,0,1-2.644.758Zm-3.189-1.84a5.3,5.3,0,0,1-.647-2.684V13.5A5.948,5.948,0,0,1,9.3,11.681L31.859,34.47,9.666,56.884l.008-.006Zm33.369-14.55-7.784-7.856,8.584-8.667,7.625,4.325a4.358,4.358,0,0,1,2.543,3.705,4.384,4.384,0,0,1-.76,2.213,4.32,4.32,0,0,1-1.785,1.5ZM33.56,32.746,10.71,9.67a3.627,3.627,0,0,1,2.167-.722,5.54,5.54,0,0,1,2.616.767L41.662,24.568l-8.1,8.177Z" transform="translate(10.279 9.408)" fill="url(#linear-gradient)"/>
    <path id="Path_116872" data-name="Path 116872" d="M53.764,25.418a7.88,7.88,0,0,0-2.984-3.884,8.928,8.928,0,0,0-5.376-1.61,9.462,9.462,0,0,0-9.45,9.568,9.268,9.268,0,0,0,2.629,6.774,9.153,9.153,0,0,0,6.8,2.676,8.2,8.2,0,0,0,8.644-8.479V29.445H44.22V32.1h6.655c-.45,2.439-2.392,4.168-5.519,4.168A5.966,5.966,0,0,1,40.785,34.3a6.905,6.905,0,0,1-1.8-4.879,6.864,6.864,0,0,1,1.824-4.855,6.016,6.016,0,0,1,4.571-1.942,5.954,5.954,0,0,1,5.8,3.979Zm8.965.4a6.6,6.6,0,0,0-4.737,1.895,6.548,6.548,0,0,0-.024,9.331,6.6,6.6,0,0,0,4.737,1.895,6.467,6.467,0,0,0,4.713-1.895,6.325,6.325,0,0,0,1.942-4.713,6.169,6.169,0,0,0-1.942-4.642A6.507,6.507,0,0,0,62.729,25.821Zm-2.771,3.718a3.546,3.546,0,0,1,2.747-1.16,3.462,3.462,0,0,1,2.724,1.16A4.074,4.074,0,0,1,66.5,32.381a4.165,4.165,0,0,1-1.042,2.842,3.463,3.463,0,0,1-2.724,1.16A3.566,3.566,0,0,1,59.982,35.2a4.174,4.174,0,0,1-1.066-2.866A4,4,0,0,1,59.958,29.539Zm18.175-3.718A6.6,6.6,0,0,0,73.4,27.716a6.548,6.548,0,0,0-.024,9.331,6.6,6.6,0,0,0,4.737,1.895,6.467,6.467,0,0,0,4.713-1.895,6.325,6.325,0,0,0,1.942-4.713,6.169,6.169,0,0,0-1.942-4.642A6.507,6.507,0,0,0,78.133,25.821Zm-2.771,3.718a3.546,3.546,0,0,1,2.747-1.16,3.462,3.462,0,0,1,2.724,1.16A4.074,4.074,0,0,1,81.9,32.381a4.165,4.165,0,0,1-1.042,2.842,3.463,3.463,0,0,1-2.724,1.16A3.566,3.566,0,0,1,75.386,35.2a4.174,4.174,0,0,1-1.066-2.866A4,4,0,0,1,75.362,29.539Zm17.63,9.284a5.68,5.68,0,0,0,2.226-.521,4.015,4.015,0,0,0,1.918-1.611v1.989A3.575,3.575,0,0,1,93.3,42.542a4.245,4.245,0,0,1-3.979-2.676l-2.345,1.35c1.16,2.558,3.292,3.837,6.371,3.837A6.61,6.61,0,0,0,98.131,43.3a6.28,6.28,0,0,0,1.824-4.737V26.081H97.208V28a4.16,4.16,0,0,0-1.895-1.587,5.559,5.559,0,0,0-2.226-.545,5.755,5.755,0,0,0-4.547,1.989,6.714,6.714,0,0,0-1.705,4.5A6.53,6.53,0,0,0,88.563,36.9,5.74,5.74,0,0,0,92.992,38.823Zm4.192-6.513a4.074,4.074,0,0,1-1.066,2.842,3.472,3.472,0,0,1-2.7,1.137,3.558,3.558,0,0,1-2.724-1.137,4.165,4.165,0,0,1-1.042-2.842,3.964,3.964,0,0,1,1.042-2.795,3.831,3.831,0,0,1,5.447,0A4,4,0,0,1,97.184,32.31Zm6.555,6.418h2.818V19.45h-2.818Zm18.22-5.495a7.722,7.722,0,0,0,.047-.876,6.774,6.774,0,0,0-1.634-4.737,5.786,5.786,0,0,0-4.524-1.8,5.993,5.993,0,0,0-4.547,1.918,6.513,6.513,0,0,0-1.824,4.642,6.429,6.429,0,0,0,1.895,4.713,6.5,6.5,0,0,0,4.737,1.871,6,6,0,0,0,5.4-3.055l-2.037-1.35a3.567,3.567,0,0,1-3.41,1.966A3.86,3.86,0,0,1,113.5,35.6a3.119,3.119,0,0,1-1.137-2.368Zm-6.11-5a3.042,3.042,0,0,1,3.292,2.866h-6.631A3.271,3.271,0,0,1,115.849,28.237Zm28.821-2.3a5.63,5.63,0,0,0-1.634-4.073,6.458,6.458,0,0,0-4.855-1.682H131.62V38.728h2.913V31.86h3.292a7.107,7.107,0,0,0,5.021-1.682A5.607,5.607,0,0,0,144.67,25.939Zm-6.75-3.055a3.835,3.835,0,0,1,2.913.924,3.057,3.057,0,0,1,.876,2.2c0,1.705-1.208,3.174-3.79,3.174h-3.387v-6.3Zm9.394,15.844h2.818V19.45h-2.818Zm13.815-8.573c0,.711-.4,1.066-1.184,1.066h-1.563c-2.226,0-5.258.924-5.258,3.86v.142a3.363,3.363,0,0,0,1.208,2.676,4.551,4.551,0,0,0,3.055,1.042A4,4,0,0,0,161.1,37v1.729h2.771V30.676a5.567,5.567,0,0,0-.426-2.274c-.782-1.729-2.368-2.582-4.737-2.582a5.41,5.41,0,0,0-5.376,3.221l2.155,1.231a3.259,3.259,0,0,1,3.15-2.013C160.228,28.26,161.128,29.113,161.128,30.155Zm-.024,3.458a2.9,2.9,0,0,1-3.15,3.079,1.779,1.779,0,0,1-2.013-1.729,1.445,1.445,0,0,1,.758-1.279,3.284,3.284,0,0,1,1.682-.474H161.1Zm7.689-7.532h-3.221l5.637,11.226-3.482,7.65h3.008l8.691-18.876h-3.054l-3.647,8.289Z" transform="translate(41.316 21.513)" fill="#003c3c"/>
    <path id="Path_116873" data-name="Path 116873" d="M46.34,12.643a4.915,4.915,0,0,0-1.762-2.373,5.023,5.023,0,0,0-3.2-.995,5.36,5.36,0,0,0-3.993,1.648,5.618,5.618,0,0,0-1.606,4.064,5.6,5.6,0,0,0,1.535,4.036,5.319,5.319,0,0,0,4.022,1.606,5.032,5.032,0,0,0,3.78-1.45,4.949,4.949,0,0,0,1.421-3.624V15.13h-5.9v1.08h4.647a3.152,3.152,0,0,1-1.236,2.43,4.194,4.194,0,0,1-2.686.9,4.107,4.107,0,0,1-3.183-1.322,4.775,4.775,0,0,1-1.194-3.3,4.446,4.446,0,0,1,1.265-3.254,4.227,4.227,0,0,1,3.1-1.279,3.906,3.906,0,0,1,2.558.8,4.307,4.307,0,0,1,1.378,1.947Zm9.371-3.254H48.748V20.516h7.02v-1.08H49.913V15.4h5.3V14.32h-5.3V10.469h5.8Zm4.946,11.127h1.179V10.483h3.709V9.389H56.934v1.094h3.723ZM72.02,9.389H70.854V20.516H72.02Zm5.568,11.127h1.179V10.483h3.709V9.389H73.864v1.094h3.723Zm20.6-5.6a5.486,5.486,0,0,0-1.606-4.007,5.306,5.306,0,0,0-3.965-1.634,5.368,5.368,0,0,0-4.007,1.648A5.617,5.617,0,0,0,87,14.988a5.53,5.53,0,0,0,1.592,4.021,5.7,5.7,0,0,0,7.986-.028A5.617,5.617,0,0,0,98.186,14.917Zm-1.208.071a4.58,4.58,0,0,1-1.236,3.226,4.09,4.09,0,0,1-3.126,1.322,4.147,4.147,0,0,1-3.155-1.35,4.608,4.608,0,0,1-1.251-3.268,4.521,4.521,0,0,1,1.236-3.212,4.053,4.053,0,0,1,3.126-1.336,4.147,4.147,0,0,1,3.155,1.35A4.609,4.609,0,0,1,96.979,14.988Zm12.584-5.6h-1.151v9.294l-6.565-9.294H100.5V20.516h1.151V11.037l6.665,9.478h1.25Z" transform="translate(41.118 9.786)" fill="#003c3c"/>
  </g>
</svg>
