<svg xmlns="http://www.w3.org/2000/svg" width="244" height="12.688" viewBox="0 0 244 12.688">
  <g id="Group_44987" data-name="Group 44987" transform="translate(-0.455 0)">
    <path id="Path_106587" data-name="Path 106587" d="M-24.36-8.64a3.8,3.8,0,0,0-1.1-2.752,4.363,4.363,0,0,0-3.28-1.136h-4.432V0h1.968V-4.64h2.224a4.8,4.8,0,0,0,3.392-1.136A3.788,3.788,0,0,0-24.36-8.64ZM-28.92-10.7a2.591,2.591,0,0,1,1.968.624,2.065,2.065,0,0,1,.592,1.488c0,1.152-.816,2.144-2.56,2.144h-2.288V-10.7ZM-17.9-8.576a1.709,1.709,0,0,0-.464-.048,2.537,2.537,0,0,0-2.352,1.44v-1.36h-1.856V0h1.9V-4.336A2.057,2.057,0,0,1-18.44-6.672a2.75,2.75,0,0,1,.544.048Zm9.28,4.864A5.22,5.22,0,0,0-8.584-4.3a4.577,4.577,0,0,0-1.1-3.2A3.908,3.908,0,0,0-12.744-8.72a4.048,4.048,0,0,0-3.072,1.3,4.4,4.4,0,0,0-1.232,3.136A4.343,4.343,0,0,0-15.768-1.1,4.392,4.392,0,0,0-12.568.16,4.051,4.051,0,0,0-8.92-1.9L-10.3-2.816a2.41,2.41,0,0,1-2.3,1.328,2.608,2.608,0,0,1-1.728-.624,2.106,2.106,0,0,1-.768-1.6Zm-4.128-3.376A2.055,2.055,0,0,1-10.52-5.152H-15A2.21,2.21,0,0,1-12.744-7.088ZM-3.864.144A3.523,3.523,0,0,0-1.528-.592a2.4,2.4,0,0,0,.9-1.92c0-1.328-1.024-2.256-2.96-2.688-1.1-.24-1.584-.528-1.584-1.088,0-.464.608-.832,1.2-.832A1.884,1.884,0,0,1-2.184-5.968L-.712-6.8a3.227,3.227,0,0,0-3.2-1.92,3.379,3.379,0,0,0-2.176.736A2.3,2.3,0,0,0-7.016-6.1a2.2,2.2,0,0,0,.608,1.552A3.913,3.913,0,0,0-4.28-3.52c1.168.24,1.76.624,1.76,1.12,0,.576-.624.944-1.344.944A2.2,2.2,0,0,1-5.912-2.832L-7.4-2A3.572,3.572,0,0,0-3.864.144ZM9.256-3.712A5.22,5.22,0,0,0,9.288-4.3a4.577,4.577,0,0,0-1.1-3.2A3.908,3.908,0,0,0,5.128-8.72a4.048,4.048,0,0,0-3.072,1.3A4.4,4.4,0,0,0,.824-4.288,4.343,4.343,0,0,0,2.1-1.1,4.392,4.392,0,0,0,5.3.16,4.051,4.051,0,0,0,8.952-1.9L7.576-2.816a2.41,2.41,0,0,1-2.3,1.328,2.608,2.608,0,0,1-1.728-.624,2.106,2.106,0,0,1-.768-1.6ZM5.128-7.088A2.055,2.055,0,0,1,7.352-5.152H2.872A2.21,2.21,0,0,1,5.128-7.088ZM18.9,0V-5.264c0-2.048-1.1-3.456-3.2-3.456A3.1,3.1,0,0,0,13.1-7.392V-8.544H11.24V0h1.9V-4.752a1.946,1.946,0,0,1,1.968-2.16c1.264,0,1.888.848,1.888,2.128V0Zm7.12-6.832V-8.544h-2.1v-2.64h-1.9v2.64H20.456v1.712h1.568v4.08A2.628,2.628,0,0,0,24.984.1,2.988,2.988,0,0,0,26.008-.08V-1.7a2.712,2.712,0,0,1-.608.064c-.976,0-1.472-.4-1.472-1.424V-6.832ZM30.792.144a3.523,3.523,0,0,0,2.336-.736,2.4,2.4,0,0,0,.9-1.92c0-1.328-1.024-2.256-2.96-2.688-1.1-.24-1.584-.528-1.584-1.088,0-.464.608-.832,1.2-.832a1.884,1.884,0,0,1,1.792,1.152L33.944-6.8a3.227,3.227,0,0,0-3.2-1.92,3.379,3.379,0,0,0-2.176.736A2.3,2.3,0,0,0,27.64-6.1a2.2,2.2,0,0,0,.608,1.552A3.913,3.913,0,0,0,30.376-3.52c1.168.24,1.76.624,1.76,1.12,0,.576-.624.944-1.344.944a2.2,2.2,0,0,1-2.048-1.376L27.256-2A3.572,3.572,0,0,0,30.792.144Z" transform="translate(121.13 12.528)" fill="#f9f9fb"/>
    <line id="Line_12377" data-name="Line 12377" x2="80" transform="translate(0.455 6.5)" fill="none" stroke="#b5b5b5" stroke-width="1"/>
    <path id="Path_106104" data-name="Path 106104" d="M10,0H90" transform="translate(154.455 6.5)" fill="none" stroke="#b5b5b5" stroke-width="1"/>
  </g>
</svg>
