<svg xmlns="http://www.w3.org/2000/svg" xmlns:xlink="http://www.w3.org/1999/xlink" width="248" height="75" viewBox="0 0 248 75">
  <defs>
    <clipPath id="clip-path">
      <rect id="Rectangle_17970" data-name="Rectangle 17970" width="248" height="75" transform="translate(525.346 743.434)" fill="#fff" opacity="0.379"/>
    </clipPath>
  </defs>
  <g id="Mask_Group_281" data-name="Mask Group 281" transform="translate(-525.346 -743.434)" clip-path="url(#clip-path)">
    <g id="sawjanyam" transform="translate(-9.131)">
      <g id="Group_44959" data-name="Group 44959" transform="translate(537.476 755.433)" style="isolation: isolate">
        <path id="Path_106043" data-name="Path 106043" d="M1036.378,874.387a3.1,3.1,0,0,1-.692,1.936,6.414,6.414,0,0,1-1.878,1.588,9.9,9.9,0,0,1-2.8,1.069,14.947,14.947,0,0,1-3.408.377,14.573,14.573,0,0,1-3.382-.377,10.35,10.35,0,0,1-2.8-1.069,6.344,6.344,0,0,1-1.907-1.588,3.1,3.1,0,0,1-.693-1.936V856.474a1.08,1.08,0,0,0-.751-.982,4.509,4.509,0,0,0-3.467,0,1.647,1.647,0,0,0-.925.809v21.38a1.358,1.358,0,0,1-.923,1.242,5.146,5.146,0,0,1-2.2.433,5,5,0,0,1-2.14-.433,1.358,1.358,0,0,1-.925-1.242V856.3a1.633,1.633,0,0,0-.923-.809,4.1,4.1,0,0,0-1.733-.347,4.308,4.308,0,0,0-1.764.347,1.086,1.086,0,0,0-.779.982V877.68a1.353,1.353,0,0,1-.9,1.242,5.094,5.094,0,0,1-2.225.433,4.981,4.981,0,0,1-2.138-.433,1.355,1.355,0,0,1-.925-1.242V854.624a4.174,4.174,0,0,1,2.2-3.525,10.242,10.242,0,0,1,5.719-1.445c.384,0,.857.021,1.416.058a10.168,10.168,0,0,1,1.762.289,8.794,8.794,0,0,1,1.791.665,5.434,5.434,0,0,1,1.56,1.185,5.317,5.317,0,0,1,1.589-1.185,9.666,9.666,0,0,1,3.525-.954c.559-.037,1.048-.058,1.474-.058a10.106,10.106,0,0,1,5.692,1.445,4.183,4.183,0,0,1,2.167,3.525v17.913a1.085,1.085,0,0,0,.78.982,4.288,4.288,0,0,0,1.762.347,4.591,4.591,0,0,0,1.876-.347,1.085,1.085,0,0,0,.782-.982V851.331a1.354,1.354,0,0,1,.9-1.244,4.812,4.812,0,0,1,2.109-.432,5.311,5.311,0,0,1,2.254.432,1.357,1.357,0,0,1,.923,1.244Z" transform="translate(-996.104 -839.369)" fill="#fff"/>
        <path id="Path_106044" data-name="Path 106044" d="M1042.773,856.478q0-1.334-1.963-1.334-1.791,0-1.85,1.048V861.2a1.369,1.369,0,0,1-.925,1.254,5.275,5.275,0,0,1-2.253.435,4.8,4.8,0,0,1-2.109-.435,1.365,1.365,0,0,1-.894-1.254v-4.891q-.173-1.163-1.966-1.164-1.847,0-1.849,1.339v4.774a1.366,1.366,0,0,1-.924,1.252,5.256,5.256,0,0,1-2.254.437,4.781,4.781,0,0,1-2.108-.433,1.352,1.352,0,0,1-.9-1.242v-6.587a3.788,3.788,0,0,1,.549-1.965,5.143,5.143,0,0,1,1.5-1.589,8.322,8.322,0,0,1,2.2-1.069,8.238,8.238,0,0,1,2.57-.4,12.367,12.367,0,0,1,3.872.491,5.06,5.06,0,0,1,2.371,1.647,5.41,5.41,0,0,1,2.4-1.647,11.417,11.417,0,0,1,3.669-.491,9.541,9.541,0,0,1,2.716.375,7.268,7.268,0,0,1,2.225,1.069,5.952,5.952,0,0,1,1.533,1.589,3.519,3.519,0,0,1,.578,1.936v15.833a12.764,12.764,0,0,1-.608,4.246,5.986,5.986,0,0,1-1.907,2.746,7.862,7.862,0,0,1-3.294,1.474,23.06,23.06,0,0,1-4.825.433,23.4,23.4,0,0,1-4.881-.433,7.637,7.637,0,0,1-3.266-1.474,5.9,5.9,0,0,1-1.849-2.746,13.365,13.365,0,0,1-.578-4.246v-2.427a1.354,1.354,0,0,1,.924-1.242,4.985,4.985,0,0,1,2.138-.433,5.1,5.1,0,0,1,2.226.433,1.353,1.353,0,0,1,.9,1.242v2.657a3.005,3.005,0,0,0,.489,1.822,2.8,2.8,0,0,0,1.185.953,4.664,4.664,0,0,0,1.446.347c.5.039.924.058,1.27.058q.578,0,1.36-.058a4.687,4.687,0,0,0,1.474-.348,2.605,2.605,0,0,0,1.154-.957,3.156,3.156,0,0,0,.462-1.825Z" transform="translate(-979.962 -839.369)" fill="#fff"/>
        <path id="Path_106045" data-name="Path 106045" d="M1042.57,884.067a1.765,1.765,0,0,1-1.443-.984,3.853,3.853,0,0,1-.636-2.136,5.872,5.872,0,0,1,.435-2.225q.431-1.069,1.241-1.069a45.543,45.543,0,0,0,5.4-.375,63.523,63.523,0,0,0,6.3-1.1,65.616,65.616,0,0,0,6.329-1.762,36.844,36.844,0,0,0,5.575-2.34,15.943,15.943,0,0,0,3.958-2.831,4.677,4.677,0,0,0,1.5-3.323v-9.534a1.137,1.137,0,0,0-.761-1.011,4.048,4.048,0,0,0-1.811-.376,3.686,3.686,0,0,0-1.754.4,1.743,1.743,0,0,0-.934.982v14.1A1.55,1.55,0,0,1,1065,871.7a4.8,4.8,0,0,1-2.061.4,5.51,5.51,0,0,1-2.233-.4,1.332,1.332,0,0,1-.915-1.271V858.237a2.2,2.2,0,0,0-.843-1.82,5.64,5.64,0,0,0-1.945-.982,9.868,9.868,0,0,0-2.205-.377q-1.1-.055-1.682-.056t-1.626.056a8.489,8.489,0,0,0-2.059.377,4.854,4.854,0,0,0-1.772.982,2.3,2.3,0,0,0-.754,1.82l.049,1.387a3.161,3.161,0,0,1,1.668-.924,12.305,12.305,0,0,1,2.241-.173,7.618,7.618,0,0,1,2.3.345,5.448,5.448,0,0,1,1.924,1.069,4.988,4.988,0,0,1,1.323,1.909,7.488,7.488,0,0,1,.49,2.86v4.161a4.171,4.171,0,0,1-2.217,3.525,10.554,10.554,0,0,1-5.844,1.444,10.707,10.707,0,0,1-5.873-1.444,4.165,4.165,0,0,1-2.245-3.525v-10.4a9.249,9.249,0,0,1,.894-4.276,7.122,7.122,0,0,1,2.51-2.772,10.889,10.889,0,0,1,3.923-1.473,27.559,27.559,0,0,1,5.077-.435,25.741,25.741,0,0,1,5.393.551,11.107,11.107,0,0,1,4.241,1.762,5.236,5.236,0,0,1,1.587-1.271,8.217,8.217,0,0,1,1.846-.693,10.9,10.9,0,0,1,1.818-.289c.576-.039,1.077-.059,1.5-.059a9.5,9.5,0,0,1,5.711,1.591,5.569,5.569,0,0,1,2.192,4.825V867.02a5.246,5.246,0,0,1-.716,2.6,12.842,12.842,0,0,1-1.859,2.485,4.145,4.145,0,0,1,2.574,3.814v3.35a3.963,3.963,0,0,1-2.075,3.5,10.325,10.325,0,0,1-5.534,1.3,10.783,10.783,0,0,1-5.562-1.255,3.6,3.6,0,0,1-2.1-3.067v-.291q-2.6,1.05-5.282,1.9t-5.284,1.461q-2.6.609-4.905.934A30.258,30.258,0,0,1,1042.57,884.067Zm8.149-18.433q0-1.618-1.936-1.618a2.483,2.483,0,0,0-1.289.347,1.233,1.233,0,0,0-.589,1.156v1.443q0,1.389,1.878,1.388,1.936,0,1.936-1.388Zm20.515,11.441q0-.809-1.5-.809h-.52a.712.712,0,0,0-.4.116l-.345.231a.485.485,0,0,0-.291.4v.867q0,.693,1.56.693,1.5,0,1.5-.693Z" transform="translate(-969.245 -839.457)" fill="#fff"/>
        <path id="Path_106046" data-name="Path 106046" d="M1072.792,849.655a14.2,14.2,0,0,1,1.418.087,12.734,12.734,0,0,1,1.762.318,9.511,9.511,0,0,1,1.82.665,1.658,1.658,0,0,0,3.178,0,9.621,9.621,0,0,1,1.792-.665,11.7,11.7,0,0,1,1.762-.318c.576-.058,1.059-.087,1.444-.087a10.1,10.1,0,0,1,5.69,1.445,4.185,4.185,0,0,1,2.169,3.525V877.68a1.355,1.355,0,0,1-.9,1.242,4.8,4.8,0,0,1-2.109.433,5.292,5.292,0,0,1-2.255-.433,1.356,1.356,0,0,1-.925-1.242V856.474a1.081,1.081,0,0,0-.75-.982,4.247,4.247,0,0,0-1.793-.347,4.143,4.143,0,0,0-1.7.347c-.52.231-.82.5-.9.809v21.38a1.36,1.36,0,0,1-.953,1.242,5.187,5.187,0,0,1-2.167.433,4.98,4.98,0,0,1-2.138-.433,1.355,1.355,0,0,1-.925-1.242V856.3a1.651,1.651,0,0,0-.954-.809,4.155,4.155,0,0,0-1.7-.347,4.236,4.236,0,0,0-1.791.347,1.078,1.078,0,0,0-.751.982V877.68a1.353,1.353,0,0,1-.9,1.242,5.094,5.094,0,0,1-2.225.433,4.943,4.943,0,0,1-2.169-.433,1.351,1.351,0,0,1-.894-1.242V854.624a4.184,4.184,0,0,1,2.167-3.525A10.1,10.1,0,0,1,1072.792,849.655Z" transform="translate(-954.453 -839.369)" fill="#fff"/>
        <path id="Path_106047" data-name="Path 106047" d="M1089.532,851.331a1.355,1.355,0,0,1,.9-1.244,4.813,4.813,0,0,1,2.109-.432,5.317,5.317,0,0,1,2.254.432,1.362,1.362,0,0,1,.925,1.244v33.342a4.162,4.162,0,0,1-2.255,3.525,10.779,10.779,0,0,1-5.892,1.445,13.55,13.55,0,0,1-3.294-.376,8.512,8.512,0,0,1-2.572-1.069,5.444,5.444,0,0,1-1.648-1.591,3.522,3.522,0,0,1-.576-1.934v-3.178a1.336,1.336,0,0,1,.925-1.271,5.29,5.29,0,0,1,2.138-.4,5.394,5.394,0,0,1,2.223.4,1.331,1.331,0,0,1,.9,1.271v1.329q0,1.329,1.849,1.329,2.022,0,2.022-1.329Z" transform="translate(-945.652 -839.369)" fill="#fff"/>
        <path id="Path_106048" data-name="Path 106048" d="M1102.354,866.319a6.583,6.583,0,0,0,1.907-2.708,7.324,7.324,0,0,0,.347-1.843v-5.3q0-.633-1.059-.978a6.85,6.85,0,0,0-2.147-.347,6.009,6.009,0,0,0-1.974.347q-1,.347-1,.982v10.286c0,.539-.358.953-1.069,1.242a5.871,5.871,0,0,1-2.226.433,4.467,4.467,0,0,1-2.022-.433,1.353,1.353,0,0,1-.867-1.242V854.624a2.835,2.835,0,0,1,.809-1.936,7.657,7.657,0,0,1,2.109-1.589,11.869,11.869,0,0,1,2.976-1.069,15.282,15.282,0,0,1,6.734,0,12.456,12.456,0,0,1,2.974,1.069,7.487,7.487,0,0,1,2.138,1.589,2.842,2.842,0,0,1,.809,1.936v5.43a4.079,4.079,0,0,1,1.763.493,1.317,1.317,0,0,1,.78,1.185v15.775a1.355,1.355,0,0,1-.931,1.242,4.763,4.763,0,0,1-2.035.432h-18.125a1.347,1.347,0,0,1-1.242-.815,4.063,4.063,0,0,1-.433-1.929,4.014,4.014,0,0,1,.433-1.955,1.355,1.355,0,0,1,1.242-.788h.522a3.541,3.541,0,0,0,1.907-.69,10.42,10.42,0,0,0,1.5-1.154Zm4.8,7.374v-4.738l-3.814,3.369c-.424.38-.713.655-.867.828s-.26.284-.318.342-.087.094-.087.114-.058.046-.172.085Z" transform="translate(-938.943 -839.369)" fill="#fff"/>
        <path id="Path_106049" data-name="Path 106049" d="M1112.265,861.212a1.357,1.357,0,0,1-.926,1.242,5.274,5.274,0,0,1-2.253.433,4.786,4.786,0,0,1-2.107-.433,1.352,1.352,0,0,1-.9-1.242v-6.588a3.189,3.189,0,0,1,.664-1.936,6.273,6.273,0,0,1,1.79-1.589,9.3,9.3,0,0,1,2.687-1.069,14.3,14.3,0,0,1,3.352-.375,14.693,14.693,0,0,1,3.382.375,9.263,9.263,0,0,1,2.716,1.069,6.247,6.247,0,0,1,1.789,1.589,3.187,3.187,0,0,1,.665,1.936v19.762a3.183,3.183,0,0,1-.665,1.936,6.246,6.246,0,0,1-1.789,1.588,9.129,9.129,0,0,1-2.716,1.069,14.605,14.605,0,0,1-3.382.377,14.219,14.219,0,0,1-3.352-.377,9.158,9.158,0,0,1-2.687-1.069,6.273,6.273,0,0,1-1.79-1.588,3.185,3.185,0,0,1-.664-1.936v-6.645a1.354,1.354,0,0,1,.9-1.242,4.762,4.762,0,0,1,2.107-.433,5.248,5.248,0,0,1,2.253.433,1.359,1.359,0,0,1,.926,1.242v4.8a1.073,1.073,0,0,0,.635.982,3.492,3.492,0,0,0,1.675.347,3.635,3.635,0,0,0,1.733-.347,1.075,1.075,0,0,0,.637-.982V856.474a1.075,1.075,0,0,0-.637-.982,3.637,3.637,0,0,0-1.733-.347,3.493,3.493,0,0,0-1.675.347,1.074,1.074,0,0,0-.635.982Z" transform="translate(-929.554 -839.369)" fill="#fff"/>
        <path id="Path_106050" data-name="Path 106050" d="M1124.319,849.655a9.229,9.229,0,0,1,3.092.52,5.855,5.855,0,0,1,2.743,2.369,5.188,5.188,0,0,1,1.5-1.474,8.371,8.371,0,0,1,1.82-.867,9.8,9.8,0,0,1,1.849-.433,12.92,12.92,0,0,1,1.646-.116q.058,0,1.244.087a8.5,8.5,0,0,1,2.542.637,7.281,7.281,0,0,1,2.485,1.709,4.54,4.54,0,0,1,1.127,3.3v12.687a9.35,9.35,0,0,1-.607,3.3,5.562,5.562,0,0,1-1.706,2.491h1.389a6.031,6.031,0,0,0,2.311-.349,2.545,2.545,0,0,0,1.185-.926,2.9,2.9,0,0,0,.433-1.39c.037-.539.058-1.138.058-1.794V851.334a1.361,1.361,0,0,1,.924-1.246,5.308,5.308,0,0,1,2.252-.433,4.831,4.831,0,0,1,2.111.432,1.355,1.355,0,0,1,.892,1.244v20.051a8.78,8.78,0,0,1-.692,3.7,6.307,6.307,0,0,1-1.963,2.456,8.285,8.285,0,0,1-3.063,1.387,16.974,16.974,0,0,1-3.987.433,29.5,29.5,0,0,1-4.477-.318,13.037,13.037,0,0,1-3.729-1.128,14.612,14.612,0,0,1-3.815,1.157,27.427,27.427,0,0,1-4.506.347,16.871,16.871,0,0,1-3.987-.435,8.247,8.247,0,0,1-3.063-1.385,6.344,6.344,0,0,1-1.966-2.456,8.83,8.83,0,0,1-.692-3.7V855.318a5.025,5.025,0,0,1,1.906-4.131A7.332,7.332,0,0,1,1124.319,849.655Zm2.6,6.645a1.082,1.082,0,0,0-.491-.9,2.051,2.051,0,0,0-1.069-.26,1.682,1.682,0,0,0-1.04.348,1.155,1.155,0,0,0-.464.986v12.984q0,.985.061,1.8a2.874,2.874,0,0,0,.432,1.392,2.548,2.548,0,0,0,1.185.926,6.032,6.032,0,0,0,2.312.348,3.128,3.128,0,0,1,.691-.029,2.081,2.081,0,0,0,.58-.029,7.163,7.163,0,0,1-1.588-2.6,9.281,9.281,0,0,1-.608-3.294Zm11.266,2.543a4.018,4.018,0,0,0-.693-2.745,2.44,2.44,0,0,0-1.849-.724,2.681,2.681,0,0,0-1.79.637q-.753.638-.752,2.772v8.843a6.6,6.6,0,0,0,.493,2.369,4.533,4.533,0,0,0,2.05,2.2,4.785,4.785,0,0,0,2.024-2.167,6.07,6.07,0,0,0,.519-2.34Z" transform="translate(-922.539 -839.369)" fill="#fff"/>
        <path id="Path_106051" data-name="Path 106051" d="M1146.77,850.066q0-1.329-2.021-1.329-1.849,0-1.851,1.329v1.329a1.332,1.332,0,0,1-.893,1.271,5.405,5.405,0,0,1-2.226.4,5.293,5.293,0,0,1-2.138-.4,1.336,1.336,0,0,1-.925-1.271v-3.18a3.526,3.526,0,0,1,.577-1.934,5.428,5.428,0,0,1,1.65-1.589,8.424,8.424,0,0,1,2.57-1.069,13.57,13.57,0,0,1,3.3-.376,10.793,10.793,0,0,1,5.894,1.444,4.162,4.162,0,0,1,2.25,3.523v33.343a1.354,1.354,0,0,1-.921,1.242,5.3,5.3,0,0,1-2.254.433,4.8,4.8,0,0,1-2.111-.433,1.352,1.352,0,0,1-.9-1.242Z" transform="translate(-911.016 -843.247)" fill="#fff"/>
      </g>
      <path id="Path_94551" data-name="Path 94551" d="M10363.624,2179.859s57-4.334,120.654-7.189,118.252,0,118.252,0" transform="translate(-9826.124 -1369.497)" fill="none" stroke="#fed637" stroke-linecap="round" stroke-width="3"/>
    </g>
  </g>
</svg>
