<svg id="school_black_24dp" xmlns="http://www.w3.org/2000/svg" width="31.355" height="31.968" viewBox="0 0 31.355 31.968">
  <path id="Path_106608" data-name="Path 106608" d="M0,0H31.355V31.355H0Z" transform="translate(0 0.613)" fill="none"/>
  <g id="campus" transform="translate(1.307)">
    <path id="Path_116677" data-name="Path 116677" d="M28.569,16.21H23.816V13.358a.951.951,0,0,0-.38-.761L16.21,7.179V6.7h4.753a.951.951,0,0,0,.951-.951v-3.8A.951.951,0,0,0,20.964,1h-5.7a.951.951,0,0,0-.951.951V7.179L7.084,12.6a.951.951,0,0,0-.38.761V16.21H1.951A.951.951,0,0,0,1,17.161V28.569a.951.951,0,0,0,.951.951H28.569a.951.951,0,0,0,.951-.951V17.161A.951.951,0,0,0,28.569,16.21ZM20.013,4.8h-3.8V2.9h3.8ZM2.9,18.112H6.7v9.507H2.9Zm13.784,9.507H13.834v-3.8h2.852Zm5.229,0H18.587V22.865a.951.951,0,0,0-.951-.951H12.883a.951.951,0,0,0-.951.951v4.753H8.605V13.834L15.26,8.843l6.655,4.991Zm5.7,0h-3.8V18.112h3.8Z" transform="translate(-1 -1)" fill="#0fa76f"/>
    <path id="Path_116678" data-name="Path 116678" d="M12,16a4,4,0,1,0,4-4A4,4,0,0,0,12,16Zm6,0a2,2,0,1,1-2-2A2,2,0,0,1,18,16Z" transform="translate(-1.74 -1.74)" fill="#0fa76f"/>
  </g>
</svg>
