<svg xmlns="http://www.w3.org/2000/svg" width="40.069" height="36.053" viewBox="0 0 40.069 36.053">
  <path id="scissors" d="M13.974,53.76a2.533,2.533,0,1,1-3.382-3.235A2.537,2.537,0,0,1,13.974,53.76ZM20.8,49.247l-2.4,6.186a7.3,7.3,0,1,1-4.164-9.453l6.185,2.4A.667.667,0,0,1,20.8,49.247Zm-7.786-.01a3.868,3.868,0,1,0,2.205,5.006,3.866,3.866,0,0,0-2.205-5.006ZM25.911,24.1a.668.668,0,0,0-.864.381L17.1,44.949a.668.668,0,0,0,.378.863c2.082.822,2.956,1.129,3.411,1.32a.667.667,0,0,0,.88-.374l6.619-17.04A4.346,4.346,0,0,0,25.911,24.1Zm-5.617,6.01a29.206,29.206,0,0,1-8.836,1.252A26.942,26.942,0,0,1,.95,28.753a.669.669,0,0,0-.91.831l2.3,6.424L.133,38.977a.668.668,0,0,0,.255,1,26.811,26.811,0,0,0,15.923,2.4.664.664,0,0,0,.51-.417C17.448,40.353,20,33.776,21.083,31a.668.668,0,0,0-.789-.888Zm16.731,3.946L39.9,30.8a.669.669,0,0,0-.328-1.088,34.7,34.7,0,0,0-8.97-1.2.665.665,0,0,0-.658.554c-.2,1.212-.876,2.316-3.666,9.759l-.143.37a.668.668,0,0,0,.71.9,32.466,32.466,0,0,1,12.382.916A.668.668,0,0,0,40,40.081ZM17.076,28.912l-1.721-4.431a.668.668,0,0,0-.864-.381,4.345,4.345,0,0,0-2.475,5.618.5.5,0,0,0,.475.319,23.28,23.28,0,0,0,4.215-.453A.5.5,0,0,0,17.076,28.912ZM27.8,50.517a2.495,2.495,0,1,0,3.229,1.422A2.5,2.5,0,0,0,27.8,50.517Zm3.655,9.08A7.3,7.3,0,0,1,22,55.433c-1.078-2.774-1.119-2.719-.994-3.041l1.91-4.917a.668.668,0,0,1,.381-.381l2.867-1.114A7.3,7.3,0,1,1,31.457,59.6Zm.819-8.141a3.83,3.83,0,1,0-2.184,4.957A3.835,3.835,0,0,0,32.276,51.456Z" transform="translate(0 -24.055)" fill="#f7b52b"/>
</svg>
