<svg id="Group_42438" data-name="Group 42438" xmlns="http://www.w3.org/2000/svg" width="62.95" height="62.95" viewBox="0 0 62.95 62.95">
  <path id="Path_98978" data-name="Path 98978" d="M31.475,0A31.475,31.475,0,1,1,0,31.475,31.475,31.475,0,0,1,31.475,0Z" fill="#d2814b"/>
  <g id="Group_41099" data-name="Group 41099" transform="translate(19.469 18.126)">
    <g id="Layer_2" data-name="Layer 2" transform="translate(8.912)">
      <g id="Cursor">
        <path id="Path_94123" data-name="Path 94123" d="M745.718,475.435a4.693,4.693,0,0,0-3.014,8.072.907.907,0,0,0,1.491-.431.884.884,0,0,0-.228-.863,2.889,2.889,0,0,1-.9-2.122,2.92,2.92,0,0,1,2.708-2.851,2.887,2.887,0,0,1,2.889,1.909.848.848,0,0,0,.653.571h.077a.889.889,0,0,0,.975-1.177A4.691,4.691,0,0,0,745.718,475.435Z" transform="translate(-741.261 -475.43)" fill="#fff"/>
        <path id="Path_94124" data-name="Path 94124" d="M757,485.933l-9.461-5.512a.942.942,0,0,0-1.411.942l1.495,10.851a.946.946,0,0,0,1.444.661.827.827,0,0,0,.163-.137l2.61-2.729,2.809,4.187a.9.9,0,0,0,1.5-1l-2.8-4.184,3.52-1.369a.86.86,0,0,0,.187-.1.945.945,0,0,0-.054-1.606Zm-2.8.8-2.166.848a2.74,2.74,0,0,0-1,.672l-1.61,1.686a.18.18,0,0,1-.255,0,.176.176,0,0,1-.053-.1l-.91-6.592a.18.18,0,0,1,.271-.184l5.747,3.357a.181.181,0,0,1-.026.325Z" transform="translate(-742.372 -476.542)" fill="#fff"/>
      </g>
    </g>
    <g id="Layer_2-2" data-name="Layer 2-2" transform="translate(0 8.654)">
      <g id="Avatar">
        <path id="Path_94125" data-name="Path 94125" d="M746.6,501.854l-.463-2.191a4.328,4.328,0,0,0-1.967-2.8L741.4,495.14a3.993,3.993,0,0,0,.777-1.97l.22-2.075a4.016,4.016,0,0,0-3.567-4.42,3.908,3.908,0,0,0-.425-.023h-.447a4.017,4.017,0,0,0-4.016,4.019,4.084,4.084,0,0,0,.022.425l.224,2.075a4.007,4.007,0,0,0,.776,1.97l-2.776,1.718a4.332,4.332,0,0,0-1.97,2.8l-.463,2.191a2.358,2.358,0,0,0,1.821,2.792,2.407,2.407,0,0,0,.487.05H744.3a2.354,2.354,0,0,0,2.307-2.844Zm-10.291-12.676a2.194,2.194,0,0,1,1.643-.722h.444a2.209,2.209,0,0,1,2.211,2.206,2.071,2.071,0,0,1-.013.241l-.217,2.072a2.213,2.213,0,0,1-4.4,0l-.221-2.072A2.168,2.168,0,0,1,736.314,489.177Zm8.413,13.5a.532.532,0,0,1-.43.206H732.062a.534.534,0,0,1-.43-.206.548.548,0,0,1-.123-.444l.463-2.191a2.563,2.563,0,0,1,1.161-1.642l3.3-2.043a3.993,3.993,0,0,0,3.5,0l3.3,2.043a2.556,2.556,0,0,1,1.151,1.639l.463,2.191a.544.544,0,0,1-.112.463Z" transform="translate(-729.704 -486.651)" fill="#fff"/>
      </g>
    </g>
    <rect id="Rectangle_15009" data-name="Rectangle 15009" width="4.218" height="1.687" rx="0.844" transform="translate(8.911 22.294)" fill="#fff"/>
  </g>
</svg>
