<svg xmlns="http://www.w3.org/2000/svg" xmlns:xlink="http://www.w3.org/1999/xlink" width="93" height="50" viewBox="0 0 93 50">
  <defs>
    <clipPath id="clip-path">
      <rect id="Rectangle_17977" data-name="Rectangle 17977" width="93" height="50" transform="translate(0.346 0.445)" fill="#fff" stroke="#707070" stroke-width="37" opacity="0.372"/>
    </clipPath>
  </defs>
  <g id="Mask_Group_289" data-name="Mask Group 289" transform="translate(-0.346 -0.445)" clip-path="url(#clip-path)">
    <g id="Group_46801" data-name="Group 46801" transform="translate(0.95 9.825)">
      <path id="Path_108787" data-name="Path 108787" d="M202.345,423.737v4.685H191.331v26.335h-6V428.422H174.322v-4.685Z" transform="translate(-174.322 -423.737)" fill="#fff" stroke="#fff" stroke-width="2"/>
      <path id="Path_108788" data-name="Path 108788" d="M205.118,431.559a9.3,9.3,0,0,1,7.239,2.932q2.664,2.929,2.664,8.1v.821H200.344a6.393,6.393,0,0,0,2.076,4.275,7.1,7.1,0,0,0,4.785,1.5,10.634,10.634,0,0,0,3.764-.677,16.432,16.432,0,0,0,3.742-2.054v4.064a14.913,14.913,0,0,1-8.837,2.576,11.163,11.163,0,0,1-8.016-2.953,10.333,10.333,0,0,1-3.109-7.861,10.7,10.7,0,0,1,2.875-7.727A9.918,9.918,0,0,1,205.118,431.559Zm4.774,8.549a6,6,0,0,0-1.377-3.542,4.062,4.062,0,0,0-3.174-1.277,4.558,4.558,0,0,0-3.32,1.221,6.03,6.03,0,0,0-1.588,3.6Z" transform="translate(-168.946 -421.678)" fill="#fff" stroke="#fff" stroke-width="2"/>
      <path id="Path_108789" data-name="Path 108789" d="M224.363,431.559a15,15,0,0,1,6.551,1.4v4.64a11.04,11.04,0,0,0-5.506-1.686,6.624,6.624,0,0,0-4.564,11.146,6.465,6.465,0,0,0,4.764,1.776,15.417,15.417,0,0,0,5.684-1.465v4.419a17.466,17.466,0,0,1-6.639,1.31,11.625,11.625,0,0,1-8.183-2.886,9.906,9.906,0,0,1-3.142-7.661,10.67,10.67,0,0,1,3.076-7.971A10.876,10.876,0,0,1,224.363,431.559Z" transform="translate(-164.056 -421.678)" fill="#fff" stroke="#fff" stroke-width="2"/>
      <path id="Path_108790" data-name="Path 108790" d="M236.245,423.737v13.189h.134a7.918,7.918,0,0,1,6.373-3.308,6.93,6.93,0,0,1,5.329,2.176,8.021,8.021,0,0,1,2.02,5.684v13.279h-5.439V442.522a5.157,5.157,0,0,0-.989-3.32,3.271,3.271,0,0,0-2.7-1.232,4.239,4.239,0,0,0-2.343.71,10.507,10.507,0,0,0-2.387,2.353v13.723h-5.462v-31.02Z" transform="translate(-159.461 -423.737)" fill="#fff" stroke="#fff" stroke-width="2"/>
    </g>
  </g>
</svg>
