<svg xmlns="http://www.w3.org/2000/svg" xmlns:xlink="http://www.w3.org/1999/xlink" width="244" height="75" viewBox="0 0 244 75">
  <defs>
    <clipPath id="clip-path">
      <rect id="Rectangle_17971" data-name="Rectangle 17971" width="244" height="75" transform="translate(924.346 743.434)" fill="#fff" opacity="0.379"/>
    </clipPath>
  </defs>
  <g id="Mask_Group_283" data-name="Mask Group 283" transform="translate(-924.346 -743.434)" clip-path="url(#clip-path)">
    <g id="Group_44999" data-name="Group 44999" transform="translate(125)">
      <path id="Path_106052" data-name="Path 106052" d="M1169.052,849.655a30.706,30.706,0,0,1,5.4.432,11.652,11.652,0,0,1,4.076,1.474,7.076,7.076,0,0,1,2.571,2.746,9.084,9.084,0,0,1,.894,4.247V877.68a1.354,1.354,0,0,1-.894,1.242,4.806,4.806,0,0,1-2.111.433,5.291,5.291,0,0,1-2.254-.433,1.355,1.355,0,0,1-.924-1.242V858.323a2.118,2.118,0,0,0-.838-1.791,5.83,5.83,0,0,0-1.963-.953,10.307,10.307,0,0,0-2.255-.375c-.75-.037-1.319-.058-1.7-.058s-.953.021-1.706.058a10.324,10.324,0,0,0-2.254.375,5.836,5.836,0,0,0-1.965.953,2.118,2.118,0,0,0-.838,1.791v.231a3.76,3.76,0,0,1,1.937-.953,13.906,13.906,0,0,1,2.454-.2,8.073,8.073,0,0,1,2.282.316,4.975,4.975,0,0,1,1.909,1.069,5.317,5.317,0,0,1,1.327,1.909,7.24,7.24,0,0,1,.491,2.831v10.864a3.4,3.4,0,0,1-.6,1.936,5.666,5.666,0,0,1-1.7,1.588,8.782,8.782,0,0,1-2.631,1.069,14.949,14.949,0,0,1-6.674,0,9.192,9.192,0,0,1-2.629-1.069,5.572,5.572,0,0,1-1.734-1.588,3.385,3.385,0,0,1-.607-1.936V858.554a8.383,8.383,0,0,1,.984-4.247,7.564,7.564,0,0,1,2.716-2.746,12.2,12.2,0,0,1,4.1-1.474A28.793,28.793,0,0,1,1169.052,849.655Zm-2.542,14.793q0-1.56-2.138-1.56a3.073,3.073,0,0,0-1.387.347,1.15,1.15,0,0,0-.695,1.1v8.207q0,1.332,2.082,1.329,2.136,0,2.138-1.329Z" transform="translate(-353.762 -80.936)" fill="#fff"/>
      <path id="Path_106053" data-name="Path 106053" d="M1190.246,864.189a2.211,2.211,0,0,1,.924.665,3.053,3.053,0,0,1,.519.953,4.055,4.055,0,0,1,.2,1.04q.029.52.029.867v6.761a2.968,2.968,0,0,1-.75,1.936,6.878,6.878,0,0,1-2.016,1.588,11.144,11.144,0,0,1-2.937,1.069,16.152,16.152,0,0,1-6.941,0,11.178,11.178,0,0,1-2.91-1.069,6.889,6.889,0,0,1-2.016-1.588,2.961,2.961,0,0,1-.748-1.936V869.39a1.353,1.353,0,0,1,.915-1.242,5.2,5.2,0,0,1,2.233-.433,4.855,4.855,0,0,1,2.146.433,1.349,1.349,0,0,1,.888,1.242v3.178q0,.636.934,1.011a5.587,5.587,0,0,0,2.1.376,5.192,5.192,0,0,0,2.013-.376c.605-.25.905-.588.905-1.011v-3.236a1.212,1.212,0,0,0-.348-.982,2.479,2.479,0,0,0-.634-.4l-9.477-3.236a2.2,2.2,0,0,1-.924-.664,3.082,3.082,0,0,1-.52-.953,4.042,4.042,0,0,1-.2-1.04c-.019-.347-.027-.637-.027-.867v-6.7a2.958,2.958,0,0,1,.748-1.936,6.915,6.915,0,0,1,2.016-1.589,11.292,11.292,0,0,1,2.91-1.069,16.152,16.152,0,0,1,6.941,0,11.255,11.255,0,0,1,2.937,1.069,6.9,6.9,0,0,1,2.016,1.589,2.966,2.966,0,0,1,.75,1.936v5.085a1.353,1.353,0,0,1-.917,1.241,5.162,5.162,0,0,1-2.231.435,4.881,4.881,0,0,1-2.12-.435,1.351,1.351,0,0,1-.915-1.241v-3.178q0-.636-.934-1.011a5.594,5.594,0,0,0-2.1-.376,5.269,5.269,0,0,0-1.984.376q-.934.375-.934,1.011v3.063a1.211,1.211,0,0,0,.348.982,2.436,2.436,0,0,0,.635.4Z" transform="translate(-343.174 -81.023)" fill="#fff"/>
      <path id="Path_106054" data-name="Path 106054" d="M1213.585,858.815h2.83a7.742,7.742,0,0,1,4.942,1.53,5,5,0,0,1,1.938,4.133v9.13a5.214,5.214,0,0,1-1.851,4.421,8.5,8.5,0,0,1-5.257,1.416,2.089,2.089,0,0,1-1.908-.817,3.532,3.532,0,0,1-.52-1.928,4.113,4.113,0,0,1,.441-1.986,1.36,1.36,0,0,1,1.382-.759q1.529,0,1.528-1.379V866.2a1.871,1.871,0,0,0-.5-1.437,2.457,2.457,0,0,0-1.674-.459h-1.352v10.17a3.1,3.1,0,0,1-.693,1.936,6.436,6.436,0,0,1-1.878,1.588,9.9,9.9,0,0,1-2.8,1.069,15.219,15.219,0,0,1-3.467.377,14.424,14.424,0,0,1-3.814-.491,9.464,9.464,0,0,1-2.947-1.3,6.842,6.842,0,0,1-2.138,1.358,7.893,7.893,0,0,1-2.947.491,8.486,8.486,0,0,1-2.4-.347,5.946,5.946,0,0,1-2.109-1.1,5.854,5.854,0,0,1-1.5-1.849,5.529,5.529,0,0,1-.578-2.6v-9.13a4.994,4.994,0,0,1,1.937-4.133,7.634,7.634,0,0,1,4.881-1.53h2.832v-4.334a3.09,3.09,0,0,1,.695-1.936,6.439,6.439,0,0,1,1.878-1.589,9.982,9.982,0,0,1,2.772-1.069,15.021,15.021,0,0,1,3.438-.377,15.4,15.4,0,0,1,3.467.377,10,10,0,0,1,2.8,1.069,6.461,6.461,0,0,1,1.878,1.589,3.1,3.1,0,0,1,.693,1.936Zm-19.563,15.14a1.608,1.608,0,0,0,1.117-.372,2.116,2.116,0,0,0,.586-.891,4.011,4.011,0,0,0,.207-1.092c.018-.382.029-.69.029-.92V864.3h-1.292a2.452,2.452,0,0,0-1.674.459,1.865,1.865,0,0,0-.5,1.437v6.376Q1192.494,873.955,1194.022,873.955Zm8.124-15.14h5.257v-2.427a1.138,1.138,0,0,0-.78-1.011,4.45,4.45,0,0,0-1.934-.376,4.014,4.014,0,0,0-1.764.376,1.136,1.136,0,0,0-.779,1.011Zm5.257,5.489h-5.257v8.387a1.207,1.207,0,0,0,.836.918,4.613,4.613,0,0,0,1.706.287,4.452,4.452,0,0,0,1.934-.374,1.13,1.13,0,0,0,.78-1Z" transform="translate(-335.484 -81.023)" fill="#fff"/>
      <path id="Path_106055" data-name="Path 106055" d="M1212.592,853.206a9.748,9.748,0,0,1-5.69-1.444,4.182,4.182,0,0,1-2.052-3.467v-2.831a1.335,1.335,0,0,1,.894-1.271,5.126,5.126,0,0,1,2.111-.4,5.68,5.68,0,0,1,2.254.4,1.318,1.318,0,0,1,.925,1.252v.91a1.586,1.586,0,0,0,.289,1,1.5,1.5,0,0,0,1.214.369,1.7,1.7,0,0,0,1.3-.369,1.5,1.5,0,0,0,.316-1v-.91a1.317,1.317,0,0,1,.926-1.252,5.658,5.658,0,0,1,2.254-.4,5.1,5.1,0,0,1,2.107.4,1.332,1.332,0,0,1,.9,1.271v2.831a4.183,4.183,0,0,1-2.05,3.467A9.763,9.763,0,0,1,1212.592,853.206Z" transform="translate(-324.266 -84.486)" fill="#fff"/>
      <path id="Path_106056" data-name="Path 106056" d="M1217.4,866.6a4.163,4.163,0,0,1,1.676-.933,9.555,9.555,0,0,1,2.658-.294,8.472,8.472,0,0,1,2.573.377,6.591,6.591,0,0,1,2.05,1.045,5.332,5.332,0,0,1,1.388,1.567,3.83,3.83,0,0,1,.519,1.944v4.059a3.208,3.208,0,0,1-.665,1.945,6.368,6.368,0,0,1-1.79,1.6,9.178,9.178,0,0,1-2.716,1.072,14.683,14.683,0,0,1-3.382.377,14.211,14.211,0,0,1-3.352-.377,9.148,9.148,0,0,1-2.687-1.069,6.254,6.254,0,0,1-1.79-1.588,3.175,3.175,0,0,1-.664-1.936V854.624a3.179,3.179,0,0,1,.664-1.936,6.255,6.255,0,0,1,1.79-1.589,9.285,9.285,0,0,1,2.687-1.069,14.3,14.3,0,0,1,3.352-.375,14.688,14.688,0,0,1,3.382.375,9.275,9.275,0,0,1,2.716,1.069,6.294,6.294,0,0,1,1.79,1.589,3.188,3.188,0,0,1,.665,1.936v4.045a3.8,3.8,0,0,1-.519,1.936,5.335,5.335,0,0,1-1.388,1.56,6.623,6.623,0,0,1-2.05,1.04,8.42,8.42,0,0,1-2.573.376,9.619,9.619,0,0,1-2.658-.292,4.169,4.169,0,0,1-1.676-.934Zm0-9.812a1.056,1.056,0,0,0,.637.966,3.72,3.72,0,0,0,1.734.339,3.576,3.576,0,0,0,1.674-.339,1.057,1.057,0,0,0,.636-.966v-.339a1.055,1.055,0,0,0-.636-.963,3.556,3.556,0,0,0-1.674-.34,3.7,3.7,0,0,0-1.734.34,1.054,1.054,0,0,0-.637.963Zm0,15.751a1.075,1.075,0,0,0,.637.982,3.632,3.632,0,0,0,1.734.347,3.491,3.491,0,0,0,1.674-.347,1.075,1.075,0,0,0,.636-.982v-.347a1.075,1.075,0,0,0-.636-.982,3.492,3.492,0,0,0-1.674-.347,3.632,3.632,0,0,0-1.734.347,1.075,1.075,0,0,0-.637.982Z" transform="translate(-320.408 -80.936)" fill="#fff"/>
      <path id="Path_106057" data-name="Path 106057" d="M1231,849.655a14.2,14.2,0,0,1,1.417.087,12.723,12.723,0,0,1,1.762.318,9.505,9.505,0,0,1,1.82.665,1.658,1.658,0,0,0,3.178,0,9.616,9.616,0,0,1,1.791-.665,11.714,11.714,0,0,1,1.763-.318c.576-.058,1.059-.087,1.444-.087a10.1,10.1,0,0,1,5.69,1.445,4.181,4.181,0,0,1,2.168,3.525V877.68a1.355,1.355,0,0,1-.9,1.242,4.8,4.8,0,0,1-2.109.433,5.293,5.293,0,0,1-2.255-.433,1.358,1.358,0,0,1-.924-1.242V856.474a1.08,1.08,0,0,0-.75-.982,4.25,4.25,0,0,0-1.793-.347,4.142,4.142,0,0,0-1.7.347c-.52.231-.82.5-.9.809v21.38a1.359,1.359,0,0,1-.953,1.242,5.182,5.182,0,0,1-2.167.433,4.981,4.981,0,0,1-2.138-.433,1.355,1.355,0,0,1-.925-1.242V856.3a1.651,1.651,0,0,0-.953-.809,4.151,4.151,0,0,0-1.7-.347,4.247,4.247,0,0,0-1.792.347,1.08,1.08,0,0,0-.751.982V877.68a1.353,1.353,0,0,1-.9,1.242,5.09,5.09,0,0,1-2.225.433,4.947,4.947,0,0,1-2.168-.433,1.351,1.351,0,0,1-.894-1.242V854.624a4.183,4.183,0,0,1,2.167-3.525A10.1,10.1,0,0,1,1231,849.655Z" transform="translate(-313.199 -80.936)" fill="#fff"/>
      <path id="Path_106058" data-name="Path 106058" d="M1248.726,861.212a1.358,1.358,0,0,1-.925,1.242,5.29,5.29,0,0,1-2.254.433,4.8,4.8,0,0,1-2.109-.433,1.354,1.354,0,0,1-.9-1.242v-6.588a3.2,3.2,0,0,1,.665-1.936A6.283,6.283,0,0,1,1245,851.1a9.241,9.241,0,0,1,2.687-1.069,14.3,14.3,0,0,1,3.352-.375,14.663,14.663,0,0,1,3.379.375,9.234,9.234,0,0,1,2.717,1.069,6.276,6.276,0,0,1,1.792,1.589,3.2,3.2,0,0,1,.665,1.936v19.762a3.2,3.2,0,0,1-.665,1.936,6.275,6.275,0,0,1-1.792,1.588,9.1,9.1,0,0,1-2.717,1.069,14.575,14.575,0,0,1-3.379.377,14.211,14.211,0,0,1-3.352-.377A9.105,9.105,0,0,1,1245,877.91a6.282,6.282,0,0,1-1.793-1.588,3.194,3.194,0,0,1-.665-1.936v-6.645a1.356,1.356,0,0,1,.9-1.242,4.771,4.771,0,0,1,2.109-.433,5.265,5.265,0,0,1,2.254.433,1.359,1.359,0,0,1,.925,1.242v4.8a1.074,1.074,0,0,0,.634.982,3.507,3.507,0,0,0,1.677.347,3.647,3.647,0,0,0,1.733-.347,1.076,1.076,0,0,0,.636-.982V856.474a1.076,1.076,0,0,0-.636-.982,3.649,3.649,0,0,0-1.733-.347,3.509,3.509,0,0,0-1.677.347,1.075,1.075,0,0,0-.634.982Z" transform="translate(-301.457 -80.936)" fill="#fff"/>
      <path id="Path_106059" data-name="Path 106059" d="M1281.04,871.193a10.289,10.289,0,0,1-.809,4.345,6.706,6.706,0,0,1-1.966,2.6h3.525a1.36,1.36,0,0,1,1.244.9,4.814,4.814,0,0,1,.432,2.109,4.491,4.491,0,0,1-.432,2.022,1.356,1.356,0,0,1-1.244.867h-25.656a1.349,1.349,0,0,1-1.242-.867,4.468,4.468,0,0,1-.433-2.022,4.79,4.79,0,0,1,.433-2.109,1.353,1.353,0,0,1,1.242-.9h9.419a13.187,13.187,0,0,0,6.732-1.734,5.013,5.013,0,0,0,2.572-4.451v-2.252q0-.867-.492-1.011a3.137,3.137,0,0,0-.838-.146h-.463a1.355,1.355,0,0,1-1.242-.778,4.555,4.555,0,0,1,0-3.872,1.357,1.357,0,0,1,1.242-.78l.463-.058q1.043,0,1.184-.459a2.726,2.726,0,0,0,.145-.8v-3.5a2.053,2.053,0,0,0-.9-1.78,6.486,6.486,0,0,0-2.109-.945,11.794,11.794,0,0,0-2.4-.372c-.79-.037-1.377-.058-1.762-.058-.424,0-1.023.021-1.792.058a11.268,11.268,0,0,0-2.34.375,6.087,6.087,0,0,0-2.05.953,2.089,2.089,0,0,0-.868,1.791v.231a4.085,4.085,0,0,1,1.965-.953,13.422,13.422,0,0,1,2.427-.2,8.083,8.083,0,0,1,2.283.316,4.966,4.966,0,0,1,1.907,1.069,5.292,5.292,0,0,1,1.328,1.909,7.212,7.212,0,0,1,.493,2.831v7.743a3.389,3.389,0,0,1-.607,1.936,5.379,5.379,0,0,1-1.7,1.56,9.4,9.4,0,0,1-2.63,1.04,15.009,15.009,0,0,1-6.674,0,9.862,9.862,0,0,1-2.629-1.04,5.284,5.284,0,0,1-1.733-1.56,3.388,3.388,0,0,1-.607-1.936V858.554a8.2,8.2,0,0,1,1.011-4.247,7.68,7.68,0,0,1,2.8-2.746,12.9,12.9,0,0,1,4.218-1.474,29.756,29.756,0,0,1,5.2-.432,30.121,30.121,0,0,1,5.259.432,12.9,12.9,0,0,1,4.218,1.47A7.89,7.89,0,0,1,1280,854.3a7.994,7.994,0,0,1,1.042,4.239v3.056a5.212,5.212,0,0,1-.608,2.4,4.218,4.218,0,0,1-1.762,1.814,5.267,5.267,0,0,1,1.589,1.565,5.356,5.356,0,0,1,.781,3.127Zm-16.179-6.756c0-1.034-.716-1.549-2.14-1.549a3.089,3.089,0,0,0-1.387.344,1.145,1.145,0,0,0-.693,1.09v5.048q0,1.319,2.08,1.318c1.424,0,2.14-.438,2.14-1.318Z" transform="translate(-294.248 -80.936)" fill="#fff"/>
      <path id="Path_106060" data-name="Path 106060" d="M1276.048,884.067a1.77,1.77,0,0,1-1.445-.984,3.865,3.865,0,0,1-.634-2.136,5.9,5.9,0,0,1,.432-2.225c.29-.713.7-1.069,1.244-1.069a45.543,45.543,0,0,0,5.4-.375,63.7,63.7,0,0,0,6.3-1.1,65.312,65.312,0,0,0,6.326-1.762,36.827,36.827,0,0,0,5.578-2.34,16.045,16.045,0,0,0,3.96-2.831,4.679,4.679,0,0,0,1.5-3.323v-9.534a1.135,1.135,0,0,0-.759-1.011,4.048,4.048,0,0,0-1.81-.376,3.661,3.661,0,0,0-1.753.4,1.74,1.74,0,0,0-.936.982v14.1a1.546,1.546,0,0,1-.974,1.214,4.8,4.8,0,0,1-2.061.4,5.516,5.516,0,0,1-2.233-.4,1.337,1.337,0,0,1-.917-1.271V858.237a2.2,2.2,0,0,0-.839-1.82,5.645,5.645,0,0,0-1.945-.982,9.883,9.883,0,0,0-2.205-.377q-1.1-.055-1.684-.056t-1.624.056a8.526,8.526,0,0,0-2.063.377,4.831,4.831,0,0,0-1.769.982,2.3,2.3,0,0,0-.754,1.82l.047,1.387a3.167,3.167,0,0,1,1.668-.924,12.36,12.36,0,0,1,2.244-.173,7.607,7.607,0,0,1,2.3.345,5.467,5.467,0,0,1,1.926,1.069,5.025,5.025,0,0,1,1.324,1.909,7.527,7.527,0,0,1,.488,2.86v4.161a4.172,4.172,0,0,1-2.215,3.525,10.564,10.564,0,0,1-5.846,1.444,10.7,10.7,0,0,1-5.873-1.444,4.161,4.161,0,0,1-2.245-3.525v-10.4a9.269,9.269,0,0,1,.894-4.276,7.13,7.13,0,0,1,2.509-2.772,10.9,10.9,0,0,1,3.925-1.473,27.539,27.539,0,0,1,5.075-.435,25.737,25.737,0,0,1,5.4.551,11.139,11.139,0,0,1,4.242,1.762,5.245,5.245,0,0,1,1.584-1.271,8.268,8.268,0,0,1,1.846-.693,10.942,10.942,0,0,1,1.817-.289c.578-.039,1.079-.059,1.5-.059a9.509,9.509,0,0,1,5.711,1.591,5.565,5.565,0,0,1,2.193,4.825V867.02a5.245,5.245,0,0,1-.716,2.6,12.72,12.72,0,0,1-1.86,2.485,4.147,4.147,0,0,1,2.576,3.814v3.35a3.966,3.966,0,0,1-2.075,3.5,10.327,10.327,0,0,1-5.535,1.3,10.793,10.793,0,0,1-5.563-1.255,3.608,3.608,0,0,1-2.1-3.067v-.291q-2.6,1.05-5.282,1.9t-5.281,1.461q-2.6.609-4.908.934A30.218,30.218,0,0,1,1276.048,884.067Zm8.149-18.433q0-1.618-1.936-1.618a2.494,2.494,0,0,0-1.292.347,1.234,1.234,0,0,0-.586,1.156v1.443q0,1.389,1.878,1.388,1.933,0,1.936-1.388Zm20.513,11.441q0-.809-1.5-.809h-.522a.712.712,0,0,0-.4.116l-.347.231a.482.482,0,0,0-.289.4v.867q0,.693,1.562.693,1.5,0,1.5-.693Z" transform="translate(-282.439 -81.023)" fill="#fff"/>
      <path id="Path_106061" data-name="Path 106061" d="M1303.571,850.066q0-1.329-2.023-1.329-1.849,0-1.849,1.329v1.329a1.334,1.334,0,0,1-.894,1.271,5.409,5.409,0,0,1-2.227.4,5.294,5.294,0,0,1-2.138-.4,1.338,1.338,0,0,1-.925-1.271v-3.18a3.517,3.517,0,0,1,.578-1.934,5.45,5.45,0,0,1,1.647-1.589,8.5,8.5,0,0,1,2.571-1.069,13.574,13.574,0,0,1,3.3-.376,10.793,10.793,0,0,1,5.894,1.444,4.165,4.165,0,0,1,2.252,3.523v33.343a1.358,1.358,0,0,1-.923,1.242,5.3,5.3,0,0,1-2.255.433,4.794,4.794,0,0,1-2.109-.433,1.352,1.352,0,0,1-.9-1.242Z" transform="translate(-270.611 -84.813)" fill="#fff"/>
    </g>
  </g>
</svg>
