<svg xmlns="http://www.w3.org/2000/svg" width="242.142" height="66.536" viewBox="0 0 242.142 66.536">
  <g id="Tefun-logo" transform="translate(-424.532 -286.202)">
    <path id="Path_106106" data-name="Path 106106" d="M7.139-40.8H38.433L43.04-36.15V-31.5H27.393V0H18.179V-31.5H2.532V-36.15Zm86.017,9.3H61.861v6.6H93.155v9.214H61.861V-9.3H93.155V0h-35.9L52.648-4.648v-31.5L57.254-40.8h35.9v9.3Zm14.132-9.3h35.9v9.3H111.894v6.641h31.294v9.214H111.894V0H102.68V-36.15Zm76.8,0H193.3v36.15L188.7,0H157.4L152.8-4.648V-40.8h9.214V-9.3h22.08Zm50.033,0h9.214V0h-9.214l-22.08-26.646V0h-9.214V-40.8h9.214l22.08,25.9Z" transform="translate(422 327)" fill="#0fa76f"/>
    <path id="Path_106107" data-name="Path 106107" d="M.28-9.366H3.752V0H5.474V-9.366H8.96v-1.6H.28ZM15.736-3.248a4.567,4.567,0,0,0,.028-.518,4,4,0,0,0-.966-2.8A3.42,3.42,0,0,0,12.124-7.63,3.542,3.542,0,0,0,9.436-6.5,3.85,3.85,0,0,0,8.358-3.752,3.8,3.8,0,0,0,9.478-.966,3.843,3.843,0,0,0,12.278.14,3.545,3.545,0,0,0,15.47-1.666l-1.2-.8A2.109,2.109,0,0,1,12.25-1.3a2.282,2.282,0,0,1-1.512-.546,1.843,1.843,0,0,1-.672-1.4ZM12.124-6.2A1.8,1.8,0,0,1,14.07-4.508H10.15A1.934,1.934,0,0,1,12.124-6.2ZM20.8.126A3.513,3.513,0,0,0,23.03-.546a3.474,3.474,0,0,0,1.19-1.582l-1.456-.644a1.928,1.928,0,0,1-1.932,1.386,2.084,2.084,0,0,1-1.582-.672,2.417,2.417,0,0,1-.63-1.722,2.315,2.315,0,0,1,.63-1.68,2.136,2.136,0,0,1,1.568-.658,1.882,1.882,0,0,1,1.918,1.372l1.428-.644A3.365,3.365,0,0,0,20.8-7.63a3.686,3.686,0,0,0-2.772,1.148,3.81,3.81,0,0,0-1.12,2.73A3.768,3.768,0,0,0,18.032-.98,3.757,3.757,0,0,0,20.8.126ZM32.48,0V-4.606c0-1.792-.966-3.024-2.8-3.024a2.708,2.708,0,0,0-2.24,1.106V-11.4H25.774V0H27.44V-4.158a1.7,1.7,0,0,1,1.722-1.89c1.106,0,1.652.742,1.652,1.862V0Zm8.806,0V-4.606c0-1.792-.966-3.024-2.8-3.024A2.709,2.709,0,0,0,36.2-6.468V-7.476H34.58V0h1.666V-4.158a1.7,1.7,0,0,1,1.722-1.89c1.106,0,1.652.742,1.652,1.862V0ZM46.83-7.63a3.9,3.9,0,0,0-2.8,1.12,3.69,3.69,0,0,0-1.162,2.758A3.677,3.677,0,0,0,44.016-.994a3.9,3.9,0,0,0,2.8,1.12A3.823,3.823,0,0,0,49.6-.994,3.739,3.739,0,0,0,50.75-3.78,3.647,3.647,0,0,0,49.6-6.524,3.847,3.847,0,0,0,46.83-7.63Zm-1.638,2.2a2.1,2.1,0,0,1,1.624-.686,2.046,2.046,0,0,1,1.61.686,2.408,2.408,0,0,1,.63,1.68,2.462,2.462,0,0,1-.616,1.68,2.046,2.046,0,0,1-1.61.686,2.107,2.107,0,0,1-1.624-.7,2.468,2.468,0,0,1-.63-1.694A2.367,2.367,0,0,1,45.192-5.432ZM52.43,0H54.1V-11.4H52.43Zm7.28-7.63a3.9,3.9,0,0,0-2.8,1.12,3.69,3.69,0,0,0-1.162,2.758A3.677,3.677,0,0,0,56.9-.994,3.9,3.9,0,0,0,59.7.126a3.823,3.823,0,0,0,2.786-1.12A3.739,3.739,0,0,0,63.63-3.78a3.647,3.647,0,0,0-1.148-2.744A3.847,3.847,0,0,0,59.71-7.63Zm-1.638,2.2A2.1,2.1,0,0,1,59.7-6.118a2.046,2.046,0,0,1,1.61.686,2.408,2.408,0,0,1,.63,1.68,2.462,2.462,0,0,1-.616,1.68,2.046,2.046,0,0,1-1.61.686,2.107,2.107,0,0,1-1.624-.7,2.468,2.468,0,0,1-.63-1.694A2.367,2.367,0,0,1,58.072-5.432ZM68.432.056a3.356,3.356,0,0,0,1.316-.308A2.374,2.374,0,0,0,70.882-1.2V-.028a2.113,2.113,0,0,1-2.268,2.282A2.509,2.509,0,0,1,66.262.672l-1.386.8a3.776,3.776,0,0,0,3.766,2.268A3.907,3.907,0,0,0,71.47,2.7,3.712,3.712,0,0,0,72.548-.1V-7.476H70.924v1.134A2.46,2.46,0,0,0,69.8-7.28,3.287,3.287,0,0,0,68.488-7.6,3.4,3.4,0,0,0,65.8-6.426a3.969,3.969,0,0,0-1.008,2.66,3.86,3.86,0,0,0,1.022,2.688A3.393,3.393,0,0,0,68.432.056Zm2.478-3.85a2.408,2.408,0,0,1-.63,1.68,2.052,2.052,0,0,1-1.6.672,2.1,2.1,0,0,1-1.61-.672,2.462,2.462,0,0,1-.616-1.68,2.343,2.343,0,0,1,.616-1.652,2.082,2.082,0,0,1,1.61-.672,2.082,2.082,0,0,1,1.61.672A2.367,2.367,0,0,1,70.91-3.794Zm4.83-3.682h-1.9L77.168-.84,75.11,3.682h1.778L82.026-7.476H80.22l-2.156,4.9Zm17.71,2.87V-6.188H88.592V-9.366h5.264v-1.6H86.87V0h1.722V-4.606ZM95.3-7.476v4.592A2.714,2.714,0,0,0,98.1.154a2.709,2.709,0,0,0,2.282-1.162V0H102V-7.476h-1.666v4.158a1.7,1.7,0,0,1-1.722,1.89c-1.106,0-1.652-.742-1.652-1.862V-7.476ZM110.894,0V-4.606c0-1.792-.966-3.024-2.8-3.024a2.709,2.709,0,0,0-2.282,1.162V-7.476h-1.624V0h1.666V-4.158a1.7,1.7,0,0,1,1.722-1.89c1.106,0,1.652.742,1.652,1.862V0Zm1.582-3.752a3.915,3.915,0,0,0,1.05,2.716A3.408,3.408,0,0,0,116.158.112,3.536,3.536,0,0,0,117.5-.2a2.344,2.344,0,0,0,1.162-.966V0h1.624V-11.4h-1.666v4.984a2.215,2.215,0,0,0-1.106-.9,3.252,3.252,0,0,0-1.316-.308,3.43,3.43,0,0,0-2.7,1.176A3.959,3.959,0,0,0,112.476-3.752Zm3.934-2.366a2.066,2.066,0,0,1,1.61.686,2.408,2.408,0,0,1,.63,1.68,2.408,2.408,0,0,1-.63,1.68,2.082,2.082,0,0,1-1.61.672,2.133,2.133,0,0,1-1.624-.672,2.462,2.462,0,0,1-.616-1.68,2.462,2.462,0,0,1,.616-1.68A2.1,2.1,0,0,1,116.41-6.118Zm10.332,1.05c0,.42-.238.63-.7.63h-.924c-1.316,0-3.108.546-3.108,2.282v.084a1.988,1.988,0,0,0,.714,1.582,2.69,2.69,0,0,0,1.806.616,2.364,2.364,0,0,0,2.2-1.148V0h1.638V-4.76a3.289,3.289,0,0,0-.252-1.344,2.757,2.757,0,0,0-2.8-1.526,3.2,3.2,0,0,0-3.178,1.9L123.41-5a1.927,1.927,0,0,1,1.862-1.19C126.21-6.188,126.742-5.684,126.742-5.068Zm-.014,2.044a1.717,1.717,0,0,1-1.862,1.82,1.052,1.052,0,0,1-1.19-1.022.854.854,0,0,1,.448-.756,1.94,1.94,0,0,1,.994-.28h1.61ZM137.032,0V-4.172a1.667,1.667,0,0,1,1.652-1.89c1.106,0,1.6.714,1.6,1.848V0h1.666V-4.62c0-1.792-.91-3.024-2.716-3.024a3.232,3.232,0,0,0-2.6,1.232,2.43,2.43,0,0,0-2.31-1.232,2.679,2.679,0,0,0-2.226,1.176V-7.476h-1.624V0h1.666V-4.158a1.677,1.677,0,0,1,1.638-1.9c1.106,0,1.61.742,1.61,1.862V0ZM150.92-3.248a4.569,4.569,0,0,0,.028-.518,4,4,0,0,0-.966-2.8,3.42,3.42,0,0,0-2.674-1.064A3.542,3.542,0,0,0,144.62-6.5a3.85,3.85,0,0,0-1.078,2.744,3.8,3.8,0,0,0,1.12,2.786,3.843,3.843,0,0,0,2.8,1.106,3.545,3.545,0,0,0,3.192-1.806l-1.2-.8A2.109,2.109,0,0,1,147.434-1.3a2.282,2.282,0,0,1-1.512-.546,1.843,1.843,0,0,1-.672-1.4ZM147.308-6.2a1.8,1.8,0,0,1,1.946,1.694h-3.92A1.933,1.933,0,0,1,147.308-6.2Zm12,6.2V-4.606c0-1.792-.966-3.024-2.8-3.024a2.709,2.709,0,0,0-2.282,1.162V-7.476H152.6V0h1.666V-4.158a1.7,1.7,0,0,1,1.722-1.89c1.106,0,1.652.742,1.652,1.862V0Zm6.174-5.978v-1.5h-1.834v-2.31H161.98v2.31h-1.372v1.5h1.372v3.57A2.3,2.3,0,0,0,164.57.084a2.615,2.615,0,0,0,.9-.154V-1.484a2.373,2.373,0,0,1-.532.056c-.854,0-1.288-.35-1.288-1.246v-3.3Zm5.964.91c0,.42-.238.63-.7.63h-.924c-1.316,0-3.108.546-3.108,2.282v.084a1.988,1.988,0,0,0,.714,1.582,2.69,2.69,0,0,0,1.806.616,2.364,2.364,0,0,0,2.2-1.148V0h1.638V-4.76a3.289,3.289,0,0,0-.252-1.344,2.757,2.757,0,0,0-2.8-1.526,3.2,3.2,0,0,0-3.178,1.9L168.112-5a1.927,1.927,0,0,1,1.862-1.19C170.912-6.188,171.444-5.684,171.444-5.068Zm-.014,2.044a1.717,1.717,0,0,1-1.862,1.82,1.052,1.052,0,0,1-1.19-1.022.854.854,0,0,1,.448-.756,1.94,1.94,0,0,1,.994-.28h1.61ZM175.168,0h1.666V-11.4h-1.666Zm15.47-7.56a3.328,3.328,0,0,0-.966-2.408,3.818,3.818,0,0,0-2.87-.994h-3.878V0h1.722V-4.06h1.946a4.2,4.2,0,0,0,2.968-.994A3.314,3.314,0,0,0,190.638-7.56Zm-3.99-1.806a2.267,2.267,0,0,1,1.722.546,1.807,1.807,0,0,1,.518,1.3c0,1.008-.714,1.876-2.24,1.876h-2V-9.366Zm9.59,1.862a1.5,1.5,0,0,0-.406-.042,2.22,2.22,0,0,0-2.058,1.26v-1.19H192.15V0h1.666V-3.794a1.8,1.8,0,0,1,1.946-2.044,2.407,2.407,0,0,1,.476.042Zm4.634-.126a3.9,3.9,0,0,0-2.8,1.12,3.69,3.69,0,0,0-1.162,2.758,3.677,3.677,0,0,0,1.148,2.758,3.9,3.9,0,0,0,2.8,1.12,3.823,3.823,0,0,0,2.786-1.12,3.739,3.739,0,0,0,1.148-2.786,3.647,3.647,0,0,0-1.148-2.744A3.847,3.847,0,0,0,200.872-7.63Zm-1.638,2.2a2.1,2.1,0,0,1,1.624-.686,2.046,2.046,0,0,1,1.61.686,2.408,2.408,0,0,1,.63,1.68,2.462,2.462,0,0,1-.616,1.68,2.046,2.046,0,0,1-1.61.686,2.107,2.107,0,0,1-1.624-.7,2.468,2.468,0,0,1-.63-1.694A2.367,2.367,0,0,1,199.234-5.432ZM209.594.056a3.356,3.356,0,0,0,1.316-.308,2.374,2.374,0,0,0,1.134-.952V-.028a2.113,2.113,0,0,1-2.268,2.282A2.509,2.509,0,0,1,207.424.672l-1.386.8A3.776,3.776,0,0,0,209.8,3.738,3.907,3.907,0,0,0,212.632,2.7,3.712,3.712,0,0,0,213.71-.1V-7.476h-1.624v1.134a2.46,2.46,0,0,0-1.12-.938A3.287,3.287,0,0,0,209.65-7.6a3.4,3.4,0,0,0-2.688,1.176,3.969,3.969,0,0,0-1.008,2.66,3.86,3.86,0,0,0,1.022,2.688A3.393,3.393,0,0,0,209.594.056Zm2.478-3.85a2.408,2.408,0,0,1-.63,1.68,2.052,2.052,0,0,1-1.6.672,2.1,2.1,0,0,1-1.61-.672,2.462,2.462,0,0,1-.616-1.68,2.343,2.343,0,0,1,.616-1.652,2.082,2.082,0,0,1,1.61-.672,2.082,2.082,0,0,1,1.61.672A2.367,2.367,0,0,1,212.072-3.794Zm7.91-3.71a1.5,1.5,0,0,0-.406-.042,2.22,2.22,0,0,0-2.058,1.26v-1.19h-1.624V0h1.666V-3.794a1.8,1.8,0,0,1,1.946-2.044,2.407,2.407,0,0,1,.476.042Zm5.488,2.436c0,.42-.238.63-.7.63h-.924c-1.316,0-3.108.546-3.108,2.282v.084a1.988,1.988,0,0,0,.714,1.582,2.69,2.69,0,0,0,1.806.616,2.364,2.364,0,0,0,2.2-1.148V0h1.638V-4.76a3.289,3.289,0,0,0-.252-1.344,2.757,2.757,0,0,0-2.8-1.526,3.2,3.2,0,0,0-3.178,1.9L222.138-5A1.927,1.927,0,0,1,224-6.188C224.938-6.188,225.47-5.684,225.47-5.068Zm-.014,2.044a1.717,1.717,0,0,1-1.862,1.82,1.052,1.052,0,0,1-1.19-1.022.854.854,0,0,1,.448-.756,1.94,1.94,0,0,1,.994-.28h1.61ZM235.76,0V-4.172a1.667,1.667,0,0,1,1.652-1.89c1.106,0,1.6.714,1.6,1.848V0h1.666V-4.62c0-1.792-.91-3.024-2.716-3.024a3.232,3.232,0,0,0-2.6,1.232,2.43,2.43,0,0,0-2.31-1.232,2.679,2.679,0,0,0-2.226,1.176V-7.476h-1.624V0h1.666V-4.158a1.677,1.677,0,0,1,1.638-1.9c1.106,0,1.61.742,1.61,1.862V0Z" transform="translate(426 349)" fill="#fff"/>
  </g>
</svg>
