<svg xmlns="http://www.w3.org/2000/svg" width="240.805" height="40.798" viewBox="0 0 240.805 40.798">
  <g id="Tefun-logo" transform="translate(-424.532 -286.202)">
    <path id="Path_106106" data-name="Path 106106" d="M7.139-40.8H38.433L43.04-36.15V-31.5H27.393V0H18.179V-31.5H2.532V-36.15Zm86.017,9.3H61.861v6.6H93.155v9.214H61.861V-9.3H93.155V0h-35.9L52.648-4.648v-31.5L57.254-40.8h35.9v9.3Zm14.132-9.3h35.9v9.3H111.894v6.641h31.294v9.214H111.894V0H102.68V-36.15Zm76.8,0H193.3v36.15L188.7,0H157.4L152.8-4.648V-40.8h9.214V-9.3h22.08Zm50.033,0h9.214V0h-9.214l-22.08-26.646V0h-9.214V-40.8h9.214l22.08,25.9Z" transform="translate(422 327)" fill="#0fa76f"/>
  </g>
</svg>
