<svg id="twitter_-_color" data-name="twitter - color" xmlns="http://www.w3.org/2000/svg" width="31.123" height="25.287" viewBox="0 0 31.123 25.287">
  <path id="twitter" d="M31.123,50.994A13.3,13.3,0,0,1,27.446,52a6.345,6.345,0,0,0,2.807-3.527,12.751,12.751,0,0,1-4.046,1.544A6.38,6.38,0,0,0,15.17,54.382a6.57,6.57,0,0,0,.148,1.455A18.06,18.06,0,0,1,2.167,49.163a6.382,6.382,0,0,0,1.961,8.528A6.3,6.3,0,0,1,1.245,56.9v.07a6.41,6.41,0,0,0,5.112,6.269,6.368,6.368,0,0,1-1.673.21,5.641,5.641,0,0,1-1.208-.109A6.441,6.441,0,0,0,9.438,67.79a12.82,12.82,0,0,1-7.911,2.721A11.951,11.951,0,0,1,0,70.424a17.963,17.963,0,0,0,9.788,2.863c11.741,0,18.16-9.726,18.16-18.156,0-.282-.01-.554-.023-.825A12.729,12.729,0,0,0,31.123,50.994Z" transform="translate(0 -48)" fill="#03a9f4"/>
</svg>
