<svg xmlns="http://www.w3.org/2000/svg" xmlns:xlink="http://www.w3.org/1999/xlink" width="268" height="50" viewBox="0 0 268 50">
  <defs>
    <clipPath id="clip-path">
      <rect id="Rectangle_17982" data-name="Rectangle 17982" width="268" height="50" transform="translate(-0.019 0.445)" fill="#fff" opacity="0.372"/>
    </clipPath>
  </defs>
  <g id="Mask_Group_287" data-name="Mask Group 287" transform="translate(0.019 -0.445)" clip-path="url(#clip-path)">
    <g id="Group_46805" data-name="Group 46805" transform="translate(0.99 10.857)">
      <path id="Path_108796" data-name="Path 108796" d="M400.445,434.972q-.59,0-1.69.052a10.134,10.134,0,0,0-2.172.349,5.693,5.693,0,0,0-1.9.908,1.98,1.98,0,0,0-.831,1.682l.042.212a3.592,3.592,0,0,1,1.844-.853,15,15,0,0,1,2.273-.16,7.379,7.379,0,0,1,2.112.294,4.758,4.758,0,0,1,1.764.96,4.609,4.609,0,0,1,1.23,1.764,6.864,6.864,0,0,1,.455,2.643v7.208a3.839,3.839,0,0,1-2.136,3.259,10.345,10.345,0,0,1-5.554,1.335,13.117,13.117,0,0,1-3.124-.347,8.186,8.186,0,0,1-2.43-.988,5.562,5.562,0,0,1-1.6-1.47,3.026,3.026,0,0,1-.588-1.789V438.175a7.592,7.592,0,0,1,.958-3.952,7.206,7.206,0,0,1,2.611-2.562A11.792,11.792,0,0,1,395.6,430.3a27.56,27.56,0,0,1,4.849-.4,28.03,28.03,0,0,1,4.876.4,12.086,12.086,0,0,1,3.943,1.362,7.124,7.124,0,0,1,2.638,2.562,7.579,7.579,0,0,1,.96,3.952v9.347a15.32,15.32,0,0,1-.237,2.67,12.123,12.123,0,0,1-.742,2.537,10.858,10.858,0,0,1-1.218,2.188A5.183,5.183,0,0,1,409,456.44h4.593a1.249,1.249,0,0,1,1.148.826,4.439,4.439,0,0,1,.4,1.951,4.14,4.14,0,0,1-.4,1.869,1.247,1.247,0,0,1-1.148.8H389.736a1.283,1.283,0,0,1-1.2-.8,4.159,4.159,0,0,1-.4-1.869,4.438,4.438,0,0,1,.4-1.951,1.283,1.283,0,0,1,1.2-.826h8.7a9.764,9.764,0,0,0,3.525-.722,8.866,8.866,0,0,0,2.75-1.761,7.821,7.821,0,0,0,2.43-5.741V437.963a1.947,1.947,0,0,0-.857-1.71,6.294,6.294,0,0,0-1.985-.88,11,11,0,0,0-2.225-.349Q400.98,434.973,400.445,434.972Zm-2.59,8.7q0-1.44-2.056-1.44a3.2,3.2,0,0,0-1.273.294,1.049,1.049,0,0,0-.676,1.041v4.7q0,1.282,1.949,1.28,2.056,0,2.056-1.28Z" transform="translate(-388.135 -429.897)" fill="#fff"/>
      <path id="Path_108797" data-name="Path 108797" d="M424.612,455.943a1.254,1.254,0,0,1-.853,1.148,4.895,4.895,0,0,1-2.084.4,4.431,4.431,0,0,1-1.949-.4,1.251,1.251,0,0,1-.828-1.148v-19.6q0-.587-.854-.909a5.478,5.478,0,0,0-1.923-.319,4.95,4.95,0,0,0-1.789.319c-.552.215-.826.518-.826.909v19.6a1.256,1.256,0,0,1-.856,1.148,4.884,4.884,0,0,1-2.083.4,4.419,4.419,0,0,1-1.948-.4,1.251,1.251,0,0,1-.829-1.148v-21.31a2.737,2.737,0,0,1,.694-1.789,6.5,6.5,0,0,1,1.842-1.467,10.029,10.029,0,0,1,2.67-.988,14.247,14.247,0,0,1,3.178-.347,14.628,14.628,0,0,1,3.206.347,10.007,10.007,0,0,1,2.7.988,6.478,6.478,0,0,1,1.842,1.467,2.737,2.737,0,0,1,.694,1.789Z" transform="translate(-378.633 -429.827)" fill="#fff"/>
      <path id="Path_108798" data-name="Path 108798" d="M436.164,448.905a8.187,8.187,0,0,1-.214,2.1,3.1,3.1,0,0,1-.639,1.249H441.4v-13.51h-9.665a1.17,1.17,0,0,1-.963-.481,2.034,2.034,0,0,1,0-2.35,1.167,1.167,0,0,1,.963-.482.661.661,0,0,0,.479-.212.727.727,0,0,0,.215-.536v-.8c0-.39-.518-.586-1.549-.586s-1.549.2-1.549.586v3.845a.9.9,0,0,1-.669.854,4.36,4.36,0,0,1-1.627.268,4.2,4.2,0,0,1-1.577-.268.9.9,0,0,1-.668-.854v-4.858q0-1.175,1.709-2a10.23,10.23,0,0,1,4.434-.826,9.9,9.9,0,0,1,4.351.826q1.682.83,1.682,2v.8a6,6,0,0,1-.053.881,2.8,2.8,0,0,1-.159.614H441.4v-3.578a1.255,1.255,0,0,1,.856-1.15,4.9,4.9,0,0,1,2.083-.4,4.445,4.445,0,0,1,1.948.4,1.255,1.255,0,0,1,.829,1.15v24.19a1.252,1.252,0,0,1-.829,1.15,4.445,4.445,0,0,1-1.948.4H429.383a1.249,1.249,0,0,1-1.15-.755,4.238,4.238,0,0,1,0-3.59,1.254,1.254,0,0,1,1.15-.728.907.907,0,0,0,.748-.476,1.964,1.964,0,0,0,.319-1.114v-5.2q0-1.219-2.136-1.219a2.938,2.938,0,0,0-1.467.32,1,1,0,0,0-.561.908v10.467a1.253,1.253,0,0,1-.829,1.148,4.7,4.7,0,0,1-2.054.4,4.567,4.567,0,0,1-2-.4,1.251,1.251,0,0,1-.828-1.148V443.767a3.022,3.022,0,0,1,.589-1.789,5.453,5.453,0,0,1,1.627-1.47,8.58,8.58,0,0,1,2.458-.988,14.164,14.164,0,0,1,6.22,0,8.562,8.562,0,0,1,2.485.983,5.517,5.517,0,0,1,1.629,1.463,3.02,3.02,0,0,1,.586,1.782Z" transform="translate(-372.455 -429.827)" fill="#fff"/>
      <path id="Path_108799" data-name="Path 108799" d="M446.453,436.29q-.109-1.175-1.817-1.175a1.18,1.18,0,0,1-1.147-.748,4.129,4.129,0,0,1-.347-1.764,4.045,4.045,0,0,1,.372-1.814,1.235,1.235,0,0,1,1.175-.748,9.663,9.663,0,0,1,5.422,1.362,3.915,3.915,0,0,1,2.056,3.283l-2.138,15.382a6.888,6.888,0,0,1,3.179,1.494,3.263,3.263,0,0,1,1.2,2.511v6.781a3.774,3.774,0,0,1-1.948,3.391,10.089,10.089,0,0,1-5.314,1.2,10.231,10.231,0,0,1-5.342-1.2,3.726,3.726,0,0,1-1.976-3.338v-6.781a3.322,3.322,0,0,1,1.2-2.378,7.272,7.272,0,0,1,3.284-1.681Zm-.908,23.016a1.2,1.2,0,0,0,.24.749q.238.321,1.308.32a2.355,2.355,0,0,0,1.253-.24.935.935,0,0,0,.349-.829v-3.577a.935.935,0,0,0-.349-.829,2.355,2.355,0,0,0-1.253-.24,2.209,2.209,0,0,0-1.23.24.977.977,0,0,0-.319.829Z" transform="translate(-363.144 -429.827)" fill="#fff"/>
      <path id="Path_108800" data-name="Path 108800" d="M467.243,448.9a9.316,9.316,0,0,1-.187,2.1,2.876,2.876,0,0,1-.614,1.252h4.538V431.588a1.253,1.253,0,0,1,.855-1.147,4.909,4.909,0,0,1,2.084-.4,4.445,4.445,0,0,1,1.948.4,1.255,1.255,0,0,1,.829,1.15v24.19a1.252,1.252,0,0,1-.829,1.15,4.445,4.445,0,0,1-1.948.4h-13.4a1.252,1.252,0,0,1-1.15-.755,4.236,4.236,0,0,1,0-3.59,1.257,1.257,0,0,1,1.15-.728.849.849,0,0,0,.721-.478,2.11,2.11,0,0,0,.292-1.118V436.339a1,1,0,0,0-.694-.9,4.084,4.084,0,0,0-1.708-.319,3.937,3.937,0,0,0-1.655.319,1,1,0,0,0-.694.909v19.6a1.254,1.254,0,0,1-.855,1.148,4.893,4.893,0,0,1-2.083.4,4.437,4.437,0,0,1-1.951-.4,1.25,1.25,0,0,1-.826-1.148v-21.31a2.877,2.877,0,0,1,.639-1.789,5.971,5.971,0,0,1,1.737-1.467,9.233,9.233,0,0,1,2.563-.988,14.506,14.506,0,0,1,6.3,0,9.308,9.308,0,0,1,2.562.985,5.994,5.994,0,0,1,1.737,1.466,2.865,2.865,0,0,1,.641,1.786Z" transform="translate(-357.714 -429.827)" fill="#fff"/>
      <path id="Path_108801" data-name="Path 108801" d="M481.834,430.042a27.046,27.046,0,0,1,4.78.4,11.317,11.317,0,0,1,3.818,1.362,7.006,7.006,0,0,1,2.508,2.538,7.747,7.747,0,0,1,.909,3.925V452.9a3.128,3.128,0,0,1-.561,1.789,5.128,5.128,0,0,1-1.6,1.467,8.512,8.512,0,0,1-2.458.988,12.857,12.857,0,0,1-3.069.349,10.212,10.212,0,0,1-5.5-1.337,3.837,3.837,0,0,1-2.136-3.256V442.857a6.662,6.662,0,0,1,.454-2.615,4.91,4.91,0,0,1,1.227-1.764,4.6,4.6,0,0,1,1.764-.988,7.41,7.41,0,0,1,2.109-.292,12.86,12.86,0,0,1,2.27.187,3.476,3.476,0,0,1,1.789.881v-.214a1.961,1.961,0,0,0-.774-1.656,5.392,5.392,0,0,0-1.816-.881,9.5,9.5,0,0,0-2.109-.347c-.712-.036-1.248-.053-1.6-.053q-.481,0-1.522.053a9.464,9.464,0,0,0-2.084.347,5.385,5.385,0,0,0-1.814.881,1.957,1.957,0,0,0-.774,1.656v17.89a1.254,1.254,0,0,1-.855,1.148,4.888,4.888,0,0,1-2.083.4,4.438,4.438,0,0,1-1.951-.4,1.25,1.25,0,0,1-.826-1.148V438.266a8.376,8.376,0,0,1,.826-3.925A6.585,6.585,0,0,1,473.1,431.8a10.469,10.469,0,0,1,3.738-1.362A28.377,28.377,0,0,1,481.834,430.042Zm2.4,21.148q0,1.228,1.976,1.228,1.922,0,1.922-1.228v-7.585a1.062,1.062,0,0,0-.641-1.013,2.849,2.849,0,0,0-1.282-.32q-1.976,0-1.976,1.44Z" transform="translate(-348.594 -429.827)" fill="#fff"/>
      <path id="Path_108802" data-name="Path 108802" d="M494.009,436.29q-.109-1.175-1.817-1.175a1.18,1.18,0,0,1-1.147-.748,4.108,4.108,0,0,1-.349-1.764,4.023,4.023,0,0,1,.374-1.814,1.235,1.235,0,0,1,1.175-.748,9.656,9.656,0,0,1,5.421,1.362,3.915,3.915,0,0,1,2.056,3.283l-2.136,15.382a6.889,6.889,0,0,1,3.178,1.494,3.265,3.265,0,0,1,1.2,2.511v6.781a3.776,3.776,0,0,1-1.949,3.391,10.085,10.085,0,0,1-5.314,1.2,10.225,10.225,0,0,1-5.34-1.2,3.726,3.726,0,0,1-1.976-3.338v-6.781a3.32,3.32,0,0,1,1.2-2.378,7.28,7.28,0,0,1,3.284-1.681Zm-.909,23.016a1.214,1.214,0,0,0,.24.749q.24.321,1.309.32a2.36,2.36,0,0,0,1.255-.24.938.938,0,0,0,.347-.829v-3.577a.938.938,0,0,0-.347-.829,2.361,2.361,0,0,0-1.255-.24,2.207,2.207,0,0,0-1.228.24.978.978,0,0,0-.32.829Z" transform="translate(-340.154 -429.827)" fill="#fff"/>
      <path id="Path_108803" data-name="Path 108803" d="M550.513,434.972a1.558,1.558,0,0,1-.457.027,1.193,1.193,0,0,0-.4.025,8.874,8.874,0,0,1,1.694,5.5v11.7a4.215,4.215,0,0,1-1.065,3.1,6.6,6.6,0,0,1-2.476,1.574,9.8,9.8,0,0,1-2.742.589q-1.33.08-1.863.08-.585,0-1.889-.08a9.516,9.516,0,0,1-2.689-.589,6.4,6.4,0,0,1-2.421-1.58,4.2,4.2,0,0,1-1.039-3.052v-11.83a9.518,9.518,0,0,1,1.536-5.407h-.745a5.578,5.578,0,0,0-2.13.322,2.307,2.307,0,0,0-1.092.884,2.9,2.9,0,0,0-.4,1.338q-.054.776-.054,1.687v16.7a1.286,1.286,0,0,1-.854,1.2,4.88,4.88,0,0,1-2.081.4,4.614,4.614,0,0,1-1.977-.4,1.286,1.286,0,0,1-.855-1.2l-.053-16.7c0-.607-.019-1.169-.053-1.687a2.867,2.867,0,0,0-.4-1.338,2.338,2.338,0,0,0-1.132-.884,5.932,5.932,0,0,0-2.182-.322c-.252.037-.369.046-.35.028s-.1-.009-.35.025a9.485,9.485,0,0,1,1.535,5.4v11.8a4.189,4.189,0,0,1-1.04,3.044,6.387,6.387,0,0,1-2.421,1.574,9.5,9.5,0,0,1-2.715.589c-.887.053-1.509.08-1.862.08s-.976-.027-1.865-.08a9.841,9.841,0,0,1-2.741-.589,6.6,6.6,0,0,1-2.474-1.58,4.219,4.219,0,0,1-1.065-3.1V440.486a9.251,9.251,0,0,1,1.641-5.514h-.807a5.929,5.929,0,0,0-2.182.32,2.317,2.317,0,0,0-1.13.884,2.867,2.867,0,0,0-.405,1.338c-.035.518-.053,1.078-.053,1.687v16.754a1.285,1.285,0,0,1-.845,1.2,4.8,4.8,0,0,1-2.064.4,4.526,4.526,0,0,1-1.958-.4,1.286,1.286,0,0,1-.847-1.2V437.322a8.318,8.318,0,0,1,.641-3.445,5.7,5.7,0,0,1,1.842-2.3,7.871,7.871,0,0,1,2.857-1.282,15.938,15.938,0,0,1,3.74-.4,27.19,27.19,0,0,1,7.742.963,26.78,26.78,0,0,1,3.5-.669,33.255,33.255,0,0,1,4.139-.24,15.906,15.906,0,0,1,3.443.349,8.5,8.5,0,0,1,2.752,1.095,8.446,8.446,0,0,1,2.777-1.095,16.267,16.267,0,0,1,3.47-.349,28.719,28.719,0,0,1,7.585.909,27.4,27.4,0,0,1,7.8-.963,15.93,15.93,0,0,1,3.737.4,7.61,7.61,0,0,1,2.83,1.282,5.8,5.8,0,0,1,1.816,2.3,8.318,8.318,0,0,1,.642,3.445v18.636a1.286,1.286,0,0,1-.829,1.2,4.427,4.427,0,0,1-1.948.4,4.884,4.884,0,0,1-2.084-.4,1.286,1.286,0,0,1-.854-1.2V439.2c0-.608-.018-1.169-.053-1.687a2.865,2.865,0,0,0-.405-1.338,2.312,2.312,0,0,0-1.129-.884A5.94,5.94,0,0,0,550.513,434.972Zm-32.705,5.821a5.645,5.645,0,0,0-.487-2.138,4.425,4.425,0,0,0-1.889-2.029,4.18,4.18,0,0,0-1.918,2.058,6.147,6.147,0,0,0-.46,2.163v8.278a6.187,6.187,0,0,0,.188,1.736,2.2,2.2,0,0,0,.515.935,1.429,1.429,0,0,0,.755.4,4.913,4.913,0,0,0,.92.082,5.239,5.239,0,0,0,.972-.082,1.45,1.45,0,0,0,.757-.4,2.027,2.027,0,0,0,.485-.963,7.49,7.49,0,0,0,.162-1.761Zm23.07,8.277a7.5,7.5,0,0,0,.162,1.761,2.04,2.04,0,0,0,.485.963,1.446,1.446,0,0,0,.758.4,5.226,5.226,0,0,0,.972.082,4.913,4.913,0,0,0,.918-.082,1.427,1.427,0,0,0,.755-.4,2.215,2.215,0,0,0,.515-.935,6.185,6.185,0,0,0,.189-1.736v-8.278a5.5,5.5,0,0,0-.513-2.191,4.583,4.583,0,0,0-1.918-2.029,4.268,4.268,0,0,0-1.863,2.029,5.947,5.947,0,0,0-.458,2.138Z" transform="translate(-334.689 -429.897)" fill="#fff"/>
      <path id="Path_108804" data-name="Path 108804" d="M547.386,440.723a1.249,1.249,0,0,1-.854,1.147,4.864,4.864,0,0,1-2.083.4,4.41,4.41,0,0,1-1.949-.4,1.244,1.244,0,0,1-.828-1.147v-6.09a2.948,2.948,0,0,1,.614-1.789,5.8,5.8,0,0,1,1.656-1.467,8.53,8.53,0,0,1,2.483-.988,13.207,13.207,0,0,1,3.1-.347,13.548,13.548,0,0,1,3.124.347,8.506,8.506,0,0,1,2.51.988,5.819,5.819,0,0,1,1.655,1.467,2.958,2.958,0,0,1,.614,1.789V452.9a2.952,2.952,0,0,1-.614,1.789,5.8,5.8,0,0,1-1.655,1.467,8.47,8.47,0,0,1-2.51.988,13.549,13.549,0,0,1-3.124.349,13.207,13.207,0,0,1-3.1-.349,8.492,8.492,0,0,1-2.483-.988,5.779,5.779,0,0,1-1.656-1.467,2.943,2.943,0,0,1-.614-1.789v-6.143a1.246,1.246,0,0,1,.828-1.147,4.412,4.412,0,0,1,1.949-.4,4.867,4.867,0,0,1,2.083.4,1.251,1.251,0,0,1,.854,1.147v4.434a.994.994,0,0,0,.587.908,3.249,3.249,0,0,0,1.549.32,3.387,3.387,0,0,0,1.6-.32,1,1,0,0,0,.588-.908V436.344a1,1,0,0,0-.588-.909,3.388,3.388,0,0,0-1.6-.319,3.25,3.25,0,0,0-1.549.319,1,1,0,0,0-.587.909Z" transform="translate(-313.909 -429.827)" fill="#fff"/>
      <path id="Path_108805" data-name="Path 108805" d="M553.552,440.318a3.133,3.133,0,0,1,.561-1.792,5.048,5.048,0,0,1,1.549-1.448,8.268,8.268,0,0,1,2.376-.963,12.63,12.63,0,0,1,3.1-.35,12.4,12.4,0,0,1,3.044.35,8.684,8.684,0,0,1,2.4.963,4.98,4.98,0,0,1,1.576,1.448,3.134,3.134,0,0,1,.561,1.792v9.8a3.143,3.143,0,0,1-.561,1.795,5.269,5.269,0,0,1-1.576,1.472,8.149,8.149,0,0,1-2.4.991,12.554,12.554,0,0,1-3.044.348,10.066,10.066,0,0,1-5.474-1.34,3.851,3.851,0,0,1-2.109-3.267Zm5.714,8.106q0,1.228,1.816,1.228,1.922,0,1.922-1.228v-6.357q0-1.226-1.922-1.228-1.816,0-1.816,1.228Z" transform="translate(-308.166 -427.06)" fill="#fff"/>
      <path id="Path_108806" data-name="Path 108806" d="M565.432,431.591a1.256,1.256,0,0,1,.854-1.15,4.9,4.9,0,0,1,2.083-.4,4.452,4.452,0,0,1,1.949.4,1.253,1.253,0,0,1,.828,1.15v16.235a1.246,1.246,0,0,1-.828,1.147,4.409,4.409,0,0,1-1.949.4,4.854,4.854,0,0,1-2.083-.4,1.249,1.249,0,0,1-.854-1.147Zm5.018,24.352c0,.249-.212.445-.64.586a4.508,4.508,0,0,1-1.442.215,4.877,4.877,0,0,1-1.549-.215q-.641-.211-.641-.586v-3.259c0-.248.2-.444.614-.586a4.478,4.478,0,0,1,1.469-.215,4.924,4.924,0,0,1,1.549.215c.427.142.64.338.64.586Z" transform="translate(-302.422 -429.827)" fill="#fff"/>
    </g>
  </g>
</svg>
