<svg xmlns="http://www.w3.org/2000/svg" xmlns:xlink="http://www.w3.org/1999/xlink" width="247" height="87" viewBox="0 0 247 87">
  <defs>
    <clipPath id="clip-path">
      <rect id="Rectangle_17980" data-name="Rectangle 17980" width="247" height="87" transform="translate(0.492 0.038)" fill="#fff" opacity="0.379"/>
    </clipPath>
  </defs>
  <g id="Mask_Group_285" data-name="Mask Group 285" transform="translate(-0.492 -0.038)" clip-path="url(#clip-path)">
    <g id="Group_46799" data-name="Group 46799" transform="translate(0.36 17.132)">
      <path id="Path_108773" data-name="Path 108773" d="M614.6,414.72a3.5,3.5,0,0,1-.782,2.182,7.247,7.247,0,0,1-2.117,1.789,11.214,11.214,0,0,1-3.159,1.2,16.959,16.959,0,0,1-3.843.423,16.523,16.523,0,0,1-3.81-.423,11.751,11.751,0,0,1-3.159-1.2,7.132,7.132,0,0,1-2.149-1.789,3.5,3.5,0,0,1-.78-2.182V394.529a1.226,1.226,0,0,0-.848-1.109,5.08,5.08,0,0,0-3.908,0,1.851,1.851,0,0,0-1.04.912v24.1a1.534,1.534,0,0,1-1.044,1.4,5.784,5.784,0,0,1-2.475.487,5.619,5.619,0,0,1-2.41-.487,1.532,1.532,0,0,1-1.042-1.4v-24.1a1.869,1.869,0,0,0-1.042-.912,4.645,4.645,0,0,0-1.954-.391,4.872,4.872,0,0,0-1.987.391,1.227,1.227,0,0,0-.88,1.109v23.9a1.529,1.529,0,0,1-1.009,1.4,5.737,5.737,0,0,1-2.508.487,5.62,5.62,0,0,1-2.41-.487,1.532,1.532,0,0,1-1.042-1.4V392.443a4.7,4.7,0,0,1,2.475-3.971,11.537,11.537,0,0,1,6.448-1.63c.434,0,.966.024,1.6.067a11.663,11.663,0,0,1,1.985.324,10.055,10.055,0,0,1,2.019.749,6.1,6.1,0,0,1,1.759,1.337,5.929,5.929,0,0,1,1.791-1.337,11.1,11.1,0,0,1,2.021-.749,10.908,10.908,0,0,1,1.952-.324c.628-.043,1.183-.067,1.661-.067a11.389,11.389,0,0,1,6.418,1.63,4.715,4.715,0,0,1,2.441,3.971v20.191a1.225,1.225,0,0,0,.881,1.109,4.858,4.858,0,0,0,1.985.389,5.224,5.224,0,0,0,2.117-.389,1.226,1.226,0,0,0,.879-1.109v-23.9a1.526,1.526,0,0,1,1.01-1.4,5.409,5.409,0,0,1,2.377-.488,5.956,5.956,0,0,1,2.54.488,1.53,1.53,0,0,1,1.042,1.4Z" transform="translate(-569.201 -378.897)" fill="#fff"/>
      <path id="Path_108774" data-name="Path 108774" d="M602.81,399.87a1.526,1.526,0,0,1-1.042,1.4,5.933,5.933,0,0,1-2.54.49,5.377,5.377,0,0,1-2.377-.49,1.52,1.52,0,0,1-1.01-1.4v-7.427a3.6,3.6,0,0,1,.749-2.182,7.077,7.077,0,0,1,2.019-1.789,10.383,10.383,0,0,1,3.029-1.2,16.105,16.105,0,0,1,3.778-.425,16.525,16.525,0,0,1,3.81.425,10.378,10.378,0,0,1,3.061,1.2,7.1,7.1,0,0,1,2.019,1.789,3.608,3.608,0,0,1,.749,2.182V414.72a3.6,3.6,0,0,1-.749,2.182,7.076,7.076,0,0,1-2.019,1.789,10.329,10.329,0,0,1-3.061,1.2,16.524,16.524,0,0,1-3.81.423,16.105,16.105,0,0,1-3.778-.423,10.333,10.333,0,0,1-3.029-1.2,7.051,7.051,0,0,1-2.019-1.789,3.593,3.593,0,0,1-.749-2.182v-7.492a1.52,1.52,0,0,1,1.01-1.4,5.377,5.377,0,0,1,2.377-.49,5.934,5.934,0,0,1,2.54.49,1.526,1.526,0,0,1,1.042,1.4v5.406a1.212,1.212,0,0,0,.716,1.109,3.965,3.965,0,0,0,1.889.389,4.134,4.134,0,0,0,1.954-.389,1.215,1.215,0,0,0,.716-1.109V394.529a1.217,1.217,0,0,0-.716-1.109,4.131,4.131,0,0,0-1.954-.391,3.963,3.963,0,0,0-1.889.391,1.214,1.214,0,0,0-.716,1.109Z" transform="translate(-547.642 -378.897)" fill="#fff"/>
      <path id="Path_108775" data-name="Path 108775" d="M631.61,420.32c-.434,0-.977-.031-1.63-.1a13.159,13.159,0,0,1-1.985-.36,10.7,10.7,0,0,1-2.019-.749,5.893,5.893,0,0,1-1.793-1.335,5.886,5.886,0,0,1-1.791,1.335,10.5,10.5,0,0,1-2.052.749,14.253,14.253,0,0,1-1.985.36,15.923,15.923,0,0,1-1.6.1,11.356,11.356,0,0,1-6.416-1.628,4.717,4.717,0,0,1-2.444-3.971V388.73a1.526,1.526,0,0,1,1.009-1.4,5.571,5.571,0,0,1,2.444-.488,5.733,5.733,0,0,1,2.506.488,1.528,1.528,0,0,1,1.011,1.4v23.9a1.217,1.217,0,0,0,.847,1.109,4.8,4.8,0,0,0,2.019.389,4.706,4.706,0,0,0,1.92-.389,1.854,1.854,0,0,0,1.075-.912v-24.1a1.532,1.532,0,0,1,1.042-1.4,5.621,5.621,0,0,1,2.41-.488,5.856,5.856,0,0,1,2.444.488,1.537,1.537,0,0,1,1.075,1.4v24.1c.087.347.422.65,1.008.912a4.717,4.717,0,0,0,1.923.389,4.808,4.808,0,0,0,2.017-.389,1.219,1.219,0,0,0,.849-1.109v-23.9a1.528,1.528,0,0,1,1.04-1.4,5.962,5.962,0,0,1,2.54-.488,5.417,5.417,0,0,1,2.379.488,1.527,1.527,0,0,1,1.008,1.4v25.99a4.717,4.717,0,0,1-2.441,3.971A11.372,11.372,0,0,1,631.61,420.32Z" transform="translate(-537.883 -378.897)" fill="#fff"/>
      <path id="Path_108776" data-name="Path 108776" d="M633.777,388.73a1.526,1.526,0,0,1,1.01-1.4,5.4,5.4,0,0,1,2.378-.488,5.956,5.956,0,0,1,2.54.488,1.532,1.532,0,0,1,1.042,1.4v37.584a4.69,4.69,0,0,1-2.54,3.971,12.141,12.141,0,0,1-6.644,1.63,15.3,15.3,0,0,1-3.713-.425,9.568,9.568,0,0,1-2.9-1.2,6.123,6.123,0,0,1-1.856-1.791,3.945,3.945,0,0,1-.651-2.18V422.73a1.509,1.509,0,0,1,1.042-1.433,5.966,5.966,0,0,1,2.41-.456,6.093,6.093,0,0,1,2.508.456,1.506,1.506,0,0,1,1.01,1.433v1.5q0,1.5,2.084,1.5,2.28,0,2.28-1.5Z" transform="translate(-526.113 -378.897)" fill="#fff"/>
      <path id="Path_108777" data-name="Path 108777" d="M663.2,393.015c-.349,0-.632-.009-.847-.031a3.41,3.41,0,0,0-.784.031,6.267,6.267,0,0,1,1.954,2.866,10.938,10.938,0,0,1,.653,3.714V413.99a5.11,5.11,0,0,1-1.27,3.713,7.881,7.881,0,0,1-2.931,1.92,11.3,11.3,0,0,1-3.289.718q-1.628.1-2.281.1c-.476,0-1.259-.031-2.343-.1a11.652,11.652,0,0,1-3.322-.718,8.144,8.144,0,0,1-3-1.92,5.118,5.118,0,0,1-1.3-3.778V399.659a11.233,11.233,0,0,1,.651-3.743,7.314,7.314,0,0,1,1.824-2.965H645.4a6.95,6.95,0,0,0-2.634.393,2.812,2.812,0,0,0-1.35,1.075,3.478,3.478,0,0,0-.5,1.626q-.063.947-.063,2.054v20.385a1.569,1.569,0,0,1-1.033,1.467,5.85,5.85,0,0,1-2.517.487,5.479,5.479,0,0,1-2.421-.487,1.564,1.564,0,0,1-1-1.467v-22.73a10.145,10.145,0,0,1,.78-4.2,7.058,7.058,0,0,1,2.211-2.8,9.283,9.283,0,0,1,3.447-1.565,19.459,19.459,0,0,1,4.552-.489,30.468,30.468,0,0,1,5.1.393,16.813,16.813,0,0,1,4.391,1.368,14.579,14.579,0,0,1,4.257-1.3,31.616,31.616,0,0,1,5.042-.393,19.383,19.383,0,0,1,4.55.49,9.254,9.254,0,0,1,3.446,1.563,7.072,7.072,0,0,1,2.211,2.8,10.14,10.14,0,0,1,.782,4.2v22.732a1.564,1.564,0,0,1-1,1.466,5.448,5.448,0,0,1-2.421.49,5.822,5.822,0,0,1-2.517-.49,1.564,1.564,0,0,1-1.031-1.466V398.162c0-.738-.023-1.422-.065-2.054a3.5,3.5,0,0,0-.489-1.626,2.822,2.822,0,0,0-1.337-1.077A6.833,6.833,0,0,0,663.2,393.015Zm-5.994,6.971a6.96,6.96,0,0,0-.584-2.607,5.389,5.389,0,0,0-2.282-2.475,5.04,5.04,0,0,0-2.375,2.509,7.551,7.551,0,0,0-.554,2.638v10.1a7.561,7.561,0,0,0,.228,2.117,2.678,2.678,0,0,0,.619,1.14,1.732,1.732,0,0,0,.943.487,6.561,6.561,0,0,0,1.14.1,6.405,6.405,0,0,0,1.174-.1,1.728,1.728,0,0,0,.912-.487,2.5,2.5,0,0,0,.586-1.174,9.279,9.279,0,0,0,.193-2.148Z" transform="translate(-516.849 -379.013)" fill="#fff"/>
      <path id="Path_108778" data-name="Path 108778" d="M688.754,397.185h3.192a8.715,8.715,0,0,1,5.569,1.724,5.635,5.635,0,0,1,2.182,4.657V413.86a5.872,5.872,0,0,1-2.086,4.983,9.583,9.583,0,0,1-5.925,1.594,2.352,2.352,0,0,1-2.149-.919,3.971,3.971,0,0,1-.586-2.175,4.644,4.644,0,0,1,.5-2.238,1.532,1.532,0,0,1,1.556-.856q1.723,0,1.724-1.554v-7.186a2.1,2.1,0,0,0-.563-1.617,2.756,2.756,0,0,0-1.887-.518h-1.523v11.464a3.508,3.508,0,0,1-.781,2.182,7.233,7.233,0,0,1-2.119,1.789,11.224,11.224,0,0,1-3.157,1.2,17.263,17.263,0,0,1-3.908.423,16.25,16.25,0,0,1-4.3-.552,10.664,10.664,0,0,1-3.322-1.467,7.719,7.719,0,0,1-2.41,1.532,8.9,8.9,0,0,1-3.322.554,9.63,9.63,0,0,1-2.7-.391,6.708,6.708,0,0,1-2.377-1.239,6.574,6.574,0,0,1-1.694-2.082,6.21,6.21,0,0,1-.651-2.931V403.567a5.625,5.625,0,0,1,2.182-4.657,8.607,8.607,0,0,1,5.5-1.724h3.19V392.3a3.491,3.491,0,0,1,.784-2.182,7.254,7.254,0,0,1,2.117-1.793,11.323,11.323,0,0,1,3.126-1.2,16.927,16.927,0,0,1,3.875-.423,17.37,17.37,0,0,1,3.908.423,11.336,11.336,0,0,1,3.157,1.2,7.24,7.24,0,0,1,2.119,1.793,3.5,3.5,0,0,1,.781,2.182ZM666.7,414.248a1.8,1.8,0,0,0,1.259-.42,2.359,2.359,0,0,0,.662-1,4.509,4.509,0,0,0,.232-1.229c.023-.432.032-.778.032-1.038v-7.185h-1.455a2.758,2.758,0,0,0-1.889.518,2.1,2.1,0,0,0-.563,1.617v7.186Q664.98,414.249,666.7,414.248Zm9.157-17.063h5.925v-2.737a1.28,1.28,0,0,0-.877-1.14,5.046,5.046,0,0,0-2.182-.422,4.548,4.548,0,0,0-1.987.422,1.282,1.282,0,0,0-.879,1.14Zm5.925,6.188h-5.925v9.452a1.375,1.375,0,0,0,.943,1.037,5.212,5.212,0,0,0,1.923.322,5.047,5.047,0,0,0,2.182-.42,1.272,1.272,0,0,0,.877-1.133Z" transform="translate(-497.33 -379.013)" fill="#fff"/>
      <path id="Path_108779" data-name="Path 108779" d="M713.313,390.527a20.767,20.767,0,0,1,4.623.847,10.808,10.808,0,0,1,3.584,1.856,8.122,8.122,0,0,1,2.31,2.964,10,10,0,0,1,.814,4.232v17.848a4.69,4.69,0,0,1-2.538,3.971,12.127,12.127,0,0,1-6.645,1.628,11.956,11.956,0,0,1-6.609-1.628,4.7,4.7,0,0,1-2.51-3.971V396.843a8.537,8.537,0,0,0-2.668,1.107,2.479,2.479,0,0,0-1.238,2.216v18.107a3.489,3.489,0,0,1-.783,2.182,7.122,7.122,0,0,1-2.148,1.789,11.775,11.775,0,0,1-3.159,1.2,16.529,16.529,0,0,1-3.812.423,16.811,16.811,0,0,1-3.874-.423,11.284,11.284,0,0,1-3.128-1.2,7.251,7.251,0,0,1-2.117-1.789,3.5,3.5,0,0,1-.78-2.182V392.415a1.527,1.527,0,0,1,1.042-1.4,5.98,5.98,0,0,1,2.538-.487,5.43,5.43,0,0,1,2.379.487,1.525,1.525,0,0,1,1.008,1.4v23.772a1.221,1.221,0,0,0,.849,1.109,5.165,5.165,0,0,0,2.149.389,4.873,4.873,0,0,0,1.987-.389,1.228,1.228,0,0,0,.879-1.109V400.425q0-4.882,2.9-7.1a15.565,15.565,0,0,1,7.977-2.736v-6.253a1.5,1.5,0,0,1,1.012-1.433,6.083,6.083,0,0,1,2.508-.456,5.921,5.921,0,0,1,2.443.456,1.5,1.5,0,0,1,1.009,1.433Zm4.364,9.64a2.5,2.5,0,0,0-1.368-2.41,9.635,9.635,0,0,0-3-.977v19.408q0,1.5,2.213,1.5,2.149,0,2.151-1.5Z" transform="translate(-477.403 -382.45)" fill="#fff"/>
    </g>
  </g>
</svg>
