<svg xmlns="http://www.w3.org/2000/svg" width="36.116" height="25.287" viewBox="0 0 36.116 25.287"><defs><style>.a{fill:#aaa;}.b{fill:#fff;}</style></defs><path class="a" d="M35.372,3.957A4.525,4.525,0,0,0,32.189.773C29.363,0,18.058,0,18.058,0S6.753,0,3.927.744A4.617,4.617,0,0,0,.744,3.957C0,6.783,0,12.644,0,12.644s0,5.89.744,8.687a4.526,4.526,0,0,0,3.183,3.183c2.856.773,14.131.773,14.131.773s11.3,0,14.131-.744a4.525,4.525,0,0,0,3.183-3.183c.744-2.826.744-8.687.744-8.687S36.146,6.783,35.372,3.957Zm0,0"/><path class="b" d="M204.969,113.313l9.4-5.414-9.4-5.414Zm0,0" transform="translate(-190.51 -95.255)"/></svg>